<?xml version="1.0" encoding="UTF-8" standalone="no"?>
<!-- Created with Inkscape (http://www.inkscape.org/) -->

<svg
   width="178.87698mm"
   height="86.604019mm"
   viewBox="0 0 169.877 82.24664"
   version="1.1"
   id="svg5"
   inkscape:version="1.3 (0e150ed6c4, 2023-07-21)"
   sodipodi:docname="Amneal logo.svg"
   xml:space="preserve"
   xmlns:inkscape="http://www.inkscape.org/namespaces/inkscape"
   xmlns:sodipodi="http://sodipodi.sourceforge.net/DTD/sodipodi-0.dtd"
   xmlns="http://www.w3.org/2000/svg"
   xmlns:svg="http://www.w3.org/2000/svg"><sodipodi:namedview
     id="namedview7"
     pagecolor="#ffffff"
     bordercolor="#eeeeee"
     borderopacity="1"
     inkscape:pageshadow="0"
     inkscape:pageopacity="0"
     inkscape:pagecheckerboard="0"
     inkscape:document-units="mm"
     showgrid="false"
     inkscape:zoom="2.0359278"
     inkscape:cx="72.69413"
     inkscape:cy="-5.1573538"
     inkscape:window-width="1920"
     inkscape:window-height="1017"
     inkscape:window-x="1912"
     inkscape:window-y="-8"
     inkscape:window-maximized="1"
     inkscape:current-layer="layer1"
     fit-margin-top="10"
     lock-margins="true"
     fit-margin-left="10"
     fit-margin-right="10"
     fit-margin-bottom="10"
     inkscape:showpageshadow="2"
     inkscape:deskcolor="#d1d1d1" /><defs
     id="defs2" /><g
     inkscape:label="Layer 1"
     inkscape:groupmode="layer"
     id="layer1"
     transform="translate(-24.954313,-78.963002)"><g
       id="g1"
       transform="translate(-195.16781,-3.2350352)"
       inkscape:export-filename="AmnealLogo.png"
       inkscape:export-xdpi="96"
       inkscape:export-ydpi="96"><path
         style="fill:#d9a460;fill-opacity:1;stroke-width:0.264583"
         d="m 239.10841,155.88036 c 0,-0.7622 1.38844,-7.19435 2.14437,-9.93414 0.44048,-1.59647 1.6264,-5.44218 2.63537,-8.54603 2.35993,-7.25976 2.89318,-9.33206 2.89318,-11.24337 0,-1.38583 -0.39824,-1.93309 -0.81127,-2.36928 -0.47106,-0.49747 -0.8377,-0.80917 -2.84427,-0.6504 -2.96374,0.23451 -9.09185,2.43923 -14.93046,5.37156 -1.3042,0.655 -2.41084,1.15133 -2.45922,1.10295 -0.0875,-0.0875 0.93603,-0.74942 11.7848,-7.62072 19.13861,-12.12186 35.73909,-20.97906 47.03664,-25.096464 l 2.18977,-0.798062 -1.33417,1.496904 c -2.51616,2.823062 -2.96941,4.841082 -1.6803,7.481242 0.53694,1.09968 1.90002,2.62252 5.75468,6.42913 2.7781,2.74348 4.81297,4.89759 4.52192,4.78691 -3.55738,-1.35276 -8.45929,-2.83005 -10.56425,-3.18376 -3.50322,-0.58867 -8.25076,-0.40606 -10.867,0.41799 -5.11937,1.61247 -10.93795,5.45586 -15.50432,10.24119 -5.36129,5.61838 -8.87106,11.64773 -14.52411,24.95058 -2.8601,6.73044 -3.44136,7.94043 -3.44136,7.16377 z m 16.79353,-49.73801 c 0.45475,-1.43279 3.41556,-7.708548 4.74215,-10.051492 3.97248,-7.015983 6.86693,-8.257019 10.76147,-4.614135 1.36278,1.274728 4.09939,4.548312 3.91685,4.685422 -0.0541,0.04064 -0.75322,0.34812 -1.55358,0.683289 -3.95178,1.654881 -14.2444,7.050686 -16.53646,8.876926 -1.7107,1.36303 -1.53265,1.05713 -1.33043,0.41999 z"
         id="path1117"
         sodipodi:nodetypes="sssssssssscssscssssssssssss" /><path
         id="path2403"
         style="font-size:23.7712px;line-height:1.25;font-family:'FONTSPRING DEMO - PODIUM Sharp 7.8';-inkscape-font-specification:'FONTSPRING DEMO - PODIUM Sharp 7.8, ';text-align:center;text-anchor:middle;fill:#043864;stroke-width:1.48569"
         d="m 383.43586,120.73716 c -0.64609,0 -1.16995,0.52596 -1.16995,1.17202 0,0.64606 0.52386,1.17202 1.16995,1.17202 0.6461,0 1.17203,-0.52596 1.17203,-1.17202 0,-0.64606 -0.52593,-1.17202 -1.17203,-1.17202 z m -6.7355,0.0171 v 17.1421 h 4.34495 v -17.1421 z m 6.7355,0.15503 c 0.55347,0 1.00201,0.44652 1.00201,0.99993 0,0.55342 -0.44854,0.99994 -1.00201,0.99994 -0.55346,0 -0.99994,-0.44652 -0.99994,-0.99994 0,-0.55341 0.44648,-0.99993 0.99994,-0.99993 z m -0.40824,0.29972 v 1.40146 h 0.18345 v -0.53691 h 0.21187 l 0.21653,0.53691 h 0.20567 l -0.22634,-0.55138 c 0.17718,-0.0377 0.22737,-0.15099 0.22737,-0.31988 v -0.19792 c 0,-0.20841 -0.0761,-0.33228 -0.3762,-0.33228 z m 0.18345,0.19224 h 0.2589 c 0.16523,0 0.19224,0.0722 0.19224,0.16019 v 0.15813 c 0,0.0988 -0.027,0.16175 -0.19224,0.16175 h -0.2589 z m -113.70055,3.72638 c -6.55637,0 -8.43359,1.27478 -8.43359,3.64836 v 1.20871 h 4.26847 v -1.14308 c 0,-0.98899 0.64268,-1.56011 4.16512,-1.56011 4.08808,0 4.31911,1.16455 4.31911,2.26343 v 2.13216 c -1.10558,-0.59339 -3.13635,-0.96738 -6.29884,-0.96738 -5.42506,0 -6.89053,1.31889 -6.89053,3.05511 v 1.34049 c 0,1.7582 1.46547,3.12074 6.89053,3.12074 3.57387,0 5.75913,-0.54904 6.76186,-1.31827 l 0.23151,0.98857 h 3.65094 v -8.21913 c 0,-2.52742 -1.36259,-4.5496 -8.66458,-4.5496 z m 22.08599,0 c -2.62255,0 -4.47418,0.59349 -5.63118,1.73633 l -0.25683,-1.42885 h -3.65094 v 12.48348 h 4.34495 V 129.809 c 0,-1.64831 1.46547,-2.46186 3.85661,-2.46186 2.41686,0 3.59978,0.70345 3.59978,2.39571 v 8.17574 h 4.08813 V 129.809 c 0,-1.64831 1.46558,-2.46186 3.88245,-2.46186 2.39114,0 3.57394,0.70345 3.57394,2.39571 v 8.17574 h 4.34495 v -8.35143 c 0,-3.01093 -2.08256,-4.43953 -6.47919,-4.43953 -2.93107,0 -4.85943,0.65925 -5.96501,1.99988 -0.9256,-1.34063 -2.85372,-1.99988 -5.70766,-1.99988 z m 32.39595,0 c -3.2139,0 -5.21921,0.65935 -6.45335,1.86811 l -0.25735,-1.56063 h -3.65094 v 12.46125 h 4.34496 v -7.9778 c 0,-1.58238 1.4658,-2.57142 4.55114,-2.57142 3.11106,0 4.29379,0.90115 4.29379,2.52749 v 8.02173 h 4.34496 v -8.19743 c 0,-2.94499 -2.10809,-4.5713 -7.17321,-4.5713 z m 19.43758,0 c -7.40484,0 -8.76743,2.02218 -8.76743,4.5496 v 3.99975 c 0,2.52742 1.36259,4.54908 8.76743,4.54908 6.81347,0 8.71626,-1.3182 8.71626,-3.69177 v -0.87953 h -4.29379 v 0.85732 c 0,0.98899 -0.66864,1.56062 -4.42247,1.56062 -4.16523,0 -4.42247,-1.16506 -4.42247,-2.26394 v -1.71411 h 13.13873 v -3.16466 c 0,-2.3516 -1.90279,-3.80236 -8.71626,-3.80236 z m 20.72328,0 c -6.55636,0 -8.43308,1.27478 -8.43308,3.64836 v 1.20871 h 4.26796 v -1.14308 c 0,-0.98899 0.64269,-1.56011 4.16512,-1.56011 4.08808,0 4.31963,1.16455 4.31963,2.26343 v 2.13216 c -1.10559,-0.59339 -3.13687,-0.96738 -6.29936,-0.96738 -5.42506,0 -6.89053,1.31889 -6.89053,3.05511 v 1.34049 c 0,1.7582 1.46547,3.12074 6.89053,3.12074 3.57387,0 5.75912,-0.54904 6.76187,-1.31827 l 0.23151,0.98857 h 3.65094 v -8.21913 c 0,-2.52742 -1.36261,-4.5496 -8.66459,-4.5496 z m -20.72328,2.15388 c 3.75383,0 4.42247,0.68119 4.42247,1.67018 v 1.47278 h -8.84494 v -0.87953 c 0,-1.09888 0.25724,-2.26343 4.42247,-2.26343 z m -74.4337,5.38468 c 3.88239,0 4.83329,0.57111 4.83329,1.18649 v 1.16479 c 0,0.63735 -0.9509,1.20871 -4.83329,1.20871 -3.47102,0 -4.01113,-0.57136 -4.01113,-1.20871 v -1.16479 c 0,-0.61538 0.54011,-1.18649 4.01113,-1.18649 z m 94.6428,0 c 3.88239,0 4.83381,0.57111 4.83381,1.18649 v 1.16479 c 0,0.63735 -0.95142,1.20871 -4.83381,1.20871 -3.47102,0 -4.01113,-0.57136 -4.01113,-1.20871 v -1.16479 c 0,-0.61538 0.54011,-1.18649 4.01113,-1.18649 z" /></g><g
       id="g38081"
       transform="translate(337.38722,80.15699)"><g
         aria-label="R"
         transform="scale(0.77785393,1.2855884)"
         id="text27032"
         style="font-size:1.39752px;line-height:1.25;font-family:'FONTSPRING DEMO - PODIUM Sharp 7.8';-inkscape-font-specification:'FONTSPRING DEMO - PODIUM Sharp 7.8, ';text-align:center;text-anchor:middle;fill:#003865;stroke-width:0.0873448" /></g><g
       id="g1-2"
       transform="translate(-81.703592,-43.033786)"><text
         xml:space="preserve"
         style="font-size:4.02034px;line-height:1.25;font-family:Arial;-inkscape-font-specification:Arial;stroke-width:0.251271"
         x="76.638748"
         y="91.550705"
         id="text5"><tspan
           sodipodi:role="line"
           id="tspan5"
           style="font-style:normal;font-variant:normal;font-weight:normal;font-stretch:normal;font-family:'FONTSPRING DEMO - PODIUM Sharp 8.8';-inkscape-font-specification:'FONTSPRING DEMO - PODIUM Sharp 8.8, ';stroke-width:0.251271"
           x="76.638748"
           y="91.550705">Podium Sharp</tspan><tspan
           sodipodi:role="line"
           style="font-style:normal;font-variant:normal;font-weight:normal;font-stretch:normal;font-family:'FONTSPRING DEMO - PODIUM Sharp 8.8';-inkscape-font-specification:'FONTSPRING DEMO - PODIUM Sharp 8.8, ';stroke-width:0.251271"
           x="76.638748"
           y="96.673607"
           id="tspan1-0">Fontspring-DEMO-podiumsharp-8.8</tspan></text></g></g></svg>
