<?xml version="1.0" encoding="UTF-8" standalone="no"?>
<!-- Created with Inkscape (http://www.inkscape.org/) -->

<svg
   width="107.65466mm"
   height="104.98865mm"
   viewBox="0 0 107.65466 104.98865"
   version="1.1"
   id="svg5"
   inkscape:version="1.4 (86a8ad7, 2024-10-11)"
   sodipodi:docname="amnealXX.svg"
   xml:space="preserve"
   xmlns:inkscape="http://www.inkscape.org/namespaces/inkscape"
   xmlns:sodipodi="http://sodipodi.sourceforge.net/DTD/sodipodi-0.dtd"
   xmlns="http://www.w3.org/2000/svg"
   xmlns:svg="http://www.w3.org/2000/svg"><sodipodi:namedview
     id="namedview7"
     pagecolor="#ffffff"
     bordercolor="#eeeeee"
     borderopacity="1"
     inkscape:pageshadow="0"
     inkscape:pageopacity="0"
     inkscape:pagecheckerboard="true"
     inkscape:document-units="mm"
     showgrid="false"
     inkscape:zoom="1.8101934"
     inkscape:cx="213.23688"
     inkscape:cy="198.59756"
     inkscape:window-width="1920"
     inkscape:window-height="1017"
     inkscape:window-x="-8"
     inkscape:window-y="-8"
     inkscape:window-maximized="1"
     fit-margin-top="10"
     lock-margins="true"
     fit-margin-left="10"
     fit-margin-right="10"
     fit-margin-bottom="10"
     inkscape:showpageshadow="2"
     inkscape:deskcolor="#d1d1d1"
     showguides="true"
     inkscape:current-layer="layer4"><inkscape:page
       x="2.5520666e-12"
       y="0"
       width="107.65466"
       height="104.98865"
       id="page2"
       margin="0"
       bleed="0" /></sodipodi:namedview><defs
     id="defs2" /><g
     inkscape:groupmode="layer"
     id="layer4"
     inkscape:label="Logo"
     transform="translate(2222.2361,-420.49832)"><path
       style="display:inline;fill:none;fill-opacity:1;stroke:#f9f9f9;stroke-width:1.99397;stroke-linecap:round;stroke-linejoin:round"
       d="m -2200.5466,524.19539 c 0,-1.17901 2.1477,-11.12858 3.317,-15.36662 0.6813,-2.4695 2.5159,-8.41824 4.0765,-13.21942 3.6505,-11.22976 4.4754,-14.43529 4.4754,-17.3918 0,-2.14367 -0.1388,-2.5487 -1.255,-3.66491 -1.2385,-1.23858 -1.2957,-1.25167 -4.3996,-1.00608 -4.5845,0.36275 -14.0637,3.77311 -23.0952,8.30899 -2.0174,1.01319 -3.7291,1.78095 -3.8041,1.70609 -0.1354,-0.13534 1.4479,-1.15924 18.2294,-11.78809 29.6045,-18.75069 55.2828,-32.45143 72.7586,-38.82044 l 3.3872,-1.23449 -2.0637,2.31549 c -3.8922,4.36684 -4.5933,7.48843 -2.5993,11.57235 0.8306,1.70104 2.9391,4.05665 8.9017,9.94489 4.2972,4.24376 7.4448,7.57584 6.9948,7.40462 -5.5028,-2.0925 -13.0853,-4.37767 -16.3413,-4.92479 -1.8651,-0.31339 -3.9581,-0.48547 -6.0663,-0.52441 -4.0172,-0.0742 -8.0893,0.33501 -10.7434,1.17099 -7.9189,2.49429 -16.9194,8.43939 -23.9828,15.84157 -8.2931,8.69079 -13.7222,18.01728 -22.4667,38.59479 -4.4241,10.41097 -5.3232,12.28264 -5.3232,11.08127 z m 25.977,-76.93721 c 0.7034,-2.2163 5.2834,-11.92396 7.3355,-15.54813 6.1448,-10.85267 10.622,-12.77237 16.6462,-7.13739 2.1082,1.97182 6.3412,7.03556 6.0588,7.24765 -0.083,0.0627 -1.1651,0.53849 -2.4032,1.05694 -6.1127,2.55985 -22.0339,10.90636 -25.5793,13.73127 -2.6461,2.1084 -2.3709,1.63523 -2.058,0.64966 z"
       id="path1117-7-1-8"
       sodipodi:nodetypes="sssssssssscssscsssssssssssss"
       inkscape:export-filename="C:\xampp\htdocs\sheener\img\amnealXX.svg"
       inkscape:export-xdpi="140"
       inkscape:export-ydpi="140" /></g></svg>
