<?xml version="1.0" encoding="UTF-8" standalone="no"?>
<!-- Created with Inkscape (http://www.inkscape.org/) -->

<svg
   width="51.665359mm"
   height="86.655273mm"
   viewBox="0 0 49.065878 82.295316"
   version="1.1"
   id="svg5"
   inkscape:version="1.4.2 (f4327f4, 2025-05-13)"
   sodipodi:docname="Amneal_A_Logo_new1.svg"
   xml:space="preserve"
   xmlns:inkscape="http://www.inkscape.org/namespaces/inkscape"
   xmlns:sodipodi="http://sodipodi.sourceforge.net/DTD/sodipodi-0.dtd"
   xmlns:xlink="http://www.w3.org/1999/xlink"
   xmlns="http://www.w3.org/2000/svg"
   xmlns:svg="http://www.w3.org/2000/svg"><sodipodi:namedview
     id="namedview7"
     pagecolor="#959595"
     bordercolor="#eeeeee"
     borderopacity="1"
     inkscape:pageshadow="0"
     inkscape:pageopacity="0"
     inkscape:pagecheckerboard="0"
     inkscape:document-units="mm"
     showgrid="false"
     inkscape:zoom="2.5218957"
     inkscape:cx="71.573142"
     inkscape:cy="242.87285"
     inkscape:window-width="1920"
     inkscape:window-height="1009"
     inkscape:window-x="-8"
     inkscape:window-y="-8"
     inkscape:window-maximized="1"
     inkscape:current-layer="layer1"
     fit-margin-top="10"
     lock-margins="true"
     fit-margin-left="10"
     fit-margin-right="10"
     fit-margin-bottom="10"
     inkscape:showpageshadow="2"
     inkscape:deskcolor="#d1d1d1"><inkscape:page
       x="3.1924284e-07"
       y="1.7131587e-13"
       width="49.065876"
       height="82.295319"
       id="page2"
       margin="0"
       bleed="0" /></sodipodi:namedview><defs
     id="defs2"><linearGradient
       id="linearGradient4"
       inkscape:collect="always"><stop
         style="stop-color:#ffffff;stop-opacity:0.25291181;"
         offset="0"
         id="stop4" /><stop
         style="stop-color:#ffffff;stop-opacity:0;"
         offset="1"
         id="stop5" /></linearGradient><filter
       style="color-interpolation-filters:sRGB"
       inkscape:label="Blur"
       id="filter2"
       x="-0.079371568"
       y="-2.4917316"
       width="1.1587431"
       height="5.9834632"><feGaussianBlur
         stdDeviation="2 2"
         result="blur"
         id="feGaussianBlur2" /></filter><linearGradient
       inkscape:collect="always"
       xlink:href="#linearGradient4"
       id="linearGradient3"
       x1="108.55668"
       y1="15.938829"
       x2="107.93723"
       y2="39.722694"
       gradientUnits="userSpaceOnUse"
       gradientTransform="translate(0,1.8021711)" /></defs><g
     inkscape:label="Layer 1"
     inkscape:groupmode="layer"
     id="layer1"
     transform="translate(-84.023744,25.743471)"><path
       style="fill:#ffffff;stroke-width:0.538999"
       d="m 90.118634,15.487448 c -0.529723,-0.23995 -1.218913,-0.84848 -1.218913,-1.07624 0,-0.0818 0.198074,-0.26258 0.440164,-0.40189 0.388396,-0.22347 2.839517,-1.8359 3.758315,-2.47233 2.116266,-1.46588 9.72565,-8.4221399 9.54054,-8.7216499 -0.11876,-0.19216 -0.71522,-0.14088 -1.82075,0.15652 -1.10617,0.29757 -3.089731,0.70807 -4.543723,0.94035 -1.268013,0.20256 -4.979055,0.19626 -5.817045,-0.0102 -0.931785,-0.22922 -1.646861,-0.60756 -1.911402,-1.0113 -0.287265,-0.43842 -0.172973,-1.20348 0.246962,-1.65316 1.476919,-1.58152998 6.151787,-2.50085 11.009441,-2.16503998 2.252557,0.15573 3.176027,0.047 6.423357,-0.75666002 1.10369,-0.27312 1.16906,-0.31176 1.97933,-1.16977 1.68723,-1.78665 5.99318,-6.9055901 7.30775,-8.6875301 0.14898,-0.20194 0.97244,-1.30254 1.82991,-2.44576 0.85747,-1.14323 1.66253,-2.23095 1.78901,-2.41718 0.12648,-0.18622 0.47354,-0.67379 0.77124,-1.08348 0.75218,-1.03515 3.20724,-4.71506 4.29188,-6.43315 0.14108,-0.22347 0.41563,-0.71103 0.61012,-1.08347 0.19449,-0.372449 0.46119,-0.698354 0.59266,-0.724238 0.76848,-0.151298 2.62661,0.891658 3.15278,1.769628 0.67065,1.11904 0.64019,2.0111 -0.17241,5.04917 -0.19923,0.74489 -0.41179,1.56766 -0.47235,1.82836 -0.0606,0.26072 -0.20507,0.80923 -0.32114,1.21892 -0.21887,0.77258 -1.62446,6.38388 -2.10221,8.3922601 -0.15,0.63057 -0.25106,1.16816 -0.22459,1.19463 0.0723,0.0723 3.2025,-0.71614 5.05405,-1.27304 0.98159,-0.29523 1.17289,-0.20011 1.05688,0.52553 -0.14228,0.88994 -0.638,1.60228 -1.4532,2.08823 -0.70959,0.42299 -4.55437,1.80192 -5.02667,1.80281 -0.27744,5.3e-4 -0.42192,0.3145 -0.62344,1.3548 -0.49396,2.55007002 -0.61439,3.23707 -1.0209,5.8237 -0.53763,3.42098 -0.62164,4.29587 -0.62146,6.4717699 1.9e-4,2.3539 -0.0721,2.57472 -0.95867,2.92946 -0.66804,0.2673 -2.17872,0.28063 -2.67077,0.0236 -0.45808,-0.23932 -0.96421,-0.78247 -1.46262,-1.56959 -0.67674,-1.06877 -1.97835,-2.5732899 -2.96115,-3.4227999 -1.86784,-1.61449 -5.35439,-3.62196 -7.00143,-4.03123 l -0.58791,-0.14609 -2.43782,2.39208 c -2.63817,2.58865 -4.689447,4.4214299 -6.460184,5.7720299 -1.420419,1.08341 -3.688295,2.45211 -4.67428,2.82102 -1.028365,0.38476 -2.662786,0.48444 -3.289352,0.20063 z M 118.27131,5.9765281 c 0.22057,-1.62071 0.65232,-4.19094 0.96119,-5.72212998 0.2425,-1.20216 0.29644,-1.89608002 0.14739,-1.89608002 -0.0796,0 -1.59172,0.36258 -3.36031,0.80574002 -1.76858,0.44315 -3.52034,0.87233 -3.89279,0.95371 -1.37344,0.3001 -1.67426,0.44069 -2.11417,0.98809998 -0.41508,0.51651 -0.42374,0.55056 -0.18441,0.72557 0.13811,0.10096 0.33171,0.18362 0.43022,0.18362 0.0985,0 0.28493,0.0561 0.41428,0.12462 0.12934,0.0686 0.75386,0.36569 1.38781,0.66034 1.60552,0.74621 3.86164,2.28904 4.96269,3.39372 0.51,0.51168 0.96318,0.93877 1.00705,0.94908 0.0439,0.0102 0.15235,-0.51451 0.24105,-1.16629 z m -3.0384,-9.72613 c 0.93042,-0.23993 1.60693,-0.40961 2.34513,-0.58823 0.27934,-0.0675 0.84309,-0.21382 1.25278,-0.32496 0.40969,-0.11112 0.90432,-0.23778 1.09918,-0.28144 0.27952,-0.0626 0.38605,-0.20126 0.50478,-0.65695 0.62436,-2.39631 2.30572,-9.3761801 2.26775,-9.4141501 -0.026,-0.026 -0.49642,0.60051 -1.04533,1.39231 -1.58462,2.28579 -4.40622,6.0711201 -5.9528,7.9860101 -0.7821,0.96836 -1.46875,1.83684 -1.52589,1.92995 -0.13682,0.22294 0.0548,0.21522 1.0544,-0.0426 z"
       id="path1-4"
       sodipodi:nodetypes="cscsssscssscssssssssssssssssssssssccsscsssccsssssscscsscsccccssssscc" /><path
       style="fill:url(#linearGradient3);fill-opacity:1;stroke-width:0.538999"
       d="m 90.118629,17.123097 c -0.529723,0.23995 -1.218913,0.84848 -1.218913,1.07624 0,0.0818 0.198074,0.26258 0.440164,0.40189 0.388396,0.22347 2.839517,1.8359 3.758315,2.47233 2.11627,1.46588 9.725655,8.42214 9.540545,8.72165 -0.11876,0.19216 -0.71522,0.14088 -1.82075,-0.15652 -1.106169,-0.29757 -3.089732,-0.70807 -4.543725,-0.94035 -1.26802,-0.20256 -4.979058,-0.19626 -5.817048,0.0102 -0.931785,0.22922 -1.646861,0.60756 -1.911402,1.0113 -0.287265,0.43842 -0.172973,1.20348 0.246962,1.65316 1.476919,1.58153 6.151788,2.50085 11.009444,2.16504 2.252559,-0.15573 3.176029,-0.047 6.423359,0.75666 1.10369,0.27312 1.16906,0.31176 1.97933,1.16977 1.68723,1.78665 5.99318,6.90559 7.30775,8.68753 0.14898,0.20194 0.97244,1.30254 1.82991,2.44576 0.85747,1.14323 1.66253,2.23095 1.78901,2.41718 0.12648,0.18622 0.47354,0.67379 0.77124,1.08348 0.75218,1.03515 3.20724,4.71506 4.29188,6.43315 0.14108,0.22347 0.41563,0.71103 0.61012,1.08347 0.19449,0.372448 0.46119,0.698353 0.59266,0.724237 0.76848,0.151298 2.62661,-0.891657 3.15278,-1.769627 0.67065,-1.11904 0.64019,-2.0111 -0.17241,-5.04917 -0.19923,-0.74489 -0.41179,-1.56766 -0.47235,-1.82836 -0.0606,-0.26072 -0.20507,-0.80923 -0.32114,-1.21892 -0.21887,-0.77258 -1.62446,-6.38388 -2.10221,-8.39226 -0.15,-0.63057 -0.25106,-1.16816 -0.22459,-1.19463 0.0723,-0.0723 3.2025,0.71614 5.05405,1.27304 0.98159,0.29523 1.17289,0.20011 1.05688,-0.52553 -0.14228,-0.88994 -0.638,-1.60228 -1.4532,-2.08823 -0.70959,-0.42299 -4.55437,-1.80192 -5.02667,-1.80281 -0.27744,-5.3e-4 -0.42192,-0.3145 -0.62344,-1.3548 -0.49396,-2.55007 -0.61439,-3.23707 -1.0209,-5.8237 -0.53763,-3.42098 -0.62164,-4.29587 -0.62146,-6.47177 1.9e-4,-2.3539 -0.0721,-2.57472 -0.95867,-2.92946 -0.66804,-0.2673 -2.17872,-0.28063 -2.67077,-0.0236 -0.45808,0.23932 -0.96421,0.78247 -1.46262,1.56959 -0.67674,1.06877 -1.97835,2.57329 -2.96115,3.4228 -1.86784,1.61449 -5.35439,3.62196 -7.00143,4.03123 l -0.58791,0.14609 -2.43782,-2.39208 c -2.63817,-2.58865 -4.689449,-4.42143 -6.460182,-5.77203 -1.420423,-1.08341 -3.688302,-2.45211 -4.674287,-2.82102 -1.028365,-0.38476 -2.662786,-0.48444 -3.289352,-0.20063 z m 28.152681,9.51092 c 0.22057,1.62071 0.65232,4.19094 0.96119,5.72213 0.2425,1.20216 0.29644,1.89608 0.14739,1.89608 -0.0796,0 -1.59172,-0.36258 -3.36031,-0.80574 -1.76858,-0.44315 -3.52034,-0.87233 -3.89279,-0.95371 -1.37344,-0.3001 -1.67426,-0.44069 -2.11417,-0.9881 -0.41508,-0.51651 -0.42374,-0.55056 -0.18441,-0.72557 0.13811,-0.10096 0.33171,-0.18362 0.43022,-0.18362 0.0985,0 0.28493,-0.0561 0.41428,-0.12462 0.12934,-0.0686 0.75386,-0.36569 1.38781,-0.66034 1.60552,-0.74621 3.86164,-2.28904 4.96269,-3.39372 0.51,-0.51168 0.96318,-0.93877 1.00705,-0.94908 0.0439,-0.0102 0.15235,0.51451 0.24105,1.16629 z m -3.0384,9.72613 c 0.93042,0.23993 1.60693,0.40961 2.34513,0.58823 0.27934,0.0675 0.84309,0.21382 1.25278,0.32496 0.40969,0.11112 0.90432,0.23778 1.09918,0.28144 0.27952,0.0626 0.38605,0.20126 0.50478,0.65695 0.62436,2.39631 2.30572,9.37618 2.26775,9.41415 -0.026,0.026 -0.49642,-0.60051 -1.04533,-1.39231 -1.58462,-2.28579 -4.40622,-6.07112 -5.9528,-7.98601 -0.7821,-0.96836 -1.46875,-1.83684 -1.52589,-1.92995 -0.13682,-0.22294 0.0548,-0.21522 1.0544,0.0426 z"
       id="path1-4-9"
       sodipodi:nodetypes="cscsssscssscssssssssssssssssssssssccsscsssccsssssscscsscsccccssssscc" /></g></svg>
