<?xml version="1.0" encoding="UTF-8" standalone="no"?>
<!-- Created with Inkscape (http://www.inkscape.org/) -->

<svg
   width="270.90961mm"
   height="270.70947mm"
   viewBox="0 0 270.90961 270.70947"
   version="1.1"
   id="svg1"
   xml:space="preserve"
   inkscape:version="1.4 (86a8ad7, 2024-10-11)"
   sodipodi:docname="AmnealAppLogo.svg"
   xmlns:inkscape="http://www.inkscape.org/namespaces/inkscape"
   xmlns:sodipodi="http://sodipodi.sourceforge.net/DTD/sodipodi-0.dtd"
   xmlns="http://www.w3.org/2000/svg"
   xmlns:svg="http://www.w3.org/2000/svg"><sodipodi:namedview
     id="namedview1"
     pagecolor="#ffffff"
     bordercolor="#999999"
     borderopacity="1"
     inkscape:showpageshadow="0"
     inkscape:pageopacity="0"
     inkscape:pagecheckerboard="0"
     inkscape:deskcolor="#d1d1d1"
     inkscape:document-units="mm"
     inkscape:zoom="0.23363923"
     inkscape:cx="273.9266"
     inkscape:cy="177.62428"
     inkscape:window-width="1920"
     inkscape:window-height="1017"
     inkscape:window-x="-8"
     inkscape:window-y="-8"
     inkscape:window-maximized="1"
     inkscape:current-layer="layer1" /><defs
     id="defs1" /><g
     inkscape:label="Layer 1"
     inkscape:groupmode="layer"
     id="layer1"
     transform="translate(-55.177873,-10.223939)"><g
       id="g1"
       transform="translate(325.83333,20.902843)"><path
         style="fill:#0a305d;fill-opacity:1"
         d="m -216.04453,259.72063 c -14.04893,-1.41856 -26.94788,-7.56575 -36.85558,-17.56408 -4.98804,-5.03366 -8.43626,-9.88555 -11.58182,-16.29643 -2.98647,-6.08664 -4.48969,-10.94126 -5.61205,-18.12395 -0.3936,-2.51891 -0.44261,-10.08577 -0.52524,-81.09479 -0.0931,-80.009987 -0.0747,-81.787577 0.90424,-87.532887 2.29225,-13.4526 9.50135,-26.21124 19.80378,-35.0486553 8.82063,-7.566329 19.37598,-12.3929427 31.21595,-14.2740357 2.73013,-0.433752 8.0158,-0.463172 83.21635,-0.463172 88.62922,0 82.4699,-0.118593 89.85125,1.730026 18.51719,4.63753 33.58023,17.3840467 40.9486002,34.651177 2.33167,5.46407 4.13814999,12.64699 4.65768999,18.51984 0.3624,4.09653 0.36951,155.267787 0.008,159.676037 -0.69147,8.42031 -2.38585999,14.68047 -5.94387999,21.96041 -4.02764,8.24085 -9.4726902,15.1023 -16.3298602,20.57771 -8.92516,7.12668 -18.5399,11.35094 -29.8115,13.09775 -2.56179,0.39702 -9.88611,0.44045 -81.66003,0.48425 -63.43678,0.0387 -79.51805,-0.0198 -82.28542,-0.2992 z"
         id="path2"
         sodipodi:nodetypes="sssssssssssscssssss"
         inkscape:export-filename="C:\xampp\htdocs\sheener\img\icons\icon-192x192a.png"
         inkscape:export-xdpi="60"
         inkscape:export-ydpi="60" /><g
         id="g2"
         transform="translate(-327.27629,-25.250677)"><path
           style="fill:#ffff00;stroke-width:0.585166"
           d="m 240.98348,174.9847 c 3.44659,-0.98958 6.42793,-3.49053 7.89289,-6.62108 0.85718,-1.83176 1.13587,-3.32883 1.04663,-5.62241 -0.11791,-3.03045 -0.47067,-3.97284 -3.24798,-8.67692 -3.52601,-5.9722 -5.22056,-8.85383 -8.23965,-14.01169 -4.10188,-7.00772 -8.01313,-13.66768 -11.73202,-19.97696 -0.72925,-1.23721 -2.16,-3.67571 -3.17946,-5.41888 -2.16436,-3.70086 -3.2811,-5.60786 -6.43464,-10.98809 -1.27276,-2.17143 -2.44006,-4.169927 -2.594,-4.441127 -0.15395,-0.2712 -0.46128,-0.7804 -0.68295,-1.13156 -0.22168,-0.35116 -1.1922,-2.0104 -2.15672,-3.6872 -2.79815,-4.86454 -8.42202,-14.41197 -9.01979,-15.31255 -1.3064,-1.96818 -3.65808,-3.85605 -5.87643,-4.71743 -1.50655,-0.585 -3.95777,-0.95749 -5.49776,-0.83545 -1.57672,0.12494 -3.36536,0.59497 -4.73699,1.2448 -2.9653,1.40487 -4.33958,2.93862 -7.42686,8.28876 -0.76163,1.31988 -2.48779,4.28092 -3.8359,6.58007 -1.34811,2.29916 -3.1788,5.43437 -4.0682,6.96714 -0.8894,1.53277 -1.8081,3.10037 -2.04155,3.483557 -0.79982,1.31284 -3.53614,5.96233 -6.46936,10.9926 -1.61377,2.7675 -4.73287,8.09736 -6.93133,11.84413 -5.17113,8.813 -5.54653,9.45294 -7.81059,13.31497 -1.97431,3.36778 -3.69592,6.292 -5.74256,9.754 -0.65444,1.107 -2.28326,3.87853 -3.61961,6.15896 -4.31267,7.35944 -4.34985,7.4545 -4.34206,11.10405 0.005,2.18774 0.042,2.50924 0.4219,3.63839 1.48231,4.40525 5.25414,7.5963 9.79145,8.28378 0.42576,0.0645 22.09356,0.1078 48.15065,0.0962 45.74773,-0.0204 47.41113,-0.0311 48.38289,-0.31005 z"
           id="path1"
           sodipodi:nodetypes="sssssssssssssssssssssssssssscs" /><text
           xml:space="preserve"
           style="font-size:38.0789px;line-height:1.25;font-family:Michroma;-inkscape-font-specification:Michroma;text-align:center;letter-spacing:3.96875px;text-anchor:middle;fill:#ffff00;stroke:#ffff00;stroke-width:1.39523"
           x="191.44603"
           y="213.92564"
           id="text2"><tspan
             sodipodi:role="line"
             id="tspan2"
             x="193.4304"
             y="213.92564"
             style="letter-spacing:3.96875px;fill:#ffff00;stroke:#ffff00;stroke-width:1.39523">EHS</tspan></text></g><path
         style="fill:#0a305d;fill-opacity:1;stroke-width:1.25015"
         d="m -193.82022,155.33455 c -1.22862,-0.55653 -2.82715,-1.96797 -2.82715,-2.49623 0,-0.18966 0.45942,-0.60902 1.02092,-0.93214 0.90087,-0.51831 6.58595,-4.25818 8.71699,-5.73429 4.90846,-3.39993 22.55758,-19.53422 22.12823,-20.2289 -0.27545,-0.4457 -1.65886,-0.32675 -4.22301,0.36302 -2.56565,0.69019 -7.16629,1.64229 -10.53866,2.18104 -2.94101,0.46982 -11.54837,0.4552 -13.49199,-0.0237 -2.16118,-0.53163 -3.81972,-1.40917 -4.4333,-2.3456 -0.66627,-1.01685 -0.40118,-2.79133 0.57281,-3.83431 3.42552,-3.66819 14.26837,-5.80044 25.53516,-5.02157 5.22456,0.36121 7.36646,0.10905 14.89828,-1.75499 2.55988,-0.63348 2.71151,-0.72312 4.59085,-2.71314 3.91332,-4.14396 13.90051,-16.016777 16.94951,-20.149807 0.34555,-0.46835 2.25546,-3.02106 4.24427,-5.67264 1.9888,-2.651618 3.85605,-5.174462 4.1494,-5.606411 0.29336,-0.431921 1.09833,-1.562788 1.78881,-2.512997 1.7446,-2.400923 7.43884,-10.936059 9.95457,-14.921002 0.3272,-0.518319 0.96399,-1.649147 1.41509,-2.512983 0.4511,-0.863853 1.06967,-1.619752 1.37462,-1.679804 1.78238,-0.350904 6.09211,2.068115 7.31251,4.104457 1.5555,2.595498 1.48485,4.664532 -0.39987,11.711008 -0.46211,1.727688 -0.9551,3.636009 -1.09558,4.240665 -0.14056,0.604732 -0.47563,1.876927 -0.74484,2.827153 -0.50765,1.791926 -3.76777,14.806714 -4.87586,19.464961 -0.34788,1.46252 -0.58229,2.70942 -0.52091,2.77081 0.16762,0.16761 7.42786,-1.66102 11.72233,-2.9527 2.27669,-0.68474 2.72038,-0.46412 2.45131,1.21895 -0.33001,2.06408 -1.47976,3.71628 -3.37055,4.84339 -1.6458,0.98109 -10.56335,4.17934 -11.6588,4.18141 -0.64348,10e-4 -0.97859,0.72945 -1.446,3.14233 -1.14569,5.9146 -1.425,7.50803 -2.36787,13.50742 -1.24696,7.93457 -1.44181,9.96381 -1.4414,15.01054 4.4e-4,5.45962 -0.16718,5.9718 -2.22353,6.79456 -1.54944,0.62 -5.0533,0.6509 -6.19457,0.0546 -1.06246,-0.55507 -2.23637,-1.81485 -3.39237,-3.64047 -1.56962,-2.4789 -4.58858,-5.96848 -6.86808,-7.93883 -4.33222,-3.74461 -12.41891,-8.40075 -16.23903,-9.34998 l -1.36361,-0.33883 -5.65423,5.54814 c -6.11896,6.00409 -10.87666,10.25502 -14.98368,13.3876 -3.2945,2.51286 -8.55459,5.68741 -10.84148,6.54303 -2.38517,0.89243 -6.17606,1.12361 -7.62929,0.46533 z m 65.29702,-22.05954 c 0.51158,-3.75906 1.513,-9.72042 2.22937,-13.27185 0.56245,-2.78827 0.68758,-4.39776 0.34186,-4.39776 -0.18458,0 -3.69182,0.84097 -7.79386,1.86884 -4.10204,1.02781 -8.16505,2.02327 -9.02892,2.21201 -3.18553,0.69606 -3.88326,1.02214 -4.90356,2.29178 -0.96274,1.19801 -0.98282,1.27699 -0.42772,1.68289 0.32031,0.23418 0.76935,0.4259 0.99784,0.4259 0.22846,0 0.66089,0.13022 0.96088,0.28903 0.29999,0.15895 1.7485,0.8482 3.21886,1.53159 3.72383,1.73075 8.95665,5.30917 11.51041,7.87136 1.18289,1.18678 2.23401,2.17738 2.33577,2.2013 0.10176,0.0237 0.35335,-1.19335 0.55907,-2.70509 z m -7.04724,-22.55869 c 2.15802,-0.55648 3.72711,-0.95005 5.43927,-1.36432 0.64791,-0.15666 1.95546,-0.49594 2.90569,-0.75372 0.95024,-0.25771 2.09748,-0.55152 2.54941,-0.65276 0.64833,-0.14517 0.89542,-0.46681 1.17081,-1.52372 1.44811,-5.55798 5.34785,-21.747045 5.25978,-21.835105 -0.0602,-0.0603 -1.15139,1.392841 -2.42452,3.229308 -3.67533,5.30164 -10.21974,14.081317 -13.80688,18.522687 -1.81398,2.24599 -3.40659,4.26034 -3.53912,4.47631 -0.31734,0.51707 0.12709,0.49918 2.44556,-0.0989 z"
         id="path1-4"
         sodipodi:nodetypes="cscsssscssscssssssssssssssssssssssccsscsssccsssssscscsscsccccssssscc" /></g></g></svg>
