<?xml version="1.0" encoding="UTF-8" standalone="no"?>
<svg
   sodipodi:docname="Infographic H&amp;S KPI Design.svg"
   inkscape:version="1.3.2 (091e20e, 2023-11-25, custom)"
   id="svg8"
   version="1.1"
   viewBox="0 0 177.42923 120.2949"
   height="120.2949mm"
   width="177.42923mm"
   xml:space="preserve"
   inkscape:export-filename="..\..\..\Pictures\Infographic H&amp;S KPI Design.png"
   inkscape:export-xdpi="96"
   inkscape:export-ydpi="96"
   xmlns:inkscape="http://www.inkscape.org/namespaces/inkscape"
   xmlns:sodipodi="http://sodipodi.sourceforge.net/DTD/sodipodi-0.dtd"
   xmlns:xlink="http://www.w3.org/1999/xlink"
   xmlns="http://www.w3.org/2000/svg"
   xmlns:svg="http://www.w3.org/2000/svg"
   xmlns:rdf="http://www.w3.org/1999/02/22-rdf-syntax-ns#"
   xmlns:cc="http://creativecommons.org/ns#"
   xmlns:dc="http://purl.org/dc/elements/1.1/"><defs
     id="defs2"><linearGradient
       inkscape:collect="always"
       xlink:href="#linearGradient19"
       id="linearGradient20"
       x1="1401.5042"
       y1="481.41895"
       x2="1412.7869"
       y2="508.85245"
       gradientUnits="userSpaceOnUse"
       gradientTransform="translate(757.3599,-95.659469)" /><linearGradient
       id="linearGradient19"
       inkscape:collect="always"><stop
         style="stop-color:#f9f9f9;stop-opacity:0.24532224;"
         offset="0"
         id="stop19" /><stop
         style="stop-color:#f9f9f9;stop-opacity:0;"
         offset="1"
         id="stop20" /></linearGradient></defs><sodipodi:namedview
     fit-margin-bottom="0"
     fit-margin-right="0"
     fit-margin-left="0"
     fit-margin-top="0"
     inkscape:snap-bbox-midpoints="true"
     inkscape:snap-bbox-edge-midpoints="true"
     inkscape:bbox-nodes="true"
     inkscape:bbox-paths="true"
     inkscape:snap-bbox="true"
     inkscape:pagecheckerboard="true"
     inkscape:window-maximized="1"
     inkscape:window-y="-8"
     inkscape:window-x="-8"
     inkscape:window-height="1009"
     inkscape:window-width="1920"
     showgrid="false"
     inkscape:document-rotation="0"
     inkscape:current-layer="layer4"
     inkscape:document-units="mm"
     inkscape:cy="829.22259"
     inkscape:cx="4404.0666"
     inkscape:zoom="1.2463481"
     inkscape:pageshadow="2"
     inkscape:pageopacity="0.0"
     borderopacity="1.0"
     bordercolor="#666666"
     pagecolor="#ffffff"
     id="base"
     inkscape:snap-global="true"
     showguides="false"
     inkscape:guide-bbox="true"
     inkscape:object-paths="true"
     inkscape:showpageshadow="0"
     inkscape:deskcolor="#505050"><inkscape:page
       x="9.7126929e-13"
       y="0"
       width="177.42921"
       height="120.2949"
       id="page2"
       margin="0"
       bleed="0" /></sodipodi:namedview><metadata
     id="metadata5"><rdf:RDF><cc:Work
         rdf:about=""><dc:format>image/svg+xml</dc:format><dc:type
           rdf:resource="http://purl.org/dc/dcmitype/StillImage" /></cc:Work></rdf:RDF></metadata><g
     style="display:inline"
     transform="translate(-2101.7166,-295.57092)"
     inkscape:label="Txt"
     id="layer4"
     inkscape:groupmode="layer"><path
       style="display:inline;fill:none;fill-opacity:1;stroke:#f9f9f9;stroke-width:1.48428;stroke-linecap:round;stroke-linejoin:round"
       d="m 2158.864,382.24911 c 0,-0.87764 1.5987,-8.28395 2.4691,-11.43868 0.5072,-1.83826 1.8728,-6.26641 3.0345,-9.84034 2.7174,-8.35926 3.3314,-10.74541 3.3314,-12.94619 0,-1.59572 -0.1033,-1.89722 -0.9342,-2.72811 -0.9219,-0.92198 -0.9645,-0.93172 -3.275,-0.74891 -3.4126,0.27003 -10.4688,2.80865 -17.1917,6.18509 -1.5017,0.7542 -2.7759,1.32571 -2.8317,1.26999 -0.1008,-0.10075 1.0778,-0.86292 13.5697,-8.77488 22.0371,-13.95773 41.1517,-24.15636 54.1604,-28.89735 l 2.5214,-0.91894 -1.5362,1.72362 c -2.8973,3.25061 -3.4192,5.57427 -1.9349,8.61428 0.6183,1.26623 2.1878,3.01971 6.6263,7.40283 3.1988,3.15899 5.5418,5.63934 5.2068,5.51189 -4.0962,-1.55763 -9.7405,-3.25866 -12.1642,-3.66594 -4.0338,-0.67782 -9.5004,-0.46756 -12.5129,0.4813 -5.8947,1.85668 -12.5945,6.28216 -17.8524,11.79223 -6.1733,6.46929 -10.2146,13.41179 -16.7239,28.72938 -3.2932,7.74977 -3.9625,9.14301 -3.9625,8.24873 z m 19.3369,-57.2709 c 0.5236,-1.64978 3.9329,-8.87602 5.4604,-11.5738 4.5741,-8.07856 7.9069,-9.50756 12.3912,-5.31296 1.5693,1.46779 4.7203,5.23716 4.5101,5.39504 -0.062,0.0467 -0.8673,0.40084 -1.7889,0.78677 -4.5502,1.90551 -16.4017,8.11853 -19.0409,10.22135 -1.9697,1.56946 -1.7648,1.21724 -1.5319,0.4836 z"
       id="path1117-7"
       sodipodi:nodetypes="sssssssssscssscssssssssssss"
       inkscape:export-filename="..\..\..\..\..\xampp\htdocs\sheener\img\amnealX.svg"
       inkscape:export-xdpi="140"
       inkscape:export-ydpi="140" /><path
       style="display:inline;fill:#d9a460;stroke-width:2.20775;stroke-linecap:round;stroke-linejoin:round;stroke-dasharray:1.29234, 0.323085, 0.161543, 0.323085"
       d="m 2101.7166,295.57092 177.4292,120.2949"
       id="path16"
       inkscape:export-filename="C:\xampp\htdocs\sheener\img\amnealX.svg"
       inkscape:export-xdpi="96"
       inkscape:export-ydpi="96"
       sodipodi:nodetypes="cc" /><path
       style="display:inline;fill:none;fill-opacity:1;stroke:url(#linearGradient20);stroke-width:1.48428;stroke-linecap:round;stroke-linejoin:round"
       d="m 2158.864,385.75948 c 0,0.87764 1.5987,8.28395 2.4691,11.43868 0.5072,1.83826 1.8728,6.26641 3.0345,9.84034 2.7174,8.35926 3.3314,10.74541 3.3314,12.94619 0,1.59572 -0.1033,1.89722 -0.9342,2.72811 -0.9219,0.92198 -0.9645,0.93172 -3.275,0.74891 -3.4126,-0.27003 -10.4688,-2.80865 -17.1917,-6.18509 -1.5017,-0.7542 -2.7759,-1.32571 -2.8317,-1.26999 -0.1008,0.10075 1.0778,0.86292 13.5697,8.77488 22.0371,13.95773 41.1517,24.15636 54.1604,28.89735 l 2.5214,0.91894 -1.5362,-1.72362 c -2.8973,-3.25061 -3.4192,-5.57427 -1.9349,-8.61428 0.6183,-1.26623 2.1878,-3.01971 6.6263,-7.40283 3.1988,-3.15899 5.5418,-5.63934 5.2068,-5.51189 -4.0962,1.55763 -9.7405,3.25866 -12.1642,3.66594 -4.0338,0.67782 -9.5004,0.46756 -12.5129,-0.4813 -5.8947,-1.85668 -12.5945,-6.28216 -17.8524,-11.79223 -6.1733,-6.46929 -10.2146,-13.41179 -16.7239,-28.72938 -3.2932,-7.74977 -3.9625,-9.14301 -3.9625,-8.24873 z m 19.3369,57.2709 c 0.5236,1.64978 3.9329,8.87602 5.4604,11.5738 4.5741,8.07856 7.9069,9.50756 12.3912,5.31296 1.5693,-1.46779 4.7203,-5.23716 4.5101,-5.39504 -0.062,-0.0467 -0.8673,-0.40084 -1.7889,-0.78677 -4.5502,-1.90551 -16.4017,-8.11853 -19.0409,-10.22135 -1.9697,-1.56946 -1.7648,-1.21724 -1.5319,-0.4836 z"
       id="path18"
       sodipodi:nodetypes="sssssssssscssscssssssssssss"
       inkscape:export-filename="..\..\..\..\..\xampp\htdocs\sheener\img\amnealX.svg"
       inkscape:export-xdpi="140"
       inkscape:export-ydpi="140" /></g></svg>
