<?xml version="1.0" encoding="UTF-8" standalone="no"?>
<!-- Created with Inkscape (http://www.inkscape.org/) -->

<svg
   width="178.87692mm"
   height="52.809414mm"
   viewBox="0 0 169.87701 50.152391"
   version="1.1"
   id="svg5"
   inkscape:version="1.4.2 (f4327f4, 2025-05-13)"
   sodipodi:docname="Amneal Logo new y.svg"
   xml:space="preserve"
   inkscape:export-filename="Amneal Logo new y.png"
   inkscape:export-xdpi="96"
   inkscape:export-ydpi="96"
   xmlns:inkscape="http://www.inkscape.org/namespaces/inkscape"
   xmlns:sodipodi="http://sodipodi.sourceforge.net/DTD/sodipodi-0.dtd"
   xmlns="http://www.w3.org/2000/svg"
   xmlns:svg="http://www.w3.org/2000/svg"><sodipodi:namedview
     id="namedview7"
     pagecolor="#ffffff"
     bordercolor="#eeeeee"
     borderopacity="1"
     inkscape:pageshadow="0"
     inkscape:pageopacity="0"
     inkscape:pagecheckerboard="true"
     inkscape:document-units="mm"
     showgrid="false"
     inkscape:zoom="0.7198092"
     inkscape:cx="269.51587"
     inkscape:cy="113.22445"
     inkscape:window-width="1920"
     inkscape:window-height="1009"
     inkscape:window-x="-8"
     inkscape:window-y="-8"
     inkscape:window-maximized="1"
     inkscape:current-layer="layer1"
     fit-margin-top="10"
     lock-margins="true"
     fit-margin-left="10"
     fit-margin-right="10"
     fit-margin-bottom="10"
     inkscape:showpageshadow="2"
     inkscape:deskcolor="#d1d1d1"><inkscape:page
       x="0"
       y="0"
       width="169.87701"
       height="50.15239"
       id="page1"
       margin="0"
       bleed="0" /></sodipodi:namedview><defs
     id="defs2" /><g
     inkscape:label="Layer 1"
     inkscape:groupmode="layer"
     id="layer1"
     transform="translate(-24.954321,-95.010054)"><path
       style="fill:#ffdf00;stroke-width:0.653051;fill-opacity:1"
       d="m 27.052373,144.96544 c -0.641812,-0.29073 -1.476834,-1.02802 -1.476834,-1.30397 0,-0.0991 0.239986,-0.31815 0.533302,-0.48693 0.47058,-0.27076 3.440356,-2.22438 4.553571,-2.99548 2.564066,-1.77605 11.78358,-10.20425 11.559298,-10.56714 -0.143884,-0.23282 -0.866555,-0.17069 -2.206015,0.18964 -1.340227,0.36054 -3.743508,0.8579 -5.505163,1.13933 -1.536324,0.24542 -6.032619,0.23779 -7.047926,-0.0124 -1.12895,-0.27772 -1.995336,-0.73612 -2.315853,-1.22529 -0.34805,-0.53119 -0.209574,-1.45814 0.299219,-2.00297 1.789433,-1.91618 7.453499,-3.03003 13.339028,-2.62316 2.729192,0.18868 3.848069,0.057 7.782522,-0.91677 1.337234,-0.33091 1.416442,-0.37772 2.398162,-1.41729 2.044249,-2.1647 7.261323,-8.36681 8.854065,-10.5258 0.180502,-0.24467 1.178203,-1.57816 2.217115,-2.96328 1.03891,-1.38514 2.014313,-2.70302 2.167561,-2.92866 0.153247,-0.22562 0.57374,-0.81636 0.934428,-1.31274 0.911341,-1.25419 3.885889,-5.712761 5.200042,-7.794397 0.170931,-0.270756 0.503582,-0.861483 0.739225,-1.312731 0.235644,-0.451259 0.558771,-0.846125 0.718057,-0.877487 0.931093,-0.183312 3.182401,1.080332 3.819916,2.14408 0.812558,1.355828 0.775653,2.436647 -0.208893,6.117565 -0.241395,0.90251 -0.498934,1.89938 -0.572306,2.21524 -0.07337,0.31589 -0.24846,0.98047 -0.389084,1.47685 -0.265183,0.93605 -1.968205,7.7347 -2.547042,10.16805 -0.181737,0.764 -0.304187,1.41534 -0.272108,1.44741 0.0876,0.0876 3.88014,-0.86767 6.123483,-1.54241 1.189285,-0.3577 1.421064,-0.24245 1.280507,0.63673 -0.172387,1.07825 -0.773002,1.94132 -1.760693,2.5301 -0.859737,0.51249 -5.518066,2.1832 -6.090309,2.18428 -0.336151,6.4e-4 -0.511203,0.38105 -0.755354,1.64148 -0.598481,3.08966 -0.744394,3.92203 -1.236921,7.05598 -0.651399,4.14486 -0.753188,5.20488 -0.752969,7.8412 2.39e-4,2.85198 -0.08731,3.11952 -1.161515,3.54933 -0.809403,0.32386 -2.639736,0.34001 -3.235903,0.0286 -0.555017,-0.28996 -1.168239,-0.94804 -1.772117,-1.90171 -0.819929,-1.29492 -2.39696,-3.1178 -3.587729,-4.14706 -2.263067,-1.95612 -6.487371,-4.38837 -8.482918,-4.88424 l -0.712312,-0.177 -2.953668,2.89824 c -3.196395,3.13641 -5.681717,5.357 -7.82714,6.99339 -1.720979,1.31265 -4.468735,2.97097 -5.663354,3.41794 -1.245966,0.46618 -3.226229,0.58695 -3.985375,0.24308 z m 34.109749,-11.52342 c 0.267247,-1.96365 0.790344,-5.07774 1.164571,-6.93293 0.293815,-1.45654 0.359174,-2.29729 0.178587,-2.29729 -0.09642,0 -1.928527,0.4393 -4.071348,0.97623 -2.14282,0.53692 -4.265246,1.05692 -4.7165,1.15552 -1.664067,0.3636 -2.028542,0.53394 -2.561536,1.19718 -0.502911,0.6258 -0.513399,0.66706 -0.223427,0.8791 0.167339,0.12232 0.401903,0.22247 0.521255,0.22247 0.119343,0 0.345224,0.068 0.501938,0.15099 0.156714,0.0831 0.913375,0.44307 1.681467,0.80007 1.94525,0.90411 4.678764,2.7734 6.012793,4.11183 0.617921,0.61995 1.166987,1.13741 1.220142,1.1499 0.05315,0.0124 0.184583,-0.62338 0.292058,-1.41307 z m -3.681325,-11.78417 c 1.127304,-0.2907 1.946954,-0.49629 2.841364,-0.7127 0.338442,-0.0818 1.021477,-0.25907 1.517858,-0.39372 0.49638,-0.13464 1.095677,-0.2881 1.331769,-0.341 0.338668,-0.0758 0.467737,-0.24384 0.61159,-0.79596 0.756481,-2.90336 2.793614,-11.36017 2.7476,-11.40617 -0.03153,-0.0315 -0.601461,0.72758 -1.266517,1.68692 -1.919928,2.76946 -5.338572,7.35576 -7.212402,9.67584 -0.947594,1.17327 -1.779543,2.22552 -1.848775,2.33833 -0.165771,0.27011 0.06643,0.26076 1.277513,-0.0516 z m 126.362113,18.70111 c -2.11252,-0.47721 -2.68832,-0.64049 -3.45628,-0.98012 -0.49199,-0.21759 -1.20783,-0.59394 -1.59074,-0.83634 -1.00936,-0.63899 -2.76861,-2.49425 -3.20829,-3.38337 -0.20837,-0.42138 -0.44713,-0.80834 -0.53055,-0.8599 -0.0835,-0.0516 -0.6019,0.21199 -1.15213,0.58566 -1.81584,1.2331 -3.51387,1.79795 -5.40497,1.79795 -1.0785,0 -1.31823,-0.0565 -2.59882,-0.61203 -1.31915,-0.57232 -2.72089,-2.72129 -2.93074,-4.49304 -0.0522,-0.44126 -0.17702,-0.79873 -0.27727,-0.79439 -0.10032,0.004 -0.47182,0.41185 -0.82572,0.90559 -0.84791,1.18294 -3.44646,3.68576 -4.55096,4.38331 -2.91907,1.84352 -5.85001,1.55771 -7.28159,-0.71004 l -0.42037,-0.66594 -0.52575,0.3234 c -1.24034,0.76294 -3.26158,1.65519 -4.71012,2.07919 -1.38722,0.40607 -1.82086,0.45641 -3.93822,0.4572 -2.13532,7.8e-4 -2.50111,-0.0422 -3.56662,-0.41908 -0.65301,-0.23097 -1.57023,-0.69507 -2.03826,-1.03132 l -0.85098,-0.61136 -0.83336,0.42458 c -1.57093,0.80035 -2.87576,1.15122 -4.2793,1.15067 -2.02786,-7.9e-4 -3.35069,-0.71055 -4.28853,-2.301 -0.88589,-1.50231 -1.04264,-2.49957 -1.1822,-7.52107 -0.10456,-3.7637 -0.15662,-4.34374 -0.44167,-4.92278 -0.34256,-0.69584 -0.80803,-0.8788 -1.67934,-0.66012 -0.66419,0.16671 -2.40943,1.97395 -3.5528,3.67901 -1.01956,1.52046 -2.78074,4.80288 -3.48671,6.49849 -1.69125,4.062 -1.97529,4.51254 -2.84493,4.51254 -0.65161,0 -1.26225,-0.32359 -1.90891,-1.01157 -0.83071,-0.88379 -0.97406,-1.51109 -0.67248,-2.94281 0.23164,-1.09961 0.67879,-2.8927 1.10081,-4.41434 0.0876,-0.31589 0.35008,-1.42349 0.58326,-2.46139 0.23316,-1.03789 0.49212,-2.18244 0.57546,-2.54343 0.18902,-0.81891 0.89561,-4.68259 1.14997,-6.28814 0.11183,-0.70575 0.28131,-1.23618 0.41091,-1.28591 0.35285,-0.13546 2.0491,0.42387 2.63044,0.86726 0.61911,0.47224 1.05363,1.43891 1.05363,2.34411 0,0.34951 -0.11741,1.20291 -0.26077,1.89645 -0.14343,0.69354 -0.21125,1.31048 -0.15073,1.37103 0.0605,0.0605 0.27018,-0.11123 0.4659,-0.38172 2.19785,-3.03733 4.6798,-4.76055 6.83749,-4.74727 1.70295,0.0109 2.82696,0.65594 3.51776,2.02017 0.80685,1.59341 0.91692,2.32084 1.0826,7.15504 0.16784,4.89838 0.33281,5.97083 1.01467,6.59725 0.20589,0.18914 0.60692,0.39303 0.89118,0.45308 0.52086,0.11001 2.27082,-0.25232 2.5456,-0.5271 0.0827,-0.0828 0.0636,-0.68548 -0.045,-1.41603 -0.39546,-2.65885 0.52008,-6.4949 2.26146,-9.4755 1.0749,-1.83983 2.75559,-3.6751 4.32055,-4.71796 1.81709,-1.21085 2.96627,-1.57812 4.92279,-1.57324 1.68087,0.004 2.2621,0.19473 3.17382,1.04043 0.92183,0.85508 1.16986,1.5766 1.16406,3.38619 -0.006,1.78596 -0.14739,2.36266 -1.00508,4.09151 -1.33654,2.69404 -3.82658,5.43166 -7.1754,7.88883 -0.95511,0.7008 -1.73655,1.32305 -1.73655,1.38278 0,0.5376 3.79566,0.73193 5.6612,0.28983 1.25079,-0.29642 3.14361,-1.08569 4.50712,-1.87938 l 1.06115,-0.61771 0.34306,-1.22947 c 0.74518,-2.67079 1.93224,-5.07361 3.52903,-7.14335 0.92121,-1.19405 3.64554,-3.7983 4.91774,-4.70098 2.32176,-1.64739 5.41005,-2.99 8.4159,-3.65874 2.01746,-0.44882 2.24411,-0.28358 2.24728,1.63846 10e-4,1.27102 -0.3753,1.90465 -1.46261,2.45562 -0.45152,0.22881 -0.93415,0.416 -1.07252,0.416 -0.43612,0 -0.26596,0.39953 0.28543,0.67019 0.29126,0.14297 0.75075,0.57341 1.02106,0.95654 0.46867,0.66425 0.49058,0.77025 0.47175,2.28347 -0.0109,0.87281 -0.17665,2.43054 -0.36841,3.46164 -0.38719,2.08183 -0.44976,4.14948 -0.15527,5.13233 0.28417,0.94848 0.79722,1.27961 1.98265,1.27961 1.02999,0 2.34851,-0.52852 3.51195,-1.40775 0.99108,-0.74899 0.99841,-0.76611 0.91127,-2.12425 -0.0445,-0.69244 0.01,-2.15628 0.11886,-3.25296 0.62641,-6.25372 2.69165,-12.67764 6.0479,-18.81205 2.73561,-5.00001 5.42142,-8.134316 7.90956,-9.230449 1.13641,-0.500621 2.71929,-0.456919 3.67196,0.10141 2.05737,1.205699 2.35961,3.077999 1.32775,8.225109 -0.19456,0.97052 -0.59985,2.41514 -1.21997,4.34845 -0.57865,1.80405 -2.44703,5.94508 -3.73887,8.2867 -1.97291,3.57614 -4.94603,7.78309 -7.5616,10.69958 l -1.48301,1.65362 0.23226,0.77177 c 1.0608,3.5247 4.17322,5.33709 9.16083,5.33436 1.74709,-9.8e-4 4.92138,-0.39173 6.0235,-0.74152 0.85901,-0.27264 0.18559,1.47259 -0.88258,2.28731 -0.78679,0.60013 -2.57914,1.39835 -3.58417,1.59619 -0.91433,0.17999 -5.55618,0.33676 -6.13045,0.20705 z m -27.29332,-8.54395 c 1.84468,-1.33855 4.82518,-5.40236 6.35864,-8.66982 0.79301,-1.68972 1.3636,-3.69207 1.05207,-3.69207 -0.25474,0 -2.32052,1.23155 -3.19678,1.9058 -2.53548,1.95101 -4.79448,4.85622 -5.9185,7.61157 -0.46479,1.13935 -0.71518,2.56203 -0.54517,3.09767 0.20625,0.64982 1.15197,0.5434 2.24974,-0.25315 z m -18.19214,-3.41437 c 2.77419,-2.42535 5.06969,-5.59542 5.42474,-7.49147 0.17168,-0.91681 -0.10335,-1.45605 -0.74249,-1.45605 -1.9345,0 -4.45755,2.98398 -5.74668,6.79655 -0.5809,1.71793 -0.81792,3.37719 -0.48244,3.37719 0.0794,0 0.77548,-0.5518 1.54687,-1.22622 z m 42.25258,-5.6312 c 1.65004,-2.62237 3.68223,-6.39682 4.87773,-9.05957 0.50651,-1.12815 1.056,-2.34807 1.22111,-2.71096 0.48727,-1.07099 1.77348,-5.01373 2.03678,-6.24351 0.35289,-1.64829 0.43002,-2.69611 0.19847,-2.69611 -0.227,0 -2.37247,2.8076 -3.1088,4.06828 -0.28358,0.48546 -0.7166,1.22707 -0.9623,1.64802 -2.61689,4.48341 -5.36127,12.16444 -5.95745,16.6738 -0.0935,0.70792 -0.076,0.78591 0.1374,0.60881 0.13464,-0.11171 0.83528,-1.14165 1.55706,-2.28876 z m -75.83187,16.60071 c -0.97119,-0.29838 -2.01578,-1.29605 -2.556,-2.44116 -0.92869,-1.96857 -1.02772,-2.77905 -1.14272,-9.35123 -0.0968,-5.53982 -0.12191,-5.90883 -0.40268,-5.96274 -0.678948,-0.13026 -1.550124,1.05874 -4.307067,5.87864 -0.129058,0.22562 -1.083619,2.00608 -2.12125,3.95657 -1.037625,1.95048 -2.079606,3.73935 -2.315514,3.97526 -0.607591,0.60759 -1.340969,0.70474 -2.258026,0.29907 -0.833291,-0.36861 -1.336804,-1.04121 -1.499254,-2.00275 -0.09736,-0.57636 0.08109,-2.94979 0.412807,-5.48974 0.297769,-2.28005 0.50106,-5.43119 0.399631,-6.1945 -0.101339,-0.76258 -0.116059,-0.77943 -0.681027,-0.77943 -0.498959,0 -0.737816,0.1617 -1.757205,1.18967 -0.949089,0.95707 -3.541882,4.49375 -3.541882,4.83129 0,0.045 -0.137651,0.27784 -0.305891,0.51741 -0.443184,0.63106 -1.347157,2.31232 -3.145717,5.85062 -1.350779,2.65737 -1.668232,3.16368 -2.149813,3.42873 -1.196944,0.65878 -2.973927,-0.16255 -3.66438,-1.69371 -0.343333,-0.76138 -0.371928,-0.56949 0.747597,-5.01688 0.734338,-2.9172 1.064817,-4.16897 1.364638,-5.16891 0.121781,-0.40613 0.312873,-1.0707 0.424665,-1.47683 0.111794,-0.40614 0.262627,-0.92304 0.335191,-1.14866 0.07256,-0.22564 0.259211,-0.85328 0.41477,-1.39478 0.316073,-1.10025 0.783859,-2.61003 1.601522,-5.16894 0.448219,-1.4027 0.61419,-1.7324 0.892899,-1.77379 0.566288,-0.0842 1.967004,0.6224 2.580638,1.30161 0.542772,0.6008 0.575696,0.70297 0.575696,1.78677 0,0.92544 -0.145251,1.5865 -0.745116,3.39111 -0.409815,1.23287 -0.723643,2.3366 -0.697395,2.45275 0.02624,0.11619 0.527695,-0.57491 1.114325,-1.53564 1.248391,-2.04453 3.126342,-4.04213 4.355379,-4.63289 1.083326,-0.52074 2.63124,-0.63137 3.608966,-0.25798 1.731403,0.66123 2.790527,2.73044 2.978722,5.8195 0.05577,0.91571 0.157426,1.69953 0.225858,1.74183 0.06844,0.0423 0.38402,-0.38494 0.701298,-0.94939 1.527242,-2.71708 4.069789,-5.3923 5.819785,-6.1235 0.3104,-0.12972 1.04892,-0.23581 1.64115,-0.23581 1.39801,0 2.35311,0.44805 3.04373,1.42789 0.9525,1.35129 0.97643,1.5497 0.94342,7.82075 -0.0446,8.47111 0.34578,9.9792 2.85452,11.0274 0.719,0.30042 0.7624,0.81437 0.12067,1.42916 -0.91755,0.87908 -2.37248,1.13238 -3.86694,0.67323 z"
       id="path1" /></g></svg>
