<?xml version="1.0" encoding="UTF-8" standalone="no"?>
<!-- Created with Inkscape (http://www.inkscape.org/) -->

<svg
   width="110.20674mm"
   height="32.536083mm"
   viewBox="0 0 104.66182 30.899068"
   version="1.1"
   id="svg5"
   inkscape:version="1.4.2 (f4327f4, 2025-05-13)"
   sodipodi:docname="Amneal Logo new.svg"
   xml:space="preserve"
   xmlns:inkscape="http://www.inkscape.org/namespaces/inkscape"
   xmlns:sodipodi="http://sodipodi.sourceforge.net/DTD/sodipodi-0.dtd"
   xmlns="http://www.w3.org/2000/svg"
   xmlns:svg="http://www.w3.org/2000/svg"><sodipodi:namedview
     id="namedview7"
     pagecolor="#ffffff"
     bordercolor="#eeeeee"
     borderopacity="1"
     inkscape:pageshadow="0"
     inkscape:pageopacity="0"
     inkscape:pagecheckerboard="true"
     inkscape:document-units="mm"
     showgrid="false"
     inkscape:zoom="1.4391996"
     inkscape:cx="208.10179"
     inkscape:cy="52.459716"
     inkscape:window-width="1920"
     inkscape:window-height="1009"
     inkscape:window-x="-8"
     inkscape:window-y="-8"
     inkscape:window-maximized="1"
     inkscape:current-layer="layer1"
     fit-margin-top="10"
     lock-margins="true"
     fit-margin-left="10"
     fit-margin-right="10"
     fit-margin-bottom="10"
     inkscape:showpageshadow="2"
     inkscape:deskcolor="#d1d1d1"><inkscape:page
       x="6.6469418e-08"
       y="1.143118e-07"
       width="104.66182"
       height="30.899067"
       id="page1"
       margin="0"
       bleed="0" /></sodipodi:namedview><defs
     id="defs2" /><g
     inkscape:label="Layer 1"
     inkscape:groupmode="layer"
     id="layer1"
     transform="translate(-57.561842,-104.63634)"><path
       style="fill:#ffffff;stroke-width:0.402347"
       d="m 58.854461,135.41442 c -0.395423,-0.17912 -0.909884,-0.63337 -0.909884,-0.80338 0,-0.0611 0.147856,-0.19601 0.32857,-0.3 0.289926,-0.16682 2.119618,-1.37045 2.805474,-1.84553 1.579732,-1.09423 7.259913,-6.28688 7.121732,-6.51046 -0.08865,-0.14344 -0.533888,-0.10516 -1.359135,0.11684 -0.825719,0.22213 -2.306391,0.52856 -3.391754,0.70195 -0.946536,0.1512 -3.716722,0.1465 -4.342257,-0.008 -0.695551,-0.17111 -1.229335,-0.45353 -1.426807,-0.75491 -0.214435,-0.32727 -0.129119,-0.89837 0.18435,-1.23404 1.102478,-1.18057 4.592133,-1.86681 8.218232,-1.61614 1.681466,0.11625 2.370811,0.0351 4.794844,-0.56482 0.823876,-0.20388 0.872676,-0.23272 1.477518,-0.8732 1.259471,-1.33368 4.473732,-5.15483 5.455027,-6.48499 0.111208,-0.15074 0.725896,-0.97231 1.365974,-1.82569 0.640077,-0.85339 1.241027,-1.66534 1.335443,-1.80436 0.09442,-0.13901 0.353484,-0.50296 0.575705,-0.80879 0.561481,-0.77271 2.394113,-3.51965 3.203768,-4.80216 0.105311,-0.16681 0.310259,-0.53076 0.45544,-0.80878 0.145181,-0.27802 0.344261,-0.5213 0.442398,-0.54062 0.57365,-0.11294 1.96069,0.6656 2.353466,1.32098 0.50062,0.83533 0.477883,1.50123 -0.1287,3.76905 -0.148724,0.55604 -0.307395,1.17022 -0.3526,1.36482 -0.0452,0.19462 -0.153077,0.60408 -0.239716,0.9099 -0.163381,0.5767 -1.21262,4.76538 -1.569244,6.26458 -0.111968,0.4707 -0.18741,0.87199 -0.167646,0.89175 0.05397,0.054 2.39057,-0.53457 3.772703,-0.95028 0.732724,-0.22039 0.875524,-0.14938 0.788926,0.39229 -0.106208,0.66431 -0.47625,1.19605 -1.08477,1.5588 -0.529688,0.31575 -3.399704,1.34508 -3.752265,1.34575 -0.207104,3.9e-4 -0.314955,0.23476 -0.465377,1.01132 -0.368727,1.90355 -0.458625,2.41638 -0.762072,4.34722 -0.40133,2.55366 -0.464043,3.20675 -0.463908,4.831 1.47e-4,1.75711 -0.05379,1.92194 -0.715614,2.18675 -0.498677,0.19953 -1.626353,0.20948 -1.993654,0.0176 -0.341948,-0.17864 -0.719757,-0.58409 -1.091808,-1.17165 -0.505162,-0.7978 -1.476778,-1.92089 -2.210415,-2.55502 -1.394285,-1.20517 -3.996897,-2.70369 -5.226362,-3.0092 l -0.438858,-0.10905 -1.819768,1.78562 c -1.969312,1.93235 -3.500529,3.30047 -4.822334,4.30865 -1.060302,0.80873 -2.753206,1.83043 -3.489216,2.10581 -0.767645,0.28722 -1.987693,0.36162 -2.455406,0.14976 z m 21.01516,-7.09963 c 0.164652,-1.20981 0.486934,-3.12841 0.717497,-4.27141 0.181021,-0.89738 0.221289,-1.41537 0.110028,-1.41537 -0.0594,0 -1.188173,0.27066 -2.508374,0.60146 -1.320201,0.3308 -2.627836,0.65118 -2.905856,0.71193 -1.025239,0.22401 -1.249793,0.32896 -1.578173,0.73758 -0.309846,0.38556 -0.316307,0.41098 -0.137654,0.54162 0.103098,0.0754 0.247614,0.13706 0.321147,0.13706 0.07353,0 0.212694,0.0419 0.309246,0.093 0.09655,0.0512 0.562734,0.27298 1.035959,0.49293 1.198477,0.55702 2.882606,1.7087 3.704507,2.53331 0.380704,0.38196 0.718986,0.70077 0.751735,0.70846 0.03275,0.008 0.113722,-0.38407 0.179938,-0.8706 z m -2.26808,-7.26027 c 0.694537,-0.17911 1.199527,-0.30577 1.750576,-0.4391 0.208516,-0.0504 0.629337,-0.15962 0.935159,-0.24257 0.305822,-0.083 0.675051,-0.1775 0.820509,-0.2101 0.208654,-0.0467 0.288174,-0.15023 0.376803,-0.49039 0.466071,-1.78877 1.721157,-6.99905 1.692808,-7.02739 -0.01943,-0.0194 -0.370563,0.44827 -0.780307,1.03932 -1.182875,1.70627 -3.289116,4.53191 -4.443591,5.96132 -0.583817,0.72286 -1.096384,1.37116 -1.139038,1.44066 -0.102132,0.16642 0.04093,0.16065 0.787081,-0.0318 z m 77.852229,11.52183 c -1.30153,-0.29401 -1.65628,-0.39461 -2.12943,-0.60386 -0.30311,-0.13406 -0.74415,-0.36593 -0.98006,-0.51527 -0.62187,-0.39368 -1.70575,-1.53672 -1.97664,-2.08451 -0.12838,-0.25961 -0.27548,-0.49802 -0.32687,-0.52979 -0.0515,-0.0318 -0.37084,0.13061 -0.70984,0.36083 -1.11874,0.75972 -2.16491,1.10773 -3.33002,1.10773 -0.66447,0 -0.81217,-0.0348 -1.60114,-0.37708 -0.81274,-0.35261 -1.67636,-1.6766 -1.80565,-2.76818 -0.0322,-0.27186 -0.10906,-0.4921 -0.17082,-0.48943 -0.0618,0.002 -0.29069,0.25375 -0.50873,0.55794 -0.5224,0.72882 -2.12338,2.27081 -2.80387,2.70058 -1.79845,1.1358 -3.60421,0.95971 -4.48622,-0.43746 l -0.25899,-0.41029 -0.32391,0.19925 c -0.76418,0.47005 -2.00948,1.01977 -2.90193,1.281 -0.85467,0.25018 -1.12184,0.28119 -2.42635,0.28168 -1.31558,4.8e-4 -1.54095,-0.026 -2.19741,-0.2582 -0.40233,-0.1423 -0.96743,-0.42823 -1.25578,-0.6354 l -0.5243,-0.37666 -0.51343,0.26158 c -0.96786,0.4931 -1.77177,0.70928 -2.6365,0.70894 -1.24937,-4.9e-4 -2.06437,-0.43778 -2.64218,-1.41766 -0.5458,-0.92558 -0.64237,-1.53999 -0.72836,-4.63376 -0.0644,-2.31883 -0.0965,-2.6762 -0.27211,-3.03295 -0.21105,-0.42871 -0.49783,-0.54143 -1.03465,-0.4067 -0.40921,0.10271 -1.48446,1.21616 -2.1889,2.26665 -0.62815,0.93677 -1.71322,2.95908 -2.14817,4.00375 -1.04199,2.50262 -1.21699,2.7802 -1.75278,2.7802 -0.40146,0 -0.77767,-0.19937 -1.17608,-0.62324 -0.51181,-0.5445 -0.60013,-0.93099 -0.41432,-1.81307 0.14271,-0.67748 0.4182,-1.78221 0.67821,-2.7197 0.054,-0.19462 0.21569,-0.87702 0.35935,-1.51647 0.14365,-0.63945 0.3032,-1.34461 0.35454,-1.56702 0.11646,-0.50453 0.55179,-2.88496 0.70851,-3.87415 0.0689,-0.43481 0.17331,-0.76161 0.25316,-0.79225 0.21739,-0.0835 1.26246,0.26115 1.62062,0.53432 0.38144,0.29095 0.64915,0.88652 0.64915,1.44422 0,0.21533 -0.0723,0.74111 -0.16066,1.16841 -0.0884,0.42729 -0.13015,0.80739 -0.0929,0.84469 0.0373,0.0373 0.16646,-0.0685 0.28705,-0.23518 1.3541,-1.87131 2.88324,-2.93299 4.2126,-2.92481 1.0492,0.007 1.74171,0.40413 2.16731,1.24464 0.4971,0.9817 0.56492,1.42988 0.66699,4.40825 0.10341,3.01791 0.20505,3.67865 0.62515,4.06459 0.12685,0.11653 0.37392,0.24215 0.54906,0.27915 0.3209,0.0678 1.39906,-0.15546 1.56835,-0.32475 0.051,-0.051 0.0392,-0.42233 -0.0277,-0.87243 -0.24365,-1.63812 0.32042,-4.00153 1.39329,-5.83789 0.66225,-1.13353 1.69773,-2.26425 2.66191,-2.90676 1.11952,-0.74601 1.82753,-0.97228 3.03295,-0.96928 1.03559,0.002 1.39369,0.11998 1.95541,0.64102 0.56794,0.52682 0.72075,0.97135 0.71718,2.08624 -0.004,1.10034 -0.0908,1.45565 -0.61924,2.5208 -0.82344,1.65981 -2.35757,3.34647 -4.42079,4.86034 -0.58845,0.43177 -1.0699,0.81514 -1.0699,0.85194 0,0.33122 2.33853,0.45094 3.48789,0.17856 0.77062,-0.18262 1.9368,-0.66889 2.77686,-1.15789 l 0.65378,-0.38057 0.21136,-0.75749 c 0.45911,-1.64548 1.19046,-3.12587 2.17425,-4.40104 0.56756,-0.73566 2.24603,-2.34015 3.02984,-2.8963 1.43045,-1.01496 3.33315,-1.84215 5.18507,-2.25416 1.24297,-0.27652 1.38261,-0.17472 1.38456,1.00946 6.2e-4,0.78308 -0.23122,1.17346 -0.90112,1.51292 -0.27818,0.14097 -0.57553,0.2563 -0.66078,0.2563 -0.2687,0 -0.16386,0.24615 0.17585,0.4129 0.17945,0.0881 0.46254,0.35328 0.62908,0.58933 0.28875,0.40925 0.30225,0.47456 0.29065,1.40686 -0.007,0.53774 -0.10884,1.49746 -0.22698,2.13273 -0.23855,1.28262 -0.2771,2.55651 -0.0957,3.16205 0.17507,0.58436 0.49117,0.78837 1.22151,0.78837 0.63459,0 1.44693,-0.32562 2.16373,-0.86732 0.61061,-0.46145 0.61513,-0.472 0.56144,-1.30876 -0.0274,-0.42661 0.006,-1.32849 0.0732,-2.00416 0.38593,-3.85294 1.65834,-7.81075 3.72614,-11.59018 1.68542,-3.08053 3.34016,-5.01159 4.87311,-5.68692 0.70015,-0.30844 1.67537,-0.28151 2.26231,0.0625 1.26755,0.74283 1.45376,1.89636 0.81803,5.06752 -0.11987,0.59794 -0.36957,1.48798 -0.75163,2.6791 -0.35651,1.11148 -1.50762,3.66279 -2.30353,5.10547 -1.21552,2.20328 -3.04727,4.79519 -4.65873,6.59206 l -0.91369,1.0188 0.14309,0.47549 c 0.65357,2.17158 2.57114,3.2882 5.64403,3.28652 1.07639,-6e-4 3.03208,-0.24135 3.7111,-0.45685 0.52924,-0.16798 0.11435,0.90727 -0.54376,1.40922 -0.48474,0.36974 -1.58902,0.86153 -2.20822,0.98342 -0.56332,0.11089 -3.42319,0.20748 -3.777,0.12756 z m -16.81553,-5.26397 c 1.13652,-0.82468 2.97282,-3.32841 3.91759,-5.34151 0.48857,-1.04104 0.84012,-2.2747 0.64818,-2.2747 -0.15694,0 -1.42968,0.75877 -1.96955,1.17417 -1.56212,1.20203 -2.9539,2.99194 -3.64641,4.68952 -0.28636,0.70196 -0.44063,1.57848 -0.33588,1.90849 0.12707,0.40036 0.70973,0.33479 1.38607,-0.15597 z m -11.20825,-2.1036 c 1.70919,-1.49427 3.12346,-3.44736 3.3422,-4.61553 0.10578,-0.56485 -0.0637,-0.89708 -0.45745,-0.89708 -1.19185,0 -2.74631,1.83844 -3.54055,4.18739 -0.3579,1.05842 -0.50393,2.0807 -0.29723,2.0807 0.0489,0 0.47777,-0.33997 0.95303,-0.75548 z m 26.03199,-3.46941 c 1.0166,-1.61565 2.26864,-3.94111 3.00519,-5.58164 0.31206,-0.69506 0.65061,-1.44665 0.75233,-1.67023 0.30021,-0.65984 1.09265,-3.08898 1.25487,-3.84666 0.21742,-1.01551 0.26494,-1.66108 0.12228,-1.66108 -0.13986,0 -1.46169,1.72977 -1.91535,2.50648 -0.17471,0.2991 -0.4415,0.75601 -0.59287,1.01536 -1.61228,2.76224 -3.3031,7.49456 -3.67041,10.2728 -0.0576,0.43615 -0.0468,0.4842 0.0846,0.37509 0.083,-0.0688 0.51462,-0.70338 0.95931,-1.41012 z m -46.72033,10.22777 c -0.59836,-0.18383 -1.24193,-0.7985 -1.57477,-1.50401 -0.57217,-1.21284 -0.63318,-1.71219 -0.70403,-5.76133 -0.0596,-3.41311 -0.0751,-3.64046 -0.24809,-3.67367 -0.41831,-0.0803 -0.95504,0.65229 -2.65361,3.62185 -0.0795,0.13901 -0.66762,1.23596 -1.30691,2.43766 -0.639282,1.2017 -1.281251,2.30383 -1.426595,2.44918 -0.374339,0.37434 -0.826177,0.43419 -1.391179,0.18425 -0.513394,-0.2271 -0.823611,-0.64149 -0.923697,-1.2339 -0.05998,-0.3551 0.04996,-1.81738 0.254332,-3.38225 0.183457,-1.40475 0.308705,-3.34618 0.246214,-3.81646 -0.06244,-0.46983 -0.0715,-0.48021 -0.419583,-0.48021 -0.307411,0 -0.454572,0.0996 -1.082622,0.73296 -0.584737,0.58966 -2.182168,2.76862 -2.182168,2.97658 0,0.0277 -0.08481,0.17118 -0.188461,0.31878 -0.273047,0.3888 -0.829989,1.42463 -1.938089,3.60459 -0.832221,1.63722 -1.027805,1.94916 -1.324509,2.11246 -0.737442,0.40587 -1.832249,-0.10015 -2.25764,-1.04351 -0.211529,-0.46908 -0.229147,-0.35086 0.460598,-3.09092 0.452428,-1.7973 0.656038,-2.56852 0.840759,-3.18458 0.07503,-0.25022 0.192762,-0.65967 0.261638,-0.90988 0.06888,-0.25023 0.161805,-0.56869 0.206512,-0.7077 0.0447,-0.13902 0.159701,-0.52571 0.255542,-0.85933 0.194734,-0.67787 0.482939,-1.60805 0.986704,-3.1846 0.27615,-0.86421 0.378405,-1.06734 0.550119,-1.09284 0.348892,-0.0519 1.21188,0.38346 1.589942,0.80192 0.334404,0.37016 0.354689,0.43311 0.354689,1.10084 0,0.57017 -0.08949,0.97745 -0.459069,2.08928 -0.252489,0.75957 -0.44584,1.43959 -0.429668,1.51115 0.01617,0.0716 0.325115,-0.35421 0.68654,-0.94612 0.769139,-1.25964 1.926152,-2.49037 2.683367,-2.85434 0.667442,-0.32083 1.621118,-0.38899 2.2235,-0.15894 1.066724,0.40738 1.719255,1.68223 1.835203,3.58542 0.03436,0.56417 0.09699,1.04708 0.139152,1.07314 0.04217,0.0261 0.236599,-0.23716 0.432069,-0.58492 0.94094,-1.674 2.50742,-3.32222 3.5856,-3.77271 0.19124,-0.0799 0.64624,-0.14529 1.01112,-0.14529 0.86132,0 1.44976,0.27605 1.87525,0.87973 0.58684,0.83254 0.60158,0.95478 0.58125,4.8184 -0.0275,5.21909 0.21303,6.14823 1.75868,6.79403 0.44298,0.18509 0.46972,0.50173 0.0743,0.88051 -0.5653,0.5416 -1.46169,0.69766 -2.38243,0.41478 z"
       id="path1" /></g></svg>
