<?xml version="1.0" encoding="UTF-8" standalone="no"?>
<svg
   sodipodi:docname="Safety Symbols.svg"
   inkscape:version="1.3.2 (091e20e, 2023-11-25, custom)"
   version="1.1"
   id="svg2"
   height="27.738295mm"
   width="31.438519mm"
   xml:space="preserve"
   xmlns:inkscape="http://www.inkscape.org/namespaces/inkscape"
   xmlns:sodipodi="http://sodipodi.sourceforge.net/DTD/sodipodi-0.dtd"
   xmlns:xlink="http://www.w3.org/1999/xlink"
   xmlns="http://www.w3.org/2000/svg"
   xmlns:svg="http://www.w3.org/2000/svg"
   xmlns:rdf="http://www.w3.org/1999/02/22-rdf-syntax-ns#"
   xmlns:cc="http://creativecommons.org/ns#"
   xmlns:dc="http://purl.org/dc/elements/1.1/"><defs
     id="defs4" /><sodipodi:namedview
     inkscape:document-rotation="0"
     inkscape:snap-bbox-midpoints="true"
     showguides="true"
     inkscape:snap-bbox-edge-midpoints="true"
     inkscape:bbox-nodes="true"
     inkscape:bbox-paths="true"
     inkscape:snap-bbox="true"
     inkscape:snap-global="true"
     inkscape:window-maximized="1"
     inkscape:window-y="-8"
     inkscape:window-x="1912"
     inkscape:window-height="1009"
     inkscape:window-width="1920"
     showgrid="false"
     inkscape:current-layer="g28"
     inkscape:document-units="px"
     inkscape:cy="-2152.2563"
     inkscape:cx="2466.0349"
     inkscape:zoom="0.11313708"
     inkscape:pageshadow="2"
     inkscape:pageopacity="0.0"
     borderopacity="1.0"
     bordercolor="#666666"
     pagecolor="#ffffff"
     id="base"
     inkscape:guide-bbox="true"
     inkscape:pagecheckerboard="true"
     fit-margin-top="0"
     fit-margin-left="0"
     fit-margin-right="0"
     fit-margin-bottom="0"
     inkscape:showpageshadow="2"
     inkscape:deskcolor="#d1d1d1"><inkscape:page
       x="0"
       y="0"
       width="118.82275"
       height="104.83765"
       id="page2"
       margin="0"
       bleed="0" /></sodipodi:namedview><metadata
     id="metadata7"><rdf:RDF><cc:Work
         rdf:about=""><dc:format>image/svg+xml</dc:format><dc:type
           rdf:resource="http://purl.org/dc/dcmitype/StillImage" /></cc:Work></rdf:RDF></metadata><g
     transform="translate(7724.693,-173.2538)"
     id="layer1"
     inkscape:groupmode="layer"
     inkscape:label="Layer 1"><path
       style="fill:#ffff00;stroke-width:1.04759"
       d="m -7715.6044,270.35447 c 0.133,-0.33785 51.4387,-89.47775 51.4748,-89.43396 0.1737,0.21035 50.506,89.40672 50.506,89.50425 z"
       id="path3950-8"
       inkscape:connector-curvature="0"
       sodipodi:nodetypes="cccc"
       inkscape:export-xdpi="371.96799"
       inkscape:export-ydpi="371.96799"
       inkscape:export-filename="..\..\..\..\..\EHS\EHS Public\EHS Topics\img\biohaz.svg" /><path
       sodipodi:type="inkscape:offset"
       inkscape:radius="-0.95446151"
       inkscape:original="M -3077.0508 107.82227 C -3078.5146 107.78059 -3081.0272 108.7774 -3089.9434 112.42188 L -3101.2461 117.04102 L -3106.4082 119.18359 L -3114.541 122.80469 C -3119.0138 124.79634 -3122.971 126.42578 -3123.3359 126.42578 C -3123.7007 126.42578 -3124.1573 126.30019 -3124.3496 126.14844 C -3125.0501 125.59573 -3124.5063 124.83963 -3122.2246 121.76172 L -3119.1211 117.57422 C -3118.5509 116.40894 -3118.4677 115.91545 -3118.3047 115.36133 C -3117.9167 114.03305 -3117.9204 111.58938 -3118.3164 110.47461 C -3118.9522 108.66799 -3120.894 107.97327 -3122.7363 108.89453 C -3123.1819 109.11734 -3124.81 110.88 -3126.3984 112.85938 L -3129.2578 116.42383 L -3131.1035 118.72266 L -3133.8945 122.15234 C -3138.0122 127.20967 -3139.4115 129.54603 -3140.2793 132.81836 C -3141.3415 136.82389 -3144.7563 140.39759 -3149.541 142.51172 C -3150.4624 142.91894 -3151.2168 143.29654 -3151.2168 143.34961 C -3151.2168 143.40271 -3150.8106 144.01346 -3150.3145 144.70703 L -3142.0801 156.21875 C -3136.2019 164.44821 -3136.0961 164.5918 -3135.9258 164.5918 C -3135.8658 164.5918 -3133.8409 163.7061 -3131.4238 162.62305 C -3129.0065 161.54 -3126.4722 160.50688 -3125.793 160.32812 C -3125.1138 160.14934 -3122.3282 159.6833 -3119.6035 159.29297 C -3116.8789 158.90263 -3113.2261 158.21192 -3111.4863 157.75781 C -3105.9607 156.31556 -3099.4273 153.47464 -3093.377 149.88281 C -3091.9346 149.02648 -3085.1826 145.71745 -3078.3711 142.5293 C -3071.5596 139.34117 -3065.6314 136.43527 -3065.1992 136.07227 C -3063.014 134.23673 -3064.5535 131.48242 -3067.7637 131.48242 C -3068.5856 131.48242 -3071.2724 132.46292 -3079.0938 135.61328 C -3086.8922 138.75448 -3089.4295 139.68009 -3089.6875 139.47656 C -3089.8741 139.32938 -3090.0273 139.12843 -3090.0273 139.03125 C -3090.0273 138.93405 -3083.5562 135.80763 -3075.6484 132.08203 C -3066.9298 127.97444 -3061.0805 125.07792 -3060.7871 124.72461 C -3060.0309 123.81392 -3060.1563 122.22939 -3061.0508 121.39062 C -3061.9112 120.58379 -3063.4556 120.16914 -3064.6074 120.43555 C -3065.045 120.53679 -3071.171 123.0152 -3078.2207 125.94141 C -3085.2705 128.86762 -3091.2036 131.21173 -3091.4062 131.15039 C -3091.6089 131.08909 -3091.7754 130.89467 -3091.7754 130.71875 C -3091.7754 130.54187 -3085.5135 127.43588 -3077.7676 123.77148 C -3070.063 120.12668 -3063.5022 116.88777 -3063.1895 116.57422 C -3062.3557 115.73788 -3062.201 114.9588 -3062.6621 113.92969 C -3063.2077 112.71248 -3064.3155 112.09018 -3065.9023 112.10742 C -3066.9597 112.11892 -3069.357 113.04376 -3081.4961 118.12305 C -3089.386 121.42447 -3096.0412 124.12695 -3096.2852 124.12695 C -3096.5289 124.12695 -3096.7285 123.94247 -3096.7285 123.71875 C -3096.7285 123.4324 -3093.5486 121.75147 -3085.9844 118.03906 C -3078.7463 114.48656 -3075.037 112.53208 -3074.6191 112.05078 C -3073.4903 110.75107 -3074.038 108.84413 -3075.7383 108.15039 C -3076.1915 107.96547 -3076.5628 107.83616 -3077.0508 107.82227 z "
       xlink:href="#path2464-1-1"
       style="fill:#2a7fff;fill-opacity:1;stroke:#ffffff;stroke-width:0.1;stroke-miterlimit:4;stroke-dasharray:none"
       id="path4522"
       inkscape:href="#path2464-1-1"
       d="m -3077.0781,108.77539 c -1,-0.0285 -3.5895,0.88552 -12.5039,4.5293 l -11.3008,4.61914 -5.1485,2.13672 -8.121,3.61523 c -2.2436,0.99903 -4.3571,1.90717 -5.9629,2.56836 -0.803,0.3306 -1.479,0.59878 -1.9883,0.78906 -0.2547,0.0951 -0.4654,0.17199 -0.6426,0.22852 -0.1772,0.0565 -0.1891,0.11914 -0.5898,0.11914 -0.5839,0 -1.0375,-0.0342 -1.6055,-0.48242 -0.3054,-0.24093 -0.6155,-0.69712 -0.6445,-1.17774 -0.029,-0.48061 0.1296,-0.86406 0.3339,-1.25781 0.4087,-0.7875 1.1183,-1.72968 2.2598,-3.26953 l 3.0332,-4.09375 c 0.4995,-1.03424 0.562,-1.40618 0.7383,-2.00586 v -0.002 c 0.2987,-1.02523 0.2551,-3.59525 0.01,-4.29688 a 0.95455696,0.95455696 0 0 1 -0,-0.004 c -0.2296,-0.65243 -0.6463,-1.04046 -1.1777,-1.23047 -0.5314,-0.19002 -1.1988,-0.17021 -1.9141,0.1875 0.1309,-0.0655 -0.092,0.0706 -0.3086,0.27539 -0.2161,0.20481 -0.4994,0.49439 -0.8203,0.84179 -0.6418,0.69482 -1.4357,1.6184 -2.2168,2.5918 l -2.8594,3.56445 -1.8457,2.29883 a 0.95455696,0.95455696 0 0 1 -0,0.004 l -2.791,3.42969 a 0.95455696,0.95455696 0 0 1 0,0.002 c -4.0937,5.02781 -5.3716,7.17123 -6.2031,10.30664 -1.1561,4.35946 -4.8021,8.11528 -9.7969,10.32227 -0.2717,0.12006 -0.4678,0.21658 -0.6914,0.32226 0.1047,0.15105 0.1857,0.2763 0.3066,0.44531 l 8.2344,11.51172 a 0.95455696,0.95455696 0 0 1 0,0 c 2.939,4.11466 4.4362,6.21047 5.2089,7.26172 0.234,0.31821 0.2932,0.38817 0.4083,0.53516 0.212,-0.0908 0.4315,-0.18557 0.7441,-0.32227 0.8119,-0.35509 1.9206,-0.84616 3.1269,-1.38672 1.2189,-0.54611 2.4653,-1.07905 3.4981,-1.5 1.0328,-0.42094 1.7865,-0.71745 2.2812,-0.84765 0.4528,-0.11919 1.2814,-0.26595 2.4122,-0.45508 1.1307,-0.18914 2.5148,-0.40531 3.8847,-0.60156 2.6867,-0.38491 6.359,-1.08228 8.0117,-1.51368 5.4072,-1.41132 11.8824,-4.22085 17.8633,-7.77148 0.8193,-0.4864 2.8306,-1.50392 5.5567,-2.83984 2.726,-1.33593 6.1203,-2.96211 9.5312,-4.5586 3.4012,-1.59193 6.5827,-3.1125 8.9629,-4.27929 1.1901,-0.5834 2.1798,-1.07925 2.8926,-1.44727 0.3564,-0.18401 0.6434,-0.33684 0.8457,-0.44922 0.2023,-0.11238 0.379,-0.24499 0.2617,-0.14648 0.828,-0.69555 0.8277,-1.23918 0.5215,-1.78711 -0.3062,-0.54794 -1.1405,-1.11719 -2.4727,-1.11719 -0.031,0 -0.9833,0.19546 -2.7129,0.82617 -1.7296,0.63071 -4.3523,1.66053 -8.2597,3.23438 -3.9024,1.57186 -6.4891,2.58994 -8.1543,3.19726 -0.8327,0.30367 -1.4324,0.50549 -1.8809,0.62696 -0.2243,0.0607 -0.4071,0.1035 -0.6035,0.125 -0.1964,0.0215 -0.4353,0.14925 -0.9043,-0.22071 -0.1594,-0.12574 -0.2886,-0.25786 -0.4062,-0.41211 -0.1177,-0.15424 -0.2969,-0.23306 -0.2969,-0.7832 0,-3.8e-4 0.074,-0.36867 0.074,-0.36914 2e-4,-4.7e-4 0.07,-0.13803 0.1,-0.17969 0.058,-0.0833 0.098,-0.11928 0.1289,-0.14844 0.061,-0.0583 0.09,-0.0785 0.1172,-0.0976 0.054,-0.0383 0.088,-0.0583 0.125,-0.0801 0.074,-0.0436 0.153,-0.088 0.2559,-0.14258 0.2057,-0.10913 0.4926,-0.25517 0.8613,-0.43945 0.7374,-0.36856 1.7963,-0.88486 3.1015,-1.51563 2.6106,-1.26153 6.2079,-2.97595 10.1641,-4.83984 4.3555,-2.052 7.9927,-3.80095 10.5723,-5.07812 1.2898,-0.63859 2.3159,-1.15938 3.0273,-1.53711 0.3557,-0.18887 0.6352,-0.34302 0.8184,-0.45118 0.059,-0.0349 0.088,-0.0548 0.125,-0.0781 0.3502,-0.4689 0.2881,-1.53865 -0.1914,-1.98828 -0.5637,-0.52861 -1.932,-0.8959 -2.6895,-0.72071 0.1237,-0.0286 -0.088,0.0295 -0.3027,0.10938 -0.2145,0.0799 -0.5146,0.19676 -0.8848,0.3418 -0.7403,0.29007 -1.7643,0.69903 -2.9961,1.19726 -2.4635,0.99647 -5.7567,2.34644 -9.2793,3.8086 -3.5291,1.46485 -6.7784,2.78529 -9.1758,3.73242 -1.1986,0.47356 -2.1835,0.85388 -2.8906,1.11523 -0.3535,0.13068 -0.6347,0.22982 -0.8515,0.30078 -0.1085,0.0355 -0.1991,0.0642 -0.2911,0.0879 -0.046,0.0118 -0.09,0.0225 -0.1582,0.0332 -0.068,0.0106 -0.1007,0.0805 -0.4589,-0.0274 h -0 c -0.5984,-0.18146 -1.0469,-0.56829 -1.0469,-1.3457 0,-6.9e-4 0.012,-0.16467 0.027,-0.22852 0.016,-0.0638 0.036,-0.11682 0.055,-0.16015 0.038,-0.0867 0.075,-0.14132 0.1054,-0.1836 0.061,-0.0845 0.1042,-0.12238 0.1387,-0.15429 0.069,-0.0638 0.1106,-0.0925 0.1543,-0.12305 0.088,-0.0611 0.1725,-0.11249 0.2773,-0.17383 0.2098,-0.12268 0.491,-0.27475 0.8516,-0.46484 0.7211,-0.38019 1.7506,-0.90289 3.0215,-1.5332 2.5417,-1.26063 6.0465,-2.95481 9.9238,-4.78907 3.8482,-1.82044 7.4114,-3.53873 10.0469,-4.83984 1.3177,-0.65056 2.4046,-1.19826 3.1738,-1.59766 0.3846,-0.19969 0.6898,-0.3616 0.8985,-0.47851 0.095,-0.0531 0.1634,-0.0939 0.2109,-0.12305 0.3029,-0.31281 0.4316,-0.54418 0.4687,-0.73047 0.039,-0.1942 0.021,-0.42217 -0.1562,-0.81836 -0.398,-0.88797 -1.0269,-1.27229 -2.3594,-1.25781 -0.2583,0.003 -1.0805,0.1842 -3.3066,1.04297 -2.2261,0.85877 -5.8598,2.35947 -11.9278,4.89844 -3.9475,1.65179 -7.5862,3.15395 -10.2714,4.24414 -1.3426,0.54509 -2.4474,0.98709 -3.2364,1.29492 -0.3944,0.15391 -0.7079,0.27243 -0.9414,0.35742 -0.1167,0.0425 -0.2122,0.0763 -0.2968,0.10352 -0.042,0.0136 -0.081,0.0264 -0.129,0.0391 -0.048,0.0126 -0.055,0.0391 -0.2832,0.0391 -0.7253,0 -1.3984,-0.57186 -1.3984,-1.36328 0,-0.45953 0.1819,-0.59209 0.2715,-0.69531 0.09,-0.10323 0.1639,-0.16453 0.2422,-0.22656 0.1565,-0.12407 0.3312,-0.2384 0.5566,-0.37696 0.4509,-0.27712 1.0953,-0.63479 1.9746,-1.09961 1.7586,-0.92963 4.4486,-2.28067 8.2344,-4.13867 3.6148,-1.77416 6.3458,-3.14801 8.2148,-4.13281 0.9346,-0.4924 1.6539,-0.88882 2.1504,-1.18164 0.4966,-0.29282 0.8434,-0.60742 0.6993,-0.44141 0.3627,-0.41767 0.4291,-0.85534 0.3046,-1.28906 -0.1244,-0.43372 -0.4643,-0.85867 -1.0644,-1.10352 -0.4285,-0.17483 -0.6452,-0.24832 -0.9785,-0.25781 z" /><path
       inkscape:export-ydpi="371.96799"
       inkscape:export-xdpi="371.96799"
       sodipodi:nodetypes="csscsscccscccccssccscsccsscssccccccsscsccsccsscccsscscsscccssscssccccscsccccscssssssccsscccssscscscssscscsccssscccccsscccccsccscc"
       inkscape:connector-curvature="0"
       id="path4254-1-6"
       d="m -7607.698,277.36236 c 1.287,-0.8513 1.947,-2.2823 1.81,-3.925 -0.09,-1.0686 -2.662,-5.6778 -27.83,-49.8292 -15.253,-26.7584 -27.95,-48.8939 -28.216,-49.1899 -0.851,-0.9476 -1.69,-1.2402 -3.269,-1.1397 -2.849,0.1814 -0.07,-4.2578 -31.317,50.1063 -20.591,35.8308 -28.003,48.9146 -28.113,49.6318 -0.08,0.5357 -0.08,1.3383 0,1.7837 0.168,0.8966 1.249,2.2556 2.309,2.904 0.664,0.4057 2.739,0.4189 57.167,0.3634 l 56.479,-0.058 0.979,-0.6479 z m -107.126,-7.0056 c 0.129,-0.3277 49.877,-86.7608 49.912,-86.7184 0.168,0.204 48.972,86.6919 48.972,86.7864 0,0.069 -22.266,0.1261 -49.48,0.1261 -27.214,0 -49.446,-0.088 -49.404,-0.1941 z m 42.881,-3.3634 c 2.009,-0.5204 4.209,-1.5514 5.677,-2.6596 l 1.228,-0.9273 1.196,0.8592 c 1.489,1.0705 3.945,2.2156 5.9,2.7514 2.008,0.5504 6.207,0.5485 8.25,-0.01 2.078,-0.5619 4.374,-1.6418 4.374,-2.0577 0,-0.6004 -0.412,-0.6428 -2.607,-0.269 -3.312,0.5642 -6.19,0.01 -8.87,-1.7104 -2.422,-1.5541 -4.638,-4.6508 -5.26,-7.3504 -0.394,-1.7086 -0.3,-4.8337 0.192,-6.4149 l 0.44,-1.4127 -0.708,-0.4302 c -0.626,-0.3808 -0.761,-0.3922 -1.179,-0.1 -0.606,0.4247 -2.367,0.4231 -3.184,-0.01 -0.563,-0.2935 -0.712,-0.2869 -1.328,0.059 -0.517,0.2905 -0.661,0.506 -0.565,0.8485 0.663,2.374 0.805,3.1773 0.805,4.5481 0,7.3011 -6.685,13.159 -13.769,12.0642 -2.576,-0.3982 -3.075,-0.3838 -3.17,0.091 -0.133,0.6679 3.107,1.9964 6.037,2.4759 1.617,0.2645 4.812,0.089 6.541,-0.359 z m 2.059,-8.4348 c 0.38,-0.6628 0.686,-1.3083 0.68,-1.4345 -0.01,-0.1262 -0.858,-0.6333 -1.892,-1.1267 -2.569,-1.2262 -4.597,-3.2718 -5.865,-5.9149 -1.148,-2.3912 -1.505,-4.1987 -1.353,-6.8521 l 0.117,-2.0578 h -1.666 -1.665 l -0.153,1.664 c -0.596,6.5096 3.131,13.1017 9.165,16.2082 0.757,0.39 1.504,0.7112 1.659,0.7139 0.155,0.01 0.593,-0.5374 0.973,-1.2001 z m 11.857,0.8365 c 1.612,-0.6685 3.937,-2.3786 5.44,-4.0018 3.085,-3.3322 4.784,-8.191 4.385,-12.5442 -0.147,-1.5998 -0.173,-1.6561 -0.836,-1.8016 -0.376,-0.083 -1.116,-0.085 -1.646,-0.01 l -0.962,0.1443 0.09,2.2312 c 0.06,1.5214 -0.03,2.7339 -0.283,3.8118 -0.888,3.7977 -3.537,7.1191 -7.064,8.8594 l -1.998,0.9855 0.365,0.7137 c 0.514,1.0083 1.219,1.9761 1.437,1.9761 0.103,0 0.586,-0.1657 1.075,-0.3684 z m -34.172,-8.8697 c 0.125,-0.1578 0.409,-0.8549 0.63,-1.5492 1.248,-3.9161 4.364,-6.9413 8.38,-8.1352 1.649,-0.4902 4.989,-0.4887 6.656,0.01 1.992,0.5875 3.848,1.6882 5.307,3.1471 l 1.346,1.3463 0.664,-0.4728 c 0.433,-0.3082 0.718,-0.7607 0.819,-1.2998 0.09,-0.4932 0.52,-1.2224 1.059,-1.8073 0.691,-0.7497 0.904,-1.1686 0.904,-1.7791 0,-0.7853 -0.02,-0.8032 -1.32,-1.089 -2.227,-0.4904 -4.142,-1.5737 -5.909,-3.3434 -2.513,-2.5167 -3.551,-5.0379 -3.556,-8.6368 -0.01,-3.1808 1.001,-5.7449 3.295,-8.4087 0.994,-1.1549 1.184,-1.8864 0.488,-1.8864 -0.479,0 -2.966,1.9725 -4.227,3.3529 -1.543,1.6883 -2.655,3.6307 -3.527,6.1609 -0.662,1.9226 -0.716,2.3094 -0.722,5.207 l -0.01,3.1301 -1.725,0.8435 c -4.461,2.1808 -7.718,6.19 -8.954,11.0209 -0.762,2.981 -0.534,5.3747 0.399,4.196 z m 55.269,-1.6548 c -0.242,-2.2008 -0.769,-3.9924 -1.791,-6.0914 -0.782,-1.6041 -1.342,-2.3434 -3.148,-4.1587 -1.862,-1.8712 -2.511,-2.3603 -4.258,-3.2083 l -2.06,-1.0005 0.08,-2.6741 c 0.06,-2.1372 -0.01,-3.0488 -0.392,-4.5409 -0.894,-3.5379 -2.878,-6.7404 -5.552,-8.9659 -1.643,-1.3673 -2.21,-1.6945 -2.647,-1.5268 -0.556,0.2133 -0.367,0.7145 0.711,1.8834 1.478,1.603 2.803,4.3827 3.136,6.5763 0.938,6.1879 -3.093,12.1076 -9.28,13.6284 l -1.55,0.3807 v 0.8278 c 0,0.6658 0.136,0.9175 0.693,1.2867 0.723,0.4789 1.602,2.0015 1.602,2.7735 0,0.2466 0.28,0.6185 0.623,0.8266 l 0.624,0.3783 1.534,-1.4472 c 2.769,-2.6124 6.447,-3.8772 9.848,-3.3865 2.023,0.2919 3.935,0.964 5.245,1.8439 2.323,1.5598 4.296,4.1014 5.006,6.4474 0.492,1.6284 0.929,2.1958 1.393,1.8105 0.258,-0.2143 0.299,-0.59 0.181,-1.6632 z m -35.746,-15.719 c 2.455,-1.6755 4.767,-2.3902 7.734,-2.3902 2.963,0 5.279,0.7149 7.724,2.3838 l 1.318,0.8998 0.414,-0.5265 c 0.227,-0.2896 0.619,-0.9087 0.87,-1.3758 l 0.456,-0.8494 -0.686,-0.5725 c -1.116,-0.9308 -4.691,-2.5642 -6.469,-2.9557 -2.121,-0.4668 -5.154,-0.4641 -7.254,0.01 -2.872,0.6436 -7.052,2.8654 -7.041,3.7427 0.01,0.37 1.278,2.5431 1.49,2.5431 0.06,0 0.714,-0.4077 1.444,-0.9059 z"
       style="fill:#000000" /></g></svg>
