<?xml version="1.0" encoding="UTF-8" standalone="no"?>
<!-- Created with Inkscape (http://www.inkscape.org/) -->

<svg
   width="7.8103757mm"
   height="7.3909893mm"
   viewBox="0 0 7.8103754 7.3909892"
   version="1.1"
   id="svg5"
   inkscape:version="1.4 (86a8ad7, 2024-10-11)"
   sodipodi:docname="UI design Amneal logo.svg"
   xml:space="preserve"
   xmlns:inkscape="http://www.inkscape.org/namespaces/inkscape"
   xmlns:sodipodi="http://sodipodi.sourceforge.net/DTD/sodipodi-0.dtd"
   xmlns="http://www.w3.org/2000/svg"
   xmlns:svg="http://www.w3.org/2000/svg"><sodipodi:namedview
     id="namedview7"
     pagecolor="#ffffff"
     bordercolor="#eeeeee"
     borderopacity="1"
     inkscape:pageshadow="0"
     inkscape:pageopacity="0"
     inkscape:pagecheckerboard="true"
     inkscape:document-units="mm"
     showgrid="false"
     inkscape:zoom="4"
     inkscape:cx="-3724.5"
     inkscape:cy="1133.375"
     inkscape:window-width="1920"
     inkscape:window-height="1017"
     inkscape:window-x="-8"
     inkscape:window-y="-8"
     inkscape:window-maximized="1"
     inkscape:current-layer="g5964-8"
     fit-margin-top="10"
     lock-margins="true"
     fit-margin-left="10"
     fit-margin-right="10"
     fit-margin-bottom="10"
     inkscape:showpageshadow="2"
     inkscape:deskcolor="#d1d1d1"
     showguides="true"><inkscape:page
       x="-2.7328329e-14"
       y="0"
       width="7.8103757"
       height="7.3909893"
       id="page2"
       margin="0"
       bleed="0" /></sodipodi:namedview><defs
     id="defs2" /><g
     inkscape:label="Layer 1"
     inkscape:groupmode="layer"
     id="layer1"
     transform="translate(1121.1893,-221.54644)"><g
       transform="matrix(0.0949717,0,0,0.0949717,-1203.7018,-144.16281)"
       id="g5964-8"><g
         transform="matrix(1.923662,0,0,1.923662,-535.42357,-1702.9539)"
         id="g6288-5-8-2"
         inkscape:export-filename="C:\xampp\htdocs\sheener\img\calenda.svg"
         inkscape:export-xdpi="120"
         inkscape:export-ydpi="120"><path
           style="opacity:1;fill:none;fill-opacity:1;fill-rule:nonzero;stroke:#ffffff;stroke-width:1;stroke-linecap:round;stroke-linejoin:round;stroke-miterlimit:4;stroke-dasharray:none;stroke-opacity:1"
           d="m 735.65384,2891.8147 c -2.86611,0 -5.17337,2.2957 -5.17337,5.1475 v 1.9309 h 41.7112 v -1.9309 c 0,-2.8518 -2.30727,-5.1475 -5.17337,-5.1475 h -2.55674 v 3.0207 h -1.82936 v -3.0207 h -22.51145 v 3.0207 h -1.82936 v -3.0207 z"
           id="rect4618-8-1-7-4"
           inkscape:connector-curvature="0" /><path
           style="opacity:1;fill:#ffffff;fill-opacity:1;fill-rule:nonzero;stroke:#ffffff;stroke-width:0.840732;stroke-linecap:round;stroke-linejoin:round;stroke-miterlimit:4;stroke-dasharray:none;stroke-opacity:1"
           d="m 1193.4043,4138.0781 v 19.541 c 0,2.3976 1.94,4.3282 4.3496,4.3282 h 26.3672 c 2.4096,0 4.3496,-1.9306 4.3496,-4.3282 v -19.541 z m 4.3184,2.5469 h 4.5156 v 4.7246 h -4.5156 z m 7.3671,0 h 4.5157 v 4.7246 h -4.5157 z m 7.3672,0 h 4.5157 v 4.7246 h -4.5157 z m 7.3653,0 h 4.5175 v 4.7246 h -4.5175 z m -22.0996,6.7383 h 4.5156 v 4.7246 h -4.5156 z m 7.3671,0 h 4.5157 v 4.7246 h -4.5157 z m 7.3672,0 h 4.5157 v 4.7246 h -4.5157 z m 7.3653,0 h 4.5175 v 4.7246 h -4.5175 z m -22.0996,6.9707 h 4.5156 v 4.7246 h -4.5156 z m 7.3671,0 h 4.5157 v 4.7246 h -4.5157 z m 7.3672,0 h 4.5157 v 4.7246 h -4.5157 z m 7.3653,0 h 4.5175 v 4.7246 h -4.5175 z"
           transform="matrix(1.18944,0,0,1.18944,-688.96077,-2023.4)"
           id="path5421-8-5-7-5"
           inkscape:connector-curvature="0" /><rect
           y="2887.5559"
           x="762.63263"
           height="7.2798767"
           width="1.8290988"
           id="rect5462-7-2-6-5"
           style="opacity:1;fill:#ffffff;fill-opacity:1;fill-rule:nonzero;stroke:#ffffff;stroke-width:1;stroke-linecap:round;stroke-linejoin:round;stroke-miterlimit:4;stroke-dasharray:none;stroke-opacity:1" /><rect
           style="opacity:1;fill:#ffffff;fill-opacity:1;fill-rule:nonzero;stroke:#ffffff;stroke-width:1;stroke-linecap:round;stroke-linejoin:round;stroke-miterlimit:4;stroke-dasharray:none;stroke-opacity:1"
           id="rect6286-6-4-1"
           width="1.8290988"
           height="7.2798767"
           x="738.27826"
           y="2887.531" /></g></g></g></svg>
