<?xml version="1.0" encoding="UTF-8" standalone="no"?>
<!-- Created with Inkscape (http://www.inkscape.org/) -->

<svg
   width="7.7085733mm"
   height="7.8495088mm"
   viewBox="0 0 7.7085731 7.8495086"
   version="1.1"
   id="svg5"
   inkscape:version="1.3.2 (091e20e, 2023-11-25, custom)"
   sodipodi:docname="UI design Amneal logo.svg"
   xml:space="preserve"
   xmlns:inkscape="http://www.inkscape.org/namespaces/inkscape"
   xmlns:sodipodi="http://sodipodi.sourceforge.net/DTD/sodipodi-0.dtd"
   xmlns:xlink="http://www.w3.org/1999/xlink"
   xmlns="http://www.w3.org/2000/svg"
   xmlns:svg="http://www.w3.org/2000/svg"><sodipodi:namedview
     id="namedview7"
     pagecolor="#ffffff"
     bordercolor="#eeeeee"
     borderopacity="1"
     inkscape:pageshadow="0"
     inkscape:pageopacity="0"
     inkscape:pagecheckerboard="true"
     inkscape:document-units="mm"
     showgrid="false"
     inkscape:zoom="256"
     inkscape:cx="-4637.1094"
     inkscape:cy="181.99805"
     inkscape:window-width="1920"
     inkscape:window-height="1009"
     inkscape:window-x="1912"
     inkscape:window-y="-8"
     inkscape:window-maximized="1"
     inkscape:current-layer="layer1"
     fit-margin-top="10"
     lock-margins="true"
     fit-margin-left="10"
     fit-margin-right="10"
     fit-margin-bottom="10"
     inkscape:showpageshadow="2"
     inkscape:deskcolor="#d1d1d1"
     showguides="true" /><defs
     id="defs2"><linearGradient
       id="linearGradient40"
       inkscape:collect="always"><stop
         style="stop-color:#ff7b55;stop-opacity:1;"
         offset="0"
         id="stop40" /><stop
         style="stop-color:#5599ff;stop-opacity:1;"
         offset="1"
         id="stop41" /></linearGradient><linearGradient
       inkscape:collect="always"
       xlink:href="#linearGradient40"
       id="linearGradient41"
       x1="-1146.8749"
       y1="153.67586"
       x2="-1060.4476"
       y2="153.67586"
       gradientUnits="userSpaceOnUse" /></defs><g
     inkscape:label="Layer 1"
     inkscape:groupmode="layer"
     id="layer1"
     transform="translate(1371.3554,8.2968478)"><g
       id="g2-6-92"
       transform="matrix(0.11626222,0,0,0.11626222,-1404.0791,-26.443849)"
       inkscape:export-filename="..\..\..\..\..\xampp\htdocs\Workflow\img\amneal.svg"
       inkscape:export-xdpi="96"
       inkscape:export-ydpi="96"
       style="fill:#f9f9f9"><path
         style="fill:#f9f9f9;fill-opacity:1;stroke-width:0.264583"
         d="m 239.10841,155.88036 c 0,-0.7622 1.38844,-7.19435 2.14437,-9.93414 0.44048,-1.59647 1.6264,-5.44218 2.63537,-8.54603 2.35993,-7.25976 2.89318,-9.33206 2.89318,-11.24337 0,-1.38583 -0.39824,-1.93309 -0.81127,-2.36928 -0.47106,-0.49747 -0.8377,-0.80917 -2.84427,-0.6504 -2.96374,0.23451 -9.09185,2.43923 -14.93046,5.37156 -1.3042,0.655 -2.41084,1.15133 -2.45922,1.10295 -0.0875,-0.0875 0.93603,-0.74942 11.7848,-7.62072 19.13861,-12.12186 35.73909,-20.97906 47.03664,-25.096464 l 2.18977,-0.798062 -1.33417,1.496904 c -2.51616,2.823062 -2.96941,4.841082 -1.6803,7.481242 0.53694,1.09968 1.90002,2.62252 5.75468,6.42913 2.7781,2.74348 4.81297,4.89759 4.52192,4.78691 -3.55738,-1.35276 -8.45929,-2.83005 -10.56425,-3.18376 -3.50322,-0.58867 -8.25076,-0.40606 -10.867,0.41799 -5.11937,1.61247 -10.93795,5.45586 -15.50432,10.24119 -5.36129,5.61838 -8.87106,11.64773 -14.52411,24.95058 -2.8601,6.73044 -3.44136,7.94043 -3.44136,7.16377 z m 16.79353,-49.73801 c 0.45475,-1.43279 3.41556,-7.708548 4.74215,-10.051492 3.97248,-7.015983 6.86693,-8.257019 10.76147,-4.614135 1.36278,1.274728 4.09939,4.548312 3.91685,4.685422 -0.0541,0.04064 -0.75322,0.34812 -1.55358,0.683289 -3.95178,1.654881 -14.2444,7.050686 -16.53646,8.876926 -1.7107,1.36303 -1.53265,1.05713 -1.33043,0.41999 z"
         id="path1117-4-9"
         sodipodi:nodetypes="sssssssssscssscssssssssssss" /><path
         id="path2403-0-2"
         style="font-size:23.7712px;line-height:1.25;font-family:'FONTSPRING DEMO - PODIUM Sharp 7.8';-inkscape-font-specification:'FONTSPRING DEMO - PODIUM Sharp 7.8, ';text-align:center;text-anchor:middle;fill:#f9f9f9;stroke-width:1.48569"
         d="m 383.43586,120.73716 c -0.64609,0 -1.16995,0.52596 -1.16995,1.17202 0,0.64606 0.52386,1.17202 1.16995,1.17202 0.6461,0 1.17203,-0.52596 1.17203,-1.17202 0,-0.64606 -0.52593,-1.17202 -1.17203,-1.17202 z m -6.7355,0.0171 v 17.1421 h 4.34495 v -17.1421 z m 6.7355,0.15503 c 0.55347,0 1.00201,0.44652 1.00201,0.99993 0,0.55342 -0.44854,0.99994 -1.00201,0.99994 -0.55346,0 -0.99994,-0.44652 -0.99994,-0.99994 0,-0.55341 0.44648,-0.99993 0.99994,-0.99993 z m -0.40824,0.29972 v 1.40146 h 0.18345 v -0.53691 h 0.21187 l 0.21653,0.53691 h 0.20567 l -0.22634,-0.55138 c 0.17718,-0.0377 0.22737,-0.15099 0.22737,-0.31988 v -0.19792 c 0,-0.20841 -0.0761,-0.33228 -0.3762,-0.33228 z m 0.18345,0.19224 h 0.2589 c 0.16523,0 0.19224,0.0722 0.19224,0.16019 v 0.15813 c 0,0.0988 -0.027,0.16175 -0.19224,0.16175 h -0.2589 z m -113.70055,3.72638 c -6.55637,0 -8.43359,1.27478 -8.43359,3.64836 v 1.20871 h 4.26847 v -1.14308 c 0,-0.98899 0.64268,-1.56011 4.16512,-1.56011 4.08808,0 4.31911,1.16455 4.31911,2.26343 v 2.13216 c -1.10558,-0.59339 -3.13635,-0.96738 -6.29884,-0.96738 -5.42506,0 -6.89053,1.31889 -6.89053,3.05511 v 1.34049 c 0,1.7582 1.46547,3.12074 6.89053,3.12074 3.57387,0 5.75913,-0.54904 6.76186,-1.31827 l 0.23151,0.98857 h 3.65094 v -8.21913 c 0,-2.52742 -1.36259,-4.5496 -8.66458,-4.5496 z m 22.08599,0 c -2.62255,0 -4.47418,0.59349 -5.63118,1.73633 l -0.25683,-1.42885 h -3.65094 v 12.48348 h 4.34495 V 129.809 c 0,-1.64831 1.46547,-2.46186 3.85661,-2.46186 2.41686,0 3.59978,0.70345 3.59978,2.39571 v 8.17574 h 4.08813 V 129.809 c 0,-1.64831 1.46558,-2.46186 3.88245,-2.46186 2.39114,0 3.57394,0.70345 3.57394,2.39571 v 8.17574 h 4.34495 v -8.35143 c 0,-3.01093 -2.08256,-4.43953 -6.47919,-4.43953 -2.93107,0 -4.85943,0.65925 -5.96501,1.99988 -0.9256,-1.34063 -2.85372,-1.99988 -5.70766,-1.99988 z m 32.39595,0 c -3.2139,0 -5.21921,0.65935 -6.45335,1.86811 l -0.25735,-1.56063 h -3.65094 v 12.46125 h 4.34496 v -7.9778 c 0,-1.58238 1.4658,-2.57142 4.55114,-2.57142 3.11106,0 4.29379,0.90115 4.29379,2.52749 v 8.02173 h 4.34496 v -8.19743 c 0,-2.94499 -2.10809,-4.5713 -7.17321,-4.5713 z m 19.43758,0 c -7.40484,0 -8.76743,2.02218 -8.76743,4.5496 v 3.99975 c 0,2.52742 1.36259,4.54908 8.76743,4.54908 6.81347,0 8.71626,-1.3182 8.71626,-3.69177 v -0.87953 h -4.29379 v 0.85732 c 0,0.98899 -0.66864,1.56062 -4.42247,1.56062 -4.16523,0 -4.42247,-1.16506 -4.42247,-2.26394 v -1.71411 h 13.13873 v -3.16466 c 0,-2.3516 -1.90279,-3.80236 -8.71626,-3.80236 z m 20.72328,0 c -6.55636,0 -8.43308,1.27478 -8.43308,3.64836 v 1.20871 h 4.26796 v -1.14308 c 0,-0.98899 0.64269,-1.56011 4.16512,-1.56011 4.08808,0 4.31963,1.16455 4.31963,2.26343 v 2.13216 c -1.10559,-0.59339 -3.13687,-0.96738 -6.29936,-0.96738 -5.42506,0 -6.89053,1.31889 -6.89053,3.05511 v 1.34049 c 0,1.7582 1.46547,3.12074 6.89053,3.12074 3.57387,0 5.75912,-0.54904 6.76187,-1.31827 l 0.23151,0.98857 h 3.65094 v -8.21913 c 0,-2.52742 -1.36261,-4.5496 -8.66459,-4.5496 z m -20.72328,2.15388 c 3.75383,0 4.42247,0.68119 4.42247,1.67018 v 1.47278 h -8.84494 v -0.87953 c 0,-1.09888 0.25724,-2.26343 4.42247,-2.26343 z m -74.4337,5.38468 c 3.88239,0 4.83329,0.57111 4.83329,1.18649 v 1.16479 c 0,0.63735 -0.9509,1.20871 -4.83329,1.20871 -3.47102,0 -4.01113,-0.57136 -4.01113,-1.20871 v -1.16479 c 0,-0.61538 0.54011,-1.18649 4.01113,-1.18649 z m 94.6428,0 c 3.88239,0 4.83381,0.57111 4.83381,1.18649 v 1.16479 c 0,0.63735 -0.95142,1.20871 -4.83381,1.20871 -3.47102,0 -4.01113,-0.57136 -4.01113,-1.20871 v -1.16479 c 0,-0.61538 0.54011,-1.18649 4.01113,-1.18649 z" /></g><path
       style="color:#000000;fill:url(#linearGradient41);stroke:none;stroke-linecap:round;stroke-linejoin:round;stroke-opacity:1;-inkscape-stroke:none;paint-order:stroke fill markers"
       sodipodi:type="inkscape:offset"
       inkscape:radius="0"
       inkscape:original="M -1017.7402 131.01562 C -1021.6536 131.01778 -1024.8398 134.17329 -1024.8398 138.05859 C -1024.8398 138.54382 -1024.7904 139.01706 -1024.6953 139.47461 C -1024.559 140.13118 -1024.836 140.87168 -1025.4414 141.16211 L -1031.9805 144.29883 C -1032.7072 144.64747 -1033.5426 144.31929 -1033.9727 143.63867 C -1035.6001 141.06388 -1038.5057 139.34963 -1041.8125 139.34961 C -1046.1019 139.34958 -1049.7189 142.23643 -1050.7422 146.14062 C -1050.8302 146.47762 -1051.1604 146.71925 -1051.5059 146.67383 L -1061.7637 145.32422 C -1062.1092 145.27882 -1062.3574 144.9616 -1062.3574 144.61328 C -1062.3574 140.90635 -1065.3982 137.89255 -1069.1309 137.89258 C -1072.3658 137.89261 -1075.0797 140.15556 -1075.7461 143.17188 C -1075.8211 143.512 -1076.1361 143.785 -1076.4844 143.77344 L -1086.627 143.4375 L -1086.6602 144.41602 L -1076.5312 144.75195 C -1076.1829 144.76355 -1075.8964 145.05448 -1075.8555 145.40039 C -1075.4606 148.73625 -1072.5947 151.332 -1069.1309 151.33203 C -1068.258 151.33204 -1067.4233 151.16548 -1066.6562 150.86523 C -1066.332 150.73826 -1065.9341 150.84939 -1065.752 151.14648 L -1061.334 158.34961 C -1061.1519 158.64666 -1061.2307 159.06058 -1061.4668 159.31641 C -1062.1347 160.04018 -1062.543 161.00573 -1062.543 162.06445 C -1062.543 164.30168 -1060.7177 166.12502 -1058.4805 166.125 C -1057.9949 166.12499 -1057.5297 166.0405 -1057.0977 165.88281 C -1056.3447 165.60788 -1055.357 165.5825 -1054.7539 166.11719 L -1052.0488 168.51367 C -1051.4457 169.04836 -1051.3662 170.01433 -1051.6094 170.7793 C -1051.7504 171.22275 -1051.8262 171.69621 -1051.8262 172.18555 C -1051.8262 174.75156 -1049.7359 176.84181 -1047.1699 176.8418 C -1045.2702 176.8418 -1043.6314 175.69479 -1042.9082 174.05859 C -1042.6376 173.4462 -1042.0245 172.8775 -1041.3535 172.85547 L -1025.7539 172.34375 C -1025.0829 172.32175 -1024.5008 172.84984 -1024.3516 173.50391 C -1023.4497 177.45656 -1019.9085 180.41405 -1015.6855 180.41406 C -1011.4854 180.4141 -1007.9609 177.48881 -1007.0352 173.56836 C -1006.8572 172.81422 -1006.1935 172.16436 -1005.418 172.14453 L -1000.2344 172.01367 L -1000.2578 171.0332 L -1005.4004 171.16602 C -1006.1759 171.18582 -1006.8157 170.56705 -1006.9648 169.80664 C -1007.7657 165.72141 -1011.3703 162.63276 -1015.6875 162.63281 C -1017.8127 162.63282 -1019.7628 163.381 -1021.293 164.62891 C -1021.8129 165.05293 -1022.5981 165.11023 -1023.1133 164.67969 L -1034.0215 155.56445 C -1034.64 155.04765 -1034.6754 154.16491 -1034.2129 153.50586 C -1033.1922 152.05148 -1032.5918 150.29261 -1032.5918 148.39453 C -1032.5918 148.0186 -1032.6161 147.64687 -1032.6621 147.2832 C -1032.7632 146.48448 -1032.3751 145.57536 -1031.6484 145.22656 L -1025.0176 142.04297 C -1024.4123 141.75242 -1023.6576 141.99869 -1023.2305 142.51562 C -1021.9268 144.0937 -1019.948 145.10353 -1017.7363 145.10352 C -1014.7152 145.10353 -1012.1284 143.22278 -1011.1035 140.57812 C -1010.8237 139.85599 -1010.1018 139.23261 -1009.3262 139.24219 L -1002.3164 139.32812 L -1002.3047 138.35156 L -1009.2324 138.26562 C -1010.008 138.25563 -1010.6109 137.68455 -1010.7227 137.00586 C -1011.2087 134.04978 -1013.7284 131.01773 -1017.7363 131.01562 L -1017.7402 131.01562 z M -1017.7363 131.99219 C -1014.3452 131.99218 -1011.6094 134.70592 -1011.6094 138.05859 C -1011.6094 141.41127 -1014.3452 144.12306 -1017.7363 144.12305 C -1021.1273 144.12306 -1023.8613 141.41127 -1023.8613 138.05859 C -1023.8613 134.70592 -1021.1273 131.99218 -1017.7363 131.99219 z M -1069.1309 138.87305 C -1065.9226 138.87303 -1063.3359 141.44009 -1063.3359 144.61328 C -1063.3359 147.78647 -1065.9226 150.35355 -1069.1309 150.35352 C -1072.3391 150.3535 -1074.9277 147.78644 -1074.9277 144.61328 C -1074.9277 141.44013 -1072.3391 138.87308 -1069.1309 138.87305 z M -1041.8125 140.32812 C -1037.2496 140.32815 -1033.5703 143.93982 -1033.5703 148.39453 C -1033.5703 152.84922 -1037.2496 156.45896 -1041.8125 156.45898 C -1046.3755 156.45901 -1050.0547 152.84926 -1050.0547 148.39453 C -1050.0547 143.93979 -1046.3755 140.3281 -1041.8125 140.32812 z M -1061.9277 146.29102 L -1051.6328 147.64453 C -1051.2873 147.68993 -1051.0332 148.00709 -1051.0352 148.35547 C -1051.0353 148.36797 -1051.0352 148.38203 -1051.0352 148.39453 C -1051.0352 153.38924 -1046.8939 157.43948 -1041.8125 157.43945 C -1040.0741 157.43944 -1038.448 156.96473 -1037.0586 156.14062 C -1036.3661 155.72985 -1035.3646 155.71956 -1034.7461 156.23633 L -1023.7422 165.42969 C -1023.227 165.86018 -1023.1443 166.64331 -1023.4688 167.23047 C -1023.956 168.11192 -1024.2968 169.08381 -1024.4609 170.11523 C -1024.5664 170.77779 -1025.1142 171.34321 -1025.7852 171.36523 L -1041.3086 171.875 C -1041.9796 171.897 -1042.5392 171.3581 -1042.75 170.72266 C -1043.3646 168.86949 -1045.1161 167.5293 -1047.1719 167.5293 C -1047.858 167.5293 -1048.5085 167.67717 -1049.0957 167.94531 C -1049.8259 168.27876 -1050.7973 168.31588 -1051.4004 167.78125 L -1054.0918 165.39453 C -1054.6949 164.8599 -1054.7694 163.89117 -1054.5605 163.11719 C -1054.4695 162.78123 -1054.4199 162.42843 -1054.4199 162.06445 C -1054.4199 159.82727 -1056.2433 158.00396 -1058.4805 158.00391 C -1058.861 158.00391 -1059.2305 158.05539 -1059.5801 158.1543 C -1059.9151 158.2491 -1060.3198 158.13298 -1060.502 157.83594 L -1064.9102 150.64453 C -1065.0924 150.34748 -1065.006 149.94772 -1064.7402 149.72266 C -1063.8327 148.95446 -1063.0451 147.97972 -1062.7324 146.8125 C -1062.6394 146.46387 -1062.2152 146.25324 -1061.9277 146.29102 z M -1058.4805 158.98242 C -1056.7724 158.98246 -1055.3984 160.35632 -1055.3984 162.06445 C -1055.3984 163.77258 -1056.7724 165.14645 -1058.4805 165.14648 C -1060.1887 165.14649 -1061.5645 163.77261 -1061.5645 162.06445 C -1061.5645 160.35629 -1060.1887 158.98241 -1058.4805 158.98242 z M -1015.6855 163.61328 C -1011.3105 163.61324 -1007.7734 167.14847 -1007.7734 171.52344 C -1007.7734 175.89841 -1011.3105 179.4356 -1015.6855 179.43555 C -1020.0604 179.43554 -1023.5957 175.89837 -1023.5957 171.52344 C -1023.5957 167.14851 -1020.0604 163.61329 -1015.6855 163.61328 z M -1047.1719 168.50781 C -1045.1349 168.5078 -1043.4922 170.14861 -1043.4922 172.18555 C -1043.4922 174.22249 -1045.1349 175.86134 -1047.1719 175.86133 C -1049.2088 175.86134 -1050.8496 174.22249 -1050.8496 172.18555 C -1050.8496 170.14861 -1049.2088 168.5078 -1047.1719 168.50781 z "
       xlink:href="#path4-6"
       id="path63"
       inkscape:href="#path4-6"
       d="m -1017.7402,131.01562 c -3.9134,0.002 -7.0996,3.15767 -7.0996,7.04297 0,0.48523 0.049,0.95847 0.1445,1.41602 0.1363,0.65657 -0.1407,1.39707 -0.7461,1.6875 l -6.5391,3.13672 c -0.7267,0.34864 -1.5621,0.0205 -1.9922,-0.66016 -1.6274,-2.57479 -4.533,-4.28904 -7.8398,-4.28906 -4.2894,-3e-5 -7.9064,2.88682 -8.9297,6.79101 -0.088,0.337 -0.4182,0.57863 -0.7637,0.53321 l -10.2578,-1.34961 c -0.3455,-0.0454 -0.5937,-0.36262 -0.5937,-0.71094 0,-3.70693 -3.0408,-6.72073 -6.7735,-6.7207 -3.2349,3e-5 -5.9488,2.26298 -6.6152,5.2793 -0.075,0.34012 -0.39,0.61312 -0.7383,0.60156 l -10.1426,-0.33594 -0.033,0.97852 10.129,0.33593 c 0.3483,0.0116 0.6348,0.30253 0.6757,0.64844 0.3949,3.33586 3.2608,5.93161 6.7246,5.93164 0.8729,1e-5 1.7076,-0.16655 2.4747,-0.4668 0.3242,-0.12697 0.7221,-0.0158 0.9042,0.28125 l 4.418,7.20313 c 0.1821,0.29705 0.1033,0.71097 -0.1328,0.9668 -0.6679,0.72377 -1.0762,1.68932 -1.0762,2.74804 0,2.23723 1.8253,4.06057 4.0625,4.06055 0.4856,-1e-5 0.9508,-0.0845 1.3828,-0.24219 0.753,-0.27493 1.7407,-0.30031 2.3438,0.23438 l 2.7051,2.39648 c 0.6031,0.53469 0.6826,1.50066 0.4394,2.26563 -0.141,0.44345 -0.2168,0.91691 -0.2168,1.40625 0,2.56601 2.0903,4.65626 4.6563,4.65625 1.8997,0 3.5385,-1.14701 4.2617,-2.78321 0.2706,-0.61239 0.8837,-1.18109 1.5547,-1.20312 l 15.5996,-0.51172 c 0.671,-0.022 1.2531,0.50609 1.4023,1.16016 0.9019,3.95265 4.4431,6.91014 8.6661,6.91015 4.2001,4e-5 7.7246,-2.92525 8.6503,-6.8457 0.178,-0.75414 0.8417,-1.404 1.6172,-1.42383 l 5.1836,-0.13086 -0.023,-0.98047 -5.1426,0.13282 c -0.7755,0.0198 -1.4153,-0.59897 -1.5644,-1.35938 -0.8009,-4.08523 -4.4055,-7.17388 -8.7227,-7.17383 -2.1252,1e-5 -4.0753,0.74819 -5.6055,1.9961 -0.5199,0.42402 -1.3051,0.48132 -1.8203,0.0508 l -10.9082,-9.11524 c -0.6185,-0.5168 -0.6539,-1.39954 -0.1914,-2.05859 1.0207,-1.45438 1.6211,-3.21325 1.6211,-5.11133 0,-0.37593 -0.024,-0.74766 -0.07,-1.11133 -0.1011,-0.79872 0.287,-1.70784 1.0137,-2.05664 l 6.6308,-3.18359 c 0.6053,-0.29055 1.36,-0.0443 1.7871,0.47265 1.3037,1.57808 3.2825,2.58791 5.4942,2.5879 3.0211,1e-5 5.6079,-1.88074 6.6328,-4.5254 0.2798,-0.72213 1.0017,-1.34551 1.7773,-1.33593 l 7.0098,0.0859 0.012,-0.97656 -6.9277,-0.0859 c -0.7756,-0.01 -1.3785,-0.58107 -1.4903,-1.25976 -0.486,-2.95608 -3.0057,-5.98813 -7.0136,-5.99024 z m 0,0.97657 c 3.3911,-1e-5 6.1269,2.71373 6.1269,6.0664 0,3.35268 -2.7358,6.06447 -6.1269,6.06446 -3.391,1e-5 -6.125,-2.71178 -6.125,-6.06446 0,-3.35267 2.734,-6.06641 6.125,-6.0664 z m -51.3946,6.88086 c 3.2083,-2e-5 5.795,2.56704 5.795,5.74023 0,3.17319 -2.5867,5.74027 -5.795,5.74024 -3.2082,-2e-5 -5.7968,-2.56708 -5.7968,-5.74024 0,-3.17315 2.5886,-5.7402 5.7968,-5.74023 z m 27.3184,1.45507 c 4.5629,3e-5 8.2422,3.6117 8.2422,8.06641 0,4.45469 -3.6793,8.06443 -8.2422,8.06445 -4.563,3e-5 -8.2422,-3.60972 -8.2422,-8.06445 0,-4.45474 3.6792,-8.06643 8.2422,-8.06641 z m -20.1152,5.9629 10.2949,1.35351 c 0.3455,0.0454 0.5996,0.36256 0.5976,0.71094 -10e-5,0.0125 0,0.0266 0,0.0391 0,4.99471 4.1413,9.04495 9.2227,9.04492 1.7384,-1e-5 3.3645,-0.47472 4.7539,-1.29883 0.6925,-0.41077 1.694,-0.42106 2.3125,0.0957 l 11.0039,9.19336 c 0.5152,0.43049 0.5979,1.21362 0.2734,1.80078 -0.4872,0.88145 -0.828,1.85334 -0.9921,2.88476 -0.1055,0.66256 -0.6533,1.22798 -1.3243,1.25 l -15.5234,0.50977 c -0.671,0.022 -1.2306,-0.5169 -1.4414,-1.15234 -0.6146,-1.85317 -2.3661,-3.19336 -4.4219,-3.19336 -0.6861,0 -1.3366,0.14787 -1.9238,0.41601 -0.7302,0.33345 -1.7016,0.37057 -2.3047,-0.16406 l -2.6914,-2.38672 c -0.6031,-0.53463 -0.6776,-1.50336 -0.4687,-2.27734 0.091,-0.33596 0.1406,-0.68876 0.1406,-1.05274 0,-2.23718 -1.8234,-4.06049 -4.0606,-4.06054 -0.3805,0 -0.75,0.0515 -1.0996,0.15039 -0.335,0.0948 -0.7397,-0.0213 -0.9219,-0.31836 l -4.4082,-7.19141 c -0.1822,-0.29705 -0.096,-0.69681 0.17,-0.92187 0.9075,-0.7682 1.6951,-1.74294 2.0078,-2.91016 0.093,-0.34863 0.5172,-0.55926 0.8047,-0.52148 z m 3.4472,12.6914 c 1.7081,4e-5 3.0821,1.3739 3.0821,3.08203 0,1.70813 -1.374,3.082 -3.0821,3.08203 -1.7082,1e-5 -3.084,-1.37387 -3.084,-3.08203 0,-1.70816 1.3758,-3.08204 3.084,-3.08203 z m 42.795,4.63086 c 4.375,-4e-5 7.9121,3.53519 7.9121,7.91016 0,4.37497 -3.5371,7.91216 -7.9121,7.91211 -4.3749,-1e-5 -7.9102,-3.53718 -7.9102,-7.91211 0,-4.37493 3.5353,-7.91015 7.9102,-7.91016 z m -31.4864,4.89453 c 2.037,-1e-5 3.6797,1.6408 3.6797,3.67774 0,2.03694 -1.6427,3.67579 -3.6797,3.67578 -2.0369,1e-5 -3.6777,-1.63884 -3.6777,-3.67578 0,-2.03694 1.6408,-3.67775 3.6777,-3.67774 z"
       transform="translate(-3.3214,6.25288)" /><path
       id="path4-5-4-34-5"
       style="color:#000000;fill:#ffffff;stroke-width:1.73113;stroke-linecap:round;stroke-linejoin:round;-inkscape-stroke:none;paint-order:stroke fill markers"
       d="m -1368.1562,-7.8244412 c -0.1576,0.00305 -0.3173,0.017792 -0.475,0.044182 l 0.4649,0.1640283 -0.161,0.787621 c 0.2178,-0.026258 0.41,-0.011737 0.6233,0.02489 0.566,0.097207 1.0923,0.4122656 1.4474,0.9196361 0.1745,0.2491665 0.2901,0.5215204 0.3515,0.8006561 l 0.4903,0.4365586 0.5188,-0.4240344 c -0.069,-0.4838575 -0.2475,-0.9588077 -0.5456,-1.3848218 -0.5107,-0.7296658 -1.2733,-1.1811908 -2.0925,-1.3222008 -0.2047,-0.035253 -0.413,-0.050532 -0.6218,-0.046519 z m -1.951,0.6950947 c -1.3451,1.0553945 -1.6576,2.997067 -0.6701,4.4067391 0.048,0.068052 0.097,0.1335932 0.1506,0.1966781 l -0.085,-0.5191067 0.7532,-0.249213 c -0.017,-0.01736 -0.024,-0.03483 -0.036,-0.052407 -0.61,-0.925237 -0.4437,-2.1414822 0.3667,-2.8836298 l 0.1367,-0.6646787 z m 4.0531,3.4470076 c -0.1627,0.358599 -0.4214,0.6809908 -0.7709,0.9257372 -0.6012,0.4208822 -1.3269,0.512325 -1.9681,0.3140002 l -0.6083,0.2003876 0.1108,0.6772029 c 0.9748,0.3704365 2.1152,0.2659613 3.0334,-0.3766213 0.5441,-0.3808284 0.9367,-0.8997819 1.1637,-1.4762336 l -0.3459,0.3141643 z"
       sodipodi:nodetypes="ccccsscccssscccccsccccccccscccc"
       inkscape:export-filename="..\..\..\..\..\xampp\htdocs\sheener\img\clear.svg"
       inkscape:export-xdpi="210.03999"
       inkscape:export-ydpi="210.03999" /><path
       id="path88"
       style="color:#000000;fill:#ffffff;stroke-width:1.73113;stroke-linecap:round;-inkscape-stroke:none"
       d="m -1370.5099,-8.2949945 a 0.49768512,0.49768512 0 0 0 -0.4231,0.3184732 0.49768512,0.49768512 0 0 0 0.2872,0.6423141 l 1.1531,0.4392426 -0.2496,1.2175338 a 0.49768512,0.49768512 0 0 0 0.3847,0.5877442 0.49768512,0.49768512 0 0 0 0.5886,-0.388251 l 0.4258,-2.0495006 -1.9475,-0.7371403 a 0.49768512,0.49768512 0 0 0 -0.2192,-0.030416 z m 3.8064,2.6953928 a 0.49768512,0.49768512 0 0 0 -0.3443,0.1654988 0.49768512,0.49768512 0 0 0 0.039,0.703146 l 1.5657,1.3928732 1.6129,-1.3186225 a 0.49768512,0.49768512 0 0 0 0.072,-0.6995676 0.49768512,0.49768512 0 0 0 -0.7005,-0.071567 l -0.9562,0.780975 -0.9304,-0.8283882 a 0.49768512,0.49768512 0 0 0 -0.358,-0.1243478 z m -1.7193,1.998509 a 0.49768512,0.49768512 0 0 0 -0.1091,0.023259 l -1.9887,0.6593111 0.3346,2.05576266 a 0.49768512,0.49768512 0 0 0 0.5716,0.4088266 0.49768512,0.49768512 0 0 0 0.4124,-0.57164156 l -0.1994,-1.2166394 1.1799,-0.3891455 a 0.49768512,0.49768512 0 0 0 0.3185,-0.6288953 0.49768512,0.49768512 0 0 0 -0.5198,-0.3408376 z" /></g></svg>
