<?xml version="1.0" encoding="UTF-8" standalone="no"?>
<!-- Created with Inkscape (http://www.inkscape.org/) -->

<svg
   width="6.3644695mm"
   height="6.3729577mm"
   viewBox="0 0 6.3644693 6.3729576"
   version="1.1"
   id="svg5"
   inkscape:version="1.3.2 (091e20e, 2023-11-25, custom)"
   sodipodi:docname="UI design Amneal logo.svg"
   xml:space="preserve"
   xmlns:inkscape="http://www.inkscape.org/namespaces/inkscape"
   xmlns:sodipodi="http://sodipodi.sourceforge.net/DTD/sodipodi-0.dtd"
   xmlns:xlink="http://www.w3.org/1999/xlink"
   xmlns="http://www.w3.org/2000/svg"
   xmlns:svg="http://www.w3.org/2000/svg"><sodipodi:namedview
     id="namedview7"
     pagecolor="#ffffff"
     bordercolor="#eeeeee"
     borderopacity="1"
     inkscape:pageshadow="0"
     inkscape:pageopacity="0"
     inkscape:pagecheckerboard="true"
     inkscape:document-units="mm"
     showgrid="false"
     inkscape:zoom="2"
     inkscape:cx="-1447"
     inkscape:cy="-2604.75"
     inkscape:window-width="1920"
     inkscape:window-height="1017"
     inkscape:window-x="1912"
     inkscape:window-y="-8"
     inkscape:window-maximized="1"
     inkscape:current-layer="layer1"
     fit-margin-top="10"
     lock-margins="true"
     fit-margin-left="10"
     fit-margin-right="10"
     fit-margin-bottom="10"
     inkscape:showpageshadow="2"
     inkscape:deskcolor="#d1d1d1"
     showguides="true" /><defs
     id="defs2" /><g
     inkscape:label="Layer 1"
     inkscape:groupmode="layer"
     id="layer1"
     transform="translate(1375.5279,20.139958)"><path
       style="color:#000000;font-style:normal;font-variant:normal;font-weight:normal;font-stretch:normal;font-size:medium;line-height:normal;font-family:sans-serif;font-variant-ligatures:normal;font-variant-position:normal;font-variant-caps:normal;font-variant-numeric:normal;font-variant-alternates:normal;font-variant-east-asian:normal;font-feature-settings:normal;font-variation-settings:normal;text-indent:0;text-align:start;text-decoration:none;text-decoration-line:none;text-decoration-style:solid;text-decoration-color:#000000;letter-spacing:normal;word-spacing:normal;text-transform:none;writing-mode:lr-tb;direction:ltr;text-orientation:mixed;dominant-baseline:auto;baseline-shift:baseline;text-anchor:start;white-space:normal;shape-padding:0;shape-margin:0;inline-size:0;clip-rule:nonzero;display:inline;overflow:visible;visibility:visible;isolation:auto;mix-blend-mode:normal;color-interpolation:sRGB;color-interpolation-filters:linearRGB;solid-color:#000000;solid-opacity:1;vector-effect:none;fill:#ffffff;fill-opacity:1;fill-rule:nonzero;stroke:none;stroke-width:1.73664;stroke-linecap:round;stroke-linejoin:round;stroke-miterlimit:4;stroke-dasharray:none;stroke-dashoffset:0;stroke-opacity:1;color-rendering:auto;image-rendering:auto;shape-rendering:auto;text-rendering:auto;enable-background:accumulate;stop-color:#000000"
       sodipodi:type="inkscape:offset"
       inkscape:radius="-0.36026448"
       inkscape:original="M -368.27148 -509.08984 A 0.86832173 0.86832173 0 0 0 -368.29883 -509.08789 A 0.86832173 0.86832173 0 0 0 -368.86523 -508.83594 A 0.86832173 0.86832173 0 0 0 -368.86523 -507.60742 L -366.73633 -505.47852 L -368.86523 -503.34766 A 0.86832173 0.86832173 0 0 0 -368.86523 -502.12109 A 0.86832173 0.86832173 0 0 0 -367.63867 -502.12109 L -365.50977 -504.25 L -363.38086 -502.12109 A 0.86832173 0.86832173 0 0 0 -362.15234 -502.12109 A 0.86832173 0.86832173 0 0 0 -362.15234 -503.34766 L -364.28125 -505.47852 L -362.15234 -507.60742 A 0.86832173 0.86832173 0 0 0 -362.15234 -508.83594 A 0.86832173 0.86832173 0 0 0 -362.81445 -509.08789 A 0.86832173 0.86832173 0 0 0 -363.38086 -508.83594 L -365.50977 -506.70508 L -367.63867 -508.83594 A 0.86832173 0.86832173 0 0 0 -368.27148 -509.08984 z "
       xlink:href="#path58-2"
       id="path3-4"
       d="m -368.2793,-508.72852 c -0.12345,0.007 -0.24445,0.0612 -0.33203,0.14844 -0.18696,0.18841 -0.18784,0.53107 0,0.71875 l 2.12891,2.12891 a 0.36030051,0.36030051 0 0 1 0,0.50781 l -2.12695,2.13086 c -0.187,0.18743 -0.18773,0.52837 -0.002,0.7168 4.5e-4,4.4e-4 0.002,-4.4e-4 0.002,0 4.4e-4,4.4e-4 -4.5e-4,0.002 0,0.002 0.18842,0.18576 0.52937,0.18504 0.71679,-0.002 l 2.12891,-2.12696 a 0.36030051,0.36030051 0 0 1 0.50781,0 l 2.12891,2.12891 c 0.18768,0.18784 0.53034,0.18696 0.71875,0 0.18761,-0.18804 0.18761,-0.53071 0,-0.71875 l -2.12696,-2.13086 a 0.36030051,0.36030051 0 0 1 0,-0.50781 l 2.12891,-2.12891 c 0.18784,-0.18768 0.18696,-0.53034 0,-0.71875 -0.1008,-0.10047 -0.24658,-0.15648 -0.38867,-0.14844 -0.12346,0.007 -0.24445,0.0612 -0.33203,0.14844 l -2.12891,2.12891 a 0.36030051,0.36030051 0 0 1 -0.50781,0 l -2.12891,-2.13086 c -0.096,-0.096 -0.23338,-0.14873 -0.36914,-0.14649 -0.002,1.5e-4 -0.004,-1.7e-4 -0.006,0 a 0.36030051,0.36030051 0 0 1 -0.0117,0 z"
       transform="matrix(0.9812356,0,0,0.9812356,-1013.6954,479.04332)"
       inkscape:export-filename="..\..\..\..\..\xampp\htdocs\sheener\img\closebtn.svg"
       inkscape:export-xdpi="112.65546"
       inkscape:export-ydpi="112.65546"
       inkscape:href="#path58-2" /></g></svg>
