<?xml version="1.0" encoding="UTF-8" standalone="no"?>
<!-- Created with Inkscape (http://www.inkscape.org/) -->

<svg
   width="17.274321mm"
   height="11.55169mm"
   viewBox="0 0 17.27432 11.55169"
   version="1.1"
   id="svg1"
   xml:space="preserve"
   xmlns="http://www.w3.org/2000/svg"
   xmlns:svg="http://www.w3.org/2000/svg"><defs
     id="defs1" /><g
     id="layer1"
     transform="translate(-75.441741,-159.57739)"><g
       id="g1"
       transform="matrix(-1,0,0,1,169.21614,0)"
       style="fill:#3d95d8;fill-opacity:1"><rect
         style="fill:#3d95d8;fill-opacity:1;stroke-width:0.758362;stroke-linejoin:round;paint-order:stroke fill markers"
         id="rect2-7"
         width="11.505404"
         height="11.551682"
         x="-93.774399"
         y="159.57739"
         rx="0"
         ry="0"
         transform="scale(-1,1)" /><ellipse
         style="fill:#3d95d8;fill-opacity:1;stroke-width:0.52937;stroke-linejoin:round;paint-order:stroke fill markers"
         id="path2-6"
         cx="-83.339119"
         cy="165.35324"
         transform="scale(-1,1)"
         rx="6.8390408"
         ry="5.7758417" /></g><path
       style="fill:#f9f9f9;stroke-width:0.148739"
       d="m 84.01677,168.26924 c -0.353226,-0.11585 -0.678226,-0.42986 -0.784951,-0.75832 -0.09011,-0.27731 -0.09011,-3.37102 0,-3.64833 0.0795,-0.24466 0.323605,-0.53053 0.568841,-0.66616 0.19108,-0.10572 0.218735,-0.10928 0.936695,-0.12201 l 0.739799,-0.0137 v -0.4836 c 0,-0.48077 7.26e-4,-0.48429 0.112337,-0.60139 0.155042,-0.16258 0.350473,-0.16258 0.505516,0 0.111683,0.11708 0.112337,0.12064 0.112337,0.60139 v 0.4836 l 0.739802,0.0137 c 0.717961,0.0123 0.74561,0.0164 0.936696,0.12201 0.245232,0.13558 0.489343,0.4215 0.568839,0.66616 0.09011,0.27731 0.09011,3.37102 0,3.64833 -0.07949,0.24465 -0.323598,0.53053 -0.568839,0.66617 l -0.196896,0.10887 -1.787051,0.007 c -0.982875,0.004 -1.830282,-0.007 -1.883125,-0.0242 z m 0.775229,-1.16105 c 0.04953,-0.0519 0.08306,-0.13771 0.08306,-0.21248 0,-0.20761 -0.122266,-0.29737 -0.425745,-0.31259 -0.296418,-0.0149 -0.42632,0.0377 -0.501901,0.20295 -0.06251,0.13667 7.25e-4,0.30149 0.146216,0.3821 0.154821,0.0856 0.595572,0.0478 0.698365,-0.06 z m 1.357566,0.052 c 0.143867,-0.063 0.198777,-0.19204 0.156657,-0.36801 -0.06961,-0.2908 -0.858341,-0.2908 -0.927947,0 -0.04094,0.17107 0.01314,0.3047 0.148258,0.36631 0.16141,0.0737 0.457102,0.0744 0.623032,0.001 z m 1.524771,-0.052 c 0.04953,-0.0519 0.08306,-0.13771 0.08306,-0.21248 0,-0.20761 -0.122269,-0.29737 -0.425742,-0.31259 -0.296423,-0.0149 -0.426324,0.0377 -0.501905,0.20295 -0.0625,0.13667 7.24e-4,0.30149 0.146215,0.3821 0.15482,0.0856 0.59557,0.0478 0.698367,-0.06 z m -2.696396,-1.51211 c 0.206766,-0.14757 0.283408,-0.28651 0.283408,-0.5138 0,-0.22729 -0.07664,-0.36625 -0.283408,-0.5138 -0.355167,-0.25349 -0.860657,0.0482 -0.860657,0.5138 0,0.32942 0.260298,0.60448 0.572034,0.60448 0.104294,0 0.206615,-0.0322 0.288623,-0.0906 z m 2.30587,0 c 0.206766,-0.14757 0.283407,-0.28651 0.283407,-0.5138 0,-0.22729 -0.07664,-0.36625 -0.283407,-0.5138 -0.355169,-0.25349 -0.860661,0.0482 -0.860661,0.5138 0,0.32942 0.260299,0.60448 0.572037,0.60448 0.104284,0 0.206614,-0.0322 0.288624,-0.0906 z m -5.153123,0.98034 -0.112337,-0.11777 v -0.77186 -0.77188 l 0.112337,-0.11777 c 0.08317,-0.0872 0.148798,-0.11777 0.252758,-0.11777 0.103963,0 0.169592,0.0307 0.25276,0.11777 l 0.112337,0.11777 v 0.77188 0.77186 l -0.112337,0.11777 c -0.08317,0.0872 -0.148797,0.11778 -0.25276,0.11778 -0.103963,0 -0.169588,-0.0307 -0.252758,-0.11778 z m 6.917608,0 -0.112335,-0.11777 v -0.77186 -0.77188 l 0.112335,-0.11777 c 0.08317,-0.0872 0.148799,-0.11777 0.252759,-0.11777 0.103963,0 0.169588,0.0307 0.252757,0.11777 l 0.112337,0.11777 v 0.77188 0.77186 l -0.112337,0.11777 c -0.08317,0.0872 -0.148797,0.11778 -0.252757,0.11778 -0.103963,0 -0.169591,-0.0307 -0.252759,-0.11778 z"
       id="path1-1" /><path
       style="fill:none;stroke:#f9f9f9;stroke-width:1.49618;stroke-linecap:round;stroke-linejoin:miter;stroke-opacity:1"
       d="m 77.89508,163.00656 2.445567,2.06539 -2.468747,2.08495"
       id="path3-4" /></g></svg>
