<?xml version="1.0" encoding="UTF-8" standalone="no"?>
<!-- Created with Inkscape (http://www.inkscape.org/) -->

<svg
   width="2.2545135mm"
   height="2.2573235mm"
   viewBox="0 0 2.2545135 2.2573235"
   version="1.1"
   id="svg5"
   inkscape:version="1.3.2 (091e20e, 2023-11-25, custom)"
   sodipodi:docname="UI design Amneal logo.svg"
   xml:space="preserve"
   xmlns:inkscape="http://www.inkscape.org/namespaces/inkscape"
   xmlns:sodipodi="http://sodipodi.sourceforge.net/DTD/sodipodi-0.dtd"
   xmlns:xlink="http://www.w3.org/1999/xlink"
   xmlns="http://www.w3.org/2000/svg"
   xmlns:svg="http://www.w3.org/2000/svg"><sodipodi:namedview
     id="namedview7"
     pagecolor="#ffffff"
     bordercolor="#eeeeee"
     borderopacity="1"
     inkscape:pageshadow="0"
     inkscape:pageopacity="0"
     inkscape:pagecheckerboard="true"
     inkscape:document-units="mm"
     showgrid="false"
     inkscape:zoom="2"
     inkscape:cx="-3951"
     inkscape:cy="1355.25"
     inkscape:window-width="1920"
     inkscape:window-height="1009"
     inkscape:window-x="-8"
     inkscape:window-y="-8"
     inkscape:window-maximized="1"
     inkscape:current-layer="layer1"
     fit-margin-top="10"
     lock-margins="true"
     fit-margin-left="10"
     fit-margin-right="10"
     fit-margin-bottom="10"
     inkscape:showpageshadow="2"
     inkscape:deskcolor="#d1d1d1"
     showguides="true"><inkscape:page
       x="-2.5325721e-13"
       y="0"
       width="2.2545135"
       height="2.2573235"
       id="page2"
       margin="0"
       bleed="0" /></sodipodi:namedview><defs
     id="defs2" /><g
     inkscape:label="Layer 1"
     inkscape:groupmode="layer"
     id="layer1"
     transform="translate(1101.6394,-221.79196)"><path
       style="color:#000000;font-style:normal;font-variant:normal;font-weight:normal;font-stretch:normal;font-size:medium;line-height:normal;font-family:sans-serif;font-variant-ligatures:normal;font-variant-position:normal;font-variant-caps:normal;font-variant-numeric:normal;font-variant-alternates:normal;font-variant-east-asian:normal;font-feature-settings:normal;font-variation-settings:normal;text-indent:0;text-align:start;text-decoration:none;text-decoration-line:none;text-decoration-style:solid;text-decoration-color:#000000;letter-spacing:normal;word-spacing:normal;text-transform:none;writing-mode:lr-tb;direction:ltr;text-orientation:mixed;dominant-baseline:auto;baseline-shift:baseline;text-anchor:start;white-space:normal;shape-padding:0;shape-margin:0;inline-size:0;clip-rule:nonzero;display:inline;overflow:visible;visibility:visible;isolation:auto;mix-blend-mode:normal;color-interpolation:sRGB;color-interpolation-filters:linearRGB;solid-color:#000000;solid-opacity:1;vector-effect:none;fill:#000000;fill-opacity:1;fill-rule:nonzero;stroke:none;stroke-width:1.14846;stroke-linecap:round;stroke-linejoin:round;stroke-miterlimit:4;stroke-dasharray:none;stroke-dashoffset:0;stroke-opacity:1;color-rendering:auto;image-rendering:auto;shape-rendering:auto;text-rendering:auto;enable-background:accumulate;stop-color:#000000"
       sodipodi:type="inkscape:offset"
       inkscape:radius="-0.22647549"
       inkscape:original="M -1155.791 349.83398 A 0.57423007 0.57423007 0 0 0 -1156.166 350.00195 A 0.57423007 0.57423007 0 0 0 -1156.166 350.81445 L -1154.7598 352.22266 L -1156.166 353.63086 A 0.57423007 0.57423007 0 0 0 -1156.166 354.44141 A 0.57423007 0.57423007 0 0 0 -1155.3555 354.44141 L -1153.9473 353.0332 L -1152.5391 354.44141 A 0.57423007 0.57423007 0 0 0 -1151.7266 354.44141 A 0.57423007 0.57423007 0 0 0 -1151.7266 353.63086 L -1153.1348 352.22266 L -1151.7266 350.81445 A 0.57423007 0.57423007 0 0 0 -1151.7266 350.00195 A 0.57423007 0.57423007 0 0 0 -1152.1641 349.83398 A 0.57423007 0.57423007 0 0 0 -1152.5391 350.00195 L -1153.9473 351.41016 L -1155.3555 350.00195 A 0.57423007 0.57423007 0 0 0 -1155.7734 349.83398 A 0.57423007 0.57423007 0 0 0 -1155.791 349.83398 z "
       xlink:href="#path58-5-7"
       id="path34-8"
       d="m -1155.7793,350.06055 c -0.085,0.005 -0.1667,0.0415 -0.2266,0.10156 -0.1289,0.12877 -0.1289,0.36342 0,0.49219 l 1.4063,1.4082 a 0.22649814,0.22649814 0 0 1 0,0.32031 l -1.4063,1.40821 c -0.1282,0.12868 -0.1282,0.36154 0,0.49023 0.1287,0.12818 0.3616,0.12818 0.4903,0 l 1.4082,-1.4082 a 0.22649814,0.22649814 0 0 1 0.3203,0 l 1.4082,1.4082 c 0.1288,0.1289 0.3634,0.1289 0.4922,0 0.1282,-0.12869 0.1282,-0.36155 0,-0.49023 l -1.4082,-1.40821 a 0.22649814,0.22649814 0 0 1 0,-0.32031 l 1.4082,-1.4082 c 0.1289,-0.12877 0.1289,-0.36342 0,-0.49219 -0.069,-0.069 -0.1683,-0.1068 -0.2656,-0.10156 -0.085,0.005 -0.1667,0.0415 -0.2266,0.10156 l -1.4082,1.4082 a 0.22649814,0.22649814 0 0 1 -0.3203,0 l -1.4082,-1.4082 c -0.066,-0.066 -0.1605,-0.10351 -0.2539,-0.10156 a 0.22649814,0.22649814 0 0 1 -0.01,0 c -8e-4,-10e-6 -0,0 -0,0 z"
       transform="matrix(0.52278774,0,0,0.52278774,-497.24313,38.78486)"
       inkscape:href="#path58-5-7"
       inkscape:export-filename="C:\xampp\htdocs\sheener\img\delete.svg"
       inkscape:export-xdpi="210.04"
       inkscape:export-ydpi="210.04" /></g></svg>
