<?xml version="1.0" encoding="UTF-8" standalone="no"?>
<!-- Created with Inkscape (http://www.inkscape.org/) -->

<svg
   width="0.63155055mm"
   height="2.1724448mm"
   viewBox="0 0 0.63155053 2.1724448"
   version="1.1"
   id="svg5"
   inkscape:version="1.3.2 (091e20e, 2023-11-25, custom)"
   sodipodi:docname="UI design Amneal logo.svg"
   xml:space="preserve"
   xmlns:inkscape="http://www.inkscape.org/namespaces/inkscape"
   xmlns:sodipodi="http://sodipodi.sourceforge.net/DTD/sodipodi-0.dtd"
   xmlns:xlink="http://www.w3.org/1999/xlink"
   xmlns="http://www.w3.org/2000/svg"
   xmlns:svg="http://www.w3.org/2000/svg"><sodipodi:namedview
     id="namedview7"
     pagecolor="#ffffff"
     bordercolor="#eeeeee"
     borderopacity="1"
     inkscape:pageshadow="0"
     inkscape:pageopacity="0"
     inkscape:pagecheckerboard="true"
     inkscape:document-units="mm"
     showgrid="false"
     inkscape:zoom="2"
     inkscape:cx="-3951"
     inkscape:cy="1355.25"
     inkscape:window-width="1920"
     inkscape:window-height="1009"
     inkscape:window-x="-8"
     inkscape:window-y="-8"
     inkscape:window-maximized="1"
     inkscape:current-layer="layer1"
     fit-margin-top="10"
     lock-margins="true"
     fit-margin-left="10"
     fit-margin-right="10"
     fit-margin-bottom="10"
     inkscape:showpageshadow="2"
     inkscape:deskcolor="#d1d1d1"
     showguides="true"><inkscape:page
       x="-2.0534776e-13"
       y="0"
       width="0.63155055"
       height="2.1724448"
       id="page2"
       margin="0"
       bleed="0" /></sodipodi:namedview><defs
     id="defs2" /><g
     inkscape:label="Layer 1"
     inkscape:groupmode="layer"
     id="layer1"
     transform="translate(1103.7474,-221.83443)"><g
       id="g35"
       transform="translate(44.119784,-112.92573)"><path
         id="path10476-3-1-2"
         style="opacity:0.998;fill:#f9f9f9;stroke:#ffffff;stroke-width:0.0605589;stroke-linecap:round;stroke-linejoin:round"
         d="m -1157.4987,349.67079 a 2.4645455,2.4645455 0 0 0 -2.4646,2.46457 2.4645455,2.4645455 0 0 0 2.4646,2.46457 2.4645455,2.4645455 0 0 0 2.4646,-2.46457 2.4645455,2.4645455 0 0 0 -2.4646,-2.46457 z m 0,1.03683 a 0.74193774,0.74193774 0 0 1 0.742,0.742 0.74193774,0.74193774 0 0 1 -0.742,0.742 1.371812,1.371812 0 0 1 1.3718,1.37185 h -2.7437 a 1.371812,1.371812 0 0 1 1.3719,-1.37185 0.74193774,0.74193774 0 0 1 -0.7416,-0.742 0.74193774,0.74193774 0 0 1 0.7416,-0.742 z" /><path
         style="color:#000000;font-style:normal;font-variant:normal;font-weight:normal;font-stretch:normal;font-size:medium;line-height:normal;font-family:sans-serif;font-variant-ligatures:normal;font-variant-position:normal;font-variant-caps:normal;font-variant-numeric:normal;font-variant-alternates:normal;font-variant-east-asian:normal;font-feature-settings:normal;font-variation-settings:normal;text-indent:0;text-align:start;text-decoration:none;text-decoration-line:none;text-decoration-style:solid;text-decoration-color:#000000;letter-spacing:normal;word-spacing:normal;text-transform:none;writing-mode:lr-tb;direction:ltr;text-orientation:mixed;dominant-baseline:auto;baseline-shift:baseline;text-anchor:start;white-space:normal;shape-padding:0;shape-margin:0;inline-size:0;clip-rule:nonzero;display:inline;overflow:visible;visibility:visible;isolation:auto;mix-blend-mode:normal;color-interpolation:sRGB;color-interpolation-filters:linearRGB;solid-color:#000000;solid-opacity:1;vector-effect:none;fill:#f9f9f9;fill-opacity:1;fill-rule:nonzero;stroke:none;stroke-width:1.14846;stroke-linecap:round;stroke-linejoin:round;stroke-miterlimit:4;stroke-dasharray:none;stroke-dashoffset:0;stroke-opacity:1;color-rendering:auto;image-rendering:auto;shape-rendering:auto;text-rendering:auto;enable-background:accumulate;stop-color:#000000"
         sodipodi:type="inkscape:offset"
         inkscape:radius="-0.22647549"
         inkscape:original="M -1155.791 349.83398 A 0.57423007 0.57423007 0 0 0 -1156.166 350.00195 A 0.57423007 0.57423007 0 0 0 -1156.166 350.81445 L -1154.7598 352.22266 L -1156.166 353.63086 A 0.57423007 0.57423007 0 0 0 -1156.166 354.44141 A 0.57423007 0.57423007 0 0 0 -1155.3555 354.44141 L -1153.9473 353.0332 L -1152.5391 354.44141 A 0.57423007 0.57423007 0 0 0 -1151.7266 354.44141 A 0.57423007 0.57423007 0 0 0 -1151.7266 353.63086 L -1153.1348 352.22266 L -1151.7266 350.81445 A 0.57423007 0.57423007 0 0 0 -1151.7266 350.00195 A 0.57423007 0.57423007 0 0 0 -1152.1641 349.83398 A 0.57423007 0.57423007 0 0 0 -1152.5391 350.00195 L -1153.9473 351.41016 L -1155.3555 350.00195 A 0.57423007 0.57423007 0 0 0 -1155.7734 349.83398 A 0.57423007 0.57423007 0 0 0 -1155.791 349.83398 z "
         xlink:href="#path58-5-7"
         id="path34"
         d="m -1155.7793,350.06055 c -0.085,0.005 -0.1667,0.0415 -0.2266,0.10156 -0.1289,0.12877 -0.1289,0.36342 0,0.49219 l 1.4063,1.4082 a 0.22649814,0.22649814 0 0 1 0,0.32031 l -1.4063,1.40821 c -0.1282,0.12868 -0.1282,0.36154 0,0.49023 0.1287,0.12818 0.3616,0.12818 0.4903,0 l 1.4082,-1.4082 a 0.22649814,0.22649814 0 0 1 0.3203,0 l 1.4082,1.4082 c 0.1288,0.1289 0.3634,0.1289 0.4922,0 0.1282,-0.12869 0.1282,-0.36155 0,-0.49023 l -1.4082,-1.40821 a 0.22649814,0.22649814 0 0 1 0,-0.32031 l 1.4082,-1.4082 c 0.1289,-0.12877 0.1289,-0.36342 0,-0.49219 -0.069,-0.069 -0.1683,-0.1068 -0.2656,-0.10156 -0.085,0.005 -0.1667,0.0415 -0.2266,0.10156 l -1.4082,1.4082 a 0.22649814,0.22649814 0 0 1 -0.3203,0 l -1.4082,-1.4082 c -0.066,-0.066 -0.1605,-0.10351 -0.2539,-0.10156 a 0.22649814,0.22649814 0 0 1 -0.01,0 c -8e-4,-10e-6 -0,0 -0,0 z"
         transform="translate(2.8360606,-0.08363714)"
         inkscape:href="#path58-5-7" /><path
         style="color:#000000;font-style:normal;font-variant:normal;font-weight:normal;font-stretch:normal;font-size:medium;line-height:normal;font-family:sans-serif;font-variant-ligatures:normal;font-variant-position:normal;font-variant-caps:normal;font-variant-numeric:normal;font-variant-alternates:normal;font-variant-east-asian:normal;font-feature-settings:normal;font-variation-settings:normal;text-indent:0;text-align:start;text-decoration:none;text-decoration-line:none;text-decoration-style:solid;text-decoration-color:#000000;letter-spacing:normal;word-spacing:normal;text-transform:none;writing-mode:lr-tb;direction:ltr;text-orientation:mixed;dominant-baseline:auto;baseline-shift:baseline;text-anchor:start;white-space:normal;shape-padding:0;shape-margin:0;inline-size:0;clip-rule:nonzero;display:inline;overflow:visible;visibility:visible;isolation:auto;mix-blend-mode:normal;color-interpolation:sRGB;color-interpolation-filters:linearRGB;solid-color:#000000;solid-opacity:1;vector-effect:none;fill:#000000;fill-opacity:1;fill-rule:nonzero;stroke:none;stroke-width:1.14846;stroke-linecap:round;stroke-linejoin:round;stroke-miterlimit:4;stroke-dasharray:none;stroke-dashoffset:0;stroke-opacity:1;color-rendering:auto;image-rendering:auto;shape-rendering:auto;text-rendering:auto;enable-background:accumulate;stop-color:#000000"
         sodipodi:type="inkscape:offset"
         inkscape:radius="-0.22647549"
         inkscape:original="M -1155.791 349.83398 A 0.57423007 0.57423007 0 0 0 -1156.166 350.00195 A 0.57423007 0.57423007 0 0 0 -1156.166 350.81445 L -1154.7598 352.22266 L -1156.166 353.63086 A 0.57423007 0.57423007 0 0 0 -1156.166 354.44141 A 0.57423007 0.57423007 0 0 0 -1155.3555 354.44141 L -1153.9473 353.0332 L -1152.5391 354.44141 A 0.57423007 0.57423007 0 0 0 -1151.7266 354.44141 A 0.57423007 0.57423007 0 0 0 -1151.7266 353.63086 L -1153.1348 352.22266 L -1151.7266 350.81445 A 0.57423007 0.57423007 0 0 0 -1151.7266 350.00195 A 0.57423007 0.57423007 0 0 0 -1152.1641 349.83398 A 0.57423007 0.57423007 0 0 0 -1152.5391 350.00195 L -1153.9473 351.41016 L -1155.3555 350.00195 A 0.57423007 0.57423007 0 0 0 -1155.7734 349.83398 A 0.57423007 0.57423007 0 0 0 -1155.791 349.83398 z "
         xlink:href="#path58-5-7"
         id="path34-8"
         d="m -1155.7793,350.06055 c -0.085,0.005 -0.1667,0.0415 -0.2266,0.10156 -0.1289,0.12877 -0.1289,0.36342 0,0.49219 l 1.4063,1.4082 a 0.22649814,0.22649814 0 0 1 0,0.32031 l -1.4063,1.40821 c -0.1282,0.12868 -0.1282,0.36154 0,0.49023 0.1287,0.12818 0.3616,0.12818 0.4903,0 l 1.4082,-1.4082 a 0.22649814,0.22649814 0 0 1 0.3203,0 l 1.4082,1.4082 c 0.1288,0.1289 0.3634,0.1289 0.4922,0 0.1282,-0.12869 0.1282,-0.36155 0,-0.49023 l -1.4082,-1.40821 a 0.22649814,0.22649814 0 0 1 0,-0.32031 l 1.4082,-1.4082 c 0.1289,-0.12877 0.1289,-0.36342 0,-0.49219 -0.069,-0.069 -0.1683,-0.1068 -0.2656,-0.10156 -0.085,0.005 -0.1667,0.0415 -0.2266,0.10156 l -1.4082,1.4082 a 0.22649814,0.22649814 0 0 1 -0.3203,0 l -1.4082,-1.4082 c -0.066,-0.066 -0.1605,-0.10351 -0.2539,-0.10156 a 0.22649814,0.22649814 0 0 1 -0.01,0 c -8e-4,-10e-6 -0,0 -0,0 z"
         transform="matrix(0.52278774,0,0,0.52278774,-541.36291,151.71059)"
         inkscape:href="#path58-5-7"
         inkscape:export-filename="C:\xampp\htdocs\sheener\img\delete.svg"
         inkscape:export-xdpi="210.04"
         inkscape:export-ydpi="210.04" /><g
         id="g59-0-1"
         transform="matrix(0.11472003,0,0,0.11472003,-1250.0849,-156.20615)"
         inkscape:export-filename="C:\Users\grasoli\LougOut.png"
         inkscape:export-xdpi="112.65546"
         inkscape:export-ydpi="112.65546"
         style="display:inline;fill:#f9f9f9"><path
           id="path59-2-1"
           style="fill:#f9f9f9;fill-opacity:1;fill-rule:nonzero;stroke:none;stroke-width:0.637145;stroke-linecap:round;stroke-linejoin:round;stroke-miterlimit:4;stroke-dasharray:none;stroke-opacity:1"
           d="m 938.4733,4433.6084 c -1.4673,9.7429 -9.7547,17.0025 -19.606,17.1744 -9.8513,0.1719 -18.3869,-6.7943 -20.1931,-16.4801 -1.5946,-8.5513 2.4677,-17.0158 9.8074,-21.2144 3.9007,-2.1996 6.1857,2.6827 2.511,4.9527 -5.0227,3.1221 -8.0401,9.3998 -6.9474,15.2598 1.2626,6.7716 7.8397,12.1394 14.7269,12.0192 6.8869,-0.1205 13.2728,-5.7145 14.2984,-12.5258 0.8898,-5.9091 -2.0409,-12.7493 -7.5136,-15.0293 -3.4964,-1.4567 -2.4317,-6.7994 1.9234,-5.237 7.7519,3.8192 12.3151,12.3019 10.993,21.0805 z"
           inkscape:connector-curvature="0"
           sodipodi:nodetypes="ssscccccscs" /><rect
           style="fill:#f9f9f9;fill-opacity:1;fill-rule:nonzero;stroke:#f9f9f9;stroke-width:0.637145;stroke-linecap:round;stroke-linejoin:round;stroke-miterlimit:4;stroke-dasharray:none;stroke-opacity:1"
           id="rect59-3-5"
           width="5.285769"
           height="23.874054"
           x="915.73065"
           y="4406.9561"
           ry="2.9353347" /></g></g><path
       id="path40-2"
       style="fill:#000000;stroke:none;stroke-width:2.00054"
       d="m -1103.4315,221.83441 a 0.31575719,0.31575719 0 0 0 -0.3159,0.31593 0.31575719,0.31575719 0 0 0 0.3159,0.31565 0.31575719,0.31575719 0 0 0 0.3157,-0.31565 0.31575719,0.31575719 0 0 0 -0.3157,-0.31593 z m 0,0.77057 a 0.31575719,0.31575719 0 0 0 -0.3159,0.31565 0.31575719,0.31575719 0 0 0 0.3159,0.31593 0.31575719,0.31575719 0 0 0 0.3157,-0.31593 0.31575719,0.31575719 0 0 0 -0.3157,-0.31565 z m 0,0.77029 a 0.31575719,0.31575719 0 0 0 -0.3159,0.31594 0.31575719,0.31575719 0 0 0 0.3159,0.31565 0.31575719,0.31575719 0 0 0 0.3157,-0.31565 0.31575719,0.31575719 0 0 0 -0.3157,-0.31594 z"
       inkscape:export-filename="C:\xampp\htdocs\sheener\img\editsmll.svg"
       inkscape:export-xdpi="96"
       inkscape:export-ydpi="96" /></g></svg>
