<?xml version="1.0" encoding="UTF-8" standalone="no"?>
<!-- Created with Inkscape (http://www.inkscape.org/) -->

<svg
   width="60.205811mm"
   height="24.694361mm"
   viewBox="0 0 66.895345 27.438179"
   version="1.1"
   id="svg1"
   inkscape:version="1.3.2 (091e20e, 2023-11-25, custom)"
   sodipodi:docname="EPA.svg"
   xmlns:inkscape="http://www.inkscape.org/namespaces/inkscape"
   xmlns:sodipodi="http://sodipodi.sourceforge.net/DTD/sodipodi-0.dtd"
   xmlns="http://www.w3.org/2000/svg"
   xmlns:svg="http://www.w3.org/2000/svg">
  <sodipodi:namedview
     id="namedview1"
     pagecolor="#ffffff"
     bordercolor="#000000"
     borderopacity="0.25"
     inkscape:showpageshadow="2"
     inkscape:pageopacity="0.0"
     inkscape:pagecheckerboard="0"
     inkscape:deskcolor="#d1d1d1"
     inkscape:document-units="mm"
     inkscape:zoom="2.8970539"
     inkscape:cx="118.05096"
     inkscape:cy="71.27931"
     inkscape:window-width="1920"
     inkscape:window-height="1009"
     inkscape:window-x="-8"
     inkscape:window-y="-8"
     inkscape:window-maximized="1"
     inkscape:current-layer="layer1" />
  <defs
     id="defs1" />
  <g
     inkscape:label="Layer 1"
     inkscape:groupmode="layer"
     id="layer1"
     transform="translate(-68.911711,-39.175711)">
    <path
       style="display:inline;fill:#0073ab;fill-opacity:1;stroke-width:0.112743"
       d="m 89.247179,62.843329 c 0,-0.0126 10e-4,-1.6942 0.002,-3.73681 0.002,-3.85693 0.012,-4.18929 0.12853,-4.48941 0.0255,-0.0656 0.0469,-0.16294 0.0476,-0.21626 0.001,-0.0533 0.0145,-0.0969 0.0307,-0.0969 0.0162,0 0.0446,-0.0604 0.0632,-0.13423 0.0186,-0.0738 0.0446,-0.13424 0.0577,-0.13424 0.0132,0 0.0332,-0.0436 0.0445,-0.0969 0.0113,-0.0533 0.037,-0.11708 0.057,-0.14169 0.02,-0.0246 0.0725,-0.1154 0.1165,-0.20175 0.13874,-0.27203 0.38549,-0.60312 0.63555,-0.85279 0.20145,-0.20112 0.3617,-0.34747 0.38052,-0.34747 0.01,0 0.043,-0.0235 0.0741,-0.0522 0.13797,-0.12742 0.22002,-0.18644 0.25921,-0.18644 0.0232,0 0.0422,-0.0132 0.0422,-0.0294 0,-0.0162 0.0453,-0.0484 0.10075,-0.0715 0.0554,-0.0232 0.10992,-0.0569 0.12109,-0.075 0.0112,-0.0181 0.0447,-0.0329 0.0746,-0.0329 0.0298,0 0.0699,-0.0188 0.0889,-0.0418 0.0191,-0.023 0.0711,-0.0509 0.11552,-0.062 0.0444,-0.0111 0.10095,-0.0374 0.12556,-0.0586 0.0246,-0.0211 0.0973,-0.0464 0.16165,-0.0563 0.0643,-0.01 0.12569,-0.0321 0.13643,-0.0495 0.0107,-0.0174 0.0971,-0.0442 0.19198,-0.0597 0.0949,-0.0154 0.18907,-0.0419 0.20938,-0.0587 0.13639,-0.11319 1.83437,-0.11414 1.97058,-0.001 0.0196,0.0163 0.10136,0.0383 0.18175,0.0491 0.0804,0.0107 0.19292,0.0443 0.2501,0.0746 0.0572,0.0303 0.13358,0.0551 0.16976,0.0551 0.0362,0 0.0735,0.0124 0.0829,0.0276 0.009,0.0152 0.0669,0.0441 0.12772,0.0642 0.0609,0.0201 0.12873,0.0546 0.15087,0.0768 0.0221,0.0221 0.0653,0.0402 0.096,0.0402 0.0307,0 0.0649,0.0148 0.0761,0.0329 0.0112,0.0181 0.0657,0.0518 0.12109,0.075 0.0554,0.0232 0.10076,0.0553 0.10076,0.0715 0,0.0162 0.0182,0.0294 0.0404,0.0294 0.0222,0 0.0754,0.0302 0.11816,0.0671 0.0428,0.0369 0.11263,0.094 0.15523,0.12677 0.0426,0.0328 0.12928,0.10665 0.1926,0.16407 0.0633,0.0574 0.15653,0.13782 0.20709,0.17865 0.0506,0.0408 0.0919,0.0842 0.0919,0.0964 0,0.0122 0.0436,0.0691 0.0969,0.12654 0.0533,0.0574 0.12022,0.13484 0.14866,0.17206 0.0285,0.0372 0.0788,0.10336 0.11187,0.14696 0.0331,0.0436 0.0601,0.0919 0.0601,0.10724 0,0.0154 0.0256,0.0512 0.057,0.0795 0.0313,0.0284 0.0652,0.0841 0.0751,0.12395 0.01,0.0398 0.0308,0.0724 0.0463,0.0724 0.0155,0 0.0426,0.0537 0.0602,0.11932 0.0177,0.0656 0.0444,0.11932 0.0595,0.11932 0.015,0 0.036,0.0465 0.0467,0.10334 0.0107,0.0568 0.0381,0.11889 0.061,0.13789 0.0229,0.019 0.0421,0.0631 0.0426,0.098 0,0.0349 0.027,0.11716 0.0587,0.18278 0.0317,0.0656 0.0587,0.15959 0.06,0.20881 0.001,0.0492 0.0229,0.14318 0.048,0.20881 0.0983,0.25652 0.10805,1.7031 0.0123,1.81848 -0.0155,0.0187 -0.0366,0.0937 -0.0469,0.16669 -0.0103,0.073 -0.0444,0.19565 -0.0759,0.27252 -0.0315,0.0769 -0.0572,0.16584 -0.0572,0.1977 0,0.0319 -0.0187,0.0735 -0.0416,0.0925 -0.0229,0.019 -0.0501,0.0797 -0.0605,0.13489 -0.0104,0.0552 -0.0377,0.11605 -0.0609,0.13524 -0.0231,0.0192 -0.0507,0.0742 -0.0612,0.12231 -0.0106,0.0481 -0.0313,0.0874 -0.0461,0.0874 -0.0148,0 -0.0351,0.0326 -0.0451,0.0724 -0.01,0.0398 -0.0438,0.0956 -0.0751,0.12394 -0.0313,0.0284 -0.057,0.07 -0.057,0.0926 0,0.0226 -0.0201,0.0488 -0.0447,0.0582 -0.0246,0.009 -0.0447,0.0306 -0.0447,0.047 0,0.0285 -0.10016,0.16514 -0.19405,0.26463 -0.0245,0.026 -0.0446,0.0629 -0.0446,0.082 0,0.0191 -0.0214,0.0348 -0.0475,0.0348 -0.0261,0 -0.0546,0.0268 -0.0632,0.0597 -0.009,0.0328 -0.0333,0.0597 -0.0548,0.0597 -0.0216,0 -0.0478,0.0268 -0.0582,0.0597 -0.0104,0.0328 -0.0371,0.0597 -0.0592,0.0597 -0.0221,0 -0.0447,0.0123 -0.0502,0.0273 -0.01,0.0264 -0.30693,0.269 -0.44175,0.36047 -0.0363,0.0246 -0.10758,0.075 -0.15846,0.11186 -0.0509,0.0369 -0.11045,0.0671 -0.13239,0.0671 -0.0219,0 -0.0476,0.0201 -0.0571,0.0447 -0.009,0.0246 -0.0366,0.0447 -0.0603,0.0447 -0.0237,0 -0.0927,0.0256 -0.15341,0.0569 -0.22433,0.11564 -0.38698,0.18178 -0.44703,0.18178 -0.034,0 -0.0797,0.018 -0.10172,0.04 -0.022,0.022 -0.11356,0.0496 -0.20348,0.0614 -0.0899,0.0118 -0.19705,0.0439 -0.23807,0.0712 -0.065,0.0434 -0.17572,0.0497 -0.86507,0.0491 -0.57128,-5.6e-4 -0.80907,-0.011 -0.85751,-0.0376 -0.0369,-0.0203 -0.14424,-0.0505 -0.23863,-0.0671 -0.0944,-0.0166 -0.2119,-0.0491 -0.26113,-0.0722 -0.0492,-0.0231 -0.13982,-0.05 -0.20134,-0.0597 -0.0615,-0.01 -0.11187,-0.0294 -0.11187,-0.0438 0,-0.0144 -0.0436,-0.0356 -0.0969,-0.0473 -0.0533,-0.0117 -0.12895,-0.0463 -0.16808,-0.077 -0.0391,-0.0307 -0.0947,-0.0558 -0.12358,-0.0558 -0.0288,0 -0.0597,-0.0189 -0.0685,-0.0419 -0.009,-0.0231 -0.0561,-0.0507 -0.10511,-0.0615 -0.0489,-0.0108 -0.0964,-0.0389 -0.10548,-0.0625 -0.009,-0.0236 -0.0318,-0.0429 -0.0506,-0.0429 -0.0187,0 -0.0982,-0.0537 -0.1766,-0.11932 -0.0784,-0.0656 -0.15192,-0.11932 -0.16342,-0.11932 -0.0115,0 -0.0432,-0.0254 -0.0704,-0.0565 -0.0762,-0.0869 -0.20446,-0.10579 -0.24201,-0.0356 -0.0203,0.0379 -0.0306,0.71232 -0.0301,1.9765 l 0.001,1.91894 -0.61243,0.008 c -0.33684,0.004 -0.61265,-0.002 -0.61289,-0.0149 z m 4.79288,-4.16176 c 0.15027,-0.0223 0.29121,-0.0551 0.31322,-0.0729 0.022,-0.0178 0.0963,-0.0417 0.16509,-0.053 0.0688,-0.0113 0.14089,-0.0397 0.16025,-0.063 0.0194,-0.0233 0.0547,-0.0424 0.0784,-0.0424 0.0474,0 0.29891,-0.13928 0.36176,-0.20034 0.0217,-0.0211 0.0519,-0.0383 0.0671,-0.0383 0.0152,0 0.0518,-0.0235 0.0812,-0.0522 0.0294,-0.0287 0.0914,-0.079 0.13767,-0.11186 0.20606,-0.14603 0.42692,-0.39227 0.59932,-0.66818 0.0164,-0.0263 0.0456,-0.0579 0.0648,-0.0703 0.0192,-0.0124 0.0435,-0.0616 0.054,-0.10937 0.0105,-0.0478 0.0384,-0.0942 0.062,-0.10329 0.0236,-0.009 0.0434,-0.0337 0.0439,-0.0547 0,-0.021 0.0269,-0.0919 0.0587,-0.15755 0.0317,-0.0656 0.0582,-0.13945 0.0588,-0.16406 10e-4,-0.0246 0.021,-0.0827 0.0452,-0.12915 0.0929,-0.17816 0.16245,-0.93906 0.10948,-1.19829 -0.0168,-0.082 -0.0431,-0.22969 -0.0585,-0.32813 -0.0342,-0.21887 -0.13699,-0.50749 -0.24955,-0.701 -0.0143,-0.0246 -0.0461,-0.0884 -0.0706,-0.14169 -0.0245,-0.0533 -0.0578,-0.0969 -0.074,-0.0969 -0.0162,0 -0.0294,-0.0189 -0.0294,-0.0421 0,-0.068 -0.45792,-0.61419 -0.51496,-0.61419 -0.008,0 -0.0732,-0.0537 -0.14497,-0.11932 -0.0718,-0.0656 -0.15403,-0.11932 -0.18275,-0.11932 -0.0287,0 -0.0522,-0.011 -0.0522,-0.0245 0,-0.0307 -0.23178,-0.18421 -0.2786,-0.18447 -0.019,-1.1e-4 -0.0749,-0.0269 -0.12411,-0.0595 -0.0492,-0.0326 -0.11873,-0.0593 -0.15447,-0.0595 -0.0358,-1.1e-4 -0.0854,-0.0206 -0.11037,-0.0456 -0.025,-0.025 -0.13665,-0.0583 -0.24822,-0.074 -0.11157,-0.0157 -0.26327,-0.0417 -0.33709,-0.0577 -0.17509,-0.038 -0.57559,-0.0372 -0.74575,10e-4 -0.0738,0.0167 -0.20806,0.0416 -0.2983,0.0551 -0.0902,0.0136 -0.20434,0.0462 -0.25356,0.0725 -0.0492,0.0263 -0.11873,0.0479 -0.15447,0.048 -0.0358,1e-4 -0.0831,0.0183 -0.10523,0.0404 -0.0221,0.0221 -0.0902,0.0567 -0.15128,0.0769 -0.0611,0.0202 -0.11104,0.049 -0.11104,0.0642 0,0.0151 -0.0181,0.0275 -0.0401,0.0275 -0.0221,0 -0.0644,0.0268 -0.0941,0.0597 -0.0297,0.0328 -0.0692,0.0597 -0.0878,0.0597 -0.0655,0 -0.67283,0.56439 -0.67283,0.62531 0,0.0159 -0.0269,0.0432 -0.0597,0.0608 -0.0328,0.0176 -0.0597,0.0517 -0.0597,0.0759 0,0.0242 -0.0268,0.067 -0.0597,0.0951 -0.0328,0.0281 -0.0596,0.0695 -0.0596,0.0919 0,0.0225 -0.0269,0.075 -0.0597,0.11671 -0.0328,0.0417 -0.0597,0.10089 -0.0597,0.13148 0,0.0306 -0.0129,0.0556 -0.0286,0.0556 -0.0158,0 -0.045,0.0571 -0.0649,0.12678 -0.0199,0.0697 -0.049,0.14357 -0.0645,0.16409 -0.0322,0.0424 -0.0991,0.36707 -0.14097,0.68393 -0.0417,0.31565 0.0541,1.10109 0.14843,1.21643 0.014,0.0171 0.0407,0.0881 0.0593,0.15788 0.0187,0.0697 0.0468,0.12678 0.0626,0.12678 0.0158,0 0.0287,0.025 0.0287,0.0556 0,0.0306 0.0268,0.0898 0.0597,0.13148 0.0328,0.0417 0.0597,0.0878 0.0597,0.10236 0,0.026 0.0371,0.0795 0.17151,0.24698 0.0369,0.046 0.0671,0.0918 0.0671,0.10173 0,0.01 0.10739,0.12546 0.23864,0.25671 0.13126,0.13125 0.24677,0.23864 0.25671,0.23864 0.01,0 0.058,0.0336 0.10669,0.0746 0.0487,0.041 0.10773,0.0746 0.13108,0.0746 0.0233,0 0.0425,0.0115 0.0425,0.0256 0,0.03 0.28606,0.18322 0.34214,0.18322 0.0211,0 0.0539,0.0187 0.0729,0.0416 0.019,0.0229 0.083,0.0507 0.14225,0.0618 0.0592,0.0111 0.13595,0.0381 0.17046,0.06 0.0345,0.0219 0.16343,0.0494 0.28648,0.0612 0.12304,0.0118 0.25057,0.033 0.28339,0.0471 0.074,0.0318 0.44838,0.0131 0.81012,-0.0405 z m -10.25131,1.26375 c -0.12305,-0.012 -0.25058,-0.0365 -0.28338,-0.0545 -0.0328,-0.018 -0.12678,-0.0426 -0.20882,-0.0547 -0.082,-0.0121 -0.17563,-0.0403 -0.20798,-0.0626 -0.0324,-0.0223 -0.0901,-0.0406 -0.12833,-0.0406 -0.0594,0 -0.17326,-0.0482 -0.36469,-0.15431 -0.0246,-0.0137 -0.0783,-0.0382 -0.11931,-0.0546 -0.041,-0.0163 -0.0947,-0.0437 -0.11933,-0.0607 -0.0246,-0.017 -0.0817,-0.0468 -0.12677,-0.0662 -0.0451,-0.0194 -0.082,-0.0456 -0.082,-0.0582 0,-0.0126 -0.0436,-0.0429 -0.0969,-0.0674 -0.0533,-0.0245 -0.12149,-0.0616 -0.15149,-0.0824 -0.21052,-0.14625 -0.76579,-0.67572 -0.76579,-0.7302 0,-0.0222 -0.0196,-0.0479 -0.0436,-0.0571 -0.024,-0.009 -0.0517,-0.0423 -0.0617,-0.0736 -0.01,-0.0313 -0.0373,-0.0569 -0.0608,-0.0569 -0.0235,0 -0.0427,-0.0226 -0.0427,-0.0503 0,-0.0276 -0.0257,-0.078 -0.0571,-0.11186 -0.0314,-0.0339 -0.0918,-0.12729 -0.13417,-0.2076 -0.0424,-0.0803 -0.0889,-0.16086 -0.10336,-0.17898 -0.0144,-0.0181 -0.0362,-0.0665 -0.0483,-0.10754 -0.0121,-0.041 -0.0391,-0.0947 -0.06,-0.11932 -0.0208,-0.0246 -0.0476,-0.0917 -0.0595,-0.14915 -0.0119,-0.0574 -0.0384,-0.12454 -0.059,-0.14915 -0.0206,-0.0246 -0.0458,-0.10002 -0.0561,-0.16758 -0.0103,-0.0675 -0.0388,-0.16152 -0.0634,-0.2088 -0.0247,-0.0473 -0.0455,-0.13968 -0.0463,-0.2053 -10e-4,-0.0656 -0.0208,-0.17302 -0.0445,-0.23864 -0.0516,-0.1431 -0.0634,-1.23631 -0.014,-1.28578 0.0165,-0.0165 0.044,-0.14201 0.0611,-0.27899 0.0172,-0.13699 0.0507,-0.27685 0.0745,-0.3108 0.0238,-0.034 0.0433,-0.0924 0.0433,-0.12979 0,-0.0374 0.0268,-0.11813 0.0597,-0.17935 0.0328,-0.0612 0.0597,-0.12519 0.0597,-0.14215 0,-0.0617 0.30421,-0.62934 0.39524,-0.73749 0.0287,-0.0341 0.0522,-0.0801 0.0522,-0.10219 0,-0.0221 0.0108,-0.0402 0.0241,-0.0402 0.0132,0 0.0636,-0.0545 0.11186,-0.12116 0.0483,-0.0666 0.13809,-0.17192 0.19961,-0.23398 0.0615,-0.0621 0.11187,-0.12835 0.11187,-0.14732 0,-0.019 0.0195,-0.0345 0.0433,-0.0345 0.0238,0 0.054,-0.017 0.0671,-0.0378 0.0218,-0.0346 0.12049,-0.11686 0.30318,-0.25279 0.0388,-0.0289 0.0921,-0.076 0.11849,-0.10467 0.0264,-0.0287 0.0631,-0.0522 0.0815,-0.0522 0.0184,0 0.0578,-0.0268 0.0875,-0.0597 0.0297,-0.0328 0.0758,-0.0597 0.10239,-0.0597 0.0266,0 0.0714,-0.0268 0.0995,-0.0597 0.0281,-0.0328 0.0764,-0.0597 0.10737,-0.0597 0.031,0 0.0723,-0.0193 0.0919,-0.0428 0.0195,-0.0236 0.0782,-0.0519 0.13042,-0.063 0.0522,-0.0111 0.11502,-0.0373 0.13963,-0.0583 0.0246,-0.0209 0.0917,-0.048 0.14915,-0.0601 0.0574,-0.0121 0.13088,-0.0405 0.16325,-0.063 0.0324,-0.0225 0.0995,-0.041 0.14915,-0.0411 0.0497,-10e-5 0.12861,-0.0202 0.17545,-0.0446 0.14599,-0.0761 0.98651,-0.1412 1.35811,-0.10513 0.17419,0.0169 0.3819,0.037 0.46156,0.0446 0.0797,0.008 0.16021,0.0264 0.17898,0.0419 0.0188,0.0154 0.10125,0.038 0.18328,0.05 0.082,0.0121 0.19593,0.0469 0.25312,0.0774 0.0572,0.0305 0.13943,0.0554 0.18278,0.0554 0.0434,0 0.0948,0.0193 0.11436,0.0428 0.0195,0.0236 0.074,0.0513 0.12092,0.0616 0.0469,0.0103 0.10065,0.0372 0.11932,0.0597 0.0187,0.0225 0.0733,0.0496 0.12138,0.0601 0.0481,0.0106 0.0874,0.0291 0.0874,0.0411 0,0.0121 0.0436,0.0445 0.0969,0.072 0.11895,0.0615 0.19541,0.11114 0.2613,0.16978 0.0277,0.0246 0.0887,0.0716 0.13556,0.1044 0.0469,0.0328 0.10935,0.0832 0.13878,0.11186 0.0294,0.0287 0.0612,0.0522 0.0707,0.0522 0.0199,0 0.40043,0.38797 0.40043,0.40827 0,0.007 0.0537,0.0772 0.11931,0.15506 0.0656,0.0778 0.11932,0.15785 0.11932,0.17781 0,0.02 0.0201,0.044 0.0448,0.0535 0.0246,0.009 0.0448,0.0359 0.0448,0.0587 0,0.0229 0.0235,0.0655 0.0522,0.0948 0.0559,0.057 0.2904,0.51378 0.32112,0.62535 0.0102,0.0369 0.0295,0.0671 0.043,0.0671 0.0135,0 0.0335,0.0477 0.0444,0.10598 0.0109,0.0583 0.0393,0.11341 0.063,0.12251 0.0237,0.009 0.0431,0.0297 0.0431,0.0459 0,0.0401 -0.12467,0.14107 -0.17571,0.14229 -0.0395,9e-4 -0.26594,0.0974 -0.36123,0.15389 -0.0246,0.0146 -0.0783,0.0412 -0.11933,0.0592 -0.041,0.018 -0.16854,0.0763 -0.28338,0.12952 -0.11484,0.0533 -0.24236,0.11219 -0.28338,0.13095 -0.041,0.0188 -0.0947,0.046 -0.11933,0.0606 -0.0849,0.0503 -0.31981,0.15289 -0.35011,0.15289 -0.0167,0 -0.0453,0.018 -0.0635,0.0399 -0.0182,0.022 -0.087,0.056 -0.1528,0.0758 -0.0658,0.0197 -0.11967,0.0487 -0.11967,0.0645 0,0.0157 -0.0276,0.0286 -0.0612,0.0286 -0.0523,0 -0.17333,0.0524 -0.35642,0.15443 -0.0246,0.0137 -0.0649,0.0332 -0.0895,0.0433 -0.0246,0.0101 -0.0984,0.0429 -0.16406,0.0728 -0.0656,0.03 -0.15288,0.0686 -0.1939,0.0858 -0.041,0.0172 -0.0947,0.0425 -0.11932,0.0561 -0.14806,0.0821 -0.29401,0.14818 -0.36542,0.16545 -0.0451,0.0109 -0.082,0.0324 -0.082,0.0477 0,0.0153 -0.0481,0.0369 -0.10679,0.0479 -0.0587,0.011 -0.11335,0.0372 -0.12138,0.0581 -0.008,0.0209 -0.0593,0.0464 -0.11394,0.0567 -0.0546,0.0102 -0.11576,0.0384 -0.13582,0.0626 -0.0201,0.0242 -0.0552,0.0439 -0.0781,0.0439 -0.0229,0 -0.10964,0.0356 -0.19275,0.079 l -0.15112,0.079 -0.0686,-0.074 c -0.0377,-0.0407 -0.0777,-0.11558 -0.0889,-0.16644 -0.0112,-0.0509 -0.0396,-0.10848 -0.0631,-0.12803 -0.0236,-0.0195 -0.0429,-0.0574 -0.043,-0.0841 -10e-5,-0.0267 -0.0269,-0.0888 -0.0595,-0.13804 -0.0326,-0.0492 -0.0594,-0.11203 -0.0595,-0.13956 0,-0.0275 -0.0197,-0.0695 -0.0435,-0.0934 -0.0238,-0.0238 -0.0524,-0.0795 -0.0635,-0.12386 -0.0112,-0.0443 -0.0381,-0.0875 -0.06,-0.0959 -0.07,-0.0269 0.0384,-0.15056 0.1503,-0.17155 0.055,-0.0103 0.11639,-0.0385 0.13646,-0.0627 0.0201,-0.0242 0.0607,-0.044 0.0904,-0.044 0.0296,0 0.0733,-0.0195 0.0971,-0.0433 0.0238,-0.0238 0.0818,-0.0524 0.12891,-0.0637 0.0471,-0.0112 0.10577,-0.0377 0.13038,-0.0588 0.0246,-0.0211 0.0811,-0.0475 0.12555,-0.0586 0.0444,-0.0111 0.0964,-0.039 0.11552,-0.062 0.0191,-0.023 0.0547,-0.0418 0.0792,-0.0418 0.0245,0 0.0933,-0.0253 0.15296,-0.0562 0.20398,-0.10566 0.61549,-0.29604 0.68269,-0.31585 0.0369,-0.0109 0.0671,-0.0323 0.0671,-0.0476 0,-0.0153 0.0317,-0.0278 0.0706,-0.0278 0.0388,0 0.10468,-0.0268 0.1464,-0.0597 0.0417,-0.0328 0.0939,-0.0597 0.11589,-0.0598 0.022,-1.1e-4 0.0803,-0.0269 0.12953,-0.0595 0.0492,-0.0326 0.11133,-0.0593 0.13803,-0.0595 0.0267,-1.1e-4 0.065,-0.02 0.085,-0.0442 0.0201,-0.0242 0.0816,-0.0524 0.13682,-0.0628 0.0552,-0.0103 0.11589,-0.0376 0.1349,-0.0605 0.019,-0.0229 0.0583,-0.0416 0.0874,-0.0416 0.0527,0 0.089,-0.056 0.089,-0.13733 0,-0.0451 -0.24807,-0.30187 -0.4148,-0.42943 -0.0536,-0.041 -0.11875,-0.0946 -0.14477,-0.11914 -0.0495,-0.0466 -0.12056,-0.0914 -0.24585,-0.15498 -0.041,-0.0208 -0.0853,-0.0549 -0.0984,-0.0758 -0.0131,-0.0208 -0.0385,-0.0379 -0.0564,-0.0379 -0.0179,0 -0.0877,-0.0254 -0.15512,-0.0564 -0.25584,-0.11772 -0.3687,-0.15665 -0.52654,-0.18163 -0.0895,-0.0142 -0.21652,-0.0399 -0.28213,-0.0572 -0.15093,-0.0398 -0.61418,-0.0398 -0.7905,2e-5 -0.0738,0.0167 -0.22047,0.0438 -0.32586,0.0603 -0.10538,0.0165 -0.21912,0.0493 -0.25273,0.0728 -0.0336,0.0235 -0.0907,0.0428 -0.12692,0.0428 -0.0362,0 -0.0842,0.0184 -0.10661,0.0408 -0.0224,0.0224 -0.0738,0.0511 -0.114,0.0638 -0.0403,0.0126 -0.1052,0.048 -0.14432,0.0785 -0.0391,0.0306 -0.0899,0.0556 -0.1128,0.0556 -0.0229,0 -0.0494,0.0201 -0.0588,0.0447 -0.009,0.0246 -0.0302,0.0447 -0.0462,0.0447 -0.0463,0 -0.44769,0.33845 -0.57075,0.48122 -0.0618,0.0717 -0.13188,0.15155 -0.1558,0.17754 -0.0239,0.026 -0.0435,0.0622 -0.0435,0.0806 0,0.0183 -0.0168,0.044 -0.0373,0.0572 -0.0396,0.0253 -0.09,0.11018 -0.20932,0.35199 -0.15914,0.32259 -0.20084,0.42729 -0.20084,0.5044 0,0.0441 -0.023,0.12321 -0.051,0.17571 -0.0762,0.14261 -0.0767,1.18384 -0.001,1.32447 0.0284,0.0525 0.0517,0.13325 0.0517,0.17942 0,0.0462 0.0248,0.13074 0.0551,0.18792 0.0303,0.0572 0.0641,0.14088 0.0752,0.186 0.011,0.0451 0.0322,0.082 0.0469,0.082 0.0148,0 0.0359,0.0412 0.047,0.0915 0.0111,0.0503 0.039,0.0987 0.062,0.10759 0.0231,0.009 0.0419,0.0322 0.0419,0.0519 0,0.0822 0.55159,0.73344 0.6212,0.73344 0.012,0 0.044,0.0235 0.0711,0.0522 0.0807,0.0855 0.15066,0.1395 0.23111,0.17842 0.0859,0.0416 0.16198,0.0886 0.26604,0.16463 0.0393,0.0287 0.0949,0.0522 0.12347,0.0522 0.0286,0 0.0678,0.0191 0.0872,0.0424 0.0194,0.0233 0.0912,0.0519 0.15961,0.0634 0.0684,0.0116 0.15155,0.0381 0.18472,0.0589 0.0763,0.0479 0.56178,0.11478 0.83589,0.11507 0.27162,3.4e-4 0.72764,-0.0667 0.81182,-0.11926 0.0363,-0.0227 0.0891,-0.0413 0.11735,-0.0413 0.0459,0 0.12086,-0.0295 0.36844,-0.14486 0.041,-0.0191 0.11484,-0.0613 0.16406,-0.0938 0.0492,-0.0325 0.12305,-0.0753 0.16406,-0.0953 0.041,-0.0199 0.0965,-0.057 0.12331,-0.0823 0.0268,-0.0254 0.0937,-0.0797 0.1487,-0.12068 0.11536,-0.0861 0.41408,-0.39104 0.41408,-0.42275 0,-0.0118 0.0469,-0.0725 0.10427,-0.1349 0.0573,-0.0624 0.10432,-0.12825 0.1044,-0.14625 7e-5,-0.018 0.027,-0.0637 0.0598,-0.10151 0.0328,-0.0378 0.0597,-0.0936 0.0597,-0.12388 0,-0.10742 0.12792,-0.0261 0.15969,0.10151 0.0113,0.0451 0.0325,0.082 0.0472,0.082 0.0147,0 0.0693,0.0873 0.12124,0.19389 0.052,0.10665 0.10569,0.1939 0.11944,0.1939 0.0137,0 0.034,0.0412 0.0451,0.0915 0.0111,0.0503 0.039,0.0987 0.062,0.10759 0.0231,0.009 0.0419,0.0397 0.0419,0.0685 0,0.0288 0.0295,0.09 0.0656,0.13587 0.0688,0.0875 0.0895,0.2709 0.0346,0.30696 -0.017,0.0112 -0.11143,0.11433 -0.20977,0.22917 -0.17636,0.20599 -0.54208,0.52479 -0.6437,0.56114 -0.0287,0.0103 -0.0522,0.0312 -0.0522,0.0465 0,0.0153 -0.0403,0.0419 -0.0895,0.0591 -0.0492,0.0172 -0.0895,0.044 -0.0895,0.0597 0,0.0157 -0.0369,0.043 -0.082,0.0608 -0.0451,0.0178 -0.10217,0.0459 -0.12678,0.0626 -0.0246,0.0167 -0.0783,0.0437 -0.11932,0.06 -0.041,0.0164 -0.0947,0.0416 -0.11932,0.0561 -0.11375,0.067 -0.32527,0.15275 -0.37696,0.15275 -0.0315,0 -0.0842,0.0189 -0.11712,0.042 -0.0329,0.0231 -0.12655,0.0517 -0.20799,0.0635 -0.0815,0.0119 -0.18487,0.0402 -0.22983,0.0631 -0.096,0.0487 -1.15006,0.0792 -1.51416,0.0438 z m 18.255931,9e-4 c -0.10664,-0.0113 -0.22074,-0.0355 -0.25355,-0.0538 -0.0328,-0.0183 -0.13348,-0.0432 -0.22372,-0.0554 -0.0902,-0.0121 -0.19055,-0.0405 -0.22291,-0.0631 -0.0324,-0.0226 -0.0846,-0.041 -0.11606,-0.041 -0.0517,0 -0.26319,-0.0857 -0.37695,-0.15275 -0.0246,-0.0145 -0.0783,-0.0398 -0.11932,-0.0561 -0.041,-0.0164 -0.0947,-0.0434 -0.11933,-0.0602 -0.0246,-0.0168 -0.0884,-0.0505 -0.14168,-0.075 -0.0533,-0.0245 -0.097,-0.0578 -0.097,-0.074 0,-0.0162 -0.0127,-0.0294 -0.0283,-0.0294 -0.0441,0 -0.29979,-0.17986 -0.29979,-0.21092 0,-0.0153 -0.0157,-0.0277 -0.0348,-0.0277 -0.0191,0 -0.056,-0.0199 -0.082,-0.0442 -0.16713,-0.15639 -0.44995,-0.43839 -0.44995,-0.44865 0,-0.007 -0.0436,-0.0563 -0.0969,-0.1102 -0.0533,-0.0539 -0.11345,-0.13486 -0.13361,-0.17997 -0.0202,-0.0451 -0.0504,-0.082 -0.0671,-0.082 -0.0168,0 -0.0305,-0.0181 -0.0305,-0.0401 0,-0.0221 -0.0269,-0.0644 -0.0597,-0.0941 -0.0328,-0.0297 -0.0597,-0.0702 -0.0597,-0.0901 0,-0.0199 -0.0269,-0.0702 -0.0597,-0.11195 -0.0328,-0.0417 -0.0597,-0.0956 -0.0597,-0.11969 0,-0.0241 -0.018,-0.0588 -0.0399,-0.077 -0.022,-0.0182 -0.056,-0.087 -0.0758,-0.1528 -0.0197,-0.0658 -0.0487,-0.11968 -0.0645,-0.11968 -0.0157,0 -0.0291,-0.0302 -0.0296,-0.0671 0,-0.0369 -0.027,-0.12081 -0.0587,-0.18644 -0.0317,-0.0656 -0.0581,-0.15334 -0.0587,-0.19493 0,-0.0416 -0.0285,-0.15372 -0.062,-0.24918 -0.11203,-0.31875 -0.10951,-1.80872 0.003,-1.94464 0.0153,-0.0184 0.0366,-0.0993 0.0473,-0.17964 0.0107,-0.0804 0.0443,-0.19292 0.0746,-0.2501 0.0303,-0.0572 0.0551,-0.13272 0.0551,-0.16787 0,-0.0351 0.0201,-0.0806 0.0448,-0.10104 0.0246,-0.0204 0.0447,-0.0508 0.0447,-0.0675 0,-0.0431 0.1227,-0.29193 0.18568,-0.37652 0.0291,-0.0391 0.053,-0.0962 0.053,-0.12677 0,-0.0306 0.0112,-0.0556 0.0248,-0.0556 0.0136,0 0.0676,-0.066 0.11988,-0.14671 0.12714,-0.19622 0.21571,-0.29983 0.48504,-0.5674 0.21522,-0.21381 0.35337,-0.33766 0.45123,-0.40451 0.35814,-0.24469 0.35724,-0.24415 0.69598,-0.41523 0.14878,-0.0751 0.28973,-0.13671 0.31321,-0.13681 0.0235,-1e-4 0.083,-0.0213 0.13219,-0.047 0.0492,-0.0257 0.16332,-0.0605 0.25355,-0.0771 0.0902,-0.0167 0.18057,-0.0439 0.20075,-0.0605 0.0202,-0.0166 0.17454,-0.0416 0.34304,-0.0556 0.64432,-0.0534 1.44981,-0.0172 1.67051,0.075 0.0608,0.0254 0.14116,0.0466 0.1786,0.0472 0.0374,5.7e-4 0.12177,0.0269 0.1874,0.0587 0.0656,0.0317 0.14787,0.0581 0.18278,0.0587 0.0349,5.6e-4 0.0802,0.0211 0.1006,0.0458 0.0204,0.0246 0.0605,0.0447 0.0891,0.0447 0.0286,0 0.0861,0.0268 0.12783,0.0597 0.0417,0.0328 0.0956,0.0597 0.11969,0.0597 0.0241,0 0.0601,0.0196 0.08,0.0436 0.0199,0.024 0.0632,0.0522 0.0962,0.0627 0.0686,0.0218 0.20373,0.11051 0.37605,0.24699 0.0654,0.0518 0.1329,0.0942 0.14995,0.0942 0.017,0 0.039,0.0254 0.0489,0.0565 0.0265,0.0836 0.18131,0.14112 0.24271,0.0902 0.0388,-0.0322 0.0458,-0.0892 0.0373,-0.30542 l -0.0105,-0.26579 0.59659,-6e-5 0.5966,-6e-5 0.008,3.76212 0.008,3.76212 h -0.61162 -0.61163 v -0.25111 c 0,-0.13812 -0.008,-0.27177 -0.0176,-0.29702 -0.0227,-0.0592 -0.18727,-0.0326 -0.25087,0.0405 -0.0622,0.0715 -0.42615,0.32508 -0.56676,0.3948 -0.041,0.0203 -0.0847,0.053 -0.0971,0.0726 -0.0124,0.0196 -0.0616,0.0442 -0.10937,0.0547 -0.0478,0.0105 -0.0942,0.0384 -0.10329,0.062 -0.009,0.0236 -0.0438,0.0429 -0.0772,0.0429 -0.0334,0 -0.11079,0.0268 -0.17201,0.0597 -0.0612,0.0328 -0.13873,0.0597 -0.17224,0.0597 -0.0335,0 -0.0874,0.0185 -0.11975,0.041 -0.0324,0.0226 -0.13268,0.051 -0.22291,0.0632 -0.0902,0.0122 -0.20106,0.0411 -0.24627,0.0642 -0.0939,0.0481 -1.17892,0.0802 -1.5137,0.0448 z m 1.20182,-1.2669 c 0.14419,-0.0222 0.27776,-0.056 0.29681,-0.0751 0.019,-0.019 0.0622,-0.0348 0.0958,-0.0349 0.0336,-1.1e-4 0.12826,-0.0333 0.2103,-0.0736 0.082,-0.0404 0.16593,-0.0738 0.18644,-0.0743 0.0205,-5.7e-4 0.0373,-0.0141 0.0373,-0.0302 0,-0.0161 0.0326,-0.0374 0.0724,-0.0474 0.0398,-0.01 0.0956,-0.0438 0.12394,-0.0751 0.0284,-0.0313 0.069,-0.057 0.0902,-0.057 0.0213,0 0.0494,-0.0168 0.0625,-0.0373 0.023,-0.0359 0.0445,-0.0516 0.22503,-0.16492 0.045,-0.0282 0.0819,-0.0604 0.082,-0.0715 1e-4,-0.0111 0.0639,-0.0852 0.14187,-0.16464 0.16725,-0.17054 0.30576,-0.34986 0.30576,-0.39583 0,-0.018 0.0189,-0.04 0.0421,-0.0489 0.0231,-0.009 0.0508,-0.051 0.0615,-0.0936 0.0107,-0.0426 0.0455,-0.11059 0.0773,-0.15102 0.0318,-0.0404 0.0578,-0.0971 0.0578,-0.12594 0,-0.0288 0.0188,-0.0597 0.0418,-0.0685 0.023,-0.009 0.0513,-0.074 0.063,-0.14489 0.0117,-0.0709 0.034,-0.14469 0.0496,-0.16406 0.0538,-0.0667 0.12638,-0.56212 0.12595,-0.85969 0,-0.30915 -0.0777,-0.84651 -0.12612,-0.8773 -0.0152,-0.01 -0.0371,-0.0739 -0.0486,-0.14266 -0.0115,-0.0688 -0.04,-0.1409 -0.0633,-0.16026 -0.0233,-0.0194 -0.0424,-0.0586 -0.0424,-0.0872 0,-0.0286 -0.025,-0.084 -0.0556,-0.12313 -0.0306,-0.0391 -0.065,-0.10134 -0.0766,-0.13825 -0.0116,-0.0369 -0.0314,-0.0671 -0.0441,-0.0671 -0.0127,0 -0.0386,-0.0341 -0.0575,-0.0757 -0.0367,-0.0806 -0.05,-0.0991 -0.16813,-0.23442 -0.0415,-0.0475 -0.0754,-0.0978 -0.0754,-0.11186 0,-0.014 -0.0201,-0.0255 -0.0447,-0.0255 -0.0246,0 -0.0447,-0.0192 -0.0447,-0.0427 0,-0.0235 -0.0269,-0.0512 -0.0597,-0.0617 -0.0328,-0.0104 -0.0597,-0.0382 -0.0597,-0.0617 0,-0.0235 -0.0197,-0.0427 -0.0437,-0.0427 -0.024,0 -0.0581,-0.0268 -0.0756,-0.0597 -0.0176,-0.0328 -0.0516,-0.0597 -0.0756,-0.0597 -0.024,0 -0.0437,-0.0137 -0.0437,-0.0305 0,-0.0168 -0.0369,-0.0467 -0.082,-0.0665 -0.0451,-0.0198 -0.0928,-0.0531 -0.10588,-0.0739 -0.0131,-0.0209 -0.0424,-0.0379 -0.065,-0.0379 -0.0226,0 -0.0589,-0.017 -0.0805,-0.0377 -0.0601,-0.0575 -0.35159,-0.20092 -0.40842,-0.20092 -0.0276,0 -0.0797,-0.0206 -0.11564,-0.0458 -0.036,-0.0252 -0.14967,-0.0576 -0.25273,-0.0721 -0.10305,-0.0145 -0.24106,-0.0405 -0.30668,-0.0579 -0.15059,-0.0398 -0.61375,-0.04 -0.79049,-2.2e-4 -0.0738,0.0166 -0.2145,0.0443 -0.3126,0.0615 -0.0981,0.0172 -0.20512,0.05 -0.23782,0.0729 -0.0327,0.0229 -0.0821,0.0416 -0.10973,0.0416 -0.0568,0 -0.34829,0.14339 -0.40841,0.20092 -0.0217,0.0207 -0.0515,0.0377 -0.0662,0.0377 -0.0395,0 -0.38659,0.24295 -0.38659,0.27061 0,0.013 -0.0268,0.0322 -0.0597,0.0426 -0.0328,0.0104 -0.0597,0.0373 -0.0597,0.0597 0,0.0224 -0.0269,0.0492 -0.0597,0.0597 -0.0328,0.0104 -0.0597,0.0382 -0.0597,0.0617 0,0.0235 -0.0192,0.0427 -0.0427,0.0427 -0.0235,0 -0.0509,0.0256 -0.0608,0.0569 -0.01,0.0313 -0.0377,0.0644 -0.0617,0.0736 -0.024,0.009 -0.0436,0.0362 -0.0436,0.0599 0,0.0238 -0.0125,0.0477 -0.0278,0.0531 -0.0378,0.0135 -0.300304,0.40857 -0.300554,0.45227 -1e-4,0.0192 -0.0269,0.0752 -0.0595,0.12444 -0.0326,0.0492 -0.0594,0.11634 -0.0596,0.14915 0,0.0328 -0.0205,0.0983 -0.0451,0.14544 -0.0246,0.0472 -0.0571,0.15457 -0.0722,0.23864 -0.0151,0.0841 -0.0416,0.20656 -0.0588,0.27218 -0.0453,0.17262 -0.0397,0.68457 0.01,0.87803 0.0232,0.0913 0.0554,0.22643 0.0714,0.30026 0.0604,0.27794 0.291764,0.78389 0.385984,0.84418 0.0205,0.0131 0.0373,0.0378 0.0373,0.0549 0,0.0393 0.10185,0.1728 0.24609,0.32247 0.0615,0.0638 0.11187,0.13055 0.11187,0.14825 0,0.0177 0.013,0.0322 0.0288,0.0322 0.0159,0 0.0731,0.0436 0.12721,0.0969 0.10515,0.10364 0.45555,0.3505 0.4975,0.3505 0.0139,0 0.0412,0.0193 0.0608,0.0428 0.0195,0.0236 0.074,0.0513 0.12091,0.0616 0.047,0.0103 0.10049,0.037 0.11898,0.0592 0.0185,0.0223 0.0896,0.05 0.15802,0.0615 0.0684,0.0116 0.15154,0.0382 0.18472,0.0592 0.0332,0.021 0.15883,0.0476 0.27925,0.0592 0.12042,0.0116 0.25465,0.0326 0.2983,0.0467 0.097,0.0314 0.46631,0.0125 0.81881,-0.0419 z"
       id="path18"
       sodipodi:nodetypes="ccscsssssssssssssssssscsssssscssssssssssssssssscssscscsccssssssscscssssssssscsssssssssssscsssssssscscsssssccsccssssssssssssscscssssssssssssssssssssssssssssssssssssssssssssssssssssssssssscsssssssssscsssssssssssscscsssssssssssssssssssssssssssssssssssssssssssssssssssssssscsssssssssssssscsssssssscssssscscssssssssssssssssssssssssssssssssssssssscsssssssscssssssssssssssscsssssssssssscssssssssssssssssssssscccssssssssssssssssssssssssscscsscssssssssssssssssssssssssssssssscccccccscsssscsssssscccscscsssssssssssssssscsssssssssssssssssssssssssssssssssssssssssssscssssssssssssssssssscc" />
    <text
       xml:space="preserve"
       style="font-size:3.52777px;line-height:3.14603px;font-family:'Franklin Gothic Medium Cond';-inkscape-font-specification:'Franklin Gothic Medium Cond';letter-spacing:0.0608542px;white-space:pre;inline-size:69.6518;display:inline;fill:#1273b3;fill-opacity:1;stroke-width:0.0789284;stroke-linejoin:round"
       x="1750.838"
       y="97.573929"
       id="text53"
       transform="matrix(0.61631636,0,0,0.61631636,-987.51117,2.9879999)"><tspan
         x="1750.838"
         y="97.573929"
         id="tspan4">Environmental Protection Agency
</tspan><tspan
         x="1750.838"
         y="100.71995"
         id="tspan6"><tspan
           style="font-style:italic"
           id="tspan5">An Ghníomhaireacht um Chaomhnú Comhshaoil</tspan></tspan></text>
    <path
       style="display:inline;fill:#53ada8;stroke:none;stroke-width:0.0704247"
       d="m 79.795019,40.407689 c -0.74131,0.10091 -1.40059,0.38654 -2.01209,0.7851 -0.21033,0.13708 -0.22896,0.697 0.0192,0.81998 0.39921,0.19787 0.93671,-0.0971 1.32215,-0.18421 0.20344,-0.046 0.44275,-0.0268 0.65216,-0.0468 1.04658,-0.0997 2.10173,0.19407 3.11174,0.41404 0.2686,0.0585 0.5169,0.29048 0.76397,0.40838 0.28149,0.13432 0.51401,0.3019 0.78259,0.45382 0.11535,0.0652 0.26303,0.0959 0.36951,0.17173 0.0737,0.0525 0.11811,0.13711 0.19265,0.1887 0.08,0.0554 0.17975,0.0767 0.25697,0.13804 0.36358,0.2888 0.73144,0.69926 0.92375,1.1289 0.17222,0.38476 0.23522,0.96029 0.10181,1.36023 -0.047,0.14083 -0.1172,0.34298 -0.26162,0.41218 -0.30177,0.1446 -0.60718,-0.20912 -0.87501,-0.25579 -0.11215,-0.0195 -0.17752,0.0682 -0.27949,0.0777 -0.0791,0.007 -0.28997,-0.0491 -0.3734,-0.074 -0.10751,-0.0322 -0.27637,-0.0822 -0.37194,-0.14136 -0.0763,-0.0472 -0.13263,-0.1353 -0.22359,-0.15633 -0.0643,-0.0149 -0.12254,0.0224 -0.18634,0.0204 -0.0994,-0.003 -0.19605,-0.053 -0.29813,-0.0596 -0.0872,-0.006 -0.17345,0.0196 -0.26086,0.003 -0.14916,-0.0288 -0.24972,-0.15998 -0.40994,-0.1608 -0.11443,-5.7e-4 -0.2074,0.0535 -0.31675,0.07 -0.15705,0.0237 -0.35747,0.0173 -0.51642,0.0201 -0.10824,0.002 -0.2059,-0.0747 -0.32207,-0.0659 -0.14161,0.0107 -0.27478,0.10715 -0.40995,0.10693 -0.0904,-1.1e-4 -0.1627,-0.067 -0.24222,-0.10146 -0.13228,-0.0572 -0.26664,-0.0876 -0.40993,-0.10152 -0.24009,-0.0233 -0.46849,-0.002 -0.70806,-0.003 -0.12402,-5.6e-4 -0.24869,-0.0342 -0.37266,-0.0125 -0.1278,0.0224 -0.22483,0.12466 -0.35404,0.13942 -0.23022,0.0263 -0.45241,-0.0503 -0.68943,-0.007 -0.16188,0.0295 -0.30601,0.11097 -0.46584,0.15093 -0.26667,0.0667 -0.56258,0.10493 -0.81984,0.19053 -0.1082,0.036 -0.18739,0.1204 -0.29814,0.15075 -0.16805,0.0461 -0.3348,-0.0554 -0.50309,0.005 -0.22187,0.0803 -0.39044,0.255 -0.59629,0.34895 -0.0975,0.0445 -0.19997,-0.0178 -0.29812,0.0214 -0.0871,0.0348 -0.1385,0.12078 -0.22358,0.15794 -0.17526,0.0765 -0.37672,0.0959 -0.559,0.17791 -0.0998,0.0449 -0.201,0.14527 -0.30131,0.17558 -0.0825,0.0249 -0.20314,-0.0588 -0.27632,-0.091 -0.24764,-0.10891 -0.47694,-0.32351 -0.74533,-0.3719 -0.0979,-0.0177 -0.28669,-0.0437 -0.36115,0.0408 -0.0746,0.0846 0.039,0.21579 0.10062,0.26817 0.14559,0.12384 0.17918,0.27912 0.29219,0.42094 0.0447,0.0562 0.12012,0.0704 0.16657,0.12305 0.0383,0.0435 0.0286,0.0947 -0.006,0.1378 -0.12271,0.15503 -0.42141,0.20904 -0.58085,0.33544 -0.29169,0.23128 -0.57737,0.49589 -0.8436,0.74322 -0.19907,0.18492 -0.39263,0.38106 -0.59432,0.56309 -0.0815,0.0735 -0.18179,0.11902 -0.24931,0.20861 -0.0617,0.0819 -0.0632,0.17287 -0.10802,0.25844 -0.0862,0.16442 -0.25333,0.34592 -0.27418,0.5411 -0.0504,0.47114 0.44476,-0.0256 0.55698,-0.16771 0.22975,-0.29091 0.49786,-0.45297 0.78259,-0.68036 0.42378,-0.33843 0.87742,-0.71534 1.37885,-0.92457 0.20394,-0.0851 0.33896,-0.30794 0.57764,-0.32155 0.2262,-0.0129 0.44047,0.26689 0.61491,0.38763 0.36752,0.25437 0.82879,0.47288 1.24841,0.62937 0.34655,0.12925 0.68602,0.20669 1.04346,0.30807 0.10692,0.0303 0.17439,0.12852 0.2795,0.16294 0.40725,0.13334 0.86987,0.18745 1.28569,0.26568 0.15079,0.0284 0.32062,-0.002 0.47374,0.003 0.15693,0.005 0.30238,0.0762 0.45791,0.0896 0.0881,0.008 0.17302,-0.0305 0.26088,-0.0239 0.28556,0.0215 0.56448,0.0859 0.85712,0.0858 0.14308,-6e-5 0.26873,-0.0775 0.40993,-0.0843 0.39775,-0.019 0.7964,0.0497 1.19253,0.007 0.63496,-0.069 1.22454,-0.29606 1.82605,-0.49018 0.36328,-0.11724 0.73627,-0.16093 1.08073,-0.32971 0.0943,-0.0462 0.15503,-0.13989 0.24296,-0.19521 0.32503,-0.20451 0.667,-0.38532 0.98358,-0.60284 0.16792,-0.11535 0.37539,-0.37405 0.5995,-0.38235 0.118,-0.004 0.19125,0.0849 0.27951,0.14704 0.12979,0.0914 0.271,0.13726 0.39445,0.2402 0.29232,0.24373 0.56508,0.51594 0.87268,0.74595 0.23628,0.17669 0.5207,0.2963 0.7435,0.50164 0.18414,0.1697 0.59502,0.70405 0.89331,0.50028 0.0956,-0.0653 0.0218,-0.16911 -0.0325,-0.23265 -0.14896,-0.17435 -0.23586,-0.38176 -0.43054,-0.51591 -0.19201,-0.13232 -0.4131,-0.24737 -0.56653,-0.42842 -0.2036,-0.24026 -0.28097,-0.55416 -0.51815,-0.77081 -0.14504,-0.13248 -0.3359,-0.1893 -0.49912,-0.29174 -0.24492,-0.1537 -0.49292,-0.41932 -0.56628,-0.70566 -0.0651,-0.25422 0.0607,-0.50277 0.14612,-0.7267 0.0576,-0.1511 0.0808,-0.36057 0.10936,-0.52173 0.0328,-0.1855 0.0122,-0.38985 0.0175,-0.57763 0.005,-0.17982 0.0589,-0.35805 0.0283,-0.54036 -0.0164,-0.0974 -0.0806,-0.18027 -0.099,-0.2795 -0.0274,-0.14792 -0.016,-0.30264 -0.0603,-0.4472 -0.0501,-0.16329 -0.16175,-0.42374 -0.27696,-0.54914 -0.0677,-0.0737 -0.1605,-0.11636 -0.22523,-0.1962 -0.0721,-0.0889 -0.0834,-0.20157 -0.14073,-0.29645 -0.051,-0.0846 -0.14573,-0.13068 -0.20324,-0.20979 -0.12253,-0.16849 -0.19607,-0.40358 -0.33593,-0.5539 -0.14289,-0.15357 -0.34216,-0.21834 -0.49379,-0.34534 -0.38678,-0.32395 -0.73149,-0.67295 -1.21648,-0.85906 -0.15195,-0.0583 -0.31757,-0.0148 -0.46583,-0.0709 -0.20554,-0.0778 -0.38439,-0.23773 -0.59626,-0.29855 -0.12656,-0.0363 -0.26675,0.0163 -0.39129,-0.0304 -0.12952,-0.0486 -0.23923,-0.15801 -0.37267,-0.19448 -0.11544,-0.0315 -0.25292,-0.0175 -0.37267,-0.0345 -0.24549,-0.0349 -0.47634,-0.0948 -0.72669,-0.10574 -0.37038,-0.0162 -0.73828,0.0409 -1.09935,0.0459 -0.33386,0.005 -0.66638,-0.0849 -1.0062,-0.0387 m 3.09311,6.21557 c -0.0591,0.0966 -0.21297,0.0939 -0.31676,0.10648 -0.28481,0.0345 -0.57348,0.0529 -0.85713,0.0934 -0.78651,0.11237 -1.60522,0.32597 -2.32915,0.6514 -0.29248,0.13147 -0.6409,0.25422 -0.7826,0.5648 0.22335,-0.0703 0.42826,-0.18343 0.65217,-0.25274 0.42224,-0.1307 0.88303,-0.20499 1.32296,-0.24719 1.0956,-0.10511 2.20125,0.0527 3.29807,0.0527 0.31991,0 0.677,-0.0339 0.98756,-0.11469 0.15501,-0.0403 0.42875,-0.17947 0.57762,-0.14618 -0.0582,0.27725 -0.3593,0.48957 -0.57762,0.64669 -0.59655,0.42931 -1.36027,0.70694 -2.08693,0.80913 -2.15071,0.30244 -4.25764,0.18146 -6.31663,-0.55135 -0.47108,-0.16765 -0.91415,-0.37483 -1.36024,-0.59945 -0.17559,-0.0884 -0.4288,-0.17445 -0.55899,-0.32365 0.18533,-0.0782 0.43343,-0.0106 0.63353,-0.0194 0.2429,-0.0107 0.49414,-0.0904 0.7267,-0.15631 0.66662,-0.1889 1.33077,-0.39306 2.01238,-0.5238 1.65694,-0.31781 3.32271,-0.31039 4.97506,0.0101"
       id="path56"
       sodipodi:nodetypes="cssssssssssssssssssssscsssssscsssssssssssssssssscsssssssssssssssssssssssssssssssssssssssssssssssssssssssssccssscsssscsssscsssc" />
  </g>
</svg>
