<?xml version="1.0" encoding="UTF-8" standalone="no"?>
<!-- Created with Inkscape (http://www.inkscape.org/) -->

<svg
   width="133.16074mm"
   height="130.34334mm"
   viewBox="0 0 133.16073 130.34334"
   version="1.1"
   id="svg5"
   xml:space="preserve"
   xmlns:xlink="http://www.w3.org/1999/xlink"
   xmlns="http://www.w3.org/2000/svg"
   xmlns:svg="http://www.w3.org/2000/svg"><defs
     id="defs2"><linearGradient
       id="linearGradient5"><stop
         style="stop-color:#ff7755;stop-opacity:1;"
         offset="0"
         id="stop4" /><stop
         style="stop-color:#aa6faa;stop-opacity:1;"
         offset="0.5"
         id="stop6" /><stop
         style="stop-color:#5568ff;stop-opacity:1;"
         offset="1"
         id="stop5" /></linearGradient><linearGradient
       id="linearGradient40"><stop
         style="stop-color:#ff7b55;stop-opacity:1;"
         offset="0"
         id="stop40" /><stop
         style="stop-color:#5599ff;stop-opacity:1;"
         offset="1"
         id="stop41" /></linearGradient><linearGradient
       xlink:href="#linearGradient40"
       id="linearGradient41"
       x1="-1146.8749"
       y1="153.67586"
       x2="-1060.4476"
       y2="153.67586"
       gradientUnits="userSpaceOnUse" /><radialGradient
       xlink:href="#linearGradient5"
       id="radialGradient2-7"
       cx="-1167.4611"
       cy="172.71118"
       fx="-1167.4611"
       fy="172.71118"
       r="10.937831"
       gradientTransform="matrix(5.1426642,0,0,5.0147449,4520.1877,-633.21374)"
       gradientUnits="userSpaceOnUse" /><filter
       style="color-interpolation-filters:sRGB"
       id="filter18"
       x="-0.094104109"
       y="-0.09646491"
       width="1.1882193"
       height="1.1928127"><feFlood
         result="flood"
         in="SourceGraphic"
         flood-opacity="0.55294117647058827"
         flood-color="rgb(255,255,255)"
         id="feFlood17" /><feGaussianBlur
         result="blur"
         in="SourceGraphic"
         stdDeviation="2.000000"
         id="feGaussianBlur17" /><feOffset
         result="offset"
         in="blur"
         dx="0.000000"
         dy="0.000000"
         id="feOffset17" /><feComposite
         result="comp1"
         operator="in"
         in="flood"
         in2="offset"
         id="feComposite17" /><feComposite
         result="fbSourceGraphic"
         operator="over"
         in="SourceGraphic"
         in2="comp1"
         id="feComposite18" /><feColorMatrix
         result="fbSourceGraphicAlpha"
         in="fbSourceGraphic"
         values="0 0 0 -1 0 0 0 0 -1 0 0 0 0 -1 0 0 0 0 1 0"
         id="feColorMatrix18" /><feFlood
         id="feFlood18"
         result="flood"
         in="fbSourceGraphic"
         flood-opacity="0.678431"
         flood-color="rgb(187,187,187)" /><feGaussianBlur
         id="feGaussianBlur18"
         result="blur"
         in="fbSourceGraphic"
         stdDeviation="2.000000" /><feOffset
         id="feOffset18"
         result="offset"
         in="blur"
         dx="0.000000"
         dy="0.000000" /><feComposite
         id="feComposite19"
         result="comp1"
         operator="in"
         in="flood"
         in2="offset" /><feComposite
         id="feComposite20"
         result="fbSourceGraphic"
         operator="over"
         in="fbSourceGraphic"
         in2="comp1" /><feColorMatrix
         result="fbSourceGraphicAlpha"
         in="fbSourceGraphic"
         values="0 0 0 -1 0 0 0 0 -1 0 0 0 0 -1 0 0 0 0 1 0"
         id="feColorMatrix1" /><feGaussianBlur
         id="feGaussianBlur1"
         stdDeviation="0.1 0.1"
         result="blur"
         in="fbSourceGraphic" /></filter></defs><g
     id="layer1"
     transform="translate(1637.1007,-71.294802)"><path
       style="color:#000000;fill:url(#linearGradient41);stroke:none;stroke-linecap:round;stroke-linejoin:round;stroke-opacity:1;-inkscape-stroke:none;paint-order:stroke fill markers"
       xlink:href="#path4-6"
       id="path63"
       d="m -1017.7402,131.01562 c -3.9134,0.002 -7.0996,3.15767 -7.0996,7.04297 0,0.48523 0.049,0.95847 0.1445,1.41602 0.1363,0.65657 -0.1407,1.39707 -0.7461,1.6875 l -6.5391,3.13672 c -0.7267,0.34864 -1.5621,0.0205 -1.9922,-0.66016 -1.6274,-2.57479 -4.533,-4.28904 -7.8398,-4.28906 -4.2894,-3e-5 -7.9064,2.88682 -8.9297,6.79101 -0.088,0.337 -0.4182,0.57863 -0.7637,0.53321 l -10.2578,-1.34961 c -0.3455,-0.0454 -0.5937,-0.36262 -0.5937,-0.71094 0,-3.70693 -3.0408,-6.72073 -6.7735,-6.7207 -3.2349,3e-5 -5.9488,2.26298 -6.6152,5.2793 -0.075,0.34012 -0.39,0.61312 -0.7383,0.60156 l -10.1426,-0.33594 -0.033,0.97852 10.129,0.33593 c 0.3483,0.0116 0.6348,0.30253 0.6757,0.64844 0.3949,3.33586 3.2608,5.93161 6.7246,5.93164 0.8729,1e-5 1.7076,-0.16655 2.4747,-0.4668 0.3242,-0.12697 0.7221,-0.0158 0.9042,0.28125 l 4.418,7.20313 c 0.1821,0.29705 0.1033,0.71097 -0.1328,0.9668 -0.6679,0.72377 -1.0762,1.68932 -1.0762,2.74804 0,2.23723 1.8253,4.06057 4.0625,4.06055 0.4856,-1e-5 0.9508,-0.0845 1.3828,-0.24219 0.753,-0.27493 1.7407,-0.30031 2.3438,0.23438 l 2.7051,2.39648 c 0.6031,0.53469 0.6826,1.50066 0.4394,2.26563 -0.141,0.44345 -0.2168,0.91691 -0.2168,1.40625 0,2.56601 2.0903,4.65626 4.6563,4.65625 1.8997,0 3.5385,-1.14701 4.2617,-2.78321 0.2706,-0.61239 0.8837,-1.18109 1.5547,-1.20312 l 15.5996,-0.51172 c 0.671,-0.022 1.2531,0.50609 1.4023,1.16016 0.9019,3.95265 4.4431,6.91014 8.6661,6.91015 4.2001,4e-5 7.7246,-2.92525 8.6503,-6.8457 0.178,-0.75414 0.8417,-1.404 1.6172,-1.42383 l 5.1836,-0.13086 -0.023,-0.98047 -5.1426,0.13282 c -0.7755,0.0198 -1.4153,-0.59897 -1.5644,-1.35938 -0.8009,-4.08523 -4.4055,-7.17388 -8.7227,-7.17383 -2.1252,1e-5 -4.0753,0.74819 -5.6055,1.9961 -0.5199,0.42402 -1.3051,0.48132 -1.8203,0.0508 l -10.9082,-9.11524 c -0.6185,-0.5168 -0.6539,-1.39954 -0.1914,-2.05859 1.0207,-1.45438 1.6211,-3.21325 1.6211,-5.11133 0,-0.37593 -0.024,-0.74766 -0.07,-1.11133 -0.1011,-0.79872 0.287,-1.70784 1.0137,-2.05664 l 6.6308,-3.18359 c 0.6053,-0.29055 1.36,-0.0443 1.7871,0.47265 1.3037,1.57808 3.2825,2.58791 5.4942,2.5879 3.0211,1e-5 5.6079,-1.88074 6.6328,-4.5254 0.2798,-0.72213 1.0017,-1.34551 1.7773,-1.33593 l 7.0098,0.0859 0.012,-0.97656 -6.9277,-0.0859 c -0.7756,-0.01 -1.3785,-0.58107 -1.4903,-1.25976 -0.486,-2.95608 -3.0057,-5.98813 -7.0136,-5.99024 z m 0,0.97657 c 3.3911,-1e-5 6.1269,2.71373 6.1269,6.0664 0,3.35268 -2.7358,6.06447 -6.1269,6.06446 -3.391,1e-5 -6.125,-2.71178 -6.125,-6.06446 0,-3.35267 2.734,-6.06641 6.125,-6.0664 z m -51.3946,6.88086 c 3.2083,-2e-5 5.795,2.56704 5.795,5.74023 0,3.17319 -2.5867,5.74027 -5.795,5.74024 -3.2082,-2e-5 -5.7968,-2.56708 -5.7968,-5.74024 0,-3.17315 2.5886,-5.7402 5.7968,-5.74023 z m 27.3184,1.45507 c 4.5629,3e-5 8.2422,3.6117 8.2422,8.06641 0,4.45469 -3.6793,8.06443 -8.2422,8.06445 -4.563,3e-5 -8.2422,-3.60972 -8.2422,-8.06445 0,-4.45474 3.6792,-8.06643 8.2422,-8.06641 z m -20.1152,5.9629 10.2949,1.35351 c 0.3455,0.0454 0.5996,0.36256 0.5976,0.71094 -10e-5,0.0125 0,0.0266 0,0.0391 0,4.99471 4.1413,9.04495 9.2227,9.04492 1.7384,-1e-5 3.3645,-0.47472 4.7539,-1.29883 0.6925,-0.41077 1.694,-0.42106 2.3125,0.0957 l 11.0039,9.19336 c 0.5152,0.43049 0.5979,1.21362 0.2734,1.80078 -0.4872,0.88145 -0.828,1.85334 -0.9921,2.88476 -0.1055,0.66256 -0.6533,1.22798 -1.3243,1.25 l -15.5234,0.50977 c -0.671,0.022 -1.2306,-0.5169 -1.4414,-1.15234 -0.6146,-1.85317 -2.3661,-3.19336 -4.4219,-3.19336 -0.6861,0 -1.3366,0.14787 -1.9238,0.41601 -0.7302,0.33345 -1.7016,0.37057 -2.3047,-0.16406 l -2.6914,-2.38672 c -0.6031,-0.53463 -0.6776,-1.50336 -0.4687,-2.27734 0.091,-0.33596 0.1406,-0.68876 0.1406,-1.05274 0,-2.23718 -1.8234,-4.06049 -4.0606,-4.06054 -0.3805,0 -0.75,0.0515 -1.0996,0.15039 -0.335,0.0948 -0.7397,-0.0213 -0.9219,-0.31836 l -4.4082,-7.19141 c -0.1822,-0.29705 -0.096,-0.69681 0.17,-0.92187 0.9075,-0.7682 1.6951,-1.74294 2.0078,-2.91016 0.093,-0.34863 0.5172,-0.55926 0.8047,-0.52148 z m 3.4472,12.6914 c 1.7081,4e-5 3.0821,1.3739 3.0821,3.08203 0,1.70813 -1.374,3.082 -3.0821,3.08203 -1.7082,1e-5 -3.084,-1.37387 -3.084,-3.08203 0,-1.70816 1.3758,-3.08204 3.084,-3.08203 z m 42.795,4.63086 c 4.375,-4e-5 7.9121,3.53519 7.9121,7.91016 0,4.37497 -3.5371,7.91216 -7.9121,7.91211 -4.3749,-1e-5 -7.9102,-3.53718 -7.9102,-7.91211 0,-4.37493 3.5353,-7.91015 7.9102,-7.91016 z m -31.4864,4.89453 c 2.037,-1e-5 3.6797,1.6408 3.6797,3.67774 0,2.03694 -1.6427,3.67579 -3.6797,3.67578 -2.0369,1e-5 -3.6777,-1.63884 -3.6777,-3.67578 0,-2.03694 1.6408,-3.67775 3.6777,-3.67774 z"
       transform="translate(-3.3214,6.25288)" /><path
       style="fill:none;fill-opacity:1;stroke:url(#radialGradient2-7);stroke-width:0.950389;stroke-linecap:round;stroke-linejoin:round;stroke-dasharray:none"
       d="m -1517.7616,287.18819 c 0,-1.24982 2.2777,-11.80329 3.517,-16.29844 0.7159,-2.61921 2.6691,-8.92869 4.324,-14.02081 3.8714,-11.91066 4.7462,-15.31048 4.7462,-18.44637 0,-2.27378 -0.646,-3.17148 -1.3268,-3.88719 -0.7678,-0.81516 -1.3613,-1.32835 -4.666,-1.06653 -4.8613,0.3857 -14.9158,4.00186 -24.4955,8.81283 -2.1399,1.07347 -3.9552,1.88884 -4.0339,1.8096 -0.1749,-0.13988 1.5361,-1.2289 19.3338,-12.5029 31.3991,-19.88766 58.6351,-34.41923 77.1714,-41.17423 l 3.5921,-1.30917 -2.1887,2.45583 c -4.1285,4.63169 -4.8737,7.94249 -2.758,12.27405 0.8727,1.80425 3.1175,4.30266 9.4414,10.54791 4.5595,4.50107 7.8971,8.03516 7.4188,7.85362 -5.8354,-2.21952 -13.877,-4.64321 -17.3318,-5.2234 -5.7464,-0.96533 -13.5365,-0.66685 -17.8291,0.68598 -8.398,2.64539 -17.9443,8.95106 -25.4361,16.80206 -8.7961,9.21776 -14.5543,19.10963 -23.8286,40.93484 -4.6921,11.04222 -5.6471,13.02729 -5.6471,11.75319 z m 27.5518,-81.60215 c 0.7503,-2.35056 5.6029,-12.64694 7.7798,-16.49083 6.5178,-11.51072 11.2661,-13.54675 17.6563,-7.5701 2.2361,2.09132 6.7241,7.46206 6.4253,7.68689 -0.1749,0.0699 -1.2394,0.57079 -2.5482,1.12239 -6.4849,2.71507 -23.3698,11.56765 -27.1312,14.56387 -2.8068,2.23624 -2.5137,1.73334 -2.182,0.68778 z"
       id="path1117-4-9-52-8-7" /><path
       style="fill:none;fill-opacity:1;stroke:#f9f9f9;stroke-width:1.41198;stroke-linecap:round;stroke-linejoin:round;stroke-dasharray:none;filter:url(#filter18)"
       d="m -1604.6086,190.77024 c 0,-1.24982 2.2777,-11.80329 3.517,-16.29844 0.7159,-2.61921 2.6691,-8.92869 4.324,-14.02081 3.8714,-11.91066 4.7462,-15.31048 4.7462,-18.44637 0,-2.27378 -0.646,-3.17148 -1.3268,-3.88719 -0.7678,-0.81516 -1.3613,-1.32835 -4.666,-1.06653 -4.8613,0.3857 -14.9158,4.00186 -24.4955,8.81283 -2.1399,1.07347 -3.9552,1.88884 -4.0339,1.8096 -0.1749,-0.13988 1.5361,-1.2289 19.3338,-12.5029 31.3991,-19.88766 58.6351,-34.41923 77.1714,-41.17423 l 3.5921,-1.30917 -2.1887,2.45583 c -4.1285,4.63169 -4.8737,7.94249 -2.758,12.27405 0.8727,1.80425 3.1175,4.30266 9.4414,10.54791 4.5595,4.50107 7.8971,8.03516 7.4188,7.85362 -5.8354,-2.21952 -13.877,-4.64321 -17.3318,-5.2234 -5.7464,-0.96533 -13.5365,-0.66685 -17.8291,0.68598 -8.398,2.64539 -17.9443,8.95106 -25.4361,16.80206 -8.7961,9.21776 -14.5543,19.10963 -23.8286,40.93484 -4.6921,11.04222 -5.6471,13.02729 -5.6471,11.75319 z m 27.5518,-81.60215 c 0.7503,-2.35056 5.6029,-12.64694 7.7798,-16.49083 6.5178,-11.510716 11.2661,-13.546746 17.6563,-7.570096 2.2361,2.09132 6.7241,7.462056 6.4253,7.686886 -0.1749,0.0699 -1.2394,0.57079 -2.5482,1.12239 -6.4849,2.71507 -23.3698,11.56765 -27.1312,14.56387 -2.8068,2.23624 -2.5137,1.73334 -2.182,0.68778 z"
       id="path78" /></g></svg>
