<?xml version="1.0" encoding="UTF-8" standalone="no"?>
<svg
   sodipodi:docname="H&amp;S KPI Infographic Design.svg"
   inkscape:version="1.4.3 (0d15f75, 2025-12-25)"
   id="svg8"
   version="1.1"
   viewBox="0 0 14.874834 19.556368"
   height="19.556368mm"
   width="14.874834mm"
   xml:space="preserve"
   inkscape:export-filename="PNG\Infographic H&amp;S KPI May2025.png"
   inkscape:export-xdpi="96"
   inkscape:export-ydpi="96"
   xmlns:inkscape="http://www.inkscape.org/namespaces/inkscape"
   xmlns:sodipodi="http://sodipodi.sourceforge.net/DTD/sodipodi-0.dtd"
   xmlns="http://www.w3.org/2000/svg"
   xmlns:svg="http://www.w3.org/2000/svg"
   xmlns:rdf="http://www.w3.org/1999/02/22-rdf-syntax-ns#"
   xmlns:cc="http://creativecommons.org/ns#"
   xmlns:dc="http://purl.org/dc/elements/1.1/"><defs
     id="defs2" /><sodipodi:namedview
     fit-margin-bottom="0"
     fit-margin-right="0"
     fit-margin-left="0"
     fit-margin-top="0"
     inkscape:snap-bbox-midpoints="true"
     inkscape:snap-bbox-edge-midpoints="true"
     inkscape:bbox-nodes="true"
     inkscape:bbox-paths="true"
     inkscape:snap-bbox="true"
     inkscape:pagecheckerboard="true"
     inkscape:window-maximized="1"
     inkscape:window-y="-8"
     inkscape:window-x="-8"
     inkscape:window-height="1009"
     inkscape:window-width="1920"
     showgrid="false"
     inkscape:document-rotation="0"
     inkscape:current-layer="layer4"
     inkscape:document-units="mm"
     inkscape:cy="376.85364"
     inkscape:cx="1475.2844"
     inkscape:zoom="1.6651027"
     inkscape:pageshadow="2"
     inkscape:pageopacity="0.0"
     borderopacity="0.6745098"
     bordercolor="#666666"
     pagecolor="#ffffff"
     id="base"
     inkscape:snap-global="true"
     showguides="true"
     inkscape:guide-bbox="true"
     inkscape:object-paths="true"
     inkscape:showpageshadow="0"
     inkscape:deskcolor="#c5c5c5"><inkscape:page
       x="0"
       y="0"
       width="14.874834"
       height="19.556368"
       id="page2"
       margin="0"
       bleed="0" /></sodipodi:namedview><metadata
     id="metadata5"><rdf:RDF><cc:Work
         rdf:about=""><dc:format>image/svg+xml</dc:format><dc:type
           rdf:resource="http://purl.org/dc/dcmitype/StillImage" /></cc:Work></rdf:RDF></metadata><g
     style="display:inline"
     transform="translate(-1901.3197,-834.23046)"
     inkscape:label="Txt"
     id="layer4"
     inkscape:groupmode="layer"><path
       style="fill:#4b4b4b;fill-opacity:1;stroke-width:0.268202"
       d="m 1910.6,853.72491 c -0.1918,-0.17226 -0.1734,-0.28995 0.1013,-0.64978 0.1575,-0.20629 0.3929,-0.60038 0.5231,-0.87576 0.2021,-0.42749 0.2363,-0.59585 0.2339,-1.15146 0,-0.94567 -0.2673,-1.49043 -1.6289,-3.37213 -1.016,-1.40405 -1.1187,-1.55996 -1.3926,-2.11301 -0.1496,-0.30206 -0.2885,-0.56251 -0.3087,-0.57878 -0.048,-0.039 -0.4587,0.29783 -0.8999,0.7388 -2.0862,2.08505 -2.6111,3.93472 -1.599,5.6345 0.2304,0.38697 0.6329,0.82304 1.2604,1.36532 0.1884,0.1629 0.2129,0.22237 0.1463,0.35496 -0.1078,0.21436 -0.6031,0.25247 -0.9635,0.0741 -0.1355,-0.0671 -0.2734,-0.12193 -0.3064,-0.12193 -0.07,0 -1.1264,-0.52853 -1.5194,-0.75991 -1.3003,-0.76546 -2.1509,-1.61402 -2.6465,-2.64012 -0.3374,-0.69852 -0.3751,-2.03095 -0.087,-3.07801 0.1559,-0.56714 0.7455,-1.79734 1.2713,-2.65293 0.369,-0.60046 0.6598,-1.02923 2.1934,-3.23352 1.2975,-1.86499 1.6446,-2.46967 2.0223,-3.52355 0.2711,-0.75633 0.2753,-1.62607 0.011,-2.19297 -0.2218,-0.47544 -0.1717,-0.64221 0.2132,-0.70937 0.1828,-0.0319 0.2931,0.0131 0.6874,0.28031 0.2584,0.17506 0.7169,0.53127 1.019,0.79157 0.3021,0.26031 0.6075,0.52261 0.6787,0.58289 0.7175,0.60783 1.7478,2.12183 2.1798,3.20337 0.4679,1.17129 0.5239,1.46586 0.5282,2.78054 0,0.6833 -0.026,1.39927 -0.062,1.59104 -0.06,0.31423 -0.053,0.34099 0.069,0.27093 0.1821,-0.10508 0.5386,-0.53498 0.6445,-0.77732 0.1186,-0.27148 0.3282,-1.21385 0.3301,-1.48398 0,-0.14189 0.063,-0.26451 0.1717,-0.34018 0.4139,-0.28765 0.6754,-0.0887 1.2052,0.91699 1.2584,2.38864 1.7208,4.61303 1.4389,6.92174 -0.2368,1.9394 -1.5428,3.64472 -3.3205,4.3357 -1.0124,0.39349 -2.0066,0.58016 -2.1939,0.41191 z"
       id="path3"
       inkscape:export-filename="PNG\gas.svg"
       inkscape:export-xdpi="96"
       inkscape:export-ydpi="96" /></g></svg>
