<?xml version="1.0" encoding="UTF-8" standalone="no"?>
<svg
   sodipodi:docname="Safety Symbols.svg"
   inkscape:version="1.3.2 (091e20e, 2023-11-25, custom)"
   version="1.1"
   id="svg2"
   height="43.94241mm"
   width="43.94239mm"
   xml:space="preserve"
   xmlns:inkscape="http://www.inkscape.org/namespaces/inkscape"
   xmlns:sodipodi="http://sodipodi.sourceforge.net/DTD/sodipodi-0.dtd"
   xmlns:xlink="http://www.w3.org/1999/xlink"
   xmlns="http://www.w3.org/2000/svg"
   xmlns:svg="http://www.w3.org/2000/svg"
   xmlns:rdf="http://www.w3.org/1999/02/22-rdf-syntax-ns#"
   xmlns:cc="http://creativecommons.org/ns#"
   xmlns:dc="http://purl.org/dc/elements/1.1/"><defs
     id="defs4"><linearGradient
       id="linearGradient4531"
       inkscape:collect="always"><stop
         id="stop4533"
         offset="0"
         style="stop-color:#ffffff;stop-opacity:1;" /><stop
         id="stop4535"
         offset="1"
         style="stop-color:#ffffff;stop-opacity:0;" /></linearGradient><linearGradient
       inkscape:collect="always"
       xlink:href="#linearGradient4531"
       id="linearGradient5"
       gradientUnits="userSpaceOnUse"
       gradientTransform="matrix(1.0666667,0,0,1.0666667,-2913.5088,79.233877)"
       x1="94.365707"
       y1="-366.90707"
       x2="162.7431"
       y2="-305.55365" /></defs><sodipodi:namedview
     inkscape:document-rotation="0"
     inkscape:snap-bbox-midpoints="true"
     showguides="true"
     inkscape:snap-bbox-edge-midpoints="true"
     inkscape:bbox-nodes="true"
     inkscape:bbox-paths="true"
     inkscape:snap-bbox="true"
     inkscape:snap-global="true"
     inkscape:window-maximized="1"
     inkscape:window-y="-8"
     inkscape:window-x="-8"
     inkscape:window-height="1009"
     inkscape:window-width="1920"
     showgrid="false"
     inkscape:current-layer="layer1"
     inkscape:document-units="px"
     inkscape:cy="1068.3594"
     inkscape:cx="-744.53128"
     inkscape:zoom="1.2799999"
     inkscape:pageshadow="2"
     inkscape:pageopacity="0.0"
     borderopacity="1.0"
     bordercolor="#666666"
     pagecolor="#ffffff"
     id="base"
     inkscape:guide-bbox="true"
     inkscape:pagecheckerboard="true"
     fit-margin-top="0"
     fit-margin-left="0"
     fit-margin-right="0"
     fit-margin-bottom="0"
     inkscape:showpageshadow="2"
     inkscape:deskcolor="#d1d1d1"><inkscape:page
       x="0"
       y="0"
       width="166.08148"
       height="166.08154"
       id="page2"
       margin="0"
       bleed="0" /></sodipodi:namedview><metadata
     id="metadata7"><rdf:RDF><cc:Work
         rdf:about=""><dc:format>image/svg+xml</dc:format><dc:type
           rdf:resource="http://purl.org/dc/dcmitype/StillImage" /></cc:Work></rdf:RDF></metadata><g
     transform="translate(2751.4818,272.64317)"
     id="layer1"
     inkscape:groupmode="layer"
     inkscape:label="Layer 1"><g
       transform="translate(-1808.7191,-829.03538)"
       id="g4811"
       inkscape:export-filename="..\..\..\..\..\xampp\htdocs\sheener\img\hand.svg"
       inkscape:export-xdpi="50"
       inkscape:export-ydpi="50"><g
         transform="translate(-1488.901,962.26335)"
         id="g3430-7-4-3-6"><circle
           inkscape:export-ydpi="371.96799"
           inkscape:export-xdpi="371.96799"
           r="83.040756"
           cy="-322.83038"
           cx="629.17896"
           id="path3759-1-4-2-5-2-8-9-3-5-3-42-0-2-4"
           style="color:#000000;display:inline;overflow:visible;visibility:visible;fill:#ffffff;stroke:none;stroke-width:0.64;marker:none;enable-background:accumulate" /><circle
           inkscape:export-ydpi="371.96799"
           inkscape:export-xdpi="371.96799"
           r="77.637154"
           cy="-322.83038"
           cx="629.17896"
           id="path3759-1-4-2-5-2-8-8-51-1-4-8-7-0"
           style="color:#000000;display:inline;overflow:visible;visibility:visible;fill:#2a7fff;stroke:none;stroke-width:0.64;marker:none;enable-background:accumulate" /></g><path
         style="fill:#ffffff;stroke-width:1.06667"
         d="m -875.56977,699.46558 c 2.41728,-1.40737 4.95083,-2.74894 5.63008,-2.98124 0.67915,-0.23232 3.46411,-0.83739 6.1888,-1.34461 2.72459,-0.50722 6.37728,-1.40503 8.11712,-1.99513 5.52555,-1.87413 12.05899,-5.5662 18.10923,-10.23362 1.44245,-1.11276 8.19573,-5.4128 15.00725,-9.55565 6.81152,-4.14284 12.73824,-7.91838 13.17035,-8.39009 2.18528,-2.3852 0.64746,-5.9631 -2.56278,-5.9631 -0.82186,0 -3.51008,1.27326 -11.33141,5.36701 -7.79851,4.08185 -10.33515,5.28374 -10.59317,5.01927 -0.18656,-0.19126 -0.3392,-0.45107 -0.3392,-0.57735 0,-0.12628 6.46997,-4.19063 14.37781,-9.03188 8.71861,-5.33762 14.56821,-9.10029 14.86155,-9.5594 0.75626,-1.1834 0.63114,-3.24176 -0.26336,-4.33168 -0.86038,-1.04845 -2.4048,-1.58747 -3.55659,-1.24129 -0.43765,0.13156 -6.56363,3.35031 -13.61333,7.15279 -7.04982,3.80247 -12.98347,6.84838 -13.18603,6.76868 -0.20267,-0.0797 -0.36832,-0.33197 -0.36832,-0.56058 0,-0.22984 6.26219,-4.26526 14.00811,-9.02698 7.70453,-4.73625 14.26389,-8.94472 14.57653,-9.35216 0.83381,-1.08679 0.98923,-2.09854 0.52811,-3.43583 -0.5456,-1.5817 -1.6528,-2.39128 -3.23958,-2.36888 -1.05738,0.0149 -3.4561,1.2174 -15.5952,7.81771 -7.88992,4.29004 -14.54474,7.80006 -14.78869,7.80006 -0.24373,0 -0.4432,-0.23784 -0.4432,-0.52855 0,-0.3721 3.18016,-2.55679 10.74443,-7.3809 7.23808,-4.61631 10.94666,-7.15527 11.36458,-7.78069 1.12875,-1.68892 0.58187,-4.16755 -1.1184,-5.06903 -1.81301,-0.96121 -2.3168,-0.76435 -14.20501,5.55009 l -11.3024,6.00331 -8.56896,-0.32358 c -4.71296,-0.17799 -8.61867,-0.3745 -8.67936,-0.43672 -0.0608,-0.0623 0.0213,-0.70224 0.184,-1.42229 0.38805,-1.72604 0.384,-4.90308 -0.0117,-6.35168 -0.63574,-2.34762 -2.57675,-3.24876 -4.4191,-2.05163 -0.44554,0.28953 -2.07349,2.58003 -3.66186,5.15215 l -2.85963,4.63087 -4.93451,0.0852 c -5.51658,0.0953 -6.09258,0.0201 -6.54965,-0.85568 -0.55104,-1.05549 0.34133,-1.8815 4.44288,-4.11347 2.13099,-1.15955 4.61003,-2.70691 5.50912,-3.43859 2.49984,-2.03427 5.21333,-6.57405 5.21333,-8.72177 0,-1.0304 -1.33397,-2.47413 -2.49184,-2.69683 -0.89888,-0.17288 -2.12426,0.4183 -12.14848,5.86097 -6.13194,3.32929 -11.80458,6.46973 -12.60597,6.97875 -0.80128,0.50903 -3.16469,2.6062 -5.25205,4.66038 -5.40566,5.32006 -7.69195,6.4715 -13.54358,6.82108 l -3.35104,0.20021 -0.0757,15.86335 -0.0757,15.86337 4.68234,0.20523 c 5.872,0.25739 8.51862,0.72925 13.75062,2.45165 2.28576,0.75248 5.25365,1.60192 6.5952,1.88764 l 2.43946,0.5195 5.5743,10.14073 c 5.87818,10.69381 5.98336,10.87974 6.1537,10.87974 0.0597,0 2.08587,-1.15149 4.50294,-2.55886 z m -20.23552,-22.2259 c -1.12192,-0.30351 -3.48235,-1.02758 -5.24533,-1.60907 -4.14454,-1.36697 -7.1776,-1.93365 -11.6671,-2.17972 l -3.63157,-0.19905 V 660.1861 647.12036 l 1.67552,-0.20505 c 5.7216,-0.70021 9.42827,-2.65401 13.92352,-7.33934 1.43744,-1.49832 3.66272,-3.43552 4.94496,-4.3049 2.52213,-1.71024 22.54357,-12.71837 23.13173,-12.71837 0.21504,0 -0.0704,0.83694 -0.71605,2.09542 -1.56597,3.05549 -3.59733,4.83368 -8.70965,7.62423 -2.66987,1.4573 -4.4815,2.64237 -4.84939,3.17216 -1.24779,1.79666 -0.98197,4.21277 0.63904,5.80647 l 0.88576,0.87089 5.08437,0.14938 5.08438,0.14939 -2.79211,4.45634 c -4.11765,6.57177 -5.51627,9.6085 -6.38411,13.86075 -1.06218,5.205 -4.47669,9.8492 -9.26133,12.59642 -0.92149,0.52916 -1.67563,1.01852 -1.67563,1.08748 0,0.069 0.40598,0.86281 0.90208,1.76408 0.49622,0.90129 0.85675,1.63129 0.80139,1.62225 -0.0555,-0.009 -1.01856,-0.26478 -2.14048,-0.56828 z m 27.30453,-25.16891 c -0.70058,-0.71823 -0.30218,-1.78744 2.12406,-5.7011 l 2.47349,-3.99025 4.15584,0.12421 c 2.28555,0.0683 5.288,0.21202 6.67168,0.31937 l 2.51584,0.19517 -8.13205,4.70556 c -4.47275,2.58806 -8.43083,4.70556 -8.79574,4.70556 -0.3648,0 -0.8209,-0.16133 -1.01312,-0.35852 z m 17.18443,-23.43968 c 0.65227,-0.60522 0.67648,-1.25382 0.0789,-2.12795 -0.53706,-0.78629 -1.47658,-0.85808 -2.21866,-0.16956 -0.66272,0.6149 -0.68352,1.52883 -0.0512,2.24561 0.59978,0.67946 1.49109,0.70059 2.19018,0.0519 z m -13.81067,-2.65953 c 0.7135,-0.51238 0.87755,-1.86855 0.29782,-2.46281 -0.19222,-0.19719 -0.7776,-0.35852 -1.30091,-0.35852 -2.11712,0 -1.93152,3.00467 0.2016,3.26749 0.0853,0.0107 0.44523,-0.19035 0.80149,-0.44616 z m 26.8864,0.15948 c 0.96811,-0.53119 1.25835,-1.42727 0.73003,-2.25393 -0.50763,-0.79442 -1.82283,-0.99358 -2.43275,-0.36836 -0.57962,0.59426 -0.41546,1.95043 0.29814,2.46281 0.76778,0.55142 0.70368,0.54413 1.40458,0.15948 z m -13.07573,-4.07279 c 0.99712,-0.92526 0.31573,-2.79198 -1.0192,-2.79198 -0.77995,0 -1.65344,0.84072 -1.65344,1.59131 0,1.43197 1.63285,2.16548 2.67264,1.20067 z m -10.98816,-2.48117 c 1.19403,-1.35278 -0.51829,-3.29525 -2.01728,-2.28828 -0.78261,0.52574 -0.93813,1.33934 -0.43872,2.29588 0.39691,0.76039 1.78176,0.75609 2.456,-0.007 z m 22.14656,0 c 0.67413,-0.76352 0.38581,-2.00911 -0.56821,-2.45471 -1.51606,-0.70822 -2.9104,1.36198 -1.73152,2.57071 0.62677,0.64245 1.67712,0.58947 2.29973,-0.11599 z m -11.07915,-4.26124 c 0.5808,-0.85013 0.57334,-1.39413 -0.0277,-2.07605 -0.90251,-1.0224 -2.72331,-0.32376 -2.72331,1.04494 0,1.5277 1.92086,2.24744 2.752,1.03111 z m -8.85216,-1.43787 c 0.38902,-0.21348 0.56374,-0.62665 0.56374,-1.33393 0,-1.62237 -1.86027,-2.2843 -2.7519,-0.9792 -0.59946,0.87757 -0.57205,1.30577 0.12918,2.02488 0.65077,0.66717 1.22261,0.74722 2.05898,0.28825 z m 17.29867,-0.1602 c 0.64971,-0.66623 0.58816,-2.12689 -0.1056,-2.50767 -0.89675,-0.49208 -1.69824,-0.36214 -2.18805,0.35474 -0.59958,0.87757 -0.57227,1.30577 0.12917,2.02488 0.70005,0.71773 1.54101,0.76747 2.16469,0.12805 z m -8.57568,-4.9083 c 0.70912,-0.72701 0.74155,-1.41646 0.10027,-2.14253 -0.93643,-1.06083 -2.72331,-0.39158 -2.72331,1.01997 0,0.79901 0.80448,1.72009 1.50229,1.72009 0.29568,0 0.7999,-0.2689 1.12043,-0.59753 z m -6.11947,-1.19507 c 1.11648,-1.14475 0.53088,-2.6889 -1.01994,-2.6889 -1.01344,0 -1.60267,0.59695 -1.60267,1.62359 0,0.59511 1.02912,1.66285 1.60267,1.66285 0.24042,0 0.6993,-0.26889 1.01994,-0.59754 z m 12.23894,0 c 0.70912,-0.727 0.74144,-1.41645 0.10026,-2.14253 -0.54773,-0.62046 -1.85098,-0.7236 -2.37354,-0.18785 -0.57952,0.59427 -0.41547,1.95044 0.29802,2.46283 0.856,0.61466 1.2736,0.58665 1.97504,-0.13245 z m -2.03979,-5.79284 c 0,-1.13926 0.16267,-1.81637 0.55637,-2.31543 0.62816,-0.79611 0.27584,-0.77967 13.5039,-0.63063 l 6.62944,0.0747 v 1.7926 1.79259 h 5.39082 5.39104 v -8.36545 -8.36544 h -5.39104 -5.39082 v 1.08911 1.08912 l -11.9007,-0.21729 c -8.33674,-0.15223 -12.25568,-0.11928 -13.08608,0.11 -1.94336,0.53649 -3.85685,2.0745 -4.8577,3.90438 -0.8896,1.62655 -0.89963,1.69397 -0.99606,6.64754 l -0.0971,5.00433 h 5.12416 5.12405 z m 31.47157,-21.69362 v -3.28643 h -5.39104 -5.39082 v 3.28643 3.28642 h 5.39082 5.39104 z"
         id="path5325-5"
         inkscape:connector-curvature="0"
         sodipodi:nodetypes="ccssssssscsscccscsscsssssscsscsccccscscsssssssscccssscssccssscccsssssscscccssssscssscsscsssccccccssccscssscssccssccsscsccscccssscscsssscssssssssccsscscscccccccccccsssscccsccccccccc" /></g><g
       inkscape:export-ydpi="100"
       inkscape:export-xdpi="100"
       transform="translate(-1974.8006,-995.11689)"
       id="g4805"><g
         transform="translate(-1322.8195,962.26335)"
         id="g3430-7-4-3-7-0"><circle
           inkscape:export-ydpi="371.96799"
           inkscape:export-xdpi="371.96799"
           r="83.040756"
           cy="-322.83038"
           cx="629.17896"
           id="path3759-1-4-2-5-2-8-9-3-5-3-42-0-2-2-4"
           style="color:#000000;display:inline;overflow:visible;visibility:visible;fill:#ffffff;stroke:none;stroke-width:0.64;marker:none;enable-background:accumulate" /><circle
           inkscape:export-ydpi="371.96799"
           inkscape:export-xdpi="371.96799"
           r="77.637154"
           cy="-322.83038"
           cx="629.17896"
           id="path3759-1-4-2-5-2-8-8-51-1-4-8-7-3-5"
           style="color:#000000;display:inline;overflow:visible;visibility:visible;fill:#2a7fff;stroke:none;stroke-width:0.64;marker:none;enable-background:accumulate" /></g><path
         style="fill:#ffffff;stroke-width:1.06667"
         d="m -680.97532,698.09549 c -0.14816,-0.75996 -5.40597,-2.13864 -7.46197,-1.95665 -0.87328,0.0773 -1.64181,0.69555 -1.29525,1.04203 0.26922,0.26926 6.11264,1.18584 8.15968,1.2799 0.50912,0.0234 0.65578,-0.0662 0.59754,-0.36528 z m -9.23008,-1.75619 c 0.38262,-0.67226 0.49547,-0.71548 1.8687,-0.71548 0.80384,0 2.55648,0.27047 3.89482,0.60105 1.33835,0.33058 2.63574,0.64687 2.8831,0.70288 1.12746,0.25519 -0.50688,-4.71911 -1.91414,-5.82604 -0.9393,-0.73884 -2.84789,-1.36924 -8.80949,-2.90975 -6.38837,-1.65079 -9.82475,-2.74689 -15.76555,-5.02873 -5.45333,-2.09455 -6.10794,-2.67299 -6.10336,-5.39256 0,-2.37213 1.46379,-4.83967 3.42464,-5.78892 1.28352,-0.62133 2.18624,-0.62618 3.79371,-0.0204 1.83595,0.69192 8.74603,4.42309 11.6416,6.28599 1.37013,0.88145 2.58496,1.60264 2.69963,1.60264 0.11466,0 0.13909,-0.36941 0.0544,-0.82091 -0.21728,-1.15815 0.27253,-2.42767 1.41877,-3.67719 1.32213,-1.44135 2.66816,-2.03528 3.95659,-1.74579 0.53397,0.11998 0.97098,0.14111 0.97098,0.0469 0,-0.40486 -4.26282,-4.24157 -8.12597,-7.31367 -5.94219,-4.72549 -9.66027,-7.48724 -13.50325,-10.03018 -5.54518,-3.6692 -5.13664,-3.5292 -10.87435,-3.72675 -5.49088,-0.18905 -7.58293,-0.53625 -10.87445,-1.80481 -3.32779,-1.28254 -6.57739,-3.20788 -10.6992,-6.33904 l -1.85622,-1.41017 -2.9441,4.48921 c -3.22016,4.91037 -6.13184,9.66722 -6.12587,10.00828 0,0.11926 0.99221,0.86214 2.20043,1.65084 4.87434,3.18194 8.53194,6.35462 11.70976,10.15736 2.3664,2.83183 3.64992,4.95365 6.25269,10.33662 3.24117,6.70319 4.32672,7.56447 13.29291,10.54685 2.5632,0.8526 6.32608,2.00341 8.36192,2.55738 3.44757,0.93811 17.60554,4.21471 18.40576,4.25963 0.19712,0.0111 0.54165,-0.30183 0.76554,-0.69535 z m -22.81984,-2.78387 c 1.02251,-0.21747 1.95339,-0.47851 2.0687,-0.58009 0.1153,-0.10155 -0.26112,-0.311 -0.83648,-0.46538 -0.57547,-0.15439 -3.18411,-0.91939 -5.79712,-1.70003 -2.61312,-0.78063 -4.85558,-1.38448 -4.98336,-1.34189 -0.41494,0.13831 3.048,3.18832 4.36522,3.84472 1.50486,0.74992 2.56491,0.79954 5.18304,0.24267 z m 37.1471,-3.65513 c 2.93418,-0.50367 8.04234,-2.15002 10.79402,-3.47898 3.42838,-1.65571 4.5008,-2.75305 9.39862,-9.61685 5.4144,-7.58769 11.03818,-12.61804 17.9057,-16.01618 1.61238,-0.79784 1.78614,-0.94953 1.66048,-1.45007 -0.34592,-1.3784 -7.59509,-16.53271 -7.90848,-16.53271 -0.0971,0 -1.18528,0.65406 -2.41941,1.45348 -2.70699,1.75364 -6.90336,3.79163 -9.51072,4.61894 -4.08661,1.29669 -4.74421,1.38811 -11.11339,1.54493 l -6.0944,0.15005 -4.42144,2.19391 c -4.74624,2.35509 -9.16501,4.82545 -12.42784,6.948 -2.49162,1.62084 -5.49696,4.05039 -5.49696,4.44378 0,0.15986 0.83136,0.98646 1.84736,1.83688 1.016,0.85042 2.85312,2.42561 4.08235,3.50043 l 2.23509,1.95422 1.76512,-1.15234 c 2.23467,-1.45875 3.56576,-1.92428 5.96342,-2.08548 2.4368,-0.16383 3.72874,0.18207 4.92096,1.31756 1.69632,1.61566 1.85994,4.3551 0.37717,6.31774 -0.96256,1.27396 -3.34699,2.86279 -5.06272,3.37333 -0.72096,0.21455 -1.91616,0.57044 -2.65579,0.79087 -0.92266,0.27495 -1.80842,0.79649 -2.82133,1.66117 -2.29024,1.95503 -3.00725,2.07807 -5.112,0.87715 -1.83979,-1.04975 -3.58837,-0.4712 -6.46464,2.13896 -0.54283,0.49258 -0.98688,0.93655 -0.98688,0.98659 0,0.16514 2.6896,1.07847 6.69184,2.27236 2.16896,0.64701 4.75008,1.45295 5.73589,1.791 2.26486,0.77657 5.22795,0.82897 9.11798,0.16126 z m -22.7407,-5.24788 c 0,-0.56528 0.40022,-1.07136 2.15094,-2.71936 1.18304,-1.11367 2.15093,-2.08953 2.15093,-2.16858 0,-0.26638 -1.86037,-1.09555 -2.79253,-1.2446 -2.17398,-0.34765 -6.24768,1.11723 -8.15648,2.93305 -0.5504,0.52362 -1.00086,1.05188 -1.00086,1.1739 0,0.20812 6.70144,2.6757 7.34923,2.7061 0.17365,0.009 0.29877,-0.27674 0.29877,-0.68051 z m 2.56459,-0.78052 c 0.95456,-0.65381 2.69333,-2.65528 2.69333,-3.10025 0,-0.38356 -0.62186,-0.20566 -1.72384,0.49322 -1.7985,1.14057 -3.0561,2.39589 -3.0561,3.05051 0,0.49803 0.08,0.56057 0.5377,0.41744 0.29579,-0.0926 0.99275,-0.48 1.54891,-0.86092 z m 9.28459,-1.39291 c 0.55882,0 2.18976,-1.63328 2.71562,-2.71962 0.27062,-0.55893 0.49195,-1.43389 0.49195,-1.94434 0,-0.80598 -0.15872,-1.07715 -1.2064,-2.06077 -2.12725,-1.99713 -3.78731,-2.1079 -5.58901,-0.37294 -2.13451,2.05532 -1.98134,4.43982 0.40768,6.34831 0.57066,0.45584 2.14144,0.99046 2.52362,0.85891 0.17504,-0.0603 0.47051,-0.10955 0.65654,-0.10955 z m -14.15254,-4.99287 c 0.89643,-0.24855 1.73003,-0.55219 1.85259,-0.67473 0.13771,-0.13774 -0.84277,-0.79733 -2.56832,-1.72768 l -2.79115,-1.50486 -0.43552,0.56637 c -0.95893,1.24693 -0.53386,2.993 0.86827,3.5669 0.7424,0.30384 1.31531,0.26173 3.07413,-0.226 z m 5.46528,-14.61184 c 0.60118,-0.39818 1.19499,-0.85526 1.31968,-1.01574 0.24011,-0.309 0.90251,-6.47872 1.14752,-10.68814 0.13195,-2.26546 0.63627,-5.91248 0.96672,-6.99066 0.4095,-1.3358 0.49878,0.43464 0.3887,7.70765 -0.0832,5.50128 -0.0437,8.1259 0.12341,8.1259 0.13557,0 0.89419,-0.43258 1.68597,-0.96128 1.38059,-0.92193 1.44672,-1.01238 1.61579,-2.21072 0.3072,-2.1767 0.1648,-8.80895 -0.22528,-10.49082 -0.19669,-0.84825 -0.52821,-3.09526 -0.73664,-4.99334 -0.42549,-3.8753 -1.28085,-9.39712 -1.57707,-10.18175 -0.19242,-0.50967 -0.272,-0.5167 -5.79178,-0.51096 l -5.59659,0.005 -0.50005,1.70595 c -0.82859,2.82609 -1.21078,5.468 -1.71627,11.86332 -0.26485,3.35193 -0.5888,6.88193 -0.71979,7.84445 -0.13098,0.9625 -0.23818,2.54152 -0.23818,3.50891 v 1.75892 l 2.00885,1.45026 c 1.19168,0.86027 2.25429,1.45026 2.61195,1.45026 0.71925,0 1.30837,-0.5323 1.47328,-1.3312 0.29258,-1.41769 0.368,-1.67692 0.5857,-2.01276 0.1887,-0.29099 0.2879,-0.29988 0.53995,-0.0484 0.20672,0.20631 0.33504,1.23197 0.38869,3.10496 0.0608,2.11955 0.17088,2.8982 0.45526,3.21516 0.48928,0.54534 0.51093,0.54164 1.79018,-0.30572 z m -15.23338,-12.18792 c -0.20118,-0.57014 -0.64267,-1.39959 -0.98102,-1.84323 -0.50485,-0.66191 -0.75061,-0.79349 -1.3696,-0.7334 -0.9665,0.0939 -1.11754,0.84109 -0.3489,1.72593 0.4912,0.56549 2.84522,2.09 3.00288,1.94472 0.0341,-0.0316 -0.1024,-0.52389 -0.30336,-1.09402 z m 27.8368,-3.11023 c 1.15936,-1.34711 1.44234,-1.8372 1.44234,-2.49787 0,-1.86488 -1.8784,-1.46793 -3.20458,0.67722 -0.76342,1.23478 -1.05014,3.03102 -0.73856,4.6271 l 0.17717,0.90732 0.44053,-1.01891 c 0.24235,-0.56042 1.08971,-1.7731 1.8831,-2.69486 z m 4.84618,1.74205 c 0.59638,-0.75583 1.5183,-1.69688 2.04875,-2.09123 1.77397,-1.31866 2.18784,-2.91346 0.90741,-3.49685 -1.23456,-0.56248 -3.07744,1.328 -3.85888,3.95848 -0.31232,1.05161 -0.48522,3.00383 -0.26581,3.00383 0.0459,0 0.57216,-0.6184 1.16853,-1.37423 z m -29.80021,-0.83649 c -0.21995,-2.13886 -1.01472,-4.52213 -1.84309,-5.52701 -0.57931,-0.70281 -0.87616,-0.86616 -1.57398,-0.86616 -0.47296,0 -1.05664,0.178 -1.29706,0.39554 -0.49131,0.44467 -0.58208,1.73158 -0.17974,2.54789 0.2159,0.43776 4.7103,4.90465 4.96438,4.93388 0.0459,0.005 0.0139,-0.66259 -0.0704,-1.48414 z m 30.53621,-7.33197 c 1.16107,-1.22704 1.59616,-1.94982 1.59616,-2.65153 0,-1.85543 -2.02154,-1.40386 -3.1025,0.69303 -0.34848,0.67615 -0.62134,4.10736 -0.37611,4.73055 0.13589,0.34541 0.26677,0.18988 0.62336,-0.74058 0.24832,-0.64779 0.81483,-1.56195 1.25909,-2.03147 z m -29.44842,-0.76013 c -0.31542,-2.34425 -0.7808,-3.47803 -1.57622,-3.84044 -1.24181,-0.56579 -2.03317,1.148 -1.3537,2.93165 0.12074,0.31694 0.85056,1.38286 1.62197,2.36873 1.34923,1.72445 1.40544,1.76629 1.48117,1.10253 0.0437,-0.37945 -0.0341,-1.53257 -0.17322,-2.56247 z m 15.75296,-14.73211 c 0.0107,-5.86287 0.80053,-8.57981 3.11616,-10.66178 1.7857,-1.6055 2.7904,-1.88027 7.33578,-2.00626 l 3.88363,-0.10766 v 1.81704 1.81704 h 1.19499 1.19498 v 2.15097 2.15097 h 8.0064 8.0064 v -2.15097 -2.15097 h 1.43403 1.43392 v -1.79248 -1.79247 h 1.55349 1.5535 v 2.15097 2.15097 h 1.79253 1.79243 v 2.62896 2.62897 h 2.86794 2.86795 V 606.83649 591.1822 h -2.86795 -2.86794 v 2.50946 2.50947 h -1.79243 -1.79253 v 2.15097 2.15097 h -1.5535 -1.55349 v -1.79248 -1.79247 h -2.25856 -2.25845 l -0.0715,-1.37424 -0.0715,-1.37423 -1.7328,-0.0702 -1.73269,-0.0702 v -2.85749 -2.8575 h 4.89941 4.89942 v -2.74846 -2.74845 h -4.5375 -4.5376 l -0.60992,-0.9218 c -1.39861,-2.11335 -4.14986,-1.95877 -5.35936,0.30112 l -0.33216,0.62068 h -4.62005 -4.62005 v 2.74845 2.74846 h 5.01898 5.01888 v 2.86797 2.86796 h -1.79242 -1.79254 v 1.43398 1.43399 h -2.38997 -2.38997 v 1.7687 1.7687 l -5.07862,0.10155 c -4.70261,0.094 -5.22037,0.14842 -6.99072,0.73465 -5.65216,1.87166 -9.93429,6.43846 -12.03413,12.83419 -1.17472,3.57783 -1.50165,5.68924 -1.63776,10.57562 l -0.13141,4.72018 h 5.7664 5.7665 v -3.7642 z"
         id="path5338-6"
         inkscape:connector-curvature="0"
         sodipodi:nodetypes="cssscssssssscssssssssssssscscssssscssssscsssssscsssscssssscsssssssssssssssssssssssssssscsssscsscscsssscscssscsscscsssscsscccscsccssccssscccsscsssscssccccsssssscscscccsscccccccccccccccccccccccccccccccccccccccccccccccccccccsccccccccccccccccccssssccccc" /></g><path
       sodipodi:type="inkscape:offset"
       inkscape:radius="-0.95446151"
       inkscape:original="M -3077.0508 107.82227 C -3078.5146 107.78059 -3081.0272 108.7774 -3089.9434 112.42188 L -3101.2461 117.04102 L -3106.4082 119.18359 L -3114.541 122.80469 C -3119.0138 124.79634 -3122.971 126.42578 -3123.3359 126.42578 C -3123.7007 126.42578 -3124.1573 126.30019 -3124.3496 126.14844 C -3125.0501 125.59573 -3124.5063 124.83963 -3122.2246 121.76172 L -3119.1211 117.57422 C -3118.5509 116.40894 -3118.4677 115.91545 -3118.3047 115.36133 C -3117.9167 114.03305 -3117.9204 111.58938 -3118.3164 110.47461 C -3118.9522 108.66799 -3120.894 107.97327 -3122.7363 108.89453 C -3123.1819 109.11734 -3124.81 110.88 -3126.3984 112.85938 L -3129.2578 116.42383 L -3131.1035 118.72266 L -3133.8945 122.15234 C -3138.0122 127.20967 -3139.4115 129.54603 -3140.2793 132.81836 C -3141.3415 136.82389 -3144.7563 140.39759 -3149.541 142.51172 C -3150.4624 142.91894 -3151.2168 143.29654 -3151.2168 143.34961 C -3151.2168 143.40271 -3150.8106 144.01346 -3150.3145 144.70703 L -3142.0801 156.21875 C -3136.2019 164.44821 -3136.0961 164.5918 -3135.9258 164.5918 C -3135.8658 164.5918 -3133.8409 163.7061 -3131.4238 162.62305 C -3129.0065 161.54 -3126.4722 160.50688 -3125.793 160.32812 C -3125.1138 160.14934 -3122.3282 159.6833 -3119.6035 159.29297 C -3116.8789 158.90263 -3113.2261 158.21192 -3111.4863 157.75781 C -3105.9607 156.31556 -3099.4273 153.47464 -3093.377 149.88281 C -3091.9346 149.02648 -3085.1826 145.71745 -3078.3711 142.5293 C -3071.5596 139.34117 -3065.6314 136.43527 -3065.1992 136.07227 C -3063.014 134.23673 -3064.5535 131.48242 -3067.7637 131.48242 C -3068.5856 131.48242 -3071.2724 132.46292 -3079.0938 135.61328 C -3086.8922 138.75448 -3089.4295 139.68009 -3089.6875 139.47656 C -3089.8741 139.32938 -3090.0273 139.12843 -3090.0273 139.03125 C -3090.0273 138.93405 -3083.5562 135.80763 -3075.6484 132.08203 C -3066.9298 127.97444 -3061.0805 125.07792 -3060.7871 124.72461 C -3060.0309 123.81392 -3060.1563 122.22939 -3061.0508 121.39062 C -3061.9112 120.58379 -3063.4556 120.16914 -3064.6074 120.43555 C -3065.045 120.53679 -3071.171 123.0152 -3078.2207 125.94141 C -3085.2705 128.86762 -3091.2036 131.21173 -3091.4062 131.15039 C -3091.6089 131.08909 -3091.7754 130.89467 -3091.7754 130.71875 C -3091.7754 130.54187 -3085.5135 127.43588 -3077.7676 123.77148 C -3070.063 120.12668 -3063.5022 116.88777 -3063.1895 116.57422 C -3062.3557 115.73788 -3062.201 114.9588 -3062.6621 113.92969 C -3063.2077 112.71248 -3064.3155 112.09018 -3065.9023 112.10742 C -3066.9597 112.11892 -3069.357 113.04376 -3081.4961 118.12305 C -3089.386 121.42447 -3096.0412 124.12695 -3096.2852 124.12695 C -3096.5289 124.12695 -3096.7285 123.94247 -3096.7285 123.71875 C -3096.7285 123.4324 -3093.5486 121.75147 -3085.9844 118.03906 C -3078.7463 114.48656 -3075.037 112.53208 -3074.6191 112.05078 C -3073.4903 110.75107 -3074.038 108.84413 -3075.7383 108.15039 C -3076.1915 107.96547 -3076.5628 107.83616 -3077.0508 107.82227 z "
       xlink:href="#path2464-1-1"
       style="fill:#2a7fff;fill-opacity:1;stroke:#ffffff;stroke-width:0.1;stroke-miterlimit:4;stroke-dasharray:none"
       id="path4522"
       inkscape:href="#path2464-1-1"
       d="m -3077.0781,108.77539 c -1,-0.0285 -3.5895,0.88552 -12.5039,4.5293 l -11.3008,4.61914 -5.1485,2.13672 -8.121,3.61523 c -2.2436,0.99903 -4.3571,1.90717 -5.9629,2.56836 -0.803,0.3306 -1.479,0.59878 -1.9883,0.78906 -0.2547,0.0951 -0.4654,0.17199 -0.6426,0.22852 -0.1772,0.0565 -0.1891,0.11914 -0.5898,0.11914 -0.5839,0 -1.0375,-0.0342 -1.6055,-0.48242 -0.3054,-0.24093 -0.6155,-0.69712 -0.6445,-1.17774 -0.029,-0.48061 0.1296,-0.86406 0.3339,-1.25781 0.4087,-0.7875 1.1183,-1.72968 2.2598,-3.26953 l 3.0332,-4.09375 c 0.4995,-1.03424 0.562,-1.40618 0.7383,-2.00586 v -0.002 c 0.2987,-1.02523 0.2551,-3.59525 0.01,-4.29688 a 0.95455696,0.95455696 0 0 1 -0,-0.004 c -0.2296,-0.65243 -0.6463,-1.04046 -1.1777,-1.23047 -0.5314,-0.19002 -1.1988,-0.17021 -1.9141,0.1875 0.1309,-0.0655 -0.092,0.0706 -0.3086,0.27539 -0.2161,0.20481 -0.4994,0.49439 -0.8203,0.84179 -0.6418,0.69482 -1.4357,1.6184 -2.2168,2.5918 l -2.8594,3.56445 -1.8457,2.29883 a 0.95455696,0.95455696 0 0 1 -0,0.004 l -2.791,3.42969 a 0.95455696,0.95455696 0 0 1 0,0.002 c -4.0937,5.02781 -5.3716,7.17123 -6.2031,10.30664 -1.1561,4.35946 -4.8021,8.11528 -9.7969,10.32227 -0.2717,0.12006 -0.4678,0.21658 -0.6914,0.32226 0.1047,0.15105 0.1857,0.2763 0.3066,0.44531 l 8.2344,11.51172 a 0.95455696,0.95455696 0 0 1 0,0 c 2.939,4.11466 4.4362,6.21047 5.2089,7.26172 0.234,0.31821 0.2932,0.38817 0.4083,0.53516 0.212,-0.0908 0.4315,-0.18557 0.7441,-0.32227 0.8119,-0.35509 1.9206,-0.84616 3.1269,-1.38672 1.2189,-0.54611 2.4653,-1.07905 3.4981,-1.5 1.0328,-0.42094 1.7865,-0.71745 2.2812,-0.84765 0.4528,-0.11919 1.2814,-0.26595 2.4122,-0.45508 1.1307,-0.18914 2.5148,-0.40531 3.8847,-0.60156 2.6867,-0.38491 6.359,-1.08228 8.0117,-1.51368 5.4072,-1.41132 11.8824,-4.22085 17.8633,-7.77148 0.8193,-0.4864 2.8306,-1.50392 5.5567,-2.83984 2.726,-1.33593 6.1203,-2.96211 9.5312,-4.5586 3.4012,-1.59193 6.5827,-3.1125 8.9629,-4.27929 1.1901,-0.5834 2.1798,-1.07925 2.8926,-1.44727 0.3564,-0.18401 0.6434,-0.33684 0.8457,-0.44922 0.2023,-0.11238 0.379,-0.24499 0.2617,-0.14648 0.828,-0.69555 0.8277,-1.23918 0.5215,-1.78711 -0.3062,-0.54794 -1.1405,-1.11719 -2.4727,-1.11719 -0.031,0 -0.9833,0.19546 -2.7129,0.82617 -1.7296,0.63071 -4.3523,1.66053 -8.2597,3.23438 -3.9024,1.57186 -6.4891,2.58994 -8.1543,3.19726 -0.8327,0.30367 -1.4324,0.50549 -1.8809,0.62696 -0.2243,0.0607 -0.4071,0.1035 -0.6035,0.125 -0.1964,0.0215 -0.4353,0.14925 -0.9043,-0.22071 -0.1594,-0.12574 -0.2886,-0.25786 -0.4062,-0.41211 -0.1177,-0.15424 -0.2969,-0.23306 -0.2969,-0.7832 0,-3.8e-4 0.074,-0.36867 0.074,-0.36914 2e-4,-4.7e-4 0.07,-0.13803 0.1,-0.17969 0.058,-0.0833 0.098,-0.11928 0.1289,-0.14844 0.061,-0.0583 0.09,-0.0785 0.1172,-0.0976 0.054,-0.0383 0.088,-0.0583 0.125,-0.0801 0.074,-0.0436 0.153,-0.088 0.2559,-0.14258 0.2057,-0.10913 0.4926,-0.25517 0.8613,-0.43945 0.7374,-0.36856 1.7963,-0.88486 3.1015,-1.51563 2.6106,-1.26153 6.2079,-2.97595 10.1641,-4.83984 4.3555,-2.052 7.9927,-3.80095 10.5723,-5.07812 1.2898,-0.63859 2.3159,-1.15938 3.0273,-1.53711 0.3557,-0.18887 0.6352,-0.34302 0.8184,-0.45118 0.059,-0.0349 0.088,-0.0548 0.125,-0.0781 0.3502,-0.4689 0.2881,-1.53865 -0.1914,-1.98828 -0.5637,-0.52861 -1.932,-0.8959 -2.6895,-0.72071 0.1237,-0.0286 -0.088,0.0295 -0.3027,0.10938 -0.2145,0.0799 -0.5146,0.19676 -0.8848,0.3418 -0.7403,0.29007 -1.7643,0.69903 -2.9961,1.19726 -2.4635,0.99647 -5.7567,2.34644 -9.2793,3.8086 -3.5291,1.46485 -6.7784,2.78529 -9.1758,3.73242 -1.1986,0.47356 -2.1835,0.85388 -2.8906,1.11523 -0.3535,0.13068 -0.6347,0.22982 -0.8515,0.30078 -0.1085,0.0355 -0.1991,0.0642 -0.2911,0.0879 -0.046,0.0118 -0.09,0.0225 -0.1582,0.0332 -0.068,0.0106 -0.1007,0.0805 -0.4589,-0.0274 h -0 c -0.5984,-0.18146 -1.0469,-0.56829 -1.0469,-1.3457 0,-6.9e-4 0.012,-0.16467 0.027,-0.22852 0.016,-0.0638 0.036,-0.11682 0.055,-0.16015 0.038,-0.0867 0.075,-0.14132 0.1054,-0.1836 0.061,-0.0845 0.1042,-0.12238 0.1387,-0.15429 0.069,-0.0638 0.1106,-0.0925 0.1543,-0.12305 0.088,-0.0611 0.1725,-0.11249 0.2773,-0.17383 0.2098,-0.12268 0.491,-0.27475 0.8516,-0.46484 0.7211,-0.38019 1.7506,-0.90289 3.0215,-1.5332 2.5417,-1.26063 6.0465,-2.95481 9.9238,-4.78907 3.8482,-1.82044 7.4114,-3.53873 10.0469,-4.83984 1.3177,-0.65056 2.4046,-1.19826 3.1738,-1.59766 0.3846,-0.19969 0.6898,-0.3616 0.8985,-0.47851 0.095,-0.0531 0.1634,-0.0939 0.2109,-0.12305 0.3029,-0.31281 0.4316,-0.54418 0.4687,-0.73047 0.039,-0.1942 0.021,-0.42217 -0.1562,-0.81836 -0.398,-0.88797 -1.0269,-1.27229 -2.3594,-1.25781 -0.2583,0.003 -1.0805,0.1842 -3.3066,1.04297 -2.2261,0.85877 -5.8598,2.35947 -11.9278,4.89844 -3.9475,1.65179 -7.5862,3.15395 -10.2714,4.24414 -1.3426,0.54509 -2.4474,0.98709 -3.2364,1.29492 -0.3944,0.15391 -0.7079,0.27243 -0.9414,0.35742 -0.1167,0.0425 -0.2122,0.0763 -0.2968,0.10352 -0.042,0.0136 -0.081,0.0264 -0.129,0.0391 -0.048,0.0126 -0.055,0.0391 -0.2832,0.0391 -0.7253,0 -1.3984,-0.57186 -1.3984,-1.36328 0,-0.45953 0.1819,-0.59209 0.2715,-0.69531 0.09,-0.10323 0.1639,-0.16453 0.2422,-0.22656 0.1565,-0.12407 0.3312,-0.2384 0.5566,-0.37696 0.4509,-0.27712 1.0953,-0.63479 1.9746,-1.09961 1.7586,-0.92963 4.4486,-2.28067 8.2344,-4.13867 3.6148,-1.77416 6.3458,-3.14801 8.2148,-4.13281 0.9346,-0.4924 1.6539,-0.88882 2.1504,-1.18164 0.4966,-0.29282 0.8434,-0.60742 0.6993,-0.44141 0.3627,-0.41767 0.4291,-0.85534 0.3046,-1.28906 -0.1244,-0.43372 -0.4643,-0.85867 -1.0644,-1.10352 -0.4285,-0.17483 -0.6452,-0.24832 -0.9785,-0.25781 z" /><path
       inkscape:export-ydpi="371.96799"
       inkscape:export-xdpi="371.96799"
       sodipodi:nodetypes="csscssc"
       inkscape:connector-curvature="0"
       id="path3759-1-4-2-5-2-8-0-5-1-8-3-8-5-1-8-0-3"
       d="m -2827.5814,-229.91562 c -3.6595,-8.5998 -5.6842,-18.0627 -5.6842,-27.9985 0,-39.5237 32.0401,-71.5639 71.5637,-71.5639 12.8493,0 24.9076,3.3864 35.3313,9.3154 19.6807,13.3264 -23.2817,8.2266 -38.3504,15.9559 -27.822,14.271 -33.3467,58.2018 -42.8526,69.5841 -8.2905,9.9273 -15.7068,15.7279 -20.0078,4.707 z"
       style="color:#000000;display:inline;overflow:visible;visibility:visible;fill:url(#linearGradient5);fill-opacity:1;stroke:none;stroke-width:0.589936;marker:none;enable-background:accumulate" /></g></svg>
