<?xml version="1.0" encoding="UTF-8" standalone="no"?>
<svg
   sodipodi:docname="H&amp;S KPI Infographic Design.svg"
   inkscape:version="1.4.3 (0d15f75, 2025-12-25)"
   id="svg8"
   version="1.1"
   viewBox="0 0 32.132984 36.580715"
   height="36.580715mm"
   width="32.132984mm"
   xml:space="preserve"
   inkscape:export-filename="PNG\Infographic H&amp;S KPI May2025.png"
   inkscape:export-xdpi="96"
   inkscape:export-ydpi="96"
   xmlns:inkscape="http://www.inkscape.org/namespaces/inkscape"
   xmlns:sodipodi="http://sodipodi.sourceforge.net/DTD/sodipodi-0.dtd"
   xmlns="http://www.w3.org/2000/svg"
   xmlns:svg="http://www.w3.org/2000/svg"
   xmlns:rdf="http://www.w3.org/1999/02/22-rdf-syntax-ns#"
   xmlns:cc="http://creativecommons.org/ns#"
   xmlns:dc="http://purl.org/dc/elements/1.1/"><defs
     id="defs2" /><sodipodi:namedview
     fit-margin-bottom="0"
     fit-margin-right="0"
     fit-margin-left="0"
     fit-margin-top="0"
     inkscape:snap-bbox-midpoints="true"
     inkscape:snap-bbox-edge-midpoints="true"
     inkscape:bbox-nodes="true"
     inkscape:bbox-paths="true"
     inkscape:snap-bbox="true"
     inkscape:pagecheckerboard="true"
     inkscape:window-maximized="1"
     inkscape:window-y="-8"
     inkscape:window-x="-8"
     inkscape:window-height="1009"
     inkscape:window-width="1920"
     showgrid="false"
     inkscape:document-rotation="0"
     inkscape:current-layer="layer4"
     inkscape:document-units="mm"
     inkscape:cy="376.85364"
     inkscape:cx="1475.2844"
     inkscape:zoom="1.6651027"
     inkscape:pageshadow="2"
     inkscape:pageopacity="0.0"
     borderopacity="0.6745098"
     bordercolor="#666666"
     pagecolor="#ffffff"
     id="base"
     inkscape:snap-global="true"
     showguides="true"
     inkscape:guide-bbox="true"
     inkscape:object-paths="true"
     inkscape:showpageshadow="0"
     inkscape:deskcolor="#c5c5c5"><inkscape:page
       x="0"
       y="2.6943804e-20"
       width="32.132984"
       height="36.580719"
       id="page2"
       margin="0"
       bleed="0" /></sodipodi:namedview><metadata
     id="metadata5"><rdf:RDF><cc:Work
         rdf:about=""><dc:format>image/svg+xml</dc:format><dc:type
           rdf:resource="http://purl.org/dc/dcmitype/StillImage" /></cc:Work></rdf:RDF></metadata><g
     style="display:inline"
     transform="translate(-1927.329,-823.69304)"
     inkscape:label="Txt"
     id="layer4"
     inkscape:groupmode="layer"><path
       id="rect7-4"
       style="display:inline;fill:#4b4b4b;fill-opacity:1;stroke-width:0.160282;stroke-linejoin:round"
       d="m 1938.2736,823.69304 c -0.9132,0 -1.6485,0.73519 -1.6485,1.64847 0,0.12829 -0.1149,0.31743 -0.3044,0.32867 h -6.4404 c -1.4134,0 -2.5513,1.01877 -2.5513,2.28461 v 0.16072 c 0,1.26584 1.1379,2.28513 2.5513,2.28513 h 27.0304 c 1.4134,0 2.5513,-1.01929 2.5513,-2.28513 v -0.16072 c 0,-1.26584 -1.1379,-2.28461 -2.5513,-2.28461 h -6.3505 c -0.2301,0.001 -0.3943,-0.17053 -0.3943,-0.32867 0,-0.91328 -0.7353,-1.64847 -1.6485,-1.64847 z m -8.7617,9.06508 v 23.22704 c 0,2.3761 1.9125,4.2886 4.2886,4.2886 h 19.19 c 2.376,0 4.2887,-1.9125 4.2887,-4.2886 v -23.22704 z m 10.5461,3.4556 c 0.2739,0 0.1987,0.28882 -0.1933,0.74362 -0.9037,1.0495 -1.2981,2.05926 -1.2981,3.31246 0,1.4182 0.4102,2.41245 1.4004,3.40445 0.6962,0.6972 1.4517,1.12331 2.3291,1.31671 0.5199,0.1135 0.5199,0.11792 0.5199,0.42892 0,0.23979 -0.085,0.40553 -0.3571,0.70073 -0.2145,0.2295 -0.382,0.51814 -0.416,0.71155 -0.041,0.2115 -0.1524,0.3935 -0.3225,0.5147 l -0.2625,0.1855 -0.5302,-0.5291 c -0.5748,-0.57486 -1.307,-1.00867 -2.0919,-1.24077 -0.6568,-0.19589 -1.9729,-0.19589 -2.6225,0 -1.5824,0.4704 -2.8091,1.66457 -3.3006,3.20757 -0.085,0.2742 -0.1981,0.5473 -0.2501,0.6093 -0.3662,0.4644 -0.4562,-0.4791 -0.1571,-1.6537 0.4871,-1.90353 1.7703,-3.48378 3.5284,-4.34288 l 0.6806,-0.33176 v -1.23249 c 0,-1.1418 0.025,-1.29457 0.2842,-2.05207 0.3435,-0.9972 0.7814,-1.76401 1.3896,-2.42931 0.4969,-0.5438 1.4789,-1.32033 1.6671,-1.32033 z m 6.6425,0.0289 -0.01,0.009 c 0.026,-5e-4 0.026,0 0.026,0 0.1676,-0.0258 0.4092,0.14388 0.9757,0.61598 1.0538,0.877 1.8351,2.13964 2.1874,3.53364 0.1547,0.5879 0.1811,0.9458 0.1551,1.788 l -0.034,1.0542 0.8128,0.39429 c 0.6884,0.3344 0.9441,0.52704 1.678,1.26452 0.7119,0.7153 0.9313,1.00563 1.2392,1.63763 0.403,0.82704 0.6109,1.53424 0.7059,2.40144 0.047,0.4222 0.029,0.5692 -0.072,0.6542 -0.1831,0.1522 -0.3543,-0.0712 -0.5477,-0.7131 -0.2797,-0.9242 -1.0581,-1.9262 -1.9735,-2.54098 -0.5162,-0.3463 -1.2686,-0.60851 -2.0656,-0.7245 -1.3398,-0.1934 -2.7902,0.30361 -3.8814,1.33328 l -0.6046,0.5705 -0.2455,-0.1494 c -0.1366,-0.0828 -0.247,-0.2275 -0.247,-0.3255 0,-0.30427 -0.3468,-0.9052 -0.6315,-1.0935 -0.2163,-0.1469 -0.2733,-0.24211 -0.2733,-0.5054 v -0.32607 l 0.6103,-0.14987 c 2.438,-0.59928 4.0271,-2.93169 3.6576,-5.36969 -0.1315,-0.8646 -0.6539,-1.95904 -1.2366,-2.59054 -0.4255,-0.4608 -0.4977,-0.65908 -0.2785,-0.74208 0.018,-0.026 0.023,-0.0263 0.049,-0.0263 z m -3.2939,4.24263 -0.022,0.002 c 0.5057,0 1.0137,0.0464 1.4309,0.13643 0.7006,0.1547 2.1075,0.79788 2.5477,1.16478 l 0.2692,0.22428 -0.1778,0.33693 c -0.099,0.1831 -0.253,0.42765 -0.341,0.54105 l -0.1628,0.20929 -0.5194,-0.35502 c -0.9633,-0.6578 -1.8746,-0.93896 -3.0421,-0.93896 -0.4603,0 -0.881,0.0434 -1.2806,0.13643 -0.6124,0.1437 -1.1761,0.40517 -1.7601,0.80357 -0.287,0.19709 -0.542,0.35623 -0.5684,0.35656 v 5.2e-4 h -5e-4 c -0.1065,-0.0503 -0.5773,-0.85762 -0.5773,-0.99942 0,-0.3458 1.6416,-1.2237 2.773,-1.4764 0.1738,-0.039 0.3652,-0.067 0.5638,-0.093 0.2767,-0.023 0.5721,-0.0491 0.8676,-0.0491 z m 5.9676,5.33663 c 0.1178,0 0.2258,0.0258 0.3008,0.0258 0.2623,0.0568 0.2727,0.0798 0.3297,0.71003 0.083,0.88887 -0.058,1.83147 -0.3814,2.71607 -0.1078,0.2942 -0.2354,0.5819 -0.3824,0.8594 -0.1318,0.2486 -0.2799,0.4873 -0.4398,0.7168 -0.1617,0.2303 -0.3377,0.4505 -0.526,0.6542 -0.5923,0.6395 -1.5078,1.3113 -2.1431,1.5751 -0.1942,0.0804 -0.3847,0.1442 -0.4237,0.1442 -0.085,0 -0.3663,-0.382 -0.5674,-0.7793 l -0.1416,-0.2801 0.786,-0.3907 c 0.7446,-0.3677 1.3893,-0.9119 1.8815,-1.5694 0.164,-0.2192 0.3108,-0.4506 0.4398,-0.693 0.2031,-0.3847 0.3579,-0.7941 0.4584,-1.2195 0.087,-0.4247 0.1397,-0.9038 0.1137,-1.50329 l -0.034,-0.87902 0.3799,-0.0574 c 0.1029,-0.0265 0.2291,-0.0258 0.3477,-0.0258 z m -12.5103,0.0873 0.6284,10e-4 h 0.6568 l -0.044,0.81132 c -0.059,1.04545 0.082,1.75625 0.5318,2.69855 0.4997,1.0414 1.2994,1.8484 2.312,2.3316 0.2405,0.1135 0.4509,0.2293 0.5876,0.3173 0.087,0.0594 0.1536,0.0975 0.1545,0.1235 v 5e-4 c 0,0.049 -0.1166,0.304 -0.2662,0.5649 -0.095,0.1676 -0.2011,0.3149 -0.2811,0.3999 -0.01,0.005 -0.034,0.0311 -0.034,0.0311 -0.02,0.013 -0.028,0.0387 -0.054,0.0387 h -0.026 c -0.018,0 -0.041,-0.0258 -0.067,-0.0258 -0.1269,-0.0464 -0.3363,-0.1418 -0.5451,-0.2501 -0.5944,-0.3061 -1.1306,-0.6981 -1.5989,-1.154 -0.9362,-0.9118 -1.5971,-2.0791 -1.8805,-3.3259 -0.1315,-0.6235 -0.1903,-1.267 -0.1313,-1.90838 z m 5.6802,2.24641 c 0.072,0 0.1418,0.0262 0.2553,0.0852 0.2804,0.147 0.8467,0.1676 1.1441,0.0569 h 6e-4 c 0.042,-0.015 0.077,-0.0278 0.1054,-0.0538 0.042,-0.028 0.075,-0.036 0.1059,-0.062 h 0.026 c 0.084,-0.0284 0.1615,0.005 0.3317,0.1106 l 0.2785,0.1705 -0.1756,0.5571 c -0.1936,0.623 -0.2297,1.8545 -0.075,2.5275 0.245,1.0639 1.1164,2.2846 2.0707,2.897 1.0559,0.6743 2.1914,0.8962 3.4964,0.6744 0.8661,-0.1469 1.0258,-0.1318 1.0258,0.1054 0,0.013 -0.026,0.0153 -0.026,0.0413 v 0.0259 5e-4 c 0,0.007 -0.028,0.0305 -0.028,0.0305 -0.036,0.0335 -0.091,0.0721 -0.1551,0.1131 -0.3144,0.1964 -0.9365,0.4546 -1.5162,0.6119 -0.1011,0.026 -0.2121,0.0438 -0.3359,0.0698 -0.8664,0.144 -2.2209,0.1236 -2.914,-0.0698 -0.7704,-0.2114 -1.7388,-0.6605 -2.3254,-1.0821 l -0.4713,-0.3395 -0.4827,0.3648 c -0.046,0.0361 -0.1055,0.0694 -0.1545,0.1034 -0.1059,0.0722 -0.2064,0.1439 -0.325,0.2139 -0.1669,0.0983 -0.3445,0.1905 -0.5302,0.2785 0,0.026 -0.026,0.0264 -0.026,0.0264 -0.388,0.1831 -0.8021,0.335 -1.1989,0.4382 v -0.0258 c -0.6815,0.1752 -1.9402,0.2448 -2.5771,0.139 -1.1544,-0.1882 -2.4277,-0.7122 -2.3787,-0.9752 0,-0.02 0.026,-0.0282 0.026,-0.0542 0.026,0 0.026,-0.0259 0.026,-0.0259 0.098,-0.095 0.3842,-0.0746 1.2072,0.0517 0.8711,0.1349 1.7262,0.003 2.4913,-0.3297 v -5e-4 h 5e-4 c 0.1524,-0.0644 0.3006,-0.1397 0.445,-0.2217 0.1446,-0.082 0.2844,-0.1727 0.4211,-0.2677 0.1339,-0.0952 0.2654,-0.2007 0.3917,-0.309 0.1263,-0.1103 0.2453,-0.2266 0.3587,-0.3478 0.1134,-0.1217 0.2213,-0.2493 0.3219,-0.3834 0.1021,-0.1336 0.1947,-0.2716 0.2827,-0.416 0.4378,-0.7214 0.6956,-1.5651 0.6956,-2.4634 0,-0.5402 -0.054,-0.8555 -0.3168,-1.7911 v -0.1163 c 0.01,-0.0336 0.031,-0.0693 0.062,-0.1003 0.018,-0.018 0.042,-0.0313 0.07,-0.0573 0.028,-0.018 0.062,-0.036 0.098,-0.062 0.09,-0.049 0.1544,-0.0691 0.2114,-0.0951 0.018,0 0.028,7e-4 0.054,0 z"
       inkscape:export-filename="PNG\hazbin.png"
       inkscape:export-xdpi="96"
       inkscape:export-ydpi="96" /></g></svg>
