<?xml version="1.0" encoding="UTF-8" standalone="no"?>
<svg
   sodipodi:docname="Safety Symbols.svg"
   inkscape:version="1.3.2 (091e20e, 2023-11-25, custom)"
   version="1.1"
   id="svg2"
   height="67.623459mm"
   width="84.36216mm"
   xml:space="preserve"
   xmlns:inkscape="http://www.inkscape.org/namespaces/inkscape"
   xmlns:sodipodi="http://sodipodi.sourceforge.net/DTD/sodipodi-0.dtd"
   xmlns:xlink="http://www.w3.org/1999/xlink"
   xmlns="http://www.w3.org/2000/svg"
   xmlns:svg="http://www.w3.org/2000/svg"
   xmlns:rdf="http://www.w3.org/1999/02/22-rdf-syntax-ns#"
   xmlns:cc="http://creativecommons.org/ns#"
   xmlns:dc="http://purl.org/dc/elements/1.1/"><defs
     id="defs4" /><sodipodi:namedview
     inkscape:document-rotation="0"
     inkscape:snap-bbox-midpoints="true"
     showguides="true"
     inkscape:snap-bbox-edge-midpoints="true"
     inkscape:bbox-nodes="true"
     inkscape:bbox-paths="true"
     inkscape:snap-bbox="true"
     inkscape:snap-global="true"
     inkscape:window-maximized="1"
     inkscape:window-y="-8"
     inkscape:window-x="-8"
     inkscape:window-height="1009"
     inkscape:window-width="1920"
     showgrid="false"
     inkscape:current-layer="layer1"
     inkscape:document-units="px"
     inkscape:cy="1287.1554"
     inkscape:cx="-4839.2623"
     inkscape:zoom="0.45254832"
     inkscape:pageshadow="2"
     inkscape:pageopacity="0.0"
     borderopacity="1.0"
     bordercolor="#666666"
     pagecolor="#ffffff"
     id="base"
     inkscape:guide-bbox="true"
     inkscape:pagecheckerboard="true"
     fit-margin-top="0"
     fit-margin-left="0"
     fit-margin-right="0"
     fit-margin-bottom="0"
     inkscape:showpageshadow="2"
     inkscape:deskcolor="#d1d1d1"><inkscape:page
       x="0"
       y="0"
       width="318.84912"
       height="255.58473"
       id="page2"
       margin="0"
       bleed="0" /></sodipodi:namedview><metadata
     id="metadata7"><rdf:RDF><cc:Work
         rdf:about=""><dc:format>image/svg+xml</dc:format><dc:type
           rdf:resource="http://purl.org/dc/dcmitype/StillImage" /></cc:Work></rdf:RDF></metadata><g
     transform="translate(6854.195,-266.7726)"
     id="layer1"
     inkscape:groupmode="layer"
     inkscape:label="Layer 1"><path
       sodipodi:type="inkscape:offset"
       inkscape:radius="-0.95446151"
       inkscape:original="M -3077.0508 107.82227 C -3078.5146 107.78059 -3081.0272 108.7774 -3089.9434 112.42188 L -3101.2461 117.04102 L -3106.4082 119.18359 L -3114.541 122.80469 C -3119.0138 124.79634 -3122.971 126.42578 -3123.3359 126.42578 C -3123.7007 126.42578 -3124.1573 126.30019 -3124.3496 126.14844 C -3125.0501 125.59573 -3124.5063 124.83963 -3122.2246 121.76172 L -3119.1211 117.57422 C -3118.5509 116.40894 -3118.4677 115.91545 -3118.3047 115.36133 C -3117.9167 114.03305 -3117.9204 111.58938 -3118.3164 110.47461 C -3118.9522 108.66799 -3120.894 107.97327 -3122.7363 108.89453 C -3123.1819 109.11734 -3124.81 110.88 -3126.3984 112.85938 L -3129.2578 116.42383 L -3131.1035 118.72266 L -3133.8945 122.15234 C -3138.0122 127.20967 -3139.4115 129.54603 -3140.2793 132.81836 C -3141.3415 136.82389 -3144.7563 140.39759 -3149.541 142.51172 C -3150.4624 142.91894 -3151.2168 143.29654 -3151.2168 143.34961 C -3151.2168 143.40271 -3150.8106 144.01346 -3150.3145 144.70703 L -3142.0801 156.21875 C -3136.2019 164.44821 -3136.0961 164.5918 -3135.9258 164.5918 C -3135.8658 164.5918 -3133.8409 163.7061 -3131.4238 162.62305 C -3129.0065 161.54 -3126.4722 160.50688 -3125.793 160.32812 C -3125.1138 160.14934 -3122.3282 159.6833 -3119.6035 159.29297 C -3116.8789 158.90263 -3113.2261 158.21192 -3111.4863 157.75781 C -3105.9607 156.31556 -3099.4273 153.47464 -3093.377 149.88281 C -3091.9346 149.02648 -3085.1826 145.71745 -3078.3711 142.5293 C -3071.5596 139.34117 -3065.6314 136.43527 -3065.1992 136.07227 C -3063.014 134.23673 -3064.5535 131.48242 -3067.7637 131.48242 C -3068.5856 131.48242 -3071.2724 132.46292 -3079.0938 135.61328 C -3086.8922 138.75448 -3089.4295 139.68009 -3089.6875 139.47656 C -3089.8741 139.32938 -3090.0273 139.12843 -3090.0273 139.03125 C -3090.0273 138.93405 -3083.5562 135.80763 -3075.6484 132.08203 C -3066.9298 127.97444 -3061.0805 125.07792 -3060.7871 124.72461 C -3060.0309 123.81392 -3060.1563 122.22939 -3061.0508 121.39062 C -3061.9112 120.58379 -3063.4556 120.16914 -3064.6074 120.43555 C -3065.045 120.53679 -3071.171 123.0152 -3078.2207 125.94141 C -3085.2705 128.86762 -3091.2036 131.21173 -3091.4062 131.15039 C -3091.6089 131.08909 -3091.7754 130.89467 -3091.7754 130.71875 C -3091.7754 130.54187 -3085.5135 127.43588 -3077.7676 123.77148 C -3070.063 120.12668 -3063.5022 116.88777 -3063.1895 116.57422 C -3062.3557 115.73788 -3062.201 114.9588 -3062.6621 113.92969 C -3063.2077 112.71248 -3064.3155 112.09018 -3065.9023 112.10742 C -3066.9597 112.11892 -3069.357 113.04376 -3081.4961 118.12305 C -3089.386 121.42447 -3096.0412 124.12695 -3096.2852 124.12695 C -3096.5289 124.12695 -3096.7285 123.94247 -3096.7285 123.71875 C -3096.7285 123.4324 -3093.5486 121.75147 -3085.9844 118.03906 C -3078.7463 114.48656 -3075.037 112.53208 -3074.6191 112.05078 C -3073.4903 110.75107 -3074.038 108.84413 -3075.7383 108.15039 C -3076.1915 107.96547 -3076.5628 107.83616 -3077.0508 107.82227 z "
       xlink:href="#path2464-1-1"
       style="fill:#2a7fff;fill-opacity:1;stroke:#ffffff;stroke-width:0.1;stroke-miterlimit:4;stroke-dasharray:none"
       id="path4522"
       inkscape:href="#path2464-1-1"
       d="m -3077.0781,108.77539 c -1,-0.0285 -3.5895,0.88552 -12.5039,4.5293 l -11.3008,4.61914 -5.1485,2.13672 -8.121,3.61523 c -2.2436,0.99903 -4.3571,1.90717 -5.9629,2.56836 -0.803,0.3306 -1.479,0.59878 -1.9883,0.78906 -0.2547,0.0951 -0.4654,0.17199 -0.6426,0.22852 -0.1772,0.0565 -0.1891,0.11914 -0.5898,0.11914 -0.5839,0 -1.0375,-0.0342 -1.6055,-0.48242 -0.3054,-0.24093 -0.6155,-0.69712 -0.6445,-1.17774 -0.029,-0.48061 0.1296,-0.86406 0.3339,-1.25781 0.4087,-0.7875 1.1183,-1.72968 2.2598,-3.26953 l 3.0332,-4.09375 c 0.4995,-1.03424 0.562,-1.40618 0.7383,-2.00586 v -0.002 c 0.2987,-1.02523 0.2551,-3.59525 0.01,-4.29688 a 0.95455696,0.95455696 0 0 1 -0,-0.004 c -0.2296,-0.65243 -0.6463,-1.04046 -1.1777,-1.23047 -0.5314,-0.19002 -1.1988,-0.17021 -1.9141,0.1875 0.1309,-0.0655 -0.092,0.0706 -0.3086,0.27539 -0.2161,0.20481 -0.4994,0.49439 -0.8203,0.84179 -0.6418,0.69482 -1.4357,1.6184 -2.2168,2.5918 l -2.8594,3.56445 -1.8457,2.29883 a 0.95455696,0.95455696 0 0 1 -0,0.004 l -2.791,3.42969 a 0.95455696,0.95455696 0 0 1 0,0.002 c -4.0937,5.02781 -5.3716,7.17123 -6.2031,10.30664 -1.1561,4.35946 -4.8021,8.11528 -9.7969,10.32227 -0.2717,0.12006 -0.4678,0.21658 -0.6914,0.32226 0.1047,0.15105 0.1857,0.2763 0.3066,0.44531 l 8.2344,11.51172 a 0.95455696,0.95455696 0 0 1 0,0 c 2.939,4.11466 4.4362,6.21047 5.2089,7.26172 0.234,0.31821 0.2932,0.38817 0.4083,0.53516 0.212,-0.0908 0.4315,-0.18557 0.7441,-0.32227 0.8119,-0.35509 1.9206,-0.84616 3.1269,-1.38672 1.2189,-0.54611 2.4653,-1.07905 3.4981,-1.5 1.0328,-0.42094 1.7865,-0.71745 2.2812,-0.84765 0.4528,-0.11919 1.2814,-0.26595 2.4122,-0.45508 1.1307,-0.18914 2.5148,-0.40531 3.8847,-0.60156 2.6867,-0.38491 6.359,-1.08228 8.0117,-1.51368 5.4072,-1.41132 11.8824,-4.22085 17.8633,-7.77148 0.8193,-0.4864 2.8306,-1.50392 5.5567,-2.83984 2.726,-1.33593 6.1203,-2.96211 9.5312,-4.5586 3.4012,-1.59193 6.5827,-3.1125 8.9629,-4.27929 1.1901,-0.5834 2.1798,-1.07925 2.8926,-1.44727 0.3564,-0.18401 0.6434,-0.33684 0.8457,-0.44922 0.2023,-0.11238 0.379,-0.24499 0.2617,-0.14648 0.828,-0.69555 0.8277,-1.23918 0.5215,-1.78711 -0.3062,-0.54794 -1.1405,-1.11719 -2.4727,-1.11719 -0.031,0 -0.9833,0.19546 -2.7129,0.82617 -1.7296,0.63071 -4.3523,1.66053 -8.2597,3.23438 -3.9024,1.57186 -6.4891,2.58994 -8.1543,3.19726 -0.8327,0.30367 -1.4324,0.50549 -1.8809,0.62696 -0.2243,0.0607 -0.4071,0.1035 -0.6035,0.125 -0.1964,0.0215 -0.4353,0.14925 -0.9043,-0.22071 -0.1594,-0.12574 -0.2886,-0.25786 -0.4062,-0.41211 -0.1177,-0.15424 -0.2969,-0.23306 -0.2969,-0.7832 0,-3.8e-4 0.074,-0.36867 0.074,-0.36914 2e-4,-4.7e-4 0.07,-0.13803 0.1,-0.17969 0.058,-0.0833 0.098,-0.11928 0.1289,-0.14844 0.061,-0.0583 0.09,-0.0785 0.1172,-0.0976 0.054,-0.0383 0.088,-0.0583 0.125,-0.0801 0.074,-0.0436 0.153,-0.088 0.2559,-0.14258 0.2057,-0.10913 0.4926,-0.25517 0.8613,-0.43945 0.7374,-0.36856 1.7963,-0.88486 3.1015,-1.51563 2.6106,-1.26153 6.2079,-2.97595 10.1641,-4.83984 4.3555,-2.052 7.9927,-3.80095 10.5723,-5.07812 1.2898,-0.63859 2.3159,-1.15938 3.0273,-1.53711 0.3557,-0.18887 0.6352,-0.34302 0.8184,-0.45118 0.059,-0.0349 0.088,-0.0548 0.125,-0.0781 0.3502,-0.4689 0.2881,-1.53865 -0.1914,-1.98828 -0.5637,-0.52861 -1.932,-0.8959 -2.6895,-0.72071 0.1237,-0.0286 -0.088,0.0295 -0.3027,0.10938 -0.2145,0.0799 -0.5146,0.19676 -0.8848,0.3418 -0.7403,0.29007 -1.7643,0.69903 -2.9961,1.19726 -2.4635,0.99647 -5.7567,2.34644 -9.2793,3.8086 -3.5291,1.46485 -6.7784,2.78529 -9.1758,3.73242 -1.1986,0.47356 -2.1835,0.85388 -2.8906,1.11523 -0.3535,0.13068 -0.6347,0.22982 -0.8515,0.30078 -0.1085,0.0355 -0.1991,0.0642 -0.2911,0.0879 -0.046,0.0118 -0.09,0.0225 -0.1582,0.0332 -0.068,0.0106 -0.1007,0.0805 -0.4589,-0.0274 h -0 c -0.5984,-0.18146 -1.0469,-0.56829 -1.0469,-1.3457 0,-6.9e-4 0.012,-0.16467 0.027,-0.22852 0.016,-0.0638 0.036,-0.11682 0.055,-0.16015 0.038,-0.0867 0.075,-0.14132 0.1054,-0.1836 0.061,-0.0845 0.1042,-0.12238 0.1387,-0.15429 0.069,-0.0638 0.1106,-0.0925 0.1543,-0.12305 0.088,-0.0611 0.1725,-0.11249 0.2773,-0.17383 0.2098,-0.12268 0.491,-0.27475 0.8516,-0.46484 0.7211,-0.38019 1.7506,-0.90289 3.0215,-1.5332 2.5417,-1.26063 6.0465,-2.95481 9.9238,-4.78907 3.8482,-1.82044 7.4114,-3.53873 10.0469,-4.83984 1.3177,-0.65056 2.4046,-1.19826 3.1738,-1.59766 0.3846,-0.19969 0.6898,-0.3616 0.8985,-0.47851 0.095,-0.0531 0.1634,-0.0939 0.2109,-0.12305 0.3029,-0.31281 0.4316,-0.54418 0.4687,-0.73047 0.039,-0.1942 0.021,-0.42217 -0.1562,-0.81836 -0.398,-0.88797 -1.0269,-1.27229 -2.3594,-1.25781 -0.2583,0.003 -1.0805,0.1842 -3.3066,1.04297 -2.2261,0.85877 -5.8598,2.35947 -11.9278,4.89844 -3.9475,1.65179 -7.5862,3.15395 -10.2714,4.24414 -1.3426,0.54509 -2.4474,0.98709 -3.2364,1.29492 -0.3944,0.15391 -0.7079,0.27243 -0.9414,0.35742 -0.1167,0.0425 -0.2122,0.0763 -0.2968,0.10352 -0.042,0.0136 -0.081,0.0264 -0.129,0.0391 -0.048,0.0126 -0.055,0.0391 -0.2832,0.0391 -0.7253,0 -1.3984,-0.57186 -1.3984,-1.36328 0,-0.45953 0.1819,-0.59209 0.2715,-0.69531 0.09,-0.10323 0.1639,-0.16453 0.2422,-0.22656 0.1565,-0.12407 0.3312,-0.2384 0.5566,-0.37696 0.4509,-0.27712 1.0953,-0.63479 1.9746,-1.09961 1.7586,-0.92963 4.4486,-2.28067 8.2344,-4.13867 3.6148,-1.77416 6.3458,-3.14801 8.2148,-4.13281 0.9346,-0.4924 1.6539,-0.88882 2.1504,-1.18164 0.4966,-0.29282 0.8434,-0.60742 0.6993,-0.44141 0.3627,-0.41767 0.4291,-0.85534 0.3046,-1.28906 -0.1244,-0.43372 -0.4643,-0.85867 -1.0644,-1.10352 -0.4285,-0.17483 -0.6452,-0.24832 -0.9785,-0.25781 z" /><g
       id="g32"
       transform="matrix(0.53530022,0,0,0.53530022,-3096.4283,432.06266)"
       inkscape:export-filename="..\..\..\..\..\xampp\htdocs\sheener\img\hse.svg"
       inkscape:export-xdpi="371.96799"
       inkscape:export-ydpi="371.96799"><path
         style="fill:#27604f;fill-opacity:1"
         d="m -7019.4838,128.05716 c 4.3837,-2.73888 11.5801,-10.80195 12.651,-14.17448 0.5898,-1.85757 4.4851,-23.4024 8.6562,-47.8774 4.1711,-24.475 8.4427,-49.225 9.4923,-55 1.0497,-5.7750005 3.5066,-19.7250005 5.4598,-31 13.9447,-80.49749 33.888,-194.12537 38.1743,-217.5 3.666,-19.99207 6.0877,-27.02508 10.9648,-31.84285 5.8566,-5.78542 5.4089,-5.72733 44.1881,-5.73439 19.6522,-0.004 36.1569,0.0123 36.6771,0.0354 0.5201,0.023 -1.1084,1.34454 -3.6189,2.9367 -5.0521,3.20391 -8.9857,7.84758 -11.2614,13.29418 -1.4359,3.43665 -4.9468,22.36582 -22.5001,121.31099 -4.3907,24.75 -8.292,46.507832 -8.6694,48.350739 l -0.6863,3.350739 3.3951,-1.850739 c 3.1397,-1.711466 7.3083,-1.89316 55.3952,-2.414448 44.9741,-0.487543 52.6756,-0.790086 57,-2.239175 2.75,-0.921507 5.3375,-1.680339 5.75,-1.686292 1.1886,-0.01716 0.8791,4.071711 -0.7971,10.529077 -3.4569,13.317099 -9.7889,22.569704 -18.4486,26.957891 -9.6411,4.885528 -16.5279,5.502208 -61.4464,5.502208 h -41.5264 l -3.0205,2.75 c -2.2348,2.034604 -3.2861,4.18079 -4.0411,8.25 -1.3177,7.102404 -7.3729,41.7637485 -15.5478,89 -12.1448,70.17572 -12.4573,71.32872 -20.9221,77.19929 l -4,2.77411 -36.8178,0.2633 c -32.472,0.23222 -36.5442,0.0924 -34.5,-1.18482 z"
         id="path32" /><path
         style="fill:#98002f;fill-opacity:1"
         d="m -6948.666,168.01588 c -14.1514,-1.57586 -29,-4.28095 -29,-5.28317 0,-0.6275 2.0635,-0.76026 5.5139,-0.35474 34.329,4.0347 67.7129,-1.26036 96.9861,-15.38308 49.2603,-23.76542 83.8159,-71.653399 101.0155,-139.9896105 6.9149,-27.4736375 10.4014,-51.3258925 13.0092,-88.9999995 2.3509,-33.96379 6.0218,-57.34638 12.4872,-79.541 24.4169,-83.81873 82.6871,-133.36736 170.4881,-144.9705 25.4875,-3.36825 58.5121,-2.96896 85,1.02771 11.4695,1.7306 13.5,2.26184 13.5,3.53205 0,0.52568 -2.0165,0.6032 -4.75,0.18261 -9.4838,-1.45925 -44.1662,-0.72784 -53.75,1.13353 -38.8828,7.55182 -71.5406,25.98008 -95.5914,53.94078 -36.4154,42.33526 -56.5783,103.80728 -61.8921,188.69482 -3.1468,50.2704428 -11.9307,87.7374 -28.2504,120.5 -28.8507,57.91907 -79.4447,92.83731 -150.7661,104.0536 -11.992,1.88591 -61.4106,2.85892 -74,1.457 z"
         id="path30" /><path
         style="fill:#88a090;fill-opacity:1;stroke:none;stroke-width:0.610555;stroke-linecap:round;stroke-dasharray:4.88444, 1.22111, 0.610555, 1.22111"
         d="m -6424.2777,-265.70738 c -70.692,33.31876 -75.6224,5.76748 -126.4949,10.36945 -50.8726,4.60198 -80.1128,39.34905 -80.1128,39.34905 61.3389,-18.50506 83.7672,7.90311 118.7718,7.734 30.4153,-0.14694 59.6872,-20.59052 87.8359,-57.4525 z"
         id="path31"
         sodipodi:nodetypes="czcsc" /><path
         style="fill:#88a090;fill-opacity:1;stroke:none;stroke-width:0.610555;stroke-linecap:round;stroke-dasharray:4.88444, 1.22111, 0.610555, 1.22111"
         d="m -6468.3999,-103.06074 c -70.692,33.318757 -75.6224,5.767477 -126.4949,10.369447 -50.8726,4.60198 -80.1128,39.34905 -80.1128,39.34905 61.3389,-18.50506 83.7672,7.90311 118.7718,7.734 30.4153,-0.14694 59.6872,-20.59052 87.8359,-57.452497 z"
         id="path31-2"
         sodipodi:nodetypes="czcsc" /><path
         style="fill:#88a090;fill-opacity:1;stroke:none;stroke-width:0.610555;stroke-linecap:round;stroke-dasharray:4.88444, 1.22111, 0.610555, 1.22111"
         d="m -6516.8678,75.519779 c -70.692,33.318761 -75.6224,5.767477 -126.4949,10.369447 -50.8726,4.60198 -80.1128,39.349054 -80.1128,39.349054 61.3389,-18.50506 83.7672,7.90311 118.7718,7.734 30.4153,-0.14694 59.6872,-20.59052 87.8359,-57.452501 z"
         id="path31-2-9"
         sodipodi:nodetypes="czcsc" /></g></g></svg>
