<?xml version="1.0" encoding="UTF-8" standalone="no"?>
<svg
   sodipodi:docname="Infographic H&amp;S KPI Design.svg"
   inkscape:version="1.4 (86a8ad7, 2024-10-11)"
   id="svg8"
   version="1.1"
   viewBox="0 0 33.377418 33.403709"
   height="33.403709mm"
   width="33.377419mm"
   xml:space="preserve"
   inkscape:export-filename="..\..\..\Pictures\Infographic H&amp;S KPI Design.png"
   inkscape:export-xdpi="96"
   inkscape:export-ydpi="96"
   xmlns:inkscape="http://www.inkscape.org/namespaces/inkscape"
   xmlns:sodipodi="http://sodipodi.sourceforge.net/DTD/sodipodi-0.dtd"
   xmlns="http://www.w3.org/2000/svg"
   xmlns:svg="http://www.w3.org/2000/svg"
   xmlns:rdf="http://www.w3.org/1999/02/22-rdf-syntax-ns#"
   xmlns:cc="http://creativecommons.org/ns#"
   xmlns:dc="http://purl.org/dc/elements/1.1/"><defs
     id="defs2" /><sodipodi:namedview
     fit-margin-bottom="0"
     fit-margin-right="0"
     fit-margin-left="0"
     fit-margin-top="0"
     inkscape:snap-bbox-midpoints="true"
     inkscape:snap-bbox-edge-midpoints="true"
     inkscape:bbox-nodes="true"
     inkscape:bbox-paths="true"
     inkscape:snap-bbox="true"
     inkscape:pagecheckerboard="true"
     inkscape:window-maximized="1"
     inkscape:window-y="-8"
     inkscape:window-x="-8"
     inkscape:window-height="1017"
     inkscape:window-width="1920"
     showgrid="false"
     inkscape:document-rotation="0"
     inkscape:current-layer="g155919"
     inkscape:document-units="mm"
     inkscape:cy="1428.3923"
     inkscape:cx="-4003.5265"
     inkscape:zoom="14.100819"
     inkscape:pageshadow="2"
     inkscape:pageopacity="0.0"
     borderopacity="1.0"
     bordercolor="#666666"
     pagecolor="#ffffff"
     id="base"
     inkscape:snap-global="true"
     showguides="false"
     inkscape:guide-bbox="true"
     inkscape:object-paths="true"
     inkscape:showpageshadow="0"
     inkscape:deskcolor="#505050"><inkscape:page
       x="0"
       y="0"
       width="33.377419"
       height="33.403709"
       id="page2"
       margin="0"
       bleed="0" /></sodipodi:namedview><metadata
     id="metadata5"><rdf:RDF><cc:Work
         rdf:about=""><dc:format>image/svg+xml</dc:format><dc:type
           rdf:resource="http://purl.org/dc/dcmitype/StillImage" /></cc:Work></rdf:RDF></metadata><g
     style="display:inline"
     transform="translate(-409.74798,-908.21883)"
     inkscape:label="Txt"
     id="layer4"
     inkscape:groupmode="layer"><g
       id="g155919"><circle
         style="fill:#ee5130;fill-opacity:1;stroke:none;stroke-width:0.01;stroke-linecap:round;stroke-miterlimit:4;stroke-dasharray:none"
         id="path132213"
         cx="-244.70258"
         cy="621.0047"
         r="2.5724692" /><rect
         style="fill:#ee5130;fill-opacity:1;stroke:none;stroke-width:0.0115868;stroke-linecap:round;stroke-miterlimit:4;stroke-dasharray:none"
         id="rect136724"
         width="6.488914"
         height="4.0103693"
         x="-247.64923"
         y="624.67627"
         ry="1.4090487" /><rect
         style="fill:#ee5130;fill-opacity:1;stroke:none;stroke-width:0.00752158;stroke-linecap:round;stroke-miterlimit:4;stroke-dasharray:none"
         id="rect136806"
         width="4.2122846"
         height="2.6033349"
         x="-246.50443"
         y="629.28491"
         ry="0.91468525" /><rect
         style="fill:#ee5130;fill-opacity:1;stroke:none;stroke-width:0.00955978;stroke-linecap:round;stroke-miterlimit:4;stroke-dasharray:none"
         id="rect136808"
         width="5.3537297"
         height="3.3087869"
         x="-247.13474"
         y="632.48657"
         ry="1.1625468" /><g
         id="g155891"><path
           style="fill:none;stroke:#ee5130;stroke-width:2.165;stroke-linecap:round;stroke-linejoin:miter;stroke-miterlimit:4;stroke-dasharray:none;stroke-opacity:1"
           d="m -249.10521,626.24279 -0.75873,3.28219"
           id="path142136"
           sodipodi:nodetypes="cc" /><path
           style="fill:none;stroke:#ee5130;stroke-width:2.165;stroke-linecap:round;stroke-linejoin:miter;stroke-miterlimit:4;stroke-dasharray:none;stroke-opacity:1"
           d="m -249.98267,631.81448 -0.1789,2.43353"
           id="path154074"
           sodipodi:nodetypes="cc" /><path
           style="fill:none;stroke:#ee5130;stroke-width:2.865;stroke-linecap:round;stroke-linejoin:miter;stroke-miterlimit:4;stroke-dasharray:none;stroke-opacity:1"
           d="m -246.05427,637.50849 -0.16342,2.73649"
           id="path154730"
           sodipodi:nodetypes="cc" /><path
           style="fill:none;stroke:#ee5130;stroke-width:2.21673;stroke-linecap:round;stroke-linejoin:miter;stroke-miterlimit:4;stroke-dasharray:none;stroke-opacity:1"
           d="m -246.3719,643.33254 -0.0551,2.99434"
           id="path154907"
           sodipodi:nodetypes="cc" /><path
           style="fill:none;stroke:#ee5130;stroke-width:1.88234;stroke-linecap:round;stroke-linejoin:miter;stroke-miterlimit:4;stroke-dasharray:none;stroke-opacity:1"
           d="m -247.2173,648.54783 -1.61083,1.04902"
           id="path155084"
           sodipodi:nodetypes="cc" /><path
           style="color:#000000;fill:#ee5130;stroke-linecap:round;-inkscape-stroke:none"
           d="m -250.08034,635.72807 a 1.0825,1.0825 0 0 0 -1.08203,1.08203 1.0825,1.0825 0 0 0 1.08203,1.08398 1.0825,1.0825 0 0 0 1.08398,-1.08398 1.0825,1.0825 0 0 0 -1.08398,-1.08203 z"
           id="path155360" /></g><g
         id="g45"
         transform="matrix(-1,0,0,1,-488.87102,0)"><path
           style="fill:none;stroke:#ee5130;stroke-width:2.165;stroke-linecap:round;stroke-linejoin:miter;stroke-miterlimit:4;stroke-dasharray:none;stroke-opacity:1"
           d="m -249.10521,626.24279 -0.75873,3.28219"
           id="path2"
           sodipodi:nodetypes="cc" /><path
           style="fill:none;stroke:#ee5130;stroke-width:2.165;stroke-linecap:round;stroke-linejoin:miter;stroke-miterlimit:4;stroke-dasharray:none;stroke-opacity:1"
           d="m -249.98267,631.81448 -0.1789,2.43353"
           id="path8"
           sodipodi:nodetypes="cc" /><path
           style="fill:none;stroke:#ee5130;stroke-width:2.865;stroke-linecap:round;stroke-linejoin:miter;stroke-miterlimit:4;stroke-dasharray:none;stroke-opacity:1"
           d="m -246.05427,637.50849 -0.16342,2.73649"
           id="path11"
           sodipodi:nodetypes="cc" /><path
           style="fill:none;stroke:#ee5130;stroke-width:2.21673;stroke-linecap:round;stroke-linejoin:miter;stroke-miterlimit:4;stroke-dasharray:none;stroke-opacity:1"
           d="m -246.3719,643.33254 -0.0551,2.99434"
           id="path12"
           sodipodi:nodetypes="cc" /><path
           style="fill:none;stroke:#ee5130;stroke-width:1.88234;stroke-linecap:round;stroke-linejoin:miter;stroke-miterlimit:4;stroke-dasharray:none;stroke-opacity:1"
           d="m -247.2173,648.54783 -1.61083,1.04902"
           id="path33"
           sodipodi:nodetypes="cc" /><path
           style="color:#000000;fill:#ee5130;stroke-linecap:round;-inkscape-stroke:none"
           d="m -250.08034,635.72807 a 1.0825,1.0825 0 0 0 -1.08203,1.08203 1.0825,1.0825 0 0 0 1.08203,1.08398 1.0825,1.0825 0 0 0 1.08398,-1.08398 1.0825,1.0825 0 0 0 -1.08398,-1.08203 z"
           id="path45" /></g><path
         id="rect17609-2-2"
         style="fill:#59b5c4;fill-opacity:1;stroke-width:0.667917;stroke-linecap:round"
         d="m 445.9464,951.72525 c 1.7e-4,9.21231 7.46833,16.68023 16.68064,16.68012 9.21231,1.1e-4 16.68047,-7.46781 16.68063,-16.68012 -1.1e-4,-5.11125 -2.38628,-9.80866 -6.27425,-13.1735 l -10.49785,-10.34598 -11.7383,11.7388 c -3.06628,3.09343 -4.84911,7.34507 -4.85087,11.78068 z"
         sodipodi:nodetypes="ccccccc" /><path
         id="path24994-5-4"
         style="fill:#b1dee1;fill-opacity:1;stroke:none;stroke-width:0.0103333;stroke-linecap:round;stroke-miterlimit:4;stroke-dasharray:none"
         d="m 447.9337,951.7931 c -0.0388,8.24584 7.24289,14.48887 14.68797,14.49575 7.44924,0 14.5777,-6.12576 14.69886,-14.49575 z"
         sodipodi:nodetypes="cccc" /><text
         transform="matrix(1.189411,0,0,1.1816783,408.86009,622.62646)"
         inkscape:export-ydpi="300"
         inkscape:export-xdpi="300"
         id="text8735-7-3-1-1-7-5-0-6-6-24-5-9-5-6-96-3-9-5-7-1-7-4-5"
         y="285.0354"
         x="45.044621"
         style="font-style:normal;font-variant:normal;font-weight:normal;font-stretch:normal;font-size:5.64444px;line-height:0.8em;font-family:Calibri;-inkscape-font-specification:Calibri;text-align:center;letter-spacing:0px;word-spacing:0px;writing-mode:lr-tb;text-anchor:middle;white-space:pre;inline-size:19.7284;display:inline;fill:#333333;fill-opacity:1;stroke:none;stroke-width:0.222444;stroke-linecap:butt;stroke-linejoin:miter;stroke-miterlimit:4;stroke-dasharray:none;stroke-opacity:1"
         xml:space="preserve"><tspan
           x="45.044621"
           y="285.0354"
           id="tspan5"><tspan
             style="font-weight:bold;-inkscape-font-specification:'Calibri Bold'"
             id="tspan3">HSA</tspan></tspan></text><path
         id="path35864-9-2"
         style="fill:#ef8e2d;fill-opacity:1;stroke-width:0.667917;stroke-linecap:round"
         d="m 572.31751,936.52037 c 6.51421,6.51396 17.07561,6.51379 23.58962,-3.7e-4 6.51417,-6.51401 6.51434,-17.07541 3.6e-4,-23.58961 -3.61427,-3.61412 -8.62312,-5.24842 -13.75163,-4.87851 l -14.73882,0.10739 3.6e-4,16.60082 c 0.0192,4.35557 1.76491,8.62258 4.90011,11.76028 z"
         sodipodi:nodetypes="ccccccc" /><path
         id="path35866-7-76"
         style="fill:#fdd13a;fill-opacity:1;stroke:none;stroke-width:0.0103333;stroke-linecap:round;stroke-miterlimit:4;stroke-dasharray:none"
         d="m 569.48876,925.0763 c -0.0388,8.24584 7.2429,14.48887 14.68797,14.49575 7.44925,0 14.5777,-6.12577 14.69887,-14.49575 z"
         sodipodi:nodetypes="cccc" /><text
         transform="matrix(1.189411,0,0,1.1816783,504.35034,594.94646)"
         inkscape:export-ydpi="300"
         inkscape:export-xdpi="300"
         id="text8735-7-3-1-1-7-5-0-6-6-24-5-9-5-6-96-3-9-5-2"
         y="285.0354"
         x="40.126831"
         style="font-style:normal;font-variant:normal;font-weight:normal;font-stretch:normal;font-size:5.64444px;line-height:0.8em;font-family:Calibri;-inkscape-font-specification:Calibri;text-align:start;letter-spacing:0px;word-spacing:0px;writing-mode:lr-tb;text-anchor:start;white-space:pre;inline-size:53.7375;display:inline;fill:#333333;fill-opacity:1;stroke:none;stroke-width:0.222444;stroke-linecap:butt;stroke-linejoin:miter;stroke-miterlimit:4;stroke-dasharray:none;stroke-opacity:1"
         xml:space="preserve"><tspan
           x="40.126831"
           y="285.0354"
           id="tspan7"><tspan
             style="font-weight:bold;line-height:0.8em;-inkscape-font-specification:'Calibri Bold';text-align:center;text-anchor:middle"
             id="tspan6">EHS
</tspan></tspan><tspan
           x="40.126831"
           y="289.55097"
           id="tspan9"><tspan
             style="font-weight:bold;line-height:0.8em;-inkscape-font-specification:'Calibri Bold';text-align:center;text-anchor:middle"
             id="tspan8">NCR</tspan></tspan></text><path
         id="path35864-9-5-5"
         style="fill:#9cdd00;fill-opacity:1;stroke-width:0.667917;stroke-linecap:round"
         d="m 368.87638,963.61027 c 6.5142,6.51396 17.07561,6.51379 23.58962,-3.7e-4 6.51416,-6.51401 6.51433,-17.07542 3.6e-4,-23.58962 -3.61428,-3.61412 -8.62313,-5.24841 -13.75164,-4.8785 l -14.73881,0.10739 3.5e-4,16.60081 c 0.0192,4.35558 1.76491,8.62259 4.90012,11.76029 z"
         sodipodi:nodetypes="ccccccc"
         inkscape:export-filename="C:\xampp\htdocs\sheener\img\kpi_sor.svg"
         inkscape:export-xdpi="300"
         inkscape:export-ydpi="300" /><path
         id="path35866-7-6-7"
         style="fill:#d5fd6e;fill-opacity:1;stroke:none;stroke-width:0.0103333;stroke-linecap:round;stroke-miterlimit:4;stroke-dasharray:none"
         d="m 366.04762,952.16619 c -0.0388,8.24585 7.2429,14.48888 14.68798,14.49576 7.44924,0 14.5777,-6.12577 14.69886,-14.49576 z"
         sodipodi:nodetypes="cccc" /><text
         transform="matrix(1.189411,0,0,1.1816783,295.69283,623.90725)"
         inkscape:export-ydpi="300"
         inkscape:export-xdpi="300"
         id="text8735-7-3-1-1-7-5-0-6-6-24-5-9-5-6-96-3-9-5-8-89"
         y="285.0354"
         x="44.620609"
         style="font-style:normal;font-variant:normal;font-weight:normal;font-stretch:normal;font-size:5.64444px;line-height:0.8em;font-family:Calibri;-inkscape-font-specification:Calibri;text-align:start;letter-spacing:0px;word-spacing:0px;writing-mode:lr-tb;text-anchor:start;white-space:pre;inline-size:53.7375;display:inline;fill:#333333;fill-opacity:1;stroke:none;stroke-width:0.222444;stroke-linecap:butt;stroke-linejoin:miter;stroke-miterlimit:4;stroke-dasharray:none;stroke-opacity:1"
         xml:space="preserve"><tspan
           x="44.620609"
           y="285.0354"
           id="tspan11"><tspan
             style="font-weight:bold;-inkscape-font-specification:'Calibri Bold';text-align:center;text-anchor:middle"
             id="tspan10">SOR</tspan></tspan></text><path
         id="path54001-5-3"
         style="display:inline;fill:#ee5130;fill-opacity:1;stroke-width:0.667917;stroke-linecap:round"
         d="m 597.29466,949.39565 v 16.63362 c -8e-5,0.0294 -8e-5,0.0589 0,0.0884 v 0.0346 c 1.4e-4,0.0278 0,0.0554 0.003,0.0832 0,0.0988 0.003,0.19738 0.005,0.29612 0,0.0424 0.003,0.0847 0.005,0.1271 0.003,0.0944 0.007,0.18886 0.0119,0.28319 0.003,0.0311 0.004,0.062 0.006,0.093 0.006,0.10903 0.0127,0.2182 0.0212,0.3271 0,0.0154 0.003,0.0306 0.004,0.046 0.01,0.12084 0.0204,0.24159 0.0325,0.36224 0,0.01 0.003,0.019 0.003,0.0284 0.0132,0.12829 0.0282,0.25646 0.0444,0.38449 0.23604,1.86174 0.78589,3.69096 1.64952,5.40277 0.01,0.019 0.0193,0.0383 0.0289,0.0574 0.0403,0.0791 0.0808,0.15806 0.12247,0.23667 0.055,0.10445 0.11131,0.20825 0.16846,0.3116 0.74756,1.35136 1.68418,2.60728 2.79676,3.7207 3.32467,3.3246 7.70374,4.95147 12.06074,4.88241 h 16.41451 v -16.67754 -0.0791 c -2.1e-4,-0.0502 -0.003,-0.1002 -0.003,-0.15036 0,-0.0758 -0.003,-0.15158 -0.004,-0.22738 -0.003,-0.0519 -0.004,-0.10367 -0.006,-0.15555 -0.003,-0.0772 -0.005,-0.15436 -0.009,-0.23151 -0.003,-0.0648 -0.007,-0.12957 -0.0114,-0.19431 -0.005,-0.075 -0.009,-0.14989 -0.0151,-0.22479 -0.003,-0.036 -0.006,-0.072 -0.009,-0.10801 -0.16296,-1.98776 -0.68144,-3.95128 -1.55443,-5.78879 -0.0573,-0.12049 -0.11541,-0.2408 -0.17571,-0.36018 0,-0.003 -0.003,-0.004 -0.003,-0.006 -0.004,-0.007 -0.008,-0.0148 -0.0114,-0.0222 -0.0439,-0.0865 -0.0883,-0.17303 -0.13383,-0.25889 -0.055,-0.10446 -0.11131,-0.20826 -0.16848,-0.3116 -0.74756,-1.35136 -1.68418,-2.60729 -2.79673,-3.7207 -3.32724,-3.32714 -7.71025,-4.95412 -12.07058,-4.88241 z"
         sodipodi:nodetypes="ccscsssssscsscsccccccccsssssscsssccsccc" /><path
         id="path54011-0-13"
         style="display:inline;fill:#f7a381;fill-opacity:1;stroke:none;stroke-width:0.0103333;stroke-linecap:round;stroke-miterlimit:4;stroke-dasharray:none"
         d="m 599.28929,966.09521 c -0.0388,8.24584 7.24289,14.48888 14.68797,14.49576 l 14.69886,-10e-6 v -14.49575 z"
         sodipodi:nodetypes="ccccc" /><text
         transform="matrix(1.189411,0,0,1.1816783,563.25744,635.16898)"
         inkscape:export-ydpi="300"
         inkscape:export-xdpi="300"
         id="text8735-7-3-1-1-7-5-0-6-6-24-5-9-5-6-96-3-9-5-7-1-87"
         y="285.0354"
         x="45.044621"
         style="font-style:normal;font-variant:normal;font-weight:normal;font-stretch:normal;font-size:5.64444px;line-height:0.8em;font-family:Calibri;-inkscape-font-specification:Calibri;text-align:center;letter-spacing:0px;word-spacing:0px;writing-mode:lr-tb;text-anchor:middle;white-space:pre;inline-size:53.7375;display:inline;fill:#333333;fill-opacity:1;stroke:none;stroke-width:0.222444;stroke-linecap:butt;stroke-linejoin:miter;stroke-miterlimit:4;stroke-dasharray:none;stroke-opacity:1"
         xml:space="preserve"><tspan
           x="45.044621"
           y="285.0354"
           id="tspan13"><tspan
             style="font-weight:bold;-inkscape-font-specification:'Calibri Bold'"
             id="tspan12">Safety
</tspan></tspan><tspan
           x="45.044621"
           y="289.55097"
           id="tspan15"><tspan
             style="font-weight:bold;-inkscape-font-specification:'Calibri Bold'"
             id="tspan14">Meeting</tspan></tspan></text><path
         id="path54001-5-2-3"
         style="display:inline;fill:#59b5c4;fill-opacity:1;stroke-width:0.667917;stroke-linecap:round"
         d="m 557.54749,935.0639 v 16.63362 c 8e-5,0.0294 8e-5,0.0589 0,0.0884 v 0.0346 c -1.4e-4,0.0278 0,0.0554 -0.003,0.0832 0,0.0988 -0.003,0.19738 -0.005,0.29612 0,0.0424 -0.003,0.0847 -0.005,0.1271 -0.003,0.0944 -0.007,0.18886 -0.0119,0.28319 -0.003,0.0311 -0.004,0.062 -0.006,0.093 -0.006,0.10903 -0.0127,0.2182 -0.0212,0.3271 0,0.0154 -0.003,0.0306 -0.004,0.046 -0.01,0.12084 -0.0204,0.24159 -0.0325,0.36224 0,0.01 -0.003,0.019 -0.003,0.0284 -0.0132,0.12829 -0.0282,0.25646 -0.0444,0.38449 -0.23604,1.86174 -0.78589,3.69096 -1.64952,5.40277 -0.01,0.019 -0.0193,0.0383 -0.0289,0.0574 -0.0403,0.0791 -0.0808,0.15806 -0.12247,0.23667 -0.055,0.10445 -0.11131,0.20825 -0.16846,0.3116 -0.74756,1.35136 -1.68417,2.60728 -2.79675,3.7207 -3.32467,3.3246 -7.70374,4.95147 -12.06074,4.88241 h -16.41451 v -16.67754 -0.0791 c 2.1e-4,-0.0502 0.003,-0.1002 0.003,-0.15036 0,-0.0758 0.003,-0.15158 0.004,-0.22738 0.003,-0.0519 0.004,-0.10367 0.006,-0.15555 0.003,-0.0772 0.005,-0.15436 0.009,-0.23151 0.003,-0.0648 0.007,-0.12957 0.0114,-0.19431 0.005,-0.075 0.009,-0.14989 0.0151,-0.22479 0.003,-0.036 0.006,-0.072 0.009,-0.10801 0.16297,-1.98776 0.68145,-3.95128 1.55444,-5.78879 0.0573,-0.12049 0.1154,-0.2408 0.1757,-0.36018 0,-0.003 0.003,-0.004 0.003,-0.006 0.004,-0.007 0.008,-0.0148 0.0114,-0.0222 0.0439,-0.0865 0.0883,-0.17303 0.13382,-0.25889 0.055,-0.10446 0.11131,-0.20826 0.16849,-0.3116 0.74756,-1.35136 1.68418,-2.60729 2.79673,-3.7207 3.32724,-3.32714 7.71025,-4.95412 12.07058,-4.88241 z"
         sodipodi:nodetypes="ccscsssssscsscsccccccccsssssscsssccsccc" /><path
         id="path54011-0-1-8"
         style="display:inline;fill:#b1dee1;fill-opacity:1;stroke:none;stroke-width:0.0103333;stroke-linecap:round;stroke-miterlimit:4;stroke-dasharray:none"
         d="m 555.55286,951.76346 c 0.0388,8.24584 -7.24289,14.48888 -14.68797,14.49576 l -14.69887,-10e-6 v -14.49575 z"
         sodipodi:nodetypes="ccccc" /><text
         transform="matrix(1.189411,0,0,1.1816783,487.05265,620.83723)"
         inkscape:export-ydpi="300"
         inkscape:export-xdpi="300"
         id="text8735-7-3-1-1-7-5-0-6-6-24-5-9-5-6-96-3-9-5-7-1-7-6"
         y="285.0354"
         x="45.044621"
         style="font-style:normal;font-variant:normal;font-weight:normal;font-stretch:normal;font-size:5.64444px;line-height:0.8em;font-family:Calibri;-inkscape-font-specification:Calibri;text-align:center;letter-spacing:0px;word-spacing:0px;writing-mode:lr-tb;text-anchor:middle;white-space:pre;inline-size:19.7284;display:inline;fill:#333333;fill-opacity:1;stroke:none;stroke-width:0.222444;stroke-linecap:butt;stroke-linejoin:miter;stroke-miterlimit:4;stroke-dasharray:none;stroke-opacity:1"
         xml:space="preserve"><tspan
           x="45.044621"
           y="285.0354"
           id="tspan17"><tspan
   style="font-weight:bold;-inkscape-font-specification:'Calibri Bold'"
   id="tspan16">Days</tspan><tspan
   y="285.0354"
   id="tspan18"> </tspan></tspan><tspan
           x="45.044621"
           y="289.55097"
           id="tspan20"><tspan
             style="font-weight:bold;-inkscape-font-specification:'Calibri Bold'"
             id="tspan19">Lost</tspan></tspan></text><path
         id="path54001-5-6-2"
         style="display:inline;fill:#ef8e2d;fill-opacity:1;stroke-width:0.667917;stroke-linecap:round"
         d="m 443.12534,908.22144 v 16.63362 c 8e-5,0.0294 8e-5,0.0589 0,0.0884 v 0.0346 c -1.4e-4,0.0278 0,0.0554 -0.003,0.0832 0,0.0988 -0.003,0.19738 -0.005,0.29612 0,0.0424 -0.003,0.0847 -0.005,0.1271 -0.003,0.0944 -0.007,0.18886 -0.0119,0.28319 -0.003,0.0311 -0.004,0.062 -0.006,0.093 -0.006,0.10903 -0.0127,0.2182 -0.0212,0.3271 0,0.0154 -0.003,0.0306 -0.004,0.046 -0.01,0.12084 -0.0204,0.24159 -0.0325,0.36224 0,0.01 -0.003,0.019 -0.003,0.0284 -0.0132,0.12829 -0.0282,0.25646 -0.0444,0.38449 -0.23604,1.86174 -0.78589,3.69096 -1.64952,5.40277 -0.01,0.019 -0.0193,0.0383 -0.0289,0.0574 -0.0403,0.0791 -0.0808,0.15806 -0.12247,0.23667 -0.055,0.10445 -0.11131,0.20825 -0.16846,0.3116 -0.74756,1.35136 -1.68418,2.60728 -2.79676,3.7207 -3.32467,3.3246 -7.70374,4.95147 -12.06074,4.88241 h -16.41451 v -16.67754 -0.0791 c 2.1e-4,-0.0502 0.003,-0.1002 0.003,-0.15036 0,-0.0758 0.003,-0.15158 0.004,-0.22738 0.003,-0.0519 0.004,-0.10367 0.006,-0.15555 0.003,-0.0772 0.005,-0.15436 0.009,-0.23151 0.003,-0.0648 0.007,-0.12957 0.0114,-0.19431 0.005,-0.075 0.009,-0.14989 0.0151,-0.22479 0.003,-0.036 0.006,-0.072 0.009,-0.10801 0.16296,-1.98776 0.68144,-3.95128 1.55443,-5.78879 0.0573,-0.12049 0.11541,-0.2408 0.17571,-0.36018 0,-0.003 0.003,-0.004 0.003,-0.006 0.004,-0.007 0.008,-0.0148 0.0114,-0.0222 0.0439,-0.0865 0.0883,-0.17303 0.13383,-0.25889 0.055,-0.10446 0.11131,-0.20826 0.16848,-0.3116 0.74756,-1.35136 1.68418,-2.60729 2.79673,-3.7207 3.32724,-3.32714 7.71025,-4.95412 12.07058,-4.88241 z"
         sodipodi:nodetypes="ccscsssssscsscsccccccccsssssscsssccsccc" /><path
         id="path54011-0-3-6"
         style="display:inline;fill:#fdd13a;fill-opacity:1;stroke:none;stroke-width:0.0103333;stroke-linecap:round;stroke-miterlimit:4;stroke-dasharray:none"
         d="m 441.13071,924.921 c 0.0388,8.24584 -7.24289,14.48888 -14.68797,14.49576 l -14.69886,-10e-6 V 924.921 Z"
         sodipodi:nodetypes="ccccc" /><text
         transform="matrix(1.189411,0,0,1.1816783,370.32502,593.99477)"
         inkscape:export-ydpi="300"
         inkscape:export-xdpi="300"
         id="text8735-7-3-1-1-7-5-0-6-6-24-5-9-5-6-96-3-9-5-7-1-2-5"
         y="285.0354"
         x="45.044621"
         style="font-style:normal;font-variant:normal;font-weight:bold;font-stretch:normal;font-size:5.64444px;line-height:0.8em;font-family:Calibri;-inkscape-font-specification:'Calibri Bold';text-align:center;letter-spacing:0px;word-spacing:0px;writing-mode:lr-tb;text-anchor:middle;white-space:pre;inline-size:19.919;display:inline;fill:#333333;fill-opacity:1;stroke:none;stroke-width:0.222444;stroke-linecap:butt;stroke-linejoin:miter;stroke-miterlimit:4;stroke-dasharray:none;stroke-opacity:1"
         xml:space="preserve"><tspan
           x="45.044621"
           y="285.0354"
           id="tspan21">Action<tspan
   y="285.0354"
   id="tspan22"> </tspan></tspan><tspan
           x="45.044621"
           y="289.55097"
           id="tspan23">Raise</tspan></text><path
         id="path156009-0-7-0"
         style="display:inline;fill:#9cdd00;fill-opacity:1;stroke-width:0.667917;stroke-linecap:round"
         d="m 514.52429,936.36478 c -6.51421,6.51397 -17.07561,6.5138 -23.58962,-3.7e-4 -6.51417,-6.514 -6.51434,-17.07541 -3.6e-4,-23.58961 3.61427,-3.61412 8.62312,-5.24841 13.75163,-4.8785 l 14.73882,0.10738 -3.6e-4,16.60082 c -0.0192,4.35557 -1.76491,8.62259 -4.90011,11.76028 z"
         sodipodi:nodetypes="ccccccc" /><path
         id="path156011-6-5-6"
         style="display:inline;fill:#d5fd6e;fill-opacity:1;stroke:none;stroke-width:0.0103333;stroke-linecap:round;stroke-miterlimit:4;stroke-dasharray:none"
         d="m 517.35304,924.92071 c 0.0388,8.24584 -7.2429,14.48887 -14.68797,14.49575 -7.44925,0 -14.5777,-6.12576 -14.69887,-14.49575 z"
         sodipodi:nodetypes="cccc" /><text
         transform="matrix(1.189411,0,0,1.1816783,448.94345,593.91945)"
         inkscape:export-ydpi="300"
         inkscape:export-xdpi="300"
         id="text8735-7-3-1-1-7-5-0-6-6-24-5-9-5-6-96-3-9-5-7-13"
         y="285.0354"
         x="45.044621"
         style="font-style:normal;font-variant:normal;font-weight:normal;font-stretch:normal;font-size:5.64444px;line-height:0.8em;font-family:Calibri;-inkscape-font-specification:Calibri;text-align:center;letter-spacing:0px;word-spacing:0px;writing-mode:lr-tb;text-anchor:middle;white-space:pre;inline-size:53.7375;display:inline;fill:#333333;fill-opacity:1;stroke:none;stroke-width:0.222444;stroke-linecap:butt;stroke-linejoin:miter;stroke-miterlimit:4;stroke-dasharray:none;stroke-opacity:1"
         xml:space="preserve"><tspan
           x="45.044621"
           y="285.0354"
           id="tspan25"><tspan
             style="font-weight:bold;-inkscape-font-specification:'Calibri Bold'"
             id="tspan24">First
</tspan></tspan><tspan
           x="45.044621"
           y="289.55097"
           id="tspan27"><tspan
             style="font-weight:bold;-inkscape-font-specification:'Calibri Bold'"
             id="tspan26">Aid</tspan></tspan></text></g></g></svg>
