<?xml version="1.0" encoding="UTF-8" standalone="no"?>
<!-- Created with Inkscape (http://www.inkscape.org/) -->

<svg
   width="21.494236mm"
   height="22.323658mm"
   viewBox="0 0 21.494236 22.323658"
   version="1.1"
   id="svg1"
   inkscape:version="1.4.2 (f4327f4, 2025-05-13)"
   sodipodi:docname="LoadingSymbols0.svg"
   xmlns:inkscape="http://www.inkscape.org/namespaces/inkscape"
   xmlns:sodipodi="http://sodipodi.sourceforge.net/DTD/sodipodi-0.dtd"
   xmlns="http://www.w3.org/2000/svg"
   xmlns:svg="http://www.w3.org/2000/svg">
  <sodipodi:namedview
     id="namedview1"
     pagecolor="#505050"
     bordercolor="#eeeeee"
     borderopacity="1"
     inkscape:showpageshadow="0"
     inkscape:pageopacity="0"
     inkscape:pagecheckerboard="0"
     inkscape:deskcolor="#505050"
     inkscape:document-units="mm"
     inkscape:zoom="0.71891835"
     inkscape:cx="67.462459"
     inkscape:cy="317.8386"
     inkscape:window-width="1920"
     inkscape:window-height="1009"
     inkscape:window-x="1912"
     inkscape:window-y="-8"
     inkscape:window-maximized="1"
     inkscape:current-layer="layer1" />
  <defs
     id="defs1" />
  <g
     inkscape:label="Layer 1"
     inkscape:groupmode="layer"
     id="layer1"
     transform="translate(-87.626714,-64.566299)">
    <path
       id="path1-9"
       d="m 108.3777,77.943604 c -0.0564,0.22577 -0.14111,0.47977 -0.22578,0.70555 -0.0847,0.254 -0.19755,0.45156 -0.28222,0.64911 -0.0847,0.19756 -0.16933,0.36689 -0.28222,0.53622 0.0847,-0.14111 0.14111,-0.31044 0.22578,-0.47977 0.0564,-0.19756 0.16933,-0.42334 0.22577,-0.64911 0.0564,-0.22578 0.14112,-0.47978 0.22578,-0.70556 0.22578,-0.98778 0.36689,-2.11667 0.22578,-3.38667 -0.11289,-1.21355 -0.508,-2.54 -1.18533,-3.78177 -0.67734,-1.18534 -1.66511,-2.31423 -2.96334,-3.16089 -0.31044,-0.19756 -0.62089,-0.42334 -0.95955,-0.56445 -0.14111,-0.0564 -0.33867,-0.16933 -0.508,-0.22578 -0.16934,-0.0564 -0.36689,-0.14111 -0.53622,-0.22577 -0.73378,-0.28223 -1.49578,-0.47978 -2.286,-0.508 l -0.31045,-0.02823 -0.31044,-0.02822 c -0.19756,0 -0.39511,0 -0.59267,0 -0.39511,0.02822 -0.81844,0.02822 -1.18533,0.14111 -0.39511,0.0282 -0.79023,0.16934 -1.15711,0.22578 -0.39512,0.14111 -0.762,0.254 -1.10067,0.42333 -0.33867,0.16934 -0.67733,0.33867 -1.04422,0.53623 -0.16934,0.0847 -0.33867,0.19755 -0.47978,0.31044 l -0.22578,0.16933 c -0.0847,0.0282 -0.16933,0.11289 -0.22578,0.16934 l -0.22577,0.16933 -0.11289,0.11289 -0.0564,0.0564 -0.0282,0.0282 -0.0282,0.0282 v 0 l -0.42334,0.42333 c -0.33866,0.28222 -0.53622,0.59267 -0.762,0.87489 -0.11288,0.11289 -0.19755,0.31045 -0.31044,0.47978 l -0.31044,0.47978 c -0.0847,0.16933 -0.16934,0.33866 -0.254,0.508 -0.0565,0.14111 -0.16934,0.33866 -0.22578,0.508 -0.11289,0.33866 -0.28222,0.67733 -0.33867,1.04422 -0.0564,0.16933 -0.11289,0.33867 -0.14111,0.53622 -0.0282,0.16933 -0.0564,0.33867 -0.0847,0.508 -0.0847,0.33867 -0.0847,0.67733 -0.11289,1.04422 -0.0282,0.33867 0,0.70556 0.0282,1.04423 0.0564,0.33866 0.0847,0.67733 0.16933,0.98777 0.0282,0.16934 0.0847,0.31045 0.11289,0.47978 l 0.0282,0.22578 0.0847,0.22578 c 0.42333,1.21355 1.07244,2.25777 1.83444,3.10444 0.22578,0.22578 0.39511,0.42333 0.59267,0.59267 0.254,0.254 0.39511,0.36689 0.62089,0.508 0.39511,0.33866 0.81844,0.56444 1.21355,0.79022 0.79023,0.42333 1.55223,0.64911 2.17311,0.79022 0.62089,0.14111 1.12889,0.19756 1.46756,0.16934 0.16933,0.0282 0.31044,0 0.39511,0 0.0847,0 0.11289,0 0.11289,0 h 0.0282 c 0.762,-0.0282 1.41111,0.62088 1.41111,1.41111 0.0282,0.762 -0.62089,1.41111 -1.41111,1.41111 -0.0564,0 -0.0564,0 -0.0847,0 0,0 -0.0565,-0.0282 -0.16934,-0.0282 -0.11289,0 -0.28222,0 -0.508,-0.0282 -0.45155,-0.0282 -1.12889,-0.11289 -1.94733,-0.33866 -0.81845,-0.22578 -1.80622,-0.56445 -2.794,-1.15711 -0.508,-0.28223 -1.016,-0.64912 -1.524,-1.07245 -0.254,-0.22578 -0.53622,-0.45155 -0.70556,-0.67733 -0.0564,-0.0564 -0.11289,-0.11289 -0.16933,-0.16934 -0.0564,-0.0564 -0.14111,-0.11288 -0.16933,-0.19755 -0.14111,-0.11289 -0.22578,-0.254 -0.36689,-0.39511 -0.90311,-1.10067 -1.66511,-2.48356 -2.11667,-4.03578 l -0.0847,-0.28222 -0.0564,-0.31045 c -0.0282,-0.19755 -0.0847,-0.39511 -0.11289,-0.59266 -0.0847,-0.42334 -0.11289,-0.81845 -0.14111,-1.27 0,-0.42334 -0.0282,-0.84667 0.0282,-1.27 0.0565,-0.42334 0.0565,-0.84667 0.16934,-1.29823 0.0282,-0.19755 0.0847,-0.42333 0.11288,-0.64911 0.0565,-0.22577 0.14112,-0.42333 0.19756,-0.64911 0.11289,-0.45155 0.31044,-0.84666 0.47978,-1.24178 0.0847,-0.19755 0.19755,-0.39511 0.31044,-0.59266 0.11289,-0.22578 0.22578,-0.39511 0.33867,-0.59267 0.14111,-0.19755 0.254,-0.39511 0.39511,-0.56444 0.14111,-0.16934 0.254,-0.36689 0.42333,-0.53623 0.31045,-0.36688 0.62089,-0.762 0.93134,-0.98777 l 0.47977,-0.45156 c 0,0 0.0282,-0.0282 0.0282,-0.0282 0,0 0,0 0,0 0,0 0,0 0,0 l 0.0282,-0.0282 0.0282,-0.0282 h 0.0565 l 0.14111,-0.11288 0.28222,-0.19756 c 0.11289,-0.0564 0.16933,-0.14111 0.28222,-0.19756 l 0.31045,-0.16933 c 0.22577,-0.11289 0.39511,-0.254 0.59266,-0.338668 0.39511,-0.197555 0.81845,-0.423333 1.24178,-0.564444 0.42333,-0.197556 0.87489,-0.282223 1.29822,-0.423334 0.42334,-0.08467 0.87489,-0.197555 1.32645,-0.225777 0.45155,-0.05644 0.87489,-0.05644 1.32644,-0.05644 0.22578,0 0.45156,0.02822 0.67733,0.02822 l 0.33867,0.02822 0.31045,0.02822 c 0.87488,0.112889 1.72155,0.366889 2.51177,0.677333 0.22578,0.08467 0.39511,0.169333 0.59267,0.254 0.19756,0.08467 0.36689,0.197556 0.56444,0.31045 0.36689,0.19755 0.73378,0.47978 1.04423,0.70555 0.14111,0.11289 0.28222,0.254 0.45155,0.36689 l 0.22578,0.16934 0.0564,0.0564 c 0,0 0.0282,0.0282 0.0282,0.0282 0.0282,0.0282 0,0 0,0 v -0.0282 l 0.0282,0.0282 0.11289,0.11289 c 0.14111,0.14111 0.28222,0.28222 0.42333,0.42334 0.0847,0.0847 0.14111,0.14111 0.22578,0.22577 l 0.19755,0.22578 c 0.254,0.31045 0.508,0.62089 0.70556,0.93133 0.11289,0.16934 0.19756,0.31045 0.31044,0.47978 0.0847,0.19756 0.16934,0.33867 0.254,0.508 0.67734,1.38289 0.98778,2.76578 1.04423,4.064 0.0564,1.29822 -0.14111,2.48356 -0.45156,3.47134 z"
       style="fill:#ff7f2a;stroke:#ff7f2a;stroke-width:0.564444" />
  </g>
</svg>
