<?xml version="1.0" encoding="UTF-8" standalone="no"?>
<!-- Created with Inkscape (http://www.inkscape.org/) -->

<svg
   width="6.5620027mm"
   height="7.1760921mm"
   viewBox="0 0 6.5620025 7.176092"
   version="1.1"
   id="svg5"
   inkscape:version="1.3.2 (091e20e, 2023-11-25, custom)"
   sodipodi:docname="UI design Amneal logo.svg"
   xml:space="preserve"
   xmlns:inkscape="http://www.inkscape.org/namespaces/inkscape"
   xmlns:sodipodi="http://sodipodi.sourceforge.net/DTD/sodipodi-0.dtd"
   xmlns="http://www.w3.org/2000/svg"
   xmlns:svg="http://www.w3.org/2000/svg"><sodipodi:namedview
     id="namedview7"
     pagecolor="#ffffff"
     bordercolor="#eeeeee"
     borderopacity="1"
     inkscape:pageshadow="0"
     inkscape:pageopacity="0"
     inkscape:pagecheckerboard="true"
     inkscape:document-units="mm"
     showgrid="false"
     inkscape:zoom="2"
     inkscape:cx="-1447"
     inkscape:cy="-2604.75"
     inkscape:window-width="1920"
     inkscape:window-height="1017"
     inkscape:window-x="1912"
     inkscape:window-y="-8"
     inkscape:window-maximized="1"
     inkscape:current-layer="layer1"
     fit-margin-top="10"
     lock-margins="true"
     fit-margin-left="10"
     fit-margin-right="10"
     fit-margin-bottom="10"
     inkscape:showpageshadow="2"
     inkscape:deskcolor="#d1d1d1"
     showguides="true" /><defs
     id="defs2" /><g
     inkscape:label="Layer 1"
     inkscape:groupmode="layer"
     id="layer1"
     transform="translate(1366.1136,21.067456)"><g
       id="g59-8-1"
       transform="matrix(0.16254467,0,0,0.16254467,-1512.1324,-737.34289)"
       inkscape:export-filename="..\..\..\..\..\xampp\htdocs\sheener\img\LogOutbtn.svg"
       inkscape:export-xdpi="112.65546"
       inkscape:export-ydpi="112.65546"
       style="display:inline;fill:#ffffff"><path
         id="path59-0-0"
         style="fill:#ffffff;fill-opacity:1;fill-rule:nonzero;stroke:none;stroke-width:0.637145;stroke-linecap:round;stroke-linejoin:round;stroke-miterlimit:4;stroke-dasharray:none;stroke-opacity:1"
         d="m 938.4733,4433.6084 c -1.4673,9.7429 -9.7547,17.0025 -19.606,17.1744 -9.8513,0.1719 -18.3869,-6.7943 -20.1931,-16.4801 -1.5946,-8.5513 2.4677,-17.0158 9.8074,-21.2144 3.9007,-2.1996 6.1857,2.6827 2.511,4.9527 -5.0227,3.1221 -8.0401,9.3998 -6.9474,15.2598 1.2626,6.7716 7.8397,12.1394 14.7269,12.0192 6.8869,-0.1205 13.2728,-5.7145 14.2984,-12.5258 0.8898,-5.9091 -2.0409,-12.7493 -7.5136,-15.0293 -3.4964,-1.4567 -2.4317,-6.7994 1.9234,-5.237 7.7519,3.8192 12.3151,12.3019 10.993,21.0805 z"
         inkscape:connector-curvature="0"
         sodipodi:nodetypes="ssscccccscs" /><rect
         style="fill:#ffffff;fill-opacity:1;fill-rule:nonzero;stroke:#f9f9f9;stroke-width:0.637145;stroke-linecap:round;stroke-linejoin:round;stroke-miterlimit:4;stroke-dasharray:none;stroke-opacity:1"
         id="rect59-9-6"
         width="5.285769"
         height="23.874054"
         x="915.73065"
         y="4406.9561"
         ry="2.9353347" /></g></g></svg>
