<?xml version="1.0" encoding="UTF-8" standalone="no"?>
<!-- Created with Inkscape (http://www.inkscape.org/) -->

<svg
   width="17.274328mm"
   height="11.551691mm"
   viewBox="0 0 17.274327 11.551691"
   version="1.1"
   id="svg1"
   xml:space="preserve"
   xmlns="http://www.w3.org/2000/svg"
   xmlns:svg="http://www.w3.org/2000/svg"><defs
     id="defs1" /><g
     id="layer1"
     transform="translate(-73.760521,-144.19294)"><rect
       style="fill:#3d95d8;fill-opacity:1;stroke-width:0.758362;stroke-linejoin:round;paint-order:stroke fill markers"
       id="rect2"
       width="11.493622"
       height="11.551682"
       x="73.760521"
       y="144.19295"
       rx="0"
       ry="0" /><ellipse
       style="fill:#3d95d8;fill-opacity:1;stroke-width:0.52937;stroke-linejoin:round;paint-order:stroke fill markers"
       id="path2"
       cx="84.195808"
       cy="149.96878"
       rx="6.8390408"
       ry="5.7758417" /><path
       style="fill:#f9f9f9;stroke-width:0.148739"
       d="m 82.504762,152.88479 c -0.353227,-0.11586 -0.678226,-0.42988 -0.784954,-0.75832 -0.09011,-0.27731 -0.09011,-3.37104 0,-3.64835 0.0795,-0.24466 0.323607,-0.53051 0.568841,-0.66615 0.191081,-0.10572 0.218734,-0.10928 0.936696,-0.12202 l 0.739802,-0.0137 v -0.4836 c 0,-0.48078 7.26e-4,-0.48429 0.112336,-0.6014 0.155043,-0.16258 0.350474,-0.16258 0.505516,0 0.111683,0.11709 0.112337,0.12065 0.112337,0.6014 v 0.4836 l 0.739802,0.0137 c 0.717962,0.0123 0.74561,0.0163 0.936697,0.12202 0.245232,0.13571 0.489342,0.42149 0.568838,0.66615 0.09011,0.27731 0.09011,3.37104 0,3.64835 -0.07949,0.24465 -0.323598,0.53051 -0.568838,0.66617 l -0.196897,0.10887 -1.78705,0.007 c -0.982877,0.004 -1.830286,-0.007 -1.883126,-0.0242 z m 0.775229,-1.16106 c 0.04953,-0.0519 0.08306,-0.13772 0.08306,-0.21248 0,-0.2076 -0.122268,-0.29738 -0.425745,-0.3126 -0.29642,-0.0149 -0.426323,0.0377 -0.501904,0.20295 -0.0625,0.13667 6.65e-4,0.3015 0.146215,0.3821 0.154823,0.0856 0.595574,0.0478 0.698367,-0.06 z m 1.357568,0.052 c 0.143865,-0.063 0.198776,-0.19202 0.156656,-0.36799 -0.0696,-0.29081 -0.858341,-0.29081 -0.927947,0 -0.04094,0.17105 0.01314,0.3047 0.148258,0.36631 0.161409,0.0735 0.457102,0.0744 0.623033,0.001 z m 1.524769,-0.052 c 0.04953,-0.0519 0.08306,-0.13772 0.08306,-0.21248 0,-0.2076 -0.122269,-0.29738 -0.425741,-0.3126 -0.296422,-0.0149 -0.426325,0.0377 -0.501906,0.20295 -0.0625,0.13667 7.25e-4,0.3015 0.146215,0.3821 0.154821,0.0856 0.595571,0.0478 0.698367,-0.06 z m -2.696397,-1.51212 c 0.206767,-0.14755 0.28341,-0.28651 0.28341,-0.51379 0,-0.2273 -0.07664,-0.36624 -0.28341,-0.51381 -0.355167,-0.25347 -0.860658,0.0483 -0.860658,0.51381 0,0.32941 0.260297,0.60448 0.572036,0.60448 0.104294,0 0.206615,-0.0322 0.288622,-0.0907 z m 2.30587,0 c 0.206767,-0.14755 0.283409,-0.28651 0.283409,-0.51379 0,-0.2273 -0.07664,-0.36624 -0.283409,-0.51381 -0.355168,-0.25347 -0.860659,0.0483 -0.860659,0.51381 0,0.32941 0.260297,0.60448 0.572036,0.60448 0.104294,0 0.206613,-0.0322 0.288623,-0.0907 z m -5.153123,0.98035 -0.112337,-0.11777 v -0.77187 -0.77187 l 0.112337,-0.11777 c 0.08317,-0.0872 0.148798,-0.11778 0.252757,-0.11778 0.103964,0 0.169592,0.0307 0.25276,0.11778 l 0.112338,0.11777 v 0.77187 0.77187 l -0.112338,0.11777 c -0.08317,0.0872 -0.148796,0.11777 -0.25276,0.11777 -0.103963,0 -0.169588,-0.0307 -0.252757,-0.11777 z m 6.917611,0 -0.112337,-0.11777 v -0.77187 -0.77187 l 0.112337,-0.11777 c 0.08316,-0.0872 0.148798,-0.11778 0.252757,-0.11778 0.103964,0 0.169589,0.0307 0.252758,0.11778 l 0.112337,0.11777 v 0.77187 0.77187 l -0.112337,0.11777 c -0.08317,0.0872 -0.148798,0.11777 -0.252758,0.11777 -0.103963,0 -0.169591,-0.0307 -0.252757,-0.11777 z"
       id="path1" /><path
       style="fill:none;stroke:#f9f9f9;stroke-width:1.49618;stroke-linecap:round;stroke-linejoin:miter;stroke-opacity:1"
       d="m 78.626495,147.62211 -2.445567,2.06537 2.468747,2.08496"
       id="path3" /></g></svg>
