<?xml version="1.0" encoding="UTF-8" standalone="no"?>
<!-- Created with Inkscape (http://www.inkscape.org/) -->

<svg
   width="7.3062725mm"
   height="7.3058019mm"
   viewBox="0 0 7.3062723 7.3058017"
   version="1.1"
   id="svg5"
   inkscape:version="1.3.2 (091e20e, 2023-11-25, custom)"
   sodipodi:docname="UI design Amneal logo.svg"
   xml:space="preserve"
   xmlns:inkscape="http://www.inkscape.org/namespaces/inkscape"
   xmlns:sodipodi="http://sodipodi.sourceforge.net/DTD/sodipodi-0.dtd"
   xmlns="http://www.w3.org/2000/svg"
   xmlns:svg="http://www.w3.org/2000/svg"><sodipodi:namedview
     id="namedview7"
     pagecolor="#ffffff"
     bordercolor="#eeeeee"
     borderopacity="1"
     inkscape:pageshadow="0"
     inkscape:pageopacity="0"
     inkscape:pagecheckerboard="true"
     inkscape:document-units="mm"
     showgrid="false"
     inkscape:zoom="2"
     inkscape:cx="-1447"
     inkscape:cy="-2604.75"
     inkscape:window-width="1920"
     inkscape:window-height="1017"
     inkscape:window-x="1912"
     inkscape:window-y="-8"
     inkscape:window-maximized="1"
     inkscape:current-layer="layer1"
     fit-margin-top="10"
     lock-margins="true"
     fit-margin-left="10"
     fit-margin-right="10"
     fit-margin-bottom="10"
     inkscape:showpageshadow="2"
     inkscape:deskcolor="#d1d1d1"
     showguides="true" /><defs
     id="defs2" /><g
     inkscape:label="Layer 1"
     inkscape:groupmode="layer"
     id="layer1"
     transform="translate(1386.2163,20.603249)"><g
       id="g10551-8-1"
       transform="matrix(0.04946419,0,0,0.04946419,-1298.6443,-245.47128)"
       style="opacity:0.998"
       inkscape:export-filename="..\..\..\..\..\xampp\htdocs\sheener\img\profile.svg"
       inkscape:export-xdpi="112.65546"
       inkscape:export-ydpi="112.65546"><path
         id="path10476-3-9-8"
         style="fill:#ffffff;stroke:#ffffff;stroke-width:1.79266;stroke-linecap:round;stroke-linejoin:round"
         d="m -1696.5638,4546.9736 a 72.955269,72.955269 0 0 0 -72.9531,72.9531 72.955269,72.955269 0 0 0 72.9531,72.9531 72.955269,72.955269 0 0 0 72.9635,-72.9531 72.955269,72.955269 0 0 0 -72.9635,-72.9531 z m 0,30.6835 a 21.962779,21.962779 0 0 1 21.9706,21.9706 21.962779,21.962779 0 0 1 -21.9706,21.9601 40.608264,40.608264 0 0 1 40.6084,40.6084 h -81.2064 a 40.608264,40.608264 0 0 1 40.598,-40.6084 21.962779,21.962779 0 0 1 -21.9601,-21.9601 21.962779,21.962779 0 0 1 21.9601,-21.9706 z" /><g
         id="g5679-5-1-31-5"
         style="fill:#d9a460;fill-opacity:1"
         transform="matrix(1.2941692,0,0,1.2941692,-6660.8812,3449.358)" /></g></g></svg>
