<?xml version="1.0" encoding="UTF-8" standalone="no"?>
<!-- Created with Inkscape (http://www.inkscape.org/) -->

<svg
   width="28.324497mm"
   height="21.89398mm"
   viewBox="0 0 28.324497 21.89398"
   version="1.1"
   id="svg5"
   inkscape:version="1.3.2 (091e20e, 2023-11-25, custom)"
   sodipodi:docname="Quiz Newsletter Template.svg"
   inkscape:export-filename="C:\Users\grasoli\OneDrive - Coillte CGA\Pictures\Visual\Newsletter Template.png"
   inkscape:export-xdpi="149.98599"
   inkscape:export-ydpi="149.98599"
   xml:space="preserve"
   xmlns:inkscape="http://www.inkscape.org/namespaces/inkscape"
   xmlns:sodipodi="http://sodipodi.sourceforge.net/DTD/sodipodi-0.dtd"
   xmlns="http://www.w3.org/2000/svg"
   xmlns:svg="http://www.w3.org/2000/svg"><sodipodi:namedview
     id="namedview7"
     pagecolor="#505050"
     bordercolor="#eeeeee"
     borderopacity="1"
     inkscape:pageshadow="0"
     inkscape:pageopacity="0"
     inkscape:pagecheckerboard="0"
     inkscape:document-units="mm"
     showgrid="false"
     fit-margin-top="0"
     fit-margin-left="0"
     fit-margin-right="0"
     fit-margin-bottom="0"
     inkscape:zoom="0.5005105"
     inkscape:cx="-4008.9069"
     inkscape:cy="2096.8591"
     inkscape:window-width="1920"
     inkscape:window-height="1009"
     inkscape:window-x="1912"
     inkscape:window-y="-8"
     inkscape:window-maximized="1"
     inkscape:current-layer="layer3"
     inkscape:snap-bbox="true"
     inkscape:bbox-paths="true"
     inkscape:bbox-nodes="true"
     inkscape:snap-bbox-edge-midpoints="true"
     inkscape:snap-bbox-midpoints="true"
     inkscape:showpageshadow="2"
     inkscape:deskcolor="#d1d1d1"
     showguides="false" /><defs
     id="defs2" /><g
     inkscape:groupmode="layer"
     id="layer3"
     inkscape:label="TEXT"
     transform="translate(1650.872,-919.79764)"><g
       id="g32"><g
         id="g7-8-1-7-5-8"
         transform="matrix(0.186487,0,0,0.186487,-1603.3969,1487.257)"><path
           style="fill:#ff0000;stroke-width:0.0993642"
           d="m -245.688,-2925.57 c -2.02,-0.17 -4.198,-1.07 -5.863,-2.44 -0.577,-0.47 -1.475,-1.58 -1.955,-2.42 -0.783,-1.36 -1.067,-2.47 -1.07,-4.17 -0.005,-1.45 0.261,-2.52 0.948,-3.82 0.288,-0.55 0.54,-0.95 1.983,-3.16 0.391,-0.6 1.141,-1.76 1.672,-2.57 l 53.77,-81.54 c 0.427,-0.64 1.013,-1.51 1.299,-1.95 0.288,-0.43 1.434,-2.13 2.549,-3.78 1.114,-1.66 2.774,-4.12 3.687,-5.47 0.914,-1.36 1.905,-2.72 2.201,-3.03 1.42,-1.49 3.42,-2.51 5.657,-2.87 1.129,-0.18 3.258,-0.11 4.359,0.16 2.286,0.54 4.415,1.8 5.756,3.38 0.531,0.63 0.994,1.32 3.864,5.78 0.656,1.01 1.367,2.11 1.579,2.43 0.887,1.36 3.042,4.68 4.302,6.62 l 54.905,83.01 c 1.27,1.89 2.456,3.75 2.637,4.14 2.187,4.72 -0.818,9.99 -6.481,11.39 -0.483,0.12 -1.254,0.26 -1.712,0.31 -0.981,0.11 -132.787,0.11 -134.087,0 z m 127.124,-11.31 c 0,-0.04 -0.288,-0.49 -0.64,-1 -0.781,-1.15 -0.604,-0.9 -3.382,-5.05 l -53.009,-80.53 c -1.67,-2.58 -1.836,-2.85 -1.763,-2.95 0.043,-0.06 0.028,-0.08 -0.038,-0.04 -0.067,0.03 -0.323,-0.29 -0.649,-0.81 -0.296,-0.47 -0.562,-0.86 -0.589,-0.86 -0.028,0 -0.285,0.36 -0.571,0.8 -0.286,0.44 -1.377,2.07 -2.425,3.62 l -52.586,79.37 c -0.562,0.86 -1.805,2.78 -2.772,4.25 -0.967,1.48 -1.759,2.71 -1.759,2.75 0,0.03 27.041,0.16 60.091,0.29 33.05,0.12 60.091,0.19 60.092,0.16 z"
           id="path14-8-1-8-8-7-1"
           sodipodi:nodetypes="csssssssssssscssssscssccssssssscsssssss" /></g><path
         style="fill:#f9f9f9;stroke-width:0.0185301"
         d="m -1625.5069,939.56704 c 0,-0.01 -0.05,-0.09 -0.12,-0.19 -0.14,-0.21 -0.11,-0.17 -0.63,-0.94 l -9.89,-15.02 c -0.31,-0.48 -0.34,-0.53 -0.32,-0.55 0.01,-0.01 0.01,-0.01 -0.01,-0.01 -0.02,0.01 -0.06,-0.05 -0.13,-0.15 -0.05,-0.08 -0.1,-0.16 -0.11,-0.16 -0.01,0 -0.05,0.07 -0.1,0.15 -0.05,0.08 -0.26,0.39 -0.45,0.68 l -9.81,14.8 c -0.11,0.16 -0.34,0.52 -0.52,0.79 -0.18,0.28 -0.33,0.51 -0.33,0.51 0,0.01 5.05,0.03 11.21,0.06 6.16,0.02 11.21,0.03 11.21,0.03 z"
         id="path28-5-2-5-5-4" /><path
         id="path27-0-4-9-8"
         style="fill:#000000;stroke-width:0.0276236"
         d="m -1636.8569,927.24704 c -0.29,-0.01 -0.56,0.08 -0.76,0.25 -0.2,0.17 -0.31,0.41 -0.31,0.66 0,0.25 0.11,0.49 0.31,0.67 0.2,0.17 0.47,0.28 0.76,0.29 0.58,0.01 1.06,-0.4 1.06,-0.91 0,-0.25 -0.11,-0.49 -0.31,-0.67 -0.2,-0.18 -0.47,-0.28 -0.75,-0.29 z m -0.12,1.97 c -0.39,-0.01 -0.44,0.02 -1.04,0.51 -0.27,0.22 -0.53,0.44 -0.58,0.49 -0.05,0.05 -0.19,0.16 -0.31,0.25 -0.2,0.14 -0.33,0.27 -0.42,0.42 -0.02,0.03 -0.06,0.22 -0.1,0.43 -0.21,1.1 -0.21,1.41 -0.01,1.61 0.1,0.1 0.19,0.13 0.32,0.08 0.08,-0.03 0.11,-0.06 0.16,-0.16 0.09,-0.18 0.12,-0.31 0.16,-0.61 0.09,-0.66 0.13,-0.87 0.24,-1.07 0.04,-0.07 0.58,-0.53 0.6,-0.52 0,0 -0.01,0.07 -0.02,0.14 -0.01,0.08 -0.04,0.24 -0.05,0.37 -0.02,0.13 -0.06,0.38 -0.09,0.57 -0.06,0.34 -0.08,0.48 -0.3,1.85 -0.18,1.14 -0.21,1.26 -0.33,1.44 -0.15,0.22 -0.34,0.54 -0.63,1.03 -0.14,0.24 -0.3,0.52 -0.36,0.6 -0.14,0.22 -0.18,0.34 -0.13,0.48 0.04,0.12 0.2,0.27 0.34,0.31 v 0 c 0.13,0.04 0.28,0.03 0.42,-0.03 0.11,-0.05 0.2,-0.17 0.54,-0.69 0.09,-0.13 0.39,-0.59 0.68,-1.03 0.65,-0.97 0.61,-0.91 0.66,-1.13 0.03,-0.15 0.15,-1.03 0.15,-1.1 0,-0.02 0.05,-0.01 0.09,0.02 0.02,0.02 0.2,0.16 0.39,0.32 0.19,0.16 0.36,0.29 0.37,0.3 0.01,0.01 0.13,0.11 0.28,0.23 0.22,0.18 0.28,0.24 0.31,0.32 0.04,0.12 0.4,1.13 0.48,1.33 0.03,0.08 0.12,0.34 0.21,0.58 0.22,0.63 0.23,0.65 0.28,0.72 0.03,0.03 0.11,0.09 0.17,0.12 0.11,0.06 0.15,0.07 0.29,0.06 0.14,-0.01 0.19,-0.03 0.28,-0.09 0.26,-0.18 0.28,-0.36 0.1,-0.84 -0.07,-0.17 -0.24,-0.65 -0.38,-1.08 -0.3,-0.94 -0.4,-1.19 -0.49,-1.33 -0.09,-0.14 -0.89,-0.86 -1.37,-1.24 -0.22,-0.18 -0.37,-0.31 -0.38,-0.35 -0.02,-0.09 0.02,-0.37 0.21,-1.28 0.02,-0.12 0.05,-0.25 0.05,-0.3 0.02,-0.08 0.08,-0.09 0.09,-0.01 0.03,0.13 0.26,0.46 0.42,0.58 0.08,0.06 0.31,0.2 0.52,0.31 0.21,0.11 0.45,0.25 0.53,0.3 0.38,0.21 0.61,0.31 0.74,0.31 0.14,0.01 0.27,-0.06 0.33,-0.16 0.04,-0.08 0.04,-0.09 0,-0.22 -0.03,-0.08 -0.08,-0.15 -0.15,-0.21 -0.11,-0.08 -0.44,-0.28 -0.64,-0.38 -0.42,-0.21 -0.58,-0.29 -0.65,-0.35 -0.1,-0.09 -0.31,-0.33 -0.37,-0.43 -0.03,-0.05 -0.08,-0.11 -0.11,-0.15 -0.07,-0.07 -0.24,-0.31 -0.24,-0.33 0,-0.01 -0.06,-0.1 -0.14,-0.2 -0.07,-0.1 -0.18,-0.24 -0.24,-0.32 -0.14,-0.2 -0.3,-0.34 -0.46,-0.41 -0.11,-0.04 -0.19,-0.06 -0.42,-0.06 z m -3.59,5.71 -0.13,0.36 c -0.19,0.53 -0.87,2.34 -1.07,2.87 -0.09,0.26 -0.17,0.48 -0.16,0.49 0.01,0.02 0.47,0.03 1.02,0.03 h 1.02 l 0.02,-0.05 c 0.01,-0.03 0.05,-0.16 0.07,-0.28 0.06,-0.26 0.09,-0.4 0.13,-0.56 0.04,-0.18 0.04,-0.2 -0.06,-0.26 -0.19,-0.1 -0.32,-0.28 -0.33,-0.45 -0.02,-0.22 0,-0.27 0.13,-0.47 0.07,-0.1 0.24,-0.39 0.38,-0.62 0.13,-0.24 0.3,-0.52 0.36,-0.62 0.06,-0.1 0.12,-0.24 0.13,-0.3 l 0.01,-0.12 -0.76,-0.01 z m -3.07,-0.03 -0.05,0.07 c -0.03,0.03 -0.18,0.25 -0.34,0.49 -0.15,0.23 -0.37,0.55 -0.47,0.7 -0.11,0.16 -0.21,0.32 -0.24,0.36 -0.14,0.21 -0.64,0.97 -0.9,1.36 -0.4,0.6 -0.48,0.72 -0.48,0.75 0,0.01 0.42,0.02 1.02,0.02 h 1.02 l 0.07,-0.13 c 0.04,-0.07 0.11,-0.19 0.16,-0.28 0.04,-0.09 0.14,-0.28 0.21,-0.42 0.08,-0.14 0.14,-0.26 0.14,-0.27 0,0 0.07,-0.13 0.15,-0.29 0.09,-0.16 0.16,-0.3 0.16,-0.3 0,-0.01 0.05,-0.1 0.11,-0.22 0.16,-0.3 0.28,-0.52 0.4,-0.76 0.06,-0.12 0.15,-0.31 0.22,-0.42 0.18,-0.35 0.31,-0.61 0.31,-0.63 0,-0.01 -0.33,-0.02 -0.74,-0.02 z m 6.45,0.07 -0.16,0.24 c -0.12,0.18 -0.16,0.27 -0.17,0.35 -0.01,0.11 -0.04,0.51 -0.09,1.26 -0.02,0.21 -0.05,0.64 -0.07,0.96 -0.03,0.32 -0.05,0.65 -0.06,0.73 -0.01,0.08 -0.01,0.16 0,0.17 0.01,0.01 0.48,0.02 1.04,0.01 h 1.01 l -0.01,-0.18 c -0.01,-0.17 -0.03,-0.5 -0.12,-1.65 -0.01,-0.2 -0.04,-0.55 -0.05,-0.79 -0.02,-0.24 -0.05,-0.56 -0.06,-0.72 -0.01,-0.16 -0.03,-0.3 -0.03,-0.33 0,-0.03 -0.07,-0.04 -0.61,-0.04 z m 3.71,0.05 c -0.35,-0.01 -0.64,0 -0.64,0 -0.02,0.02 0.29,0.96 0.47,1.45 0.19,0.52 0.18,0.73 -0.07,0.98 l -0.09,0.09 0.04,0.21 c 0.03,0.12 0.06,0.26 0.07,0.32 0.02,0.05 0.05,0.19 0.08,0.32 0.02,0.12 0.05,0.24 0.07,0.27 l 0.02,0.06 h 1.01 c 0.56,0 1.02,0 1.03,-0.01 0.01,-0.01 -0.09,-0.28 -0.21,-0.61 -0.25,-0.65 -0.45,-1.18 -0.87,-2.31 l -0.29,-0.77 z m 2.95,0.03 c -0.41,0 -0.74,0 -0.74,0.01 0,0.01 0.07,0.17 0.29,0.57 0.19,0.37 0.36,0.69 0.45,0.86 0.05,0.1 0.22,0.43 0.38,0.73 0.16,0.31 0.35,0.66 0.41,0.78 0.07,0.13 0.13,0.23 0.13,0.24 0,0.02 0.23,0.44 0.26,0.47 0.03,0.04 2.05,0.05 2.05,0.02 0,-0.03 -0.08,-0.15 -0.48,-0.73 -0.16,-0.24 -0.44,-0.65 -0.62,-0.92 -0.18,-0.27 -0.42,-0.62 -0.52,-0.77 -0.11,-0.15 -0.33,-0.48 -0.49,-0.72 -0.16,-0.24 -0.31,-0.46 -0.34,-0.49 -0.03,-0.04 -0.11,-0.04 -0.78,-0.05 z" /></g></g></svg>
