<?xml version="1.0" encoding="UTF-8" standalone="no"?>
<!-- Created with Inkscape (http://www.inkscape.org/) -->

<svg
   width="32.944164mm"
   height="29.128613mm"
   viewBox="0 0 32.944164 29.128612"
   version="1.1"
   id="svg5"
   inkscape:version="1.3.2 (091e20e, 2023-11-25, custom)"
   sodipodi:docname="sign1.svg"
   inkscape:export-filename="C:\Users\grasoli\OneDrive - Coillte CGA\Pictures\Visual\Newsletter Template.png"
   inkscape:export-xdpi="149.98599"
   inkscape:export-ydpi="149.98599"
   xml:space="preserve"
   xmlns:inkscape="http://www.inkscape.org/namespaces/inkscape"
   xmlns:sodipodi="http://sodipodi.sourceforge.net/DTD/sodipodi-0.dtd"
   xmlns="http://www.w3.org/2000/svg"
   xmlns:svg="http://www.w3.org/2000/svg"><sodipodi:namedview
     id="namedview7"
     pagecolor="#505050"
     bordercolor="#eeeeee"
     borderopacity="1"
     inkscape:pageshadow="0"
     inkscape:pageopacity="0"
     inkscape:pagecheckerboard="0"
     inkscape:document-units="mm"
     showgrid="false"
     fit-margin-top="0"
     fit-margin-left="0"
     fit-margin-right="0"
     fit-margin-bottom="0"
     inkscape:zoom="4"
     inkscape:cx="52.5"
     inkscape:cy="95.125"
     inkscape:window-width="1920"
     inkscape:window-height="1009"
     inkscape:window-x="-8"
     inkscape:window-y="-8"
     inkscape:window-maximized="1"
     inkscape:current-layer="g32"
     inkscape:snap-bbox="true"
     inkscape:bbox-paths="true"
     inkscape:bbox-nodes="true"
     inkscape:snap-bbox-edge-midpoints="true"
     inkscape:snap-bbox-midpoints="true"
     inkscape:showpageshadow="2"
     inkscape:deskcolor="#d1d1d1"
     showguides="false" /><defs
     id="defs2" /><g
     inkscape:groupmode="layer"
     id="layer3"
     inkscape:label="TEXT"
     transform="translate(1652.7505,-912.25703)"><g
       id="g32"
       transform="translate(-1.0583333,7.57458)"><path
         sodipodi:nodetypes="cscsscc"
         inkscape:export-ydpi="371.96799"
         inkscape:export-xdpi="371.96799"
         inkscape:connector-curvature="0"
         id="path3980"
         d="m -1621.5756,931.55621 c -0.047,-0.075 -3.1189,-5.46807 -6.8253,-11.98457 -3.7064,-6.51648 -6.7567,-11.86603 -6.7785,-11.88786 -0.035,-0.0351 -13.7665,23.87481 -13.7665,23.97069 0,0.0209 6.1778,0.0381 13.7283,0.0381 h 13.7284 z"
         style="fill:#fff101;fill-opacity:1;stroke-width:0.282223" /><path
         sodipodi:nodetypes="ccsccsssccccscsscc"
         inkscape:export-ydpi="371.96799"
         inkscape:export-xdpi="371.96799"
         inkscape:connector-curvature="0"
         id="path4661-7-1-8-1"
         d="m -1650.9761,933.7296 c -0.2655,-0.11586 -0.6227,-0.53904 -0.6706,-0.79446 -0.1187,-0.63238 -0.5705,0.20478 7.6955,-14.25975 5.9035,-10.3305 7.7347,-13.48843 7.9214,-13.66049 0.482,-0.44421 1.1973,-0.44331 1.6214,0.003 0.1191,0.12504 3.5666,6.08446 7.9067,13.66758 8.2524,14.41911 7.8266,13.63226 7.711,14.24832 -0.052,0.27561 -0.3573,0.62555 -0.6705,0.76784 -0.233,0.10584 -0.8802,0.11031 -15.7881,0.10933 -12.6771,0 -15.5785,-0.0159 -15.7268,-0.0804 z m 29.4005,-2.17339 c -0.047,-0.075 -3.1189,-5.46807 -6.8253,-11.98457 -3.7064,-6.51648 -6.7567,-11.86603 -6.7785,-11.88786 -0.035,-0.0351 -13.7665,23.87481 -13.7665,23.97069 0,0.0209 6.1778,0.0381 13.7283,0.0381 h 13.7284 z"
         style="fill:#000000;stroke-width:0.282223" /><path
         style="fill:#000000;stroke-width:0.214746"
         d="m -1635.3597,930.04344 h -1.6055 c -1.7414,0 -1.7108,0.004 -1.9292,-0.22633 -0.2254,-0.23728 -0.2321,-0.28875 -0.2311,-1.78135 0,-1.51256 0.01,-1.55943 0.2639,-1.79713 0.063,-0.0587 0.8419,-0.50661 1.7304,-0.99536 1.5051,-0.82794 1.6191,-0.88365 1.6687,-0.81585 0.029,0.0401 0.064,0.13264 0.078,0.20578 0.075,0.39989 -0.1573,0.67834 -0.9035,1.08294 -0.2926,0.15866 -0.4997,0.29548 -0.4997,0.33015 0,0.0513 0.3045,0.0618 2.2988,0.0792 2.4737,0.0215 2.4188,0.0165 2.5159,0.22961 0.094,0.20633 0.024,0.4291 -0.1691,0.53968 -0.057,0.0324 -0.3296,0.0574 -0.7676,0.0703 -0.6675,0.0195 -0.6799,0.0216 -0.6924,0.10994 l -0.013,0.09 h 0.9323 c 0.531,0 0.9977,0.0183 1.0843,0.0424 0.2987,0.083 0.3858,0.41696 0.166,0.637 l -0.1,0.0999 -1.1457,0.0199 -1.1457,0.0199 -0.029,0.10994 -0.029,0.10994 h 0.8261 c 0.7508,0 0.8379,0.007 0.955,0.0787 0.2294,0.13986 0.2288,0.50236 0,0.64253 -0.117,0.0713 -0.2065,0.0779 -1.0573,0.078 -0.7757,0 -0.9295,0.009 -0.9295,0.0568 0,0.0312 -0.011,0.0852 -0.024,0.11995 -0.021,0.0554 0.034,0.0632 0.4438,0.0632 h 0.4681 l 0.1359,0.13593 c 0.1588,0.15886 0.1749,0.29937 0.056,0.49375 -0.044,0.0714 -0.084,0.13367 -0.09,0.13826 -0.01,0.005 -0.4964,0.0181 -1.09,0.03 l -1.0795,0.0216 z m -1.0912,-1.5492 c 0,-0.7421 -0.01,-1.33131 -0.019,-1.30931 -0.031,0.0808 -0.6179,2.55441 -0.6179,2.60563 0,0.0396 0.081,0.053 0.3198,0.053 h 0.3199 v -1.34931 z m 0.9595,-0.04 c 0,-0.76412 -0.01,-1.37129 -0.018,-1.3493 -0.01,0.022 -0.1515,0.61568 -0.3185,1.31931 -0.1671,0.70362 -0.3132,1.31081 -0.3247,1.34931 -0.019,0.0628 0.014,0.07 0.3217,0.07 h 0.3425 z m 0.9595,-0.0199 c 0,-0.77511 -0.01,-1.39128 -0.018,-1.3693 -0.019,0.0507 -0.6581,2.72552 -0.6581,2.75598 0,0.0125 0.1529,0.0226 0.3399,0.0226 h 0.3398 v -1.40926 z m -0.4004,-0.6754 c 0.1779,-0.73976 0.3235,-1.36495 0.3235,-1.38927 0,-0.0289 -0.118,-0.0443 -0.3398,-0.0443 h -0.3398 v 1.40594 c 0,0.77327 0.01,1.39843 0.016,1.38927 0.01,-0.009 0.1619,-0.6219 0.3399,-1.36169 z m 0.9626,-0.069 c 0.1763,-0.73375 0.3205,-1.34094 0.3205,-1.34929 0,-0.008 -0.1529,-0.0151 -0.3398,-0.0151 h -0.3399 v 1.38929 c 0,0.76409 0.011,1.37128 0.019,1.34929 0.01,-0.022 0.1604,-0.64033 0.3367,-1.37409 z m -1.9373,0.1947 c 0.1447,-0.60468 0.2875,-1.20287 0.3174,-1.3293 l 0.054,-0.22989 h -0.3363 -0.3363 v 1.3693 c 0,0.75311 0.01,1.3513 0.019,1.3293 0.01,-0.022 0.1342,-0.53472 0.2789,-1.13941 z"
         id="path4028-5"
         inkscape:connector-curvature="0"
         sodipodi:nodetypes="cscscsccsssccsccccscccccscccscsccscsccccsscccccscscccccssccsssscscscssccsccccccccscc" /><g
         id="g54"
         transform="matrix(0.26458333,0,0,0.26458333,348.4254,887.45994)"><path
           id="path53"
           style="fill:none;stroke:#000000;stroke-width:0.571897;stroke-linejoin:round"
           d="m -7510.6276,135.10424 c -0.021,-7.71749 3.0144,-14.9875 8.1623,-20.37574"
           sodipodi:nodetypes="cc" /><rect
           style="fill:#1a1a1a;stroke:#000000;stroke-width:0.565441;stroke-linejoin:round"
           id="rect53"
           width="4.0723448"
           height="29.066853"
           x="-5206.3452"
           y="-5407.0405"
           inkscape:transform-center-x="12.437942"
           inkscape:transform-center-y="-8.424823"
           transform="rotate(-46.985815)" /><rect
           style="fill:#1a1a1a;stroke:#000000;stroke-width:0.565441;stroke-linejoin:round"
           id="rect53-6"
           width="4.0723562"
           height="13.42933"
           x="-139.40912"
           y="-7524.1045"
           inkscape:transform-center-x="14.841771"
           inkscape:transform-center-y="2.3249116"
           transform="rotate(-90)" /><rect
           style="fill:#1a1a1a;stroke:#000000;stroke-width:0.565441;stroke-linejoin:round"
           id="rect54"
           width="4.0723562"
           height="13.42933"
           x="-139.40912"
           y="-7480.4771"
           inkscape:transform-center-x="14.841604"
           inkscape:transform-center-y="2.3249116"
           transform="rotate(-90)" /></g></g></g></svg>
