<?xml version="1.0" encoding="UTF-8" standalone="no"?>
<svg
   sodipodi:docname="Safety Symbols.svg"
   inkscape:version="1.3.2 (091e20e, 2023-11-25, custom)"
   version="1.1"
   id="svg2"
   height="27.307959mm"
   width="30.885065mm"
   xml:space="preserve"
   xmlns:inkscape="http://www.inkscape.org/namespaces/inkscape"
   xmlns:sodipodi="http://sodipodi.sourceforge.net/DTD/sodipodi-0.dtd"
   xmlns="http://www.w3.org/2000/svg"
   xmlns:svg="http://www.w3.org/2000/svg"
   xmlns:rdf="http://www.w3.org/1999/02/22-rdf-syntax-ns#"
   xmlns:cc="http://creativecommons.org/ns#"
   xmlns:dc="http://purl.org/dc/elements/1.1/"><defs
     id="defs4" /><sodipodi:namedview
     inkscape:document-rotation="0"
     inkscape:snap-bbox-midpoints="true"
     showguides="true"
     inkscape:snap-bbox-edge-midpoints="true"
     inkscape:bbox-nodes="true"
     inkscape:bbox-paths="true"
     inkscape:snap-bbox="true"
     inkscape:snap-global="true"
     inkscape:window-maximized="1"
     inkscape:window-y="-8"
     inkscape:window-x="-8"
     inkscape:window-height="1009"
     inkscape:window-width="1920"
     showgrid="false"
     inkscape:current-layer="layer1"
     inkscape:document-units="px"
     inkscape:cy="-115.42969"
     inkscape:cx="-6697.0703"
     inkscape:zoom="2.56"
     inkscape:pageshadow="2"
     inkscape:pageopacity="0.0"
     borderopacity="1.0"
     bordercolor="#666666"
     pagecolor="#ffffff"
     id="base"
     inkscape:guide-bbox="true"
     inkscape:pagecheckerboard="true"
     fit-margin-top="0"
     fit-margin-left="0"
     fit-margin-right="0"
     fit-margin-bottom="0"
     inkscape:showpageshadow="2"
     inkscape:deskcolor="#d1d1d1"><inkscape:page
       x="0"
       y="0"
       width="116.73096"
       height="103.21118"
       id="page2"
       margin="0"
       bleed="0" /></sodipodi:namedview><metadata
     id="metadata7"><rdf:RDF><cc:Work
         rdf:about=""><dc:format>image/svg+xml</dc:format><dc:type
           rdf:resource="http://purl.org/dc/dcmitype/StillImage" /></cc:Work></rdf:RDF></metadata><g
     transform="translate(8236.693,-34.2538)"
     id="layer1"
     inkscape:groupmode="layer"
     inkscape:label="Layer 1"><path
       style="fill:#000000"
       d="m -8234.1556,137.1769 c -0.9407,-0.4105 -2.2064,-1.91 -2.3762,-2.815 -0.4204,-2.2408 -2.0213,0.7256 27.2675,-50.5267 20.918,-36.6041 27.4065,-47.7937 28.0681,-48.4033 1.708,-1.574 4.2425,-1.5708 5.7452,0.01 0.422,0.4431 12.6375,21.5591 28.0156,48.4285 29.2409,51.0913 27.732,48.3032 27.3225,50.4861 -0.1832,0.9766 -1.266,2.2165 -2.3759,2.7207 -0.8255,0.375 -3.1188,0.3909 -55.9417,0.3874 -44.9191,0 -55.1998,-0.056 -55.7251,-0.2849 z"
       id="path4661-7-1-48-5-7" /><path
       style="fill:#ffcc00"
       d="m -8129.9806,129.4759 c -0.1683,-0.2658 -11.0511,-19.375 -24.1841,-42.465 -13.1329,-23.0899 -23.9411,-42.045 -24.0182,-42.1224 -0.1239,-0.1243 -48.7789,84.5958 -48.7789,84.9356 0,0.074 21.8896,0.1349 48.6436,0.1349 h 48.6437 z"
       id="path26" /><path
       style="fill:#000000;stroke-width:0.151843"
       d="m -8196.2632,123.8685 c 0.1097,-0.0439 0.2406,-0.0385 0.291,0.012 0.051,0.0504 -0.039,0.0863 -0.1993,0.0798 -0.1768,-0.007 -0.2128,-0.0432 -0.092,-0.0917 z m 5.1532,0.003 c 0.1044,-0.0421 0.2752,-0.0421 0.3796,0 0.1044,0.0421 0.019,0.0766 -0.1898,0.0766 -0.2088,0 -0.2942,-0.0345 -0.1898,-0.0766 z m 10.7836,-5.1342 -0.041,-3.56449 -1.9517,1.93217 -1.9518,1.93217 -1.2749,-1.34737 c -0.7012,-0.74106 -1.2749,-1.40239 -1.2749,-1.46963 0,-0.0672 0.094,-0.21254 0.2076,-0.3229 0.1143,-0.11035 1.5833,-1.55467 3.2647,-3.2096 l 3.057,-3.00894 v -2.86055 -2.86055 l -0.6729,-0.39435 -0.6729,-0.39435 -2.4779,1.4307 c -1.5709,0.90702 -2.497,1.5324 -2.5302,1.70855 -0.1084,0.57497 -2.0074,8.61328 -2.0397,8.63371 -0.061,0.0384 -3.5944,-0.78133 -3.661,-0.84931 -0.036,-0.0364 0.2038,-1.22042 0.5322,-2.6311 0.3285,-1.41068 0.5693,-2.59288 0.535,-2.62712 -0.034,-0.0342 -1.3798,0.69671 -2.9902,1.62433 -1.6103,0.92762 -2.9977,1.69984 -3.083,1.71606 -0.1549,0.0294 -1.9102,-2.86784 -1.9165,-3.16329 0,-0.0858 1.3611,-0.93854 3.0288,-1.8951 1.6678,-0.95657 2.9831,-1.78112 2.9231,-1.83234 -0.06,-0.0512 -1.1684,-0.38742 -2.4628,-0.74711 -1.2945,-0.35969 -2.4305,-0.72909 -2.5244,-0.82087 -0.1262,-0.12327 -0.047,-0.59083 0.3036,-1.78935 0.261,-0.89236 0.5251,-1.67174 0.5868,-1.73194 0.062,-0.0602 2.1177,0.45518 4.5686,1.1453 l 4.4564,1.25476 2.4607,-1.41697 2.4607,-1.41696 -0.044,-0.83195 -0.044,-0.83195 -2.5499,-1.47041 -2.55,-1.47041 -1.7016,0.51677 c -0.9359,0.28422 -2.8974,0.88258 -4.3589,1.32969 -1.4615,0.4471 -2.7074,0.76823 -2.7687,0.71362 -0.136,-0.12111 -1.0232,-3.0311 -1.0257,-3.36376 0,-0.17534 0.6275,-0.43057 2.3898,-0.97019 1.3154,-0.40274 2.4763,-0.77634 2.5799,-0.83021 0.1083,-0.0563 -1.1011,-0.83814 -2.8446,-1.83892 -1.6682,-0.95752 -3.0341,-1.81656 -3.0354,-1.90897 0,-0.19355 1.4534,-2.77824 1.7187,-3.05043 0.1364,-0.14003 0.8685,0.2167 3.1989,1.55863 1.662,0.95711 3.0498,1.71231 3.0839,1.6782 0.034,-0.0341 -0.221,-1.16717 -0.5668,-2.51791 -0.3458,-1.35074 -0.5965,-2.54013 -0.557,-2.64308 0.1121,-0.29202 3.4608,-1.07562 3.6043,-0.84341 0.063,0.10255 0.6064,2.14049 1.2067,4.52875 l 1.0915,4.34229 2.5632,1.48048 c 1.4097,0.81425 2.6358,1.48046 2.7246,1.48046 0.1921,0 0.9424,-0.46257 1.089,-0.67139 0.057,-0.0808 0.1098,-1.43396 0.118,-3.00696 l 0.014,-2.86001 -0.6493,-0.6661 c -0.3572,-0.36636 -1.8452,-1.77569 -3.3066,-3.13184 -1.4616,-1.35616 -2.6765,-2.54223 -2.6998,-2.63571 -0.023,-0.0935 0.5247,-0.7768 1.218,-1.5185 l 1.2606,-1.34854 1.9707,1.84488 c 1.0838,1.01469 2.0225,1.8453 2.0859,1.8458 0.063,5e-4 0.1045,-1.58775 0.092,-3.52944 l -0.024,-3.53036 1.9203,-0.0425 1.9204,-0.0425 v 3.57286 c 0,1.96507 0.052,3.57285 0.1162,3.57285 0.064,0 0.9341,-0.81995 1.9336,-1.82212 0.9996,-1.00216 1.8945,-1.82211 1.9886,-1.82211 0.094,0 0.7414,0.59381 1.4382,1.31958 l 1.2668,1.31959 -3.3717,3.28937 -3.3717,3.28936 v 3.03607 3.03607 l 0.5776,0.2605 0.5777,0.2605 2.5351,-1.47407 c 2.3607,-1.37264 2.5448,-1.51174 2.6748,-2.0216 0.077,-0.30113 0.5311,-2.25576 1.0096,-4.34361 0.4784,-2.08784 0.9215,-3.85443 0.9846,-3.92574 0.092,-0.10471 2.1581,0.26737 3.3704,0.60711 0.3627,0.10163 0.3437,0.30542 -0.2657,2.85248 -0.2923,1.22172 -0.5314,2.3195 -0.5314,2.43949 0,0.14329 0.5861,-0.12513 1.7082,-0.78222 2.6892,-1.57485 4.3199,-2.48179 4.4622,-2.48174 0.1231,3e-5 1.7494,2.7511 1.846,3.12298 0.024,0.0946 -1.3225,0.95093 -2.9937,1.90299 -1.6711,0.95205 -3.0407,1.76979 -3.0436,1.81717 0,0.0474 1.0368,0.3802 2.3104,0.73959 1.2736,0.35939 2.4621,0.70908 2.6413,0.7771 l 0.3256,0.12366 -0.5125,1.77843 c -0.2819,0.97813 -0.5328,1.79865 -0.5575,1.82337 -0.024,0.0248 -2.0589,-0.52846 -4.5203,-1.22929 l -4.4753,-1.27426 -2.4642,1.39672 -2.4643,1.39672 v 0.83514 0.83514 l 2.5658,1.48803 2.5657,1.48804 4.2813,-1.29823 c 2.3546,-0.71403 4.3596,-1.29793 4.4554,-1.29757 0.2625,0.001 1.2569,3.49061 1.034,3.6284 -0.097,0.0602 -1.2724,0.44143 -2.6111,0.84716 -1.3386,0.40572 -2.3804,0.78823 -2.3152,0.85001 0.1,0.0947 2.9415,1.76364 5.3282,3.1295 0.3598,0.20592 0.6331,0.45682 0.6073,0.55754 -0.026,0.10072 -0.4227,0.84989 -0.882,1.66481 -0.5759,1.02183 -0.9058,1.46207 -1.0628,1.4185 -0.1253,-0.0347 -1.5261,-0.8171 -3.1128,-1.73858 -1.5868,-0.92147 -2.9051,-1.62168 -2.9294,-1.55602 -0.024,0.0657 0.2318,1.21798 0.5694,2.56073 0.3376,1.34275 0.6137,2.50067 0.6137,2.57316 0,0.12835 -3.038,0.95105 -3.4923,0.94575 -0.1712,-0.002 -0.5121,-1.12118 -1.3716,-4.50247 l -1.1439,-4.49982 -2.456,-1.41412 -2.4561,-1.41412 -0.6897,0.38548 -0.6896,0.38548 v 2.92138 2.9214 l 1.7006,1.58296 c 3.7346,3.47624 4.9059,4.586 4.936,4.67675 0.017,0.0522 -0.5354,0.70437 -1.2283,1.44925 -1.4784,1.58938 -1.0813,1.66793 -3.601,-0.71222 l -1.7314,-1.63554 -0.041,3.57154 -0.041,3.57155 h -1.9685 -1.9685 z"
       id="path25-1"
       sodipodi:nodetypes="sssssssssccccsssscccccsssssssssssssssscccccccssscssssssssssscsssscsssscssscccssssscccccccsssssssssssssscssscccccccssssssssssssssscccccccsssscccccc" /></g></svg>
