<?xml version="1.0" encoding="UTF-8" standalone="no"?>
<!-- Created with Inkscape (http://www.inkscape.org/) -->

<svg
   width="7.3390865mm"
   height="7.5051017mm"
   viewBox="0 0 7.3390863 7.5051015"
   version="1.1"
   id="svg5"
   inkscape:version="1.3.2 (091e20e, 2023-11-25, custom)"
   sodipodi:docname="UI design Amneal logo.svg"
   xml:space="preserve"
   xmlns:inkscape="http://www.inkscape.org/namespaces/inkscape"
   xmlns:sodipodi="http://sodipodi.sourceforge.net/DTD/sodipodi-0.dtd"
   xmlns="http://www.w3.org/2000/svg"
   xmlns:svg="http://www.w3.org/2000/svg"><sodipodi:namedview
     id="namedview7"
     pagecolor="#ffffff"
     bordercolor="#eeeeee"
     borderopacity="1"
     inkscape:pageshadow="0"
     inkscape:pageopacity="0"
     inkscape:pagecheckerboard="true"
     inkscape:document-units="mm"
     showgrid="false"
     inkscape:zoom="2.0000001"
     inkscape:cx="-5499.9998"
     inkscape:cy="632.24998"
     inkscape:window-width="1920"
     inkscape:window-height="1009"
     inkscape:window-x="-8"
     inkscape:window-y="-8"
     inkscape:window-maximized="1"
     fit-margin-top="10"
     lock-margins="true"
     fit-margin-left="10"
     fit-margin-right="10"
     fit-margin-bottom="10"
     inkscape:showpageshadow="2"
     inkscape:deskcolor="#d1d1d1"
     showguides="true"
     inkscape:current-layer="layer1"><inkscape:page
       x="-3.2661235e-14"
       y="0"
       width="7.3390865"
       height="7.5051017"
       id="page2"
       margin="0"
       bleed="0" /></sodipodi:namedview><defs
     id="defs2" /><g
     inkscape:label="Layer 1"
     inkscape:groupmode="layer"
     id="layer1"
     transform="translate(1394.9371,5.1044633)"><path
       d="m -1391.4809,-0.54433698 v -0.03332 c 0,-0.1655493 0.024,-0.3084527 0.071,-0.42871022 0.034,-0.090583 0.09,-0.1819479 0.1664,-0.2740934 0.056,-0.067156 0.1562,-0.1647682 0.3022,-0.2928349 0.1466,-0.1296282 0.242,-0.2327062 0.2858,-0.3092336 0.043,-0.076528 0.066,-0.1600836 0.066,-0.2506666 0,-0.1639876 -0.064,-0.3076719 -0.192,-0.4310529 -0.1288,-0.1249431 -0.285,-0.1874144 -0.471,-0.1874144 -0.1795,0 -0.3294,0.056224 -0.4497,0.168673 -0.1207,0.1124493 -0.1991,0.2881493 -0.2366,0.5271026 l -0.4334,-0.051539 c 0.039,-0.3201663 0.1545,-0.5653666 0.3468,-0.7356013 0.1936,-0.1702346 0.449,-0.2553521 0.766,-0.2553521 0.3357,0 0.6036,0.091364 0.8036,0.2740935 0.1998,0.182729 0.2998,0.4037217 0.2998,0.6629781 0,0.1499324 -0.036,0.2881496 -0.1047,0.4146542 -0.069,0.1265048 -0.2072,0.2803407 -0.4123,0.4615078 -0.1369,0.1218196 -0.2272,0.2116221 -0.2694,0.2694081 -0.042,0.057786 -0.072,0.12416222 -0.093,0.19912762 -0.021,0.074966 -0.032,0.1036006 -0.035,0.2722733 z m 0,0.9388918 v -0.4802492 h 0.4096 v 0.4802492 z"
       id="text1"
       style="font-size:2.97995px;line-height:1.25;font-family:Arial;-inkscape-font-specification:'Arial, Normal';fill:#f9f9f9;stroke:#f9f9f9;stroke-width:0.285791"
       aria-label="?"
       sodipodi:nodetypes="cscscsscsscccsssssssccccccc"
       inkscape:export-filename="C:\xampp\htdocs\sheener\img\topic.svg"
       inkscape:export-xdpi="348.73001"
       inkscape:export-ydpi="348.73001" /><ellipse
       style="opacity:1;fill:none;stroke:#f9f9f9;stroke-width:0.862868;stroke-linecap:round;stroke-linejoin:round;paint-order:stroke fill markers"
       id="path107"
       cx="-1391.2676"
       cy="-1.3519126"
       rx="3.2380955"
       ry="3.3211179" /></g></svg>
