<?xml version="1.0" encoding="UTF-8" standalone="no"?>
<!-- Created with Inkscape (http://www.inkscape.org/) -->

<svg
   width="88.562241mm"
   height="105.69591mm"
   viewBox="0 0 313.80322 374.51306"
   id="svg4734"
   version="1.1"
   inkscape:version="1.4.2 (f4327f4, 2025-05-13)"
   sodipodi:docname="waitIcon.svg"
   xml:space="preserve"
   xmlns:inkscape="http://www.inkscape.org/namespaces/inkscape"
   xmlns:sodipodi="http://sodipodi.sourceforge.net/DTD/sodipodi-0.dtd"
   xmlns="http://www.w3.org/2000/svg"
   xmlns:svg="http://www.w3.org/2000/svg"
   xmlns:rdf="http://www.w3.org/1999/02/22-rdf-syntax-ns#"
   xmlns:cc="http://creativecommons.org/ns#"
   xmlns:dc="http://purl.org/dc/elements/1.1/"><defs
     id="defs4736" /><sodipodi:namedview
     id="base"
     pagecolor="#ffffff"
     bordercolor="#666666"
     borderopacity="1.0"
     inkscape:pageopacity="0.0"
     inkscape:pageshadow="2"
     inkscape:zoom="1.0183516"
     inkscape:cx="25.040468"
     inkscape:cy="226.34619"
     inkscape:document-units="px"
     inkscape:current-layer="layer1"
     showgrid="false"
     showguides="true"
     inkscape:guide-bbox="true"
     inkscape:pagecheckerboard="0"
     fit-margin-top="10"
     lock-margins="true"
     fit-margin-left="10"
     fit-margin-right="10"
     fit-margin-bottom="10"
     inkscape:window-width="1920"
     inkscape:window-height="1009"
     inkscape:window-x="-8"
     inkscape:window-y="-8"
     inkscape:window-maximized="1"
     inkscape:showpageshadow="2"
     inkscape:deskcolor="#d1d1d1"><inkscape:page
       x="0"
       y="0"
       width="313.80322"
       height="374.51306"
       id="page7"
       margin="0"
       bleed="0" /><inkscape:page
       x="-299.80365"
       y="-713.45953"
       width="1369.861"
       height="544.99847"
       id="page8"
       margin="0"
       bleed="0" /></sodipodi:namedview><metadata
     id="metadata4739"><rdf:RDF><cc:Work
         rdf:about=""><dc:format>image/svg+xml</dc:format><dc:type
           rdf:resource="http://purl.org/dc/dcmitype/StillImage" /></cc:Work></rdf:RDF></metadata><g
     inkscape:label="Layer 1"
     inkscape:groupmode="layer"
     id="layer1"
     transform="translate(2573.8809,-3245.3036)"><path
       style="fill:#0d295a;fill-opacity:1"
       d="m -2559.2937,3618.0562 c -9.4097,-3.2501 -14.5822,-10.5977 -14.5872,-20.7213 -0.01,-12.9649 8.4838,-21.3804 22.4934,-22.2955 l 6.6838,-0.4366 0.6118,-10.4309 c 1.3924,-23.74 4.0695,-39.5204 9.4141,-55.4927 9.8496,-29.435 26.2472,-48.2384 53.5608,-61.4192 12.6315,-6.0956 16.327,-9.3526 16.327,-14.3897 0,-5.8025 -3.2501,-8.9134 -16.7206,-16.0042 -15.182,-7.9918 -21.6859,-12.7122 -30.6621,-22.254 -14.9029,-15.8419 -24.328,-36.6633 -28.9685,-63.996 -1.2978,-7.6447 -3.3076,-30.3495 -3.3281,-37.5991 l -0.01,-2.9115 -6.9221,-0.5235 c -14.2331,-1.0765 -22.4783,-9.2369 -22.4783,-22.2472 0,-9.1455 4.1101,-15.8014 12.5254,-20.2836 3.1597,-1.6829 8.5068,-1.7476 144.375,-1.7476 135.8682,0 141.2153,0.065 144.375,1.7476 8.4153,4.4822 12.5254,11.1381 12.5254,20.2836 0,13.0103 -8.2452,21.1707 -22.4784,22.2472 l -6.922,0.5235 -0.01,2.9115 c -0.021,7.2496 -2.0303,29.9544 -3.3282,37.5991 -4.6019,27.1058 -13.9913,47.9788 -28.637,63.6612 -8.9857,9.6218 -16.9197,15.4045 -31.038,22.6221 -13.2523,6.7748 -16.6761,9.9954 -16.6761,15.6864 0,5.3752 3.385,8.3593 17.162,15.1294 40.4981,19.9011 58.45,53.5448 62.1399,116.4567 l 0.6118,10.4309 6.6838,0.4366 c 14.0095,0.9151 22.4998,9.3306 22.4934,22.2955 0,7.1689 -2.2143,12.2206 -7.3037,16.6891 -6.9724,6.1219 1.0174,5.814 -150.0042,5.7803 -130.2725,-0.029 -137.1813,-0.1143 -141.9117,-1.7481 z m 61.0218,-51.4469 c 6.8612,-12.5099 16.035,-24.7842 27.2757,-36.4943 15.6883,-16.3433 35.547,-25.9206 47.9249,-28.4618 4.8655,-0.9988 6.3846,-0.9352 11.25,0.471 11.6641,3.3713 25.6637,14.4625 38.453,24.9115 14.0275,11.4607 30.4075,30.1896 37.5947,42.986 l 2.7023,4.8112 h 8.3394 8.3393 l -0.5506,-13.8282 c -1.1898,-29.8806 -7.8538,-52.385 -20.4179,-68.9515 -8.0367,-10.597 -14.5633,-15.1547 -35.8656,-25.0463 -6.4596,-2.9994 -14.7668,-11.0703 -18.5211,-17.994 -3.0883,-5.6956 -3.1985,-6.2541 -3.1985,-16.2113 0,-9.5061 0.2153,-10.7524 2.7525,-15.9375 4.3515,-8.8927 11.5071,-15.3171 24.0345,-21.5784 22.6106,-11.301 32.7168,-21.5885 41.763,-42.5123 5.7385,-13.2729 9.708,-35.236 9.7236,-53.7999 l 0.01,-9.1407 h -100.3125 -100.3125 v 9.1653 c 0,22.3092 4.9306,45.1132 13.2212,61.1472 7.9747,15.4232 18.0449,24.8088 36.9226,34.4125 14.0725,7.1592 20.9154,13.1721 25.385,22.3063 2.5138,5.1373 2.7524,6.4797 2.7524,15.4834 0,9.2376 -0.1929,10.2505 -3.0634,16.0862 -3.5711,7.2598 -11.6823,15.335 -18.6561,18.5732 -21.2545,9.8694 -28.0237,14.5933 -36.0188,25.1358 -12.4107,16.3652 -19.0763,39.0156 -20.2647,68.862 l -0.5506,13.8282 7.4018,-0.023 7.4018,-0.022 z m 76.5348,-84.5148 c -1.5072,-1.5072 -2.7404,-3.3858 -2.7404,-4.1747 0,-4.0826 4.0024,-8.085 8.085,-8.085 2.137,0 6.915,5.1822 6.915,7.5 0,1.1106 -1.2332,3.2525 -2.7404,4.7597 -1.5072,1.5072 -3.649,2.7404 -4.7596,2.7404 -1.1106,0 -3.2524,-1.2332 -4.7596,-2.7404 z m 1.3107,-28.3741 c -1.1235,-0.5431 -2.5697,-2.26 -3.2139,-3.8152 -1.4128,-3.4109 0.1096,-6.8706 3.979,-9.0425 4.3047,-2.4161 10.1838,1.658 10.1838,7.0571 0,2.0285 -5.1436,6.9275 -7.1935,6.8516 -0.942,-0.035 -2.632,-0.5078 -3.7554,-1.051 z m -0.1154,-33.2839 c -0.4821,-0.9325 -1.4008,-3.3829 -2.0417,-5.4454 -2.2596,-7.2715 -7.8681,-15.9333 -14.6546,-22.6326 -5.7395,-5.6658 -8.797,-7.7175 -19.8888,-13.3455 -14.6572,-7.4372 -21.6983,-13.0761 -27.4853,-22.0115 -2.9848,-4.6086 -9.2403,-18.7346 -9.2403,-20.8661 0,-1.085 31.8491,0.4094 41.5633,1.9503 5.0707,0.8043 18.9926,3.5407 30.9375,6.0808 29.4838,6.2699 35.511,6.9669 54.0617,6.2512 8.5078,-0.3282 17.1057,-0.8571 19.1065,-1.1754 l 3.6377,-0.5786 -2.6842,5.0387 c -1.4763,2.7713 -5.6539,8.0488 -9.2835,11.7278 -5.618,5.6945 -8.3388,7.5526 -18.2973,12.4962 -20.8554,10.3529 -30.1572,19.7719 -36.479,36.9384 -2.283,6.1994 -2.6795,6.7099 -5.4194,6.9779 -2.1033,0.2057 -3.2091,-0.2 -3.8326,-1.4062 z"
       id="path7"
       sodipodi:nodetypes="ccscscssccccccscscsscccscscscscssccccccsscccscccscscccccsccsscccsccccssssssscccsccccsccsccsccsscssc" /></g></svg>
