<?xml version="1.0" encoding="UTF-8" standalone="no"?>
<!-- Created with Inkscape (http://www.inkscape.org/) -->

<svg
   width="102.73727mm"
   height="62.591335mm"
   viewBox="0 0 102.73726 62.591334"
   version="1.1"
   id="svg5"
   inkscape:version="1.3.2 (091e20e, 2023-11-25, custom)"
   sodipodi:docname="UI design Amneal logo.svg"
   xml:space="preserve"
   xmlns:inkscape="http://www.inkscape.org/namespaces/inkscape"
   xmlns:sodipodi="http://sodipodi.sourceforge.net/DTD/sodipodi-0.dtd"
   xmlns:xlink="http://www.w3.org/1999/xlink"
   xmlns="http://www.w3.org/2000/svg"
   xmlns:svg="http://www.w3.org/2000/svg"><sodipodi:namedview
     id="namedview7"
     pagecolor="#ffffff"
     bordercolor="#eeeeee"
     borderopacity="1"
     inkscape:pageshadow="0"
     inkscape:pageopacity="0"
     inkscape:pagecheckerboard="true"
     inkscape:document-units="mm"
     showgrid="false"
     inkscape:zoom="0.70710678"
     inkscape:cx="-3835.3472"
     inkscape:cy="536.69405"
     inkscape:window-width="1920"
     inkscape:window-height="1017"
     inkscape:window-x="-8"
     inkscape:window-y="-8"
     inkscape:window-maximized="1"
     inkscape:current-layer="layer1"
     fit-margin-top="10"
     lock-margins="true"
     fit-margin-left="10"
     fit-margin-right="10"
     fit-margin-bottom="10"
     inkscape:showpageshadow="2"
     inkscape:deskcolor="#d1d1d1"
     showguides="true" /><defs
     id="defs2"><linearGradient
       id="linearGradient26"
       inkscape:collect="always"><stop
         style="stop-color:#ff7755;stop-opacity:1;"
         offset="0"
         id="stop25" /><stop
         style="stop-color:#5568ff;stop-opacity:1;"
         offset="1"
         id="stop26" /></linearGradient><linearGradient
       id="linearGradient40"
       inkscape:collect="always"><stop
         style="stop-color:#ff7b55;stop-opacity:1;"
         offset="0"
         id="stop40" /><stop
         style="stop-color:#5599ff;stop-opacity:1;"
         offset="1"
         id="stop41" /></linearGradient><linearGradient
       inkscape:collect="always"
       xlink:href="#linearGradient40"
       id="linearGradient41"
       x1="-1146.8749"
       y1="153.67586"
       x2="-1060.4476"
       y2="153.67586"
       gradientUnits="userSpaceOnUse" /><linearGradient
       inkscape:collect="always"
       xlink:href="#linearGradient40"
       id="linearGradient70"
       gradientUnits="userSpaceOnUse"
       gradientTransform="translate(-305.22744,-31.289488)"
       x1="-1146.8749"
       y1="153.67586"
       x2="-1060.4476"
       y2="153.67586" /><filter
       style="color-interpolation-filters:sRGB"
       inkscape:label="Drop Shadow"
       id="filter72"
       x="-0.039339422"
       y="-0.048584395"
       width="1.0671084"
       height="1.1174123"><feFlood
         result="flood"
         in="SourceGraphic"
         flood-opacity="0.498039"
         flood-color="rgb(0,0,0)"
         id="feFlood70" /><feGaussianBlur
         result="blur"
         in="SourceGraphic"
         stdDeviation="1.000000"
         id="feGaussianBlur70" /><feOffset
         result="offset"
         in="blur"
         dx="-1.000000"
         dy="1.000000"
         id="feOffset70" /><feComposite
         result="comp1"
         operator="in"
         in="flood"
         in2="offset"
         id="feComposite71" /><feComposite
         result="comp2"
         operator="over"
         in="SourceGraphic"
         in2="comp1"
         id="feComposite72" /></filter><linearGradient
       inkscape:collect="always"
       xlink:href="#linearGradient26"
       id="linearGradient25"
       gradientUnits="userSpaceOnUse"
       gradientTransform="translate(-305.22744,-31.289488)"
       x1="-1146.8749"
       y1="153.67586"
       x2="-1060.4476"
       y2="153.67586" /></defs><g
     inkscape:label="Layer 1"
     inkscape:groupmode="layer"
     id="layer1"
     transform="translate(1464.6307,-89.115398)"><path
       style="color:#000000;fill:url(#linearGradient41);stroke:none;stroke-linecap:round;stroke-linejoin:round;stroke-opacity:1;-inkscape-stroke:none;paint-order:stroke fill markers"
       sodipodi:type="inkscape:offset"
       inkscape:radius="0"
       inkscape:original="M -1017.7402 131.01562 C -1021.6536 131.01778 -1024.8398 134.17329 -1024.8398 138.05859 C -1024.8398 138.54382 -1024.7904 139.01706 -1024.6953 139.47461 C -1024.559 140.13118 -1024.836 140.87168 -1025.4414 141.16211 L -1031.9805 144.29883 C -1032.7072 144.64747 -1033.5426 144.31929 -1033.9727 143.63867 C -1035.6001 141.06388 -1038.5057 139.34963 -1041.8125 139.34961 C -1046.1019 139.34958 -1049.7189 142.23643 -1050.7422 146.14062 C -1050.8302 146.47762 -1051.1604 146.71925 -1051.5059 146.67383 L -1061.7637 145.32422 C -1062.1092 145.27882 -1062.3574 144.9616 -1062.3574 144.61328 C -1062.3574 140.90635 -1065.3982 137.89255 -1069.1309 137.89258 C -1072.3658 137.89261 -1075.0797 140.15556 -1075.7461 143.17188 C -1075.8211 143.512 -1076.1361 143.785 -1076.4844 143.77344 L -1086.627 143.4375 L -1086.6602 144.41602 L -1076.5312 144.75195 C -1076.1829 144.76355 -1075.8964 145.05448 -1075.8555 145.40039 C -1075.4606 148.73625 -1072.5947 151.332 -1069.1309 151.33203 C -1068.258 151.33204 -1067.4233 151.16548 -1066.6562 150.86523 C -1066.332 150.73826 -1065.9341 150.84939 -1065.752 151.14648 L -1061.334 158.34961 C -1061.1519 158.64666 -1061.2307 159.06058 -1061.4668 159.31641 C -1062.1347 160.04018 -1062.543 161.00573 -1062.543 162.06445 C -1062.543 164.30168 -1060.7177 166.12502 -1058.4805 166.125 C -1057.9949 166.12499 -1057.5297 166.0405 -1057.0977 165.88281 C -1056.3447 165.60788 -1055.357 165.5825 -1054.7539 166.11719 L -1052.0488 168.51367 C -1051.4457 169.04836 -1051.3662 170.01433 -1051.6094 170.7793 C -1051.7504 171.22275 -1051.8262 171.69621 -1051.8262 172.18555 C -1051.8262 174.75156 -1049.7359 176.84181 -1047.1699 176.8418 C -1045.2702 176.8418 -1043.6314 175.69479 -1042.9082 174.05859 C -1042.6376 173.4462 -1042.0245 172.8775 -1041.3535 172.85547 L -1025.7539 172.34375 C -1025.0829 172.32175 -1024.5008 172.84984 -1024.3516 173.50391 C -1023.4497 177.45656 -1019.9085 180.41405 -1015.6855 180.41406 C -1011.4854 180.4141 -1007.9609 177.48881 -1007.0352 173.56836 C -1006.8572 172.81422 -1006.1935 172.16436 -1005.418 172.14453 L -1000.2344 172.01367 L -1000.2578 171.0332 L -1005.4004 171.16602 C -1006.1759 171.18582 -1006.8157 170.56705 -1006.9648 169.80664 C -1007.7657 165.72141 -1011.3703 162.63276 -1015.6875 162.63281 C -1017.8127 162.63282 -1019.7628 163.381 -1021.293 164.62891 C -1021.8129 165.05293 -1022.5981 165.11023 -1023.1133 164.67969 L -1034.0215 155.56445 C -1034.64 155.04765 -1034.6754 154.16491 -1034.2129 153.50586 C -1033.1922 152.05148 -1032.5918 150.29261 -1032.5918 148.39453 C -1032.5918 148.0186 -1032.6161 147.64687 -1032.6621 147.2832 C -1032.7632 146.48448 -1032.3751 145.57536 -1031.6484 145.22656 L -1025.0176 142.04297 C -1024.4123 141.75242 -1023.6576 141.99869 -1023.2305 142.51562 C -1021.9268 144.0937 -1019.948 145.10353 -1017.7363 145.10352 C -1014.7152 145.10353 -1012.1284 143.22278 -1011.1035 140.57812 C -1010.8237 139.85599 -1010.1018 139.23261 -1009.3262 139.24219 L -1002.3164 139.32812 L -1002.3047 138.35156 L -1009.2324 138.26562 C -1010.008 138.25563 -1010.6109 137.68455 -1010.7227 137.00586 C -1011.2087 134.04978 -1013.7284 131.01773 -1017.7363 131.01562 L -1017.7402 131.01562 z M -1017.7363 131.99219 C -1014.3452 131.99218 -1011.6094 134.70592 -1011.6094 138.05859 C -1011.6094 141.41127 -1014.3452 144.12306 -1017.7363 144.12305 C -1021.1273 144.12306 -1023.8613 141.41127 -1023.8613 138.05859 C -1023.8613 134.70592 -1021.1273 131.99218 -1017.7363 131.99219 z M -1069.1309 138.87305 C -1065.9226 138.87303 -1063.3359 141.44009 -1063.3359 144.61328 C -1063.3359 147.78647 -1065.9226 150.35355 -1069.1309 150.35352 C -1072.3391 150.3535 -1074.9277 147.78644 -1074.9277 144.61328 C -1074.9277 141.44013 -1072.3391 138.87308 -1069.1309 138.87305 z M -1041.8125 140.32812 C -1037.2496 140.32815 -1033.5703 143.93982 -1033.5703 148.39453 C -1033.5703 152.84922 -1037.2496 156.45896 -1041.8125 156.45898 C -1046.3755 156.45901 -1050.0547 152.84926 -1050.0547 148.39453 C -1050.0547 143.93979 -1046.3755 140.3281 -1041.8125 140.32812 z M -1061.9277 146.29102 L -1051.6328 147.64453 C -1051.2873 147.68993 -1051.0332 148.00709 -1051.0352 148.35547 C -1051.0353 148.36797 -1051.0352 148.38203 -1051.0352 148.39453 C -1051.0352 153.38924 -1046.8939 157.43948 -1041.8125 157.43945 C -1040.0741 157.43944 -1038.448 156.96473 -1037.0586 156.14062 C -1036.3661 155.72985 -1035.3646 155.71956 -1034.7461 156.23633 L -1023.7422 165.42969 C -1023.227 165.86018 -1023.1443 166.64331 -1023.4688 167.23047 C -1023.956 168.11192 -1024.2968 169.08381 -1024.4609 170.11523 C -1024.5664 170.77779 -1025.1142 171.34321 -1025.7852 171.36523 L -1041.3086 171.875 C -1041.9796 171.897 -1042.5392 171.3581 -1042.75 170.72266 C -1043.3646 168.86949 -1045.1161 167.5293 -1047.1719 167.5293 C -1047.858 167.5293 -1048.5085 167.67717 -1049.0957 167.94531 C -1049.8259 168.27876 -1050.7973 168.31588 -1051.4004 167.78125 L -1054.0918 165.39453 C -1054.6949 164.8599 -1054.7694 163.89117 -1054.5605 163.11719 C -1054.4695 162.78123 -1054.4199 162.42843 -1054.4199 162.06445 C -1054.4199 159.82727 -1056.2433 158.00396 -1058.4805 158.00391 C -1058.861 158.00391 -1059.2305 158.05539 -1059.5801 158.1543 C -1059.9151 158.2491 -1060.3198 158.13298 -1060.502 157.83594 L -1064.9102 150.64453 C -1065.0924 150.34748 -1065.006 149.94772 -1064.7402 149.72266 C -1063.8327 148.95446 -1063.0451 147.97972 -1062.7324 146.8125 C -1062.6394 146.46387 -1062.2152 146.25324 -1061.9277 146.29102 z M -1058.4805 158.98242 C -1056.7724 158.98246 -1055.3984 160.35632 -1055.3984 162.06445 C -1055.3984 163.77258 -1056.7724 165.14645 -1058.4805 165.14648 C -1060.1887 165.14649 -1061.5645 163.77261 -1061.5645 162.06445 C -1061.5645 160.35629 -1060.1887 158.98241 -1058.4805 158.98242 z M -1015.6855 163.61328 C -1011.3105 163.61324 -1007.7734 167.14847 -1007.7734 171.52344 C -1007.7734 175.89841 -1011.3105 179.4356 -1015.6855 179.43555 C -1020.0604 179.43554 -1023.5957 175.89837 -1023.5957 171.52344 C -1023.5957 167.14851 -1020.0604 163.61329 -1015.6855 163.61328 z M -1047.1719 168.50781 C -1045.1349 168.5078 -1043.4922 170.14861 -1043.4922 172.18555 C -1043.4922 174.22249 -1045.1349 175.86134 -1047.1719 175.86133 C -1049.2088 175.86134 -1050.8496 174.22249 -1050.8496 172.18555 C -1050.8496 170.14861 -1049.2088 168.5078 -1047.1719 168.50781 z "
       xlink:href="#path4-6"
       id="path63"
       inkscape:href="#path4-6"
       d="m -1017.7402,131.01562 c -3.9134,0.002 -7.0996,3.15767 -7.0996,7.04297 0,0.48523 0.049,0.95847 0.1445,1.41602 0.1363,0.65657 -0.1407,1.39707 -0.7461,1.6875 l -6.5391,3.13672 c -0.7267,0.34864 -1.5621,0.0205 -1.9922,-0.66016 -1.6274,-2.57479 -4.533,-4.28904 -7.8398,-4.28906 -4.2894,-3e-5 -7.9064,2.88682 -8.9297,6.79101 -0.088,0.337 -0.4182,0.57863 -0.7637,0.53321 l -10.2578,-1.34961 c -0.3455,-0.0454 -0.5937,-0.36262 -0.5937,-0.71094 0,-3.70693 -3.0408,-6.72073 -6.7735,-6.7207 -3.2349,3e-5 -5.9488,2.26298 -6.6152,5.2793 -0.075,0.34012 -0.39,0.61312 -0.7383,0.60156 l -10.1426,-0.33594 -0.033,0.97852 10.129,0.33593 c 0.3483,0.0116 0.6348,0.30253 0.6757,0.64844 0.3949,3.33586 3.2608,5.93161 6.7246,5.93164 0.8729,1e-5 1.7076,-0.16655 2.4747,-0.4668 0.3242,-0.12697 0.7221,-0.0158 0.9042,0.28125 l 4.418,7.20313 c 0.1821,0.29705 0.1033,0.71097 -0.1328,0.9668 -0.6679,0.72377 -1.0762,1.68932 -1.0762,2.74804 0,2.23723 1.8253,4.06057 4.0625,4.06055 0.4856,-1e-5 0.9508,-0.0845 1.3828,-0.24219 0.753,-0.27493 1.7407,-0.30031 2.3438,0.23438 l 2.7051,2.39648 c 0.6031,0.53469 0.6826,1.50066 0.4394,2.26563 -0.141,0.44345 -0.2168,0.91691 -0.2168,1.40625 0,2.56601 2.0903,4.65626 4.6563,4.65625 1.8997,0 3.5385,-1.14701 4.2617,-2.78321 0.2706,-0.61239 0.8837,-1.18109 1.5547,-1.20312 l 15.5996,-0.51172 c 0.671,-0.022 1.2531,0.50609 1.4023,1.16016 0.9019,3.95265 4.4431,6.91014 8.6661,6.91015 4.2001,4e-5 7.7246,-2.92525 8.6503,-6.8457 0.178,-0.75414 0.8417,-1.404 1.6172,-1.42383 l 5.1836,-0.13086 -0.023,-0.98047 -5.1426,0.13282 c -0.7755,0.0198 -1.4153,-0.59897 -1.5644,-1.35938 -0.8009,-4.08523 -4.4055,-7.17388 -8.7227,-7.17383 -2.1252,1e-5 -4.0753,0.74819 -5.6055,1.9961 -0.5199,0.42402 -1.3051,0.48132 -1.8203,0.0508 l -10.9082,-9.11524 c -0.6185,-0.5168 -0.6539,-1.39954 -0.1914,-2.05859 1.0207,-1.45438 1.6211,-3.21325 1.6211,-5.11133 0,-0.37593 -0.024,-0.74766 -0.07,-1.11133 -0.1011,-0.79872 0.287,-1.70784 1.0137,-2.05664 l 6.6308,-3.18359 c 0.6053,-0.29055 1.36,-0.0443 1.7871,0.47265 1.3037,1.57808 3.2825,2.58791 5.4942,2.5879 3.0211,1e-5 5.6079,-1.88074 6.6328,-4.5254 0.2798,-0.72213 1.0017,-1.34551 1.7773,-1.33593 l 7.0098,0.0859 0.012,-0.97656 -6.9277,-0.0859 c -0.7756,-0.01 -1.3785,-0.58107 -1.4903,-1.25976 -0.486,-2.95608 -3.0057,-5.98813 -7.0136,-5.99024 z m 0,0.97657 c 3.3911,-1e-5 6.1269,2.71373 6.1269,6.0664 0,3.35268 -2.7358,6.06447 -6.1269,6.06446 -3.391,1e-5 -6.125,-2.71178 -6.125,-6.06446 0,-3.35267 2.734,-6.06641 6.125,-6.0664 z m -51.3946,6.88086 c 3.2083,-2e-5 5.795,2.56704 5.795,5.74023 0,3.17319 -2.5867,5.74027 -5.795,5.74024 -3.2082,-2e-5 -5.7968,-2.56708 -5.7968,-5.74024 0,-3.17315 2.5886,-5.7402 5.7968,-5.74023 z m 27.3184,1.45507 c 4.5629,3e-5 8.2422,3.6117 8.2422,8.06641 0,4.45469 -3.6793,8.06443 -8.2422,8.06445 -4.563,3e-5 -8.2422,-3.60972 -8.2422,-8.06445 0,-4.45474 3.6792,-8.06643 8.2422,-8.06641 z m -20.1152,5.9629 10.2949,1.35351 c 0.3455,0.0454 0.5996,0.36256 0.5976,0.71094 -10e-5,0.0125 0,0.0266 0,0.0391 0,4.99471 4.1413,9.04495 9.2227,9.04492 1.7384,-1e-5 3.3645,-0.47472 4.7539,-1.29883 0.6925,-0.41077 1.694,-0.42106 2.3125,0.0957 l 11.0039,9.19336 c 0.5152,0.43049 0.5979,1.21362 0.2734,1.80078 -0.4872,0.88145 -0.828,1.85334 -0.9921,2.88476 -0.1055,0.66256 -0.6533,1.22798 -1.3243,1.25 l -15.5234,0.50977 c -0.671,0.022 -1.2306,-0.5169 -1.4414,-1.15234 -0.6146,-1.85317 -2.3661,-3.19336 -4.4219,-3.19336 -0.6861,0 -1.3366,0.14787 -1.9238,0.41601 -0.7302,0.33345 -1.7016,0.37057 -2.3047,-0.16406 l -2.6914,-2.38672 c -0.6031,-0.53463 -0.6776,-1.50336 -0.4687,-2.27734 0.091,-0.33596 0.1406,-0.68876 0.1406,-1.05274 0,-2.23718 -1.8234,-4.06049 -4.0606,-4.06054 -0.3805,0 -0.75,0.0515 -1.0996,0.15039 -0.335,0.0948 -0.7397,-0.0213 -0.9219,-0.31836 l -4.4082,-7.19141 c -0.1822,-0.29705 -0.096,-0.69681 0.17,-0.92187 0.9075,-0.7682 1.6951,-1.74294 2.0078,-2.91016 0.093,-0.34863 0.5172,-0.55926 0.8047,-0.52148 z m 3.4472,12.6914 c 1.7081,4e-5 3.0821,1.3739 3.0821,3.08203 0,1.70813 -1.374,3.082 -3.0821,3.08203 -1.7082,1e-5 -3.084,-1.37387 -3.084,-3.08203 0,-1.70816 1.3758,-3.08204 3.084,-3.08203 z m 42.795,4.63086 c 4.375,-4e-5 7.9121,3.53519 7.9121,7.91016 0,4.37497 -3.5371,7.91216 -7.9121,7.91211 -4.3749,-1e-5 -7.9102,-3.53718 -7.9102,-7.91211 0,-4.37493 3.5353,-7.91015 7.9102,-7.91016 z m -31.4864,4.89453 c 2.037,-1e-5 3.6797,1.6408 3.6797,3.67774 0,2.03694 -1.6427,3.67579 -3.6797,3.67578 -2.0369,1e-5 -3.6777,-1.63884 -3.6777,-3.67578 0,-2.03694 1.6408,-3.67775 3.6777,-3.67774 z"
       transform="translate(-3.3214,6.25288)" /><path
       id="path25"
       style="fill:url(#linearGradient25);stroke-linecap:round;stroke-linejoin:round;paint-order:stroke fill markers;filter:url(#filter72)"
       transform="matrix(1.08733,0,0,1.08733,119.22177,-13.230562)"
       d="m -1383.1836,96.628906 c -4.4816,0.0037 -8.1564,3.637744 -8.1562,8.101564 0,0.55714 0.056,1.10237 0.166,1.63086 0.046,0.2212 -0.084,0.47917 -0.168,0.51953 l -6.5391,3.13672 c -0.2074,0.0995 -0.4554,0.0154 -0.6367,-0.27149 -1.8181,-2.8765 -5.0629,-4.78318 -8.7363,-4.7832 -4.6533,-3e-5 -8.5757,3.08087 -9.8262,7.29688 l -9.7226,-1.2793 c -0.1718,-4.13797 -3.5773,-7.47269 -7.7715,-7.47266 -3.6377,4e-5 -6.6844,2.50161 -7.5508,5.8711 l -9.9102,-0.32813 a 1.0596105,1.0596105 0 0 0 -1.0937,1.02539 l -0.031,0.97852 a 1.0596105,1.0596105 0 0 0 1.0235,1.09179 l 9.873,0.32813 c 0.587,3.72361 3.8004,6.58786 7.6914,6.58789 0.9162,1e-5 1.7816,-0.20073 2.5996,-0.49023 l 4.1954,6.83984 c -0.7741,0.89626 -1.2657,2.05332 -1.2657,3.32422 0,2.81351 2.3076,5.12112 5.1211,5.12109 0.6113,-1e-5 1.2011,-0.1077 1.7461,-0.30664 0.4924,-0.17977 1.1164,-0.11146 1.2774,0.0312 l 2.705,2.39649 c 0.1628,0.14429 0.2777,0.69878 0.1329,1.15429 -0.1735,0.54563 -0.2657,1.12586 -0.2657,1.72461 0,3.1414 2.5735,5.71486 5.7149,5.71485 2.3261,0 4.342,-1.40401 5.2304,-3.41407 0.1295,-0.29304 0.5267,-0.56916 0.6211,-0.57226 l 15.5996,-0.51172 c 0.096,-0.003 0.2902,0.14582 0.334,0.33789 1.0102,4.4273 4.9816,7.73241 9.6992,7.73242 4.6921,5e-5 8.6449,-3.26904 9.6817,-7.66016 0.074,-0.3131 0.4119,-0.60227 0.6133,-0.60742 l 5.1836,-0.13281 a 1.0596105,1.0596105 0 0 0 1.0312,-1.08398 l -0.023,-0.97852 a 1.0596105,1.0596105 0 0 0 -1.086,-1.0332 l -5.1425,0.13086 c -0.1977,0.005 -0.4382,-0.19861 -0.4981,-0.50391 -0.897,-4.57524 -4.9392,-8.02935 -9.7617,-8.0293 -2.3745,1e-5 -4.5647,0.84121 -6.2754,2.23633 -0.15,0.12233 -0.3962,0.11887 -0.4707,0.0566 l -10.9102,-9.11328 c -0.1774,-0.14823 -0.1951,-0.36149 0,-0.63672 1.1395,-1.6236 1.8125,-3.60115 1.8125,-5.72265 0,-0.42159 -0.027,-0.83739 -0.078,-1.24414 -0.046,-0.36423 0.2099,-0.86705 0.4218,-0.96875 l 6.6309,-3.1836 c 0.086,-0.0412 0.3668,0.0203 0.5098,0.19336 v -0.002 c 1.4979,1.81321 3.7783,2.97267 6.3125,2.97265 3.4608,2e-5 6.4403,-2.15423 7.6211,-5.20117 0.1322,-0.34121 0.5754,-0.66262 0.7753,-0.66015 l 7.0098,0.0879 a 1.0596105,1.0596105 0 0 0 1.0723,-1.04688 l 0.012,-0.97851 a 1.0596105,1.0596105 0 0 0 -1.0449,-1.07032 l -6.9278,-0.0859 c -0.2627,-0.003 -0.4309,-0.20307 -0.4589,-0.37305 -0.5623,-3.42 -3.518,-6.873385 -8.0586,-6.876954 z m 0.01,3.095703 c 2.8262,-8e-6 5.0664,2.229171 5.0664,5.005861 0,2.7767 -2.2402,5.00587 -5.0664,5.00586 -2.8262,1e-5 -5.0664,-2.22918 -5.0664,-5.00586 0,-2.77667 2.2402,-5.005869 5.0664,-5.005861 z m -51.3965,6.878911 c 2.6431,-2e-5 4.7383,2.08466 4.7383,4.68164 0,2.59697 -2.0952,4.68166 -4.7383,4.68164 -2.643,-2e-5 -4.7363,-2.08428 -4.7363,-4.68164 0,-2.59736 2.0933,-4.68162 4.7363,-4.68164 z m 27.3203,1.45703 c 4.0041,10e-6 7.1816,3.13422 7.1816,7.00586 0,3.87161 -3.1775,7.00584 -7.1816,7.00586 -4.0042,2e-5 -7.1836,-3.13451 -7.1836,-7.00586 0,-3.87137 3.1794,-7.00589 7.1836,-7.00586 z m -20.0332,5.98242 9.8066,1.28906 c 0.1529,5.45013 4.6775,9.83792 10.2266,9.83789 1.9313,-1e-5 3.7471,-0.52723 5.2949,-1.44531 0.3137,-0.18607 0.9105,-0.15541 1.0918,-0.004 l 11.0039,9.19336 c 0.073,0.0609 0.1201,0.30518 0.025,0.47656 -0.5455,0.98696 -0.9277,2.07625 -1.1113,3.23047 -0.031,0.19254 -0.2169,0.35429 -0.3125,0.35743 l -15.5235,0.50976 c -0.087,0.003 -0.3098,-0.15291 -0.4003,-0.42578 -0.7559,-2.27895 -2.9108,-3.91992 -5.4278,-3.91992 -0.8403,0 -1.6428,0.18466 -2.3633,0.51367 -0.4328,0.19765 -0.9988,0.14862 -1.1621,0.004 l -2.6914,-2.38477 c -0.1592,-0.14111 -0.2827,-0.71338 -0.1484,-1.21094 0.1142,-0.42212 0.1758,-0.86836 0.1758,-1.32812 0,-2.81347 -2.3083,-5.11908 -5.1211,-5.11914 -0.4223,0 -0.8277,0.0704 -1.2207,0.16797 L -1429.3047,117 c 0.8609,-0.76945 1.6156,-1.74812 2.0176,-2.95703 z m 3.3652,12.66992 c 1.14,3e-5 2.0235,0.88348 2.0235,2.02344 0,1.13996 -0.8835,2.02342 -2.0235,2.02344 -1.1401,0 -2.0254,-0.88419 -2.0254,-2.02344 0,-1.13926 0.8853,-2.02345 2.0254,-2.02344 z m 42.793,4.63086 c 3.8042,-3e-5 6.8555,3.04798 6.8555,6.85156 0,3.80358 -3.0516,6.85356 -6.8555,6.85352 -3.8038,-1e-5 -6.8516,-3.04937 -6.8516,-6.85352 0,-3.80415 3.0475,-6.85155 6.8516,-6.85156 z m -31.4844,4.89453 c 1.4681,-1e-5 2.6192,1.15117 2.6192,2.61914 0,1.46797 -1.1511,2.61915 -2.6192,2.61914 -1.4679,1e-5 -2.6191,-1.15117 -2.6191,-2.61914 0,-1.46797 1.1512,-2.61915 2.6191,-2.61914 z" /><path
       id="path4-6-5"
       style="color:#000000;fill:url(#linearGradient70);stroke:none;stroke-linecap:round;stroke-linejoin:round;stroke-opacity:1;-inkscape-stroke:none;paint-order:stroke fill markers;filter:url(#filter72)"
       d="m -1383.1785,97.687133 c -3.9152,1e-5 -7.1035,3.156347 -7.1035,7.042977 0,0.48523 0.05,0.95885 0.1451,1.4164 0.1363,0.65657 -0.1412,1.3982 -0.7466,1.68863 l -6.538,3.13667 c -0.7267,0.34864 -1.562,0.0205 -1.9921,-0.66012 -1.6274,-2.57479 -4.5342,-4.29068 -7.841,-4.2907 -4.2894,-3e-5 -7.9053,2.88708 -8.9286,6.79127 -0.088,0.337 -0.4181,0.57869 -0.7636,0.53327 l -10.2582,-1.3486 c -0.3455,-0.0454 -0.5946,-0.36385 -0.5946,-0.71217 v -1e-5 c 0,-3.70693 -3.041,-6.719 -6.7737,-6.71897 -3.2349,3e-5 -5.948,2.263 -6.6144,5.27931 -0.075,0.34012 -0.3889,0.61225 -0.7372,0.60069 l -10.1445,-0.33667 -0.033,0.97824 10.1295,0.33615 c 0.3483,0.0116 0.6342,0.30415 0.6751,0.65006 0.3949,3.33586 3.2608,5.93013 6.7246,5.93016 0.8729,1e-5 1.7075,-0.16584 2.4745,-0.46609 0.3243,-0.12697 0.7237,-0.0161 0.9058,0.28099 l 4.417,7.20235 c 0.1821,0.29705 0.1042,0.71111 -0.1319,0.96694 -0.6679,0.72377 -1.0772,1.68925 -1.0772,2.74797 0,2.23723 1.8251,4.06231 4.0623,4.06229 0.4856,-1e-5 0.9516,-0.0862 1.3836,-0.24389 0.753,-0.27493 1.7413,-0.30038 2.3444,0.23431 l 2.7036,2.39679 c 0.6031,0.53469 0.6832,1.50213 0.44,2.2671 -0.141,0.44345 -0.2172,0.91541 -0.2172,1.40475 0,2.56601 2.09,4.65606 4.656,4.65605 1.8997,0 3.5388,-1.14575 4.262,-2.78195 0.2706,-0.61239 0.8843,-1.1814 1.5553,-1.20343 l 15.5994,-0.51194 c 0.671,-0.022 1.2541,0.50611 1.4033,1.16018 0.9019,3.95265 4.4414,6.90952 8.6644,6.90953 4.2001,4e-5 7.7253,-2.92485 8.651,-6.8453 0.178,-0.75414 0.8417,-1.40283 1.6172,-1.42266 l 5.1846,-0.13256 -0.025,-0.97876 -5.1412,0.13111 c -0.7755,0.0198 -1.4152,-0.59766 -1.5643,-1.35807 -0.8009,-4.08523 -4.4053,-7.17516 -8.7225,-7.17511 -2.1252,1e-5 -4.0768,0.74958 -5.607,1.99749 -0.5199,0.42402 -1.3049,0.48074 -1.8201,0.0502 l -10.9087,-9.1146 c -0.6185,-0.5168 -0.6524,-1.39941 -0.1899,-2.05846 1.0207,-1.45438 1.6198,-3.21499 1.6198,-5.11307 0,-0.37593 -0.024,-0.74631 -0.07,-1.10998 -0.1011,-0.79872 0.2878,-1.70905 1.0145,-2.05785 l 6.6302,-3.18267 c 0.6053,-0.29055 1.3593,-0.0442 1.7864,0.47274 1.3037,1.57808 3.2825,2.58701 5.4942,2.587 3.0211,1e-5 5.6093,-1.881 6.6342,-4.52566 0.2798,-0.72214 1.0009,-1.34426 1.7765,-1.33468 l 7.0106,0.0865 0.012,-0.97823 -6.9285,-0.0859 c -0.7756,-0.01 -1.3776,-0.58127 -1.4894,-1.25996 -0.4862,-2.9571 -3.0091,-5.990097 -7.0194,-5.990097 z m 0,0.97824 c 3.3911,-1e-5 6.1267,2.712067 6.1267,6.064737 0,3.35268 -2.7356,6.06424 -6.1267,6.06423 -3.391,10e-6 -6.1252,-2.71155 -6.1252,-6.06423 0,-3.35267 2.7342,-6.064747 6.1252,-6.064737 z m -51.3948,6.879157 c 3.2083,-2e-5 5.795,2.56703 5.795,5.74022 0,3.17319 -2.5867,5.74025 -5.795,5.74022 -3.2082,-2e-5 -5.795,-2.56706 -5.795,-5.74022 0,-3.17315 2.5868,-5.74019 5.795,-5.74022 z m 27.3187,1.45676 c 4.5629,2e-5 8.2419,3.60992 8.2419,8.06463 0,4.45469 -3.679,8.0646 -8.2419,8.06462 -4.563,3e-5 -8.2424,-3.60989 -8.2424,-8.06462 0,-4.45474 3.6794,-8.06466 8.2424,-8.06463 z m -20.1142,5.96146 10.2954,1.35328 c 0.3455,0.0454 0.5997,0.36405 0.5977,0.71243 -10e-5,0.0125 -10e-5,0.025 -10e-5,0.0375 0,4.99471 4.1397,9.04495 9.2211,9.04492 1.7384,-10e-6 3.3654,-0.47487 4.7548,-1.29898 0.6925,-0.41077 1.693,-0.42097 2.3115,0.0958 l 11.0043,9.19423 c 0.5152,0.43049 0.5984,1.21276 0.2739,1.79992 -0.4872,0.88145 -0.8287,1.85421 -0.9928,2.88563 -0.1055,0.66256 -0.6528,1.22773 -1.3238,1.24975 l -15.5229,0.50937 c -0.671,0.022 -1.2316,-0.51538 -1.4424,-1.15082 -0.6146,-1.85317 -2.3646,-3.19508 -4.4204,-3.19508 -0.6861,0 -1.3382,0.14957 -1.9254,0.41771 -0.7302,0.33345 -1.7009,0.36896 -2.304,-0.16567 l -2.6909,-2.38511 c -0.6031,-0.53463 -0.6774,-1.50483 -0.4685,-2.27881 0.091,-0.33596 0.1391,-0.68893 0.1391,-1.05291 0,-2.23718 -1.8235,-4.06068 -4.0607,-4.06073 -0.3805,0 -0.7489,0.0533 -1.0985,0.15221 -0.335,0.0948 -0.739,-0.0225 -0.9212,-0.31954 l -4.4097,-7.19046 c -0.1822,-0.29705 -0.096,-0.69759 0.1698,-0.92265 0.9075,-0.7682 1.6953,-1.74249 2.008,-2.90971 0.093,-0.34863 0.5182,-0.56003 0.8057,-0.52225 z m 3.446,12.69115 c 1.7081,4e-5 3.082,1.37385 3.082,3.08198 0,1.70813 -1.3739,3.08196 -3.082,3.08199 -1.7082,1e-5 -3.084,-1.37383 -3.084,-3.08199 0,-1.70816 1.3758,-3.08199 3.084,-3.08198 z m 42.7948,4.63073 c 4.375,-4e-5 7.9122,3.53514 7.9122,7.91011 0,4.37497 -3.5372,7.91223 -7.9122,7.91218 -4.3749,-1e-5 -7.9101,-3.53725 -7.9101,-7.91218 0,-4.37493 3.5352,-7.9101 7.9101,-7.91011 z m -31.4844,4.89479 c 2.037,-1e-5 3.6778,1.64087 3.6778,3.67781 0,2.03694 -1.6408,3.6773 -3.6778,3.67729 -2.0369,1e-5 -3.6778,-1.64035 -3.6778,-3.67729 0,-2.03694 1.6409,-3.67782 3.6778,-3.67781 z"
       sodipodi:nodetypes="csccsccssccccsccssccssccsccccsccsccsccccssssssssssssscssscsssccccsccssccssssssssssssssssssssssssssssssssssssssssssssss"
       inkscape:export-filename="..\..\..\..\..\xampp\htdocs\Workflow\img\WKFlowHome.svg"
       inkscape:export-xdpi="210.04"
       inkscape:export-ydpi="210.04"
       transform="matrix(1.08733,0,0,1.08733,118.93408,-13.248542)" /></g></svg>
